<svg width="415" height="90" viewBox="0 0 415 90" fill="none" xmlns="http://www.w3.org/2000/svg">
<rect x="2" y="2" width="411" height="86" fill="#E11CD9" stroke="black" stroke-width="4"/>
<path d="M42.5359 62.637C40.8699 62.735 39.1549 62.686 37.4889 62.441C35.2349 62.098 32.9319 61.216 31.3149 59.648C29.9919 58.374 29.1589 56.659 28.6199 54.895C28.0319 52.739 27.8849 50.436 27.8849 48.182C27.8849 43.821 28.3749 39.46 29.5509 35.295C29.8939 33.972 30.3839 32.698 31.0699 31.522C32.1479 29.66 33.7159 27.945 35.6759 26.965C37.2929 26.083 39.2529 25.985 41.115 25.838C43.3689 25.691 45.7209 25.74 47.926 26.132C49.592 26.426 51.258 27.014 52.581 28.043C53.512 28.778 54.3449 29.856 54.7859 30.983C55.4719 32.551 55.521 34.413 55.129 36.03C54.541 38.431 52.9729 40.538 51.258 42.253C53.9039 43.184 56.109 45.83 56.8439 48.525C57.236 49.995 57.334 51.612 56.942 53.082C56.452 55.042 55.2269 56.708 53.9039 58.227C52.924 59.305 51.797 60.383 50.4739 61.02C48.073 62.196 45.231 62.441 42.5359 62.637ZM40.674 38.97C42.046 39.068 43.6629 38.823 44.79 37.941C45.2799 37.598 45.7209 37.108 45.8189 36.52C46.015 35.393 45.0349 34.168 43.957 33.825C43.3199 33.629 42.634 33.727 41.948 33.727C41.0659 35.295 40.5269 37.157 40.674 38.97ZM40.919 54.307C42.6829 54.405 44.741 53.964 46.113 52.788C47.828 51.318 46.652 48.623 44.3489 48.329C43.2219 48.182 42.046 48.182 40.919 48.329C40.919 48.378 40.8699 48.427 40.8699 48.427C40.674 49.652 40.576 50.926 40.6249 52.151C40.674 52.886 40.674 53.621 40.919 54.307ZM83.0107 62.245C81.3447 62.49 79.6787 62.588 78.0127 62.441C77.9147 62.441 77.5227 62.392 77.4737 62.392C75.0727 62.49 72.6227 62.147 70.4177 61.216C68.2127 60.285 66.3017 58.619 64.8807 56.708C63.2147 54.356 61.8427 51.71 61.3037 48.917C60.3727 44.556 60.2747 39.999 60.7647 35.54C61.0587 33.286 61.5487 30.885 62.9207 29.072C64.1457 27.406 66.0077 26.377 68.0167 26.23C69.7807 26.083 71.6427 27.161 72.8187 28.435C73.5047 29.121 73.9457 30.101 74.2397 31.032C74.8277 33.041 74.7297 35.197 74.5827 37.304C74.3867 40.391 73.9457 43.527 74.0927 46.614C74.1907 48.721 74.9257 50.828 76.0527 52.641C76.5427 53.425 77.5717 54.209 78.5517 54.111C78.6007 54.111 78.6987 54.111 78.7967 54.111C79.1887 54.209 79.8257 53.621 80.1197 53.327C80.6097 52.788 80.9527 52.151 81.2467 51.514C82.2757 49.554 82.6187 47.202 82.5697 44.948C82.5207 42.008 82.0797 39.068 81.9817 36.079C81.8837 33.972 81.9817 31.669 82.9617 29.758C83.8927 27.945 85.9507 26.475 87.9597 26.328C89.5767 26.181 91.2917 26.867 92.5657 27.945C93.4477 28.68 94.1337 29.66 94.6237 30.689C95.3587 32.404 95.7017 34.315 95.9467 36.177C96.3387 39.901 96.2407 43.723 95.6527 47.447C95.0157 51.563 93.0557 55.728 90.0667 58.717C88.2047 60.579 85.6077 61.853 83.0107 62.245ZM118.181 61.069C116.172 62.588 112.301 62.686 110.292 61.167C108.724 59.893 108.038 57.443 108.185 55.434C108.332 53.033 109.361 50.73 109.557 48.329C107.058 46.614 104.608 44.752 102.55 42.547C101.521 41.42 100.639 40.195 100.002 38.823C99.0218 36.814 98.5318 34.462 98.7278 32.208C98.8258 30.934 99.1688 29.611 99.9038 28.582C100.688 27.504 102.011 26.867 103.285 26.573C104.559 26.279 106.029 26.524 107.205 27.161C108.283 27.7 109.165 28.582 109.851 29.562C112.007 32.502 112.252 36.569 114.31 39.558C114.359 39.607 114.604 39.656 114.653 39.705C115.143 39.803 115.731 39.558 116.074 39.166C116.466 38.774 116.809 38.235 117.103 37.696C118.573 34.952 118.818 31.669 120.484 29.023C120.876 28.386 121.415 27.798 122.052 27.406C122.591 27.063 123.228 26.916 123.865 26.769C124.404 26.622 124.943 26.475 125.531 26.426C128.814 25.887 131.313 28.827 131.705 32.159C131.901 33.482 131.852 34.903 131.46 36.177C131.166 37.206 130.627 38.186 130.235 39.166C129.206 41.665 127.54 43.919 125.482 45.683C123.767 47.104 121.758 48.28 119.651 48.819C120.386 51.612 120.925 54.699 120.239 57.541C119.896 58.815 119.259 60.236 118.181 61.069Z" fill="#D9E3EA"/>
<path d="M163.313 67.635C161.892 68.272 159.442 67.684 158.413 66.508C158.119 66.165 157.972 65.675 157.923 65.283C157.825 64.352 158.021 63.421 158.266 62.49C156.796 62.539 155.277 62.441 153.807 62.098C152.582 61.853 151.455 61.216 150.426 60.432C149.005 59.403 147.731 57.933 147.241 56.218C146.408 53.425 147.29 49.848 149.985 48.868C151.504 48.28 153.268 48.574 154.787 49.064C155.179 49.211 157.482 50.191 157.874 50.289C158.511 50.436 159.197 50.534 159.785 50.289C160.128 50.142 160.226 49.75 159.981 49.456C159.687 49.211 158.266 48.672 157.874 48.525C155.718 47.741 153.415 47.104 151.406 45.879C150.132 45.095 149.103 43.723 148.564 42.253C147.927 40.489 147.731 38.48 148.025 36.618C148.319 35.001 149.103 33.384 150.132 32.061C150.573 31.571 150.916 30.983 151.406 30.493C153.219 28.582 155.767 27.063 158.413 26.622C158.021 25.593 157.678 24.368 158.07 23.29C158.56 22.016 160.667 20.938 162.039 20.987C162.774 20.987 163.558 21.281 164.097 21.771C164.636 22.31 164.93 23.094 165.028 23.829C165.126 24.711 165.077 25.642 164.881 26.524C166.351 26.72 167.821 27.21 169.046 27.994C169.879 28.582 170.663 29.317 171.251 30.15C172.819 32.257 173.848 35.736 171.937 37.549C170.81 38.627 169.291 39.362 167.723 39.46C165.518 39.607 163.313 38.823 161.157 39.215C160.716 39.313 159.883 39.509 159.785 39.901C159.687 40.195 160.079 40.636 160.324 40.832C160.912 41.273 163.999 42.792 164.636 43.135C166.89 44.262 169.193 45.585 170.761 47.545C171.888 48.966 172.574 50.877 172.476 52.69C172.378 55.189 171.3 57.541 169.438 59.256C168.164 60.432 166.498 61.167 164.832 61.657C165.126 62.735 165.322 63.911 165.224 65.038C165.077 66.214 164.391 67.145 163.313 67.635ZM203.401 61.51C202.421 61.951 201.245 62 200.216 61.804C198.942 61.559 197.717 60.824 196.688 60.04C195.12 58.815 193.846 57.247 192.621 55.679C190.857 53.425 189.436 50.877 188.162 48.329C188.064 51.416 188.015 54.552 187.329 57.59C187.035 58.815 186.545 60.138 185.663 61.02C185.173 61.461 184.585 61.755 183.948 61.853C180.91 62.392 178.656 59.256 178.019 56.218C177.529 53.817 177.676 51.318 177.578 48.819C177.529 47.055 177.676 37.206 177.774 35.442C177.872 33.678 178.117 31.914 178.803 30.346C179.391 28.974 180.322 27.651 181.645 26.916C182.87 26.279 184.585 26.23 185.859 26.818C187.378 27.455 188.652 28.582 189.632 29.905C191.445 32.208 192.866 34.805 194.238 37.402C195.218 39.313 196.198 41.175 197.129 43.086C197.031 40.195 197.129 37.304 197.472 34.462C197.619 32.992 198.011 31.571 198.599 30.248C199.089 29.17 199.824 28.092 200.755 27.406C201.735 26.622 203.205 26.23 204.43 26.573C205.214 26.818 205.9 27.357 206.439 27.994C207.909 29.856 208.595 32.306 208.889 34.658C209.575 39.607 209.379 44.703 208.84 49.701C208.595 52.2 208.301 54.797 207.37 57.1C206.586 58.913 205.214 60.677 203.401 61.51ZM230.46 62.441C227.863 62.686 225.168 62.294 222.718 61.461C219.827 60.481 217.23 58.227 215.564 55.679C214.878 54.601 214.192 53.474 213.8 52.249C212.771 49.211 212.771 45.879 213.114 42.743C213.506 39.215 215.074 35.736 217.181 32.796C218.651 30.787 220.562 28.925 222.767 27.651C224.776 26.426 227.226 25.789 229.578 25.789C231.881 25.838 234.184 26.23 236.34 26.916C238.496 27.651 240.358 29.415 241.681 31.277C242.71 32.698 243.396 34.462 243.788 36.226C244.376 38.725 244.523 41.273 244.474 43.821C244.376 47.692 243.347 51.71 241.338 54.993C240.162 57.051 238.496 58.962 236.487 60.236C234.723 61.412 232.616 62.196 230.46 62.441ZM228.255 50.485C229.872 51.367 231.636 50.093 232.518 48.525C233.792 46.369 234.184 43.625 233.792 41.175C233.596 39.999 233.204 38.823 232.469 37.843C232.077 37.304 231.44 36.765 230.754 36.618C230.068 36.422 229.284 36.618 228.696 37.059C225.903 38.921 225.119 44.262 226.148 47.447C226.54 48.623 227.177 49.897 228.255 50.485ZM258.685 61.755C257.166 62.343 255.255 62.294 253.736 61.608C252.119 60.873 250.796 59.452 249.914 57.982C248.64 55.826 248.248 53.131 248.101 50.632C247.954 47.398 248.199 44.115 248.64 40.881C248.983 38.039 249.473 35.246 250.306 32.551C250.404 32.306 250.649 31.424 250.894 31.228C251.237 30.346 251.923 29.562 252.707 28.925C254.079 27.798 255.696 26.916 257.411 26.524C260.645 25.838 264.075 25.74 267.309 26.377C270.837 27.063 274.561 28.729 276.864 31.571C277.942 32.894 278.726 34.511 279.02 36.177C279.314 38.039 278.922 40.048 278.04 41.665C277.452 42.841 276.619 43.968 275.59 44.85C274.61 45.732 273.434 46.369 272.307 47.006C274.12 48.672 276.374 49.652 278.432 50.975C279.265 51.514 280 52.298 280.441 53.229C281.666 55.826 280.294 59.256 277.746 60.628C276.717 61.216 275.345 61.363 274.169 61.216C272.552 61.02 271.033 60.236 269.661 59.354C266.623 57.296 264.418 54.111 262.507 51.024C262.899 53.033 262.948 55.189 262.458 57.149C262.115 58.374 261.576 59.55 260.694 60.432C260.155 61.02 259.469 61.461 258.685 61.755ZM263.83 41.763C265.153 42.302 267.26 41.665 268.142 40.538C268.583 39.95 268.779 39.117 268.632 38.431C268.387 37.206 267.26 36.226 266.182 35.687C265.594 35.442 264.908 35.246 264.271 35.393C262.556 35.883 261.87 38.382 262.066 40.195C262.507 40.832 263.095 41.469 263.83 41.763ZM288.591 62.49C286.092 62.931 284.475 60.285 283.985 57.835C283.74 56.512 283.642 55.189 283.691 53.866C283.887 49.848 284.671 45.83 285.651 41.91C286.092 39.999 286.582 38.137 287.219 36.275C287.562 35.197 289.424 30.052 290.012 29.072C290.061 28.974 290.257 28.925 290.306 28.827C290.747 28.239 291.237 27.651 291.825 27.21C292.903 26.426 294.275 25.936 295.598 25.887C295.794 25.887 296.431 25.789 296.578 25.887C296.676 25.985 297.264 26.034 297.411 26.083C297.901 26.23 298.391 26.573 298.783 26.916C299.42 27.602 299.861 28.484 300.302 29.366C301.331 31.522 302.066 33.776 302.703 36.079C303.389 38.382 303.977 40.685 304.565 42.988C304.663 42.743 305.3 41.224 305.447 40.979C306.966 37.402 308.681 33.923 310.739 30.64C312.16 28.386 315.345 25.985 317.844 26.916C321.519 28.19 322.94 36.324 323.626 40.146C323.773 41.028 324.753 46.418 324.9 47.3C325.39 50.142 325.733 53.033 325.439 55.875C325.292 57.688 324.704 59.697 323.381 61.02C322.499 61.853 320.931 62.294 319.755 61.902C318.579 61.461 317.599 60.383 317.011 59.256C315.1 55.728 314.12 51.661 313.091 47.741C312.405 49.407 311.67 51.024 310.886 52.641C309.955 54.552 308.926 56.414 307.505 57.982C306.868 58.619 306.084 59.158 305.202 59.354C304.565 59.501 303.879 59.403 303.242 59.158C302.36 58.717 301.527 57.982 300.939 57.149C299.077 54.503 298.048 51.318 296.97 48.231C296.137 50.975 295.304 53.768 294.226 56.414C293.344 58.521 291.923 60.53 290.061 61.804C289.62 62.147 289.13 62.392 288.591 62.49ZM343.42 61.951C341.509 62.049 339.647 62.196 337.736 62.147C336.021 62.098 334.257 62 332.591 61.461C331.709 61.167 330.827 60.677 330.239 59.942C329.651 59.207 329.357 58.276 329.308 57.345C329.259 55.287 330.288 52.004 332.248 51.318C333.571 50.828 335.09 50.779 336.511 50.877C336.021 46.908 336.07 42.841 336.609 38.921C334.992 39.313 333.032 39.215 331.611 38.382C330.729 37.843 330.043 37.059 329.553 36.177C328.573 34.56 328.377 32.355 328.867 30.493C329.357 28.778 330.68 27.112 332.297 26.426C334.012 25.74 335.972 25.789 337.785 25.887C338.128 25.887 340.235 25.642 340.578 25.642C341.46 25.593 346.507 25.593 347.34 25.642C349.104 25.691 351.064 25.936 352.485 26.916C353.171 27.406 353.71 28.043 354.102 28.729C355.866 31.963 354.641 36.52 351.603 38.578C350.77 39.166 349.692 39.411 348.663 39.509C349.202 42.792 349.202 46.222 348.614 49.554C349.692 49.603 350.77 49.75 351.75 50.191C352.485 50.534 353.22 51.073 353.71 51.759C354.837 53.229 355.425 55.287 355.229 57.149C355.082 58.57 354.249 60.04 353.122 60.824C351.995 61.608 350.525 61.853 349.153 61.951C347.242 62.049 345.331 61.804 343.42 61.951ZM378.137 62.098C374.952 62.245 371.767 62.245 368.631 61.706C366.622 61.363 364.613 60.579 363.094 59.256C360.791 57.247 359.272 54.16 358.831 51.073C358.292 47.839 358.439 44.458 358.929 41.175C359.321 38.235 359.958 35.295 361.281 32.649C362.114 31.081 363.241 29.611 364.564 28.386C365.348 27.651 366.23 27.014 367.259 26.671C368.386 26.23 369.66 26.279 370.836 26.034C372.698 25.691 374.609 25.691 376.471 25.593C379.411 25.397 382.547 25.495 385.144 26.818C385.781 27.161 386.369 27.7 386.81 28.337C387.3 29.121 387.545 30.052 387.594 31.032C387.79 33.972 385.83 36.863 382.89 36.814C382.057 36.814 381.175 36.618 380.391 36.373C378.872 35.981 377.353 35.491 375.785 35.295C374.511 35.197 373.09 35.344 372.061 36.128C371.62 36.471 371.277 37.059 371.277 37.647C371.326 38.137 371.865 38.137 372.355 38.088C373.874 37.892 375.295 37.353 376.814 37.206C377.745 37.108 378.725 37.059 379.607 37.353C380.391 37.696 381.126 38.333 381.469 39.117C381.91 40.195 382.057 41.371 381.959 42.498C381.91 43.576 381.616 44.752 380.93 45.585C380.489 46.173 379.901 46.614 379.215 46.908C378.48 47.202 377.696 47.251 376.863 47.3C375.638 47.349 372.11 46.81 371.228 47.692C370.297 48.574 371.522 49.946 372.796 50.24C374.07 50.485 375.442 50.142 376.716 49.848C378.578 49.456 380.538 48.966 382.4 49.309C383.87 49.505 385.389 50.338 386.173 51.514C386.81 52.494 386.957 53.817 386.712 54.944C386.271 57.1 385.095 59.305 383.38 60.677C381.959 61.804 379.95 62.049 378.137 62.098Z" fill="black"/>
</svg>
