<svg width="508" height="37" viewBox="0 0 508 37" fill="none" xmlns="http://www.w3.org/2000/svg">
<path d="M12.812 31.544C10.456 32.266 7.72001 32.076 5.40201 31.164C2.97001 30.138 1.07001 27.592 0.842008 24.932C0.728008 23.488 1.41201 21.816 2.51401 20.866C3.23601 20.258 4.37601 20.03 5.28801 20.182C6.61801 20.448 7.72001 21.322 8.89801 21.854C9.27801 22.044 9.65801 22.158 10.076 22.12C10.494 22.044 10.95 21.778 11.216 21.436C11.558 20.942 11.71 20.296 11.748 19.726C11.9 17.826 11.634 15.964 11.444 14.102C10.57 14.33 9.73401 14.672 8.82201 14.862C7.45401 15.166 5.97201 15.242 4.52801 15.09C3.46401 14.938 2.32401 14.444 1.64001 13.57C0.804008 12.506 0.462008 10.986 0.538008 9.618C0.614008 8.63 0.918008 7.68 1.41201 6.806C1.86801 6.008 2.62801 5.362 3.50201 4.944C4.37601 4.488 5.44001 4.336 6.46601 4.26C8.67001 4.108 10.912 4.146 13.154 4.26C13.23 4.26 13.648 4.146 13.724 4.146C14.75 3.918 15.852 3.804 16.878 3.918C17.752 4.032 18.588 4.412 19.272 4.982C20.07 5.704 20.564 6.806 20.716 7.87C20.868 8.706 20.792 9.542 20.602 10.34C20.336 11.442 19.652 12.392 19.424 13.494C19.196 14.444 19.462 15.432 19.576 16.42C20.07 19.954 19.766 23.868 18.17 27.06C17.144 29.15 15.054 30.86 12.812 31.544ZM36.7743 32.342C34.7603 32.532 32.6703 32.228 30.7703 31.582C28.5283 30.822 26.5143 29.074 25.2223 27.098C24.6903 26.262 24.1583 25.388 23.8543 24.438C23.0563 22.082 23.0563 19.498 23.3223 17.066C23.6263 14.33 24.8423 11.632 26.4763 9.352C27.6163 7.794 29.0983 6.35 30.8083 5.362C32.3663 4.412 34.2663 3.918 36.0903 3.918C37.8763 3.956 39.6623 4.26 41.3343 4.792C43.0063 5.362 44.4503 6.73 45.4763 8.174C46.2743 9.276 46.8063 10.644 47.1103 12.012C47.5663 13.95 47.6803 15.926 47.6423 17.902C47.5663 20.904 46.7683 24.02 45.2103 26.566C44.2983 28.162 43.0063 29.644 41.4483 30.632C40.0803 31.544 38.4463 32.152 36.7743 32.342ZM35.0643 23.07C36.3183 23.754 37.6863 22.766 38.3703 21.55C39.3583 19.878 39.6623 17.75 39.3583 15.85C39.2063 14.938 38.9023 14.026 38.3323 13.266C38.0283 12.848 37.5343 12.43 37.0023 12.316C36.4703 12.164 35.8623 12.316 35.4063 12.658C33.2403 14.102 32.6323 18.244 33.4303 20.714C33.7343 21.626 34.2283 22.614 35.0643 23.07ZM61.4755 31.962C59.9935 32.038 58.5495 32.152 57.0675 32.114C55.7375 32.076 54.3695 32 53.0775 31.582C52.3935 31.354 51.7095 30.974 51.2535 30.404C50.7975 29.834 50.5695 29.112 50.5315 28.39C50.4935 26.794 51.2915 24.248 52.8115 23.716C53.8375 23.336 55.0155 23.298 56.1175 23.374C55.7375 20.296 55.7755 17.142 56.1935 14.102C54.9395 14.406 53.4195 14.33 52.3175 13.684C51.6335 13.266 51.1015 12.658 50.7215 11.974C49.9615 10.72 49.8095 9.01 50.1895 7.566C50.5695 6.236 51.5955 4.944 52.8495 4.412C54.1795 3.88 55.6995 3.918 57.1055 3.994C57.3715 3.994 59.0055 3.804 59.2715 3.804C59.9555 3.766 63.8695 3.766 64.5155 3.804C65.8835 3.842 67.4035 4.032 68.5055 4.792C69.0375 5.172 69.4555 5.666 69.7595 6.198C71.1275 8.706 70.1775 12.24 67.8215 13.836C67.1755 14.292 66.3395 14.482 65.5415 14.558C65.9595 17.104 65.9595 19.764 65.5035 22.348C66.3395 22.386 67.1755 22.5 67.9355 22.842C68.5055 23.108 69.0755 23.526 69.4555 24.058C70.3295 25.198 70.7855 26.794 70.6335 28.238C70.5195 29.34 69.8735 30.48 68.9995 31.088C68.1255 31.696 66.9855 31.886 65.9215 31.962C64.4395 32.038 62.9575 31.848 61.4755 31.962ZM93.7571 31.62C92.9971 31.962 92.0851 32 91.2871 31.848C90.2991 31.658 89.3491 31.088 88.5511 30.48C87.3351 29.53 86.3471 28.314 85.3971 27.098C84.0291 25.35 82.9271 23.374 81.9391 21.398C81.8631 23.792 81.8251 26.224 81.2931 28.58C81.0651 29.53 80.6851 30.556 80.0011 31.24C79.6211 31.582 79.1651 31.81 78.6711 31.886C76.3151 32.304 74.5671 29.872 74.0731 27.516C73.6931 25.654 73.8071 23.716 73.7311 21.778C73.6931 20.41 73.8071 12.772 73.8831 11.404C73.9591 10.036 74.1491 8.668 74.6811 7.452C75.1371 6.388 75.8591 5.362 76.8851 4.792C77.8351 4.298 79.1651 4.26 80.1531 4.716C81.3311 5.21 82.3191 6.084 83.0791 7.11C84.4851 8.896 85.5871 10.91 86.6511 12.924C87.4111 14.406 88.1711 15.85 88.8931 17.332C88.8171 15.09 88.8931 12.848 89.1591 10.644C89.2731 9.504 89.5771 8.402 90.0331 7.376C90.4131 6.54 90.9831 5.704 91.7051 5.172C92.4651 4.564 93.6051 4.26 94.5551 4.526C95.1631 4.716 95.6951 5.134 96.1131 5.628C97.2531 7.072 97.7851 8.972 98.0131 10.796C98.5451 14.634 98.3931 18.586 97.9751 22.462C97.7851 24.4 97.5571 26.414 96.8351 28.2C96.2271 29.606 95.1631 30.974 93.7571 31.62ZM124.735 29.264C123.899 30.898 122.265 31.886 120.479 31.886C119.225 31.848 117.933 31.164 117.097 30.214C116.299 29.264 115.805 28.086 115.463 26.946C115.045 25.388 114.855 23.754 114.893 22.12C114.969 19.422 115.349 16.724 115.805 14.064C114.931 14.064 114.019 13.988 113.221 13.684C112.309 13.342 111.511 12.772 110.865 12.088C109.421 10.568 109.649 7.68 110.941 6.046C111.511 5.324 112.309 4.792 113.145 4.488C113.677 4.336 114.209 4.26 114.741 4.26C116.109 4.184 117.477 4.298 118.845 4.298C119.149 4.298 119.453 4.26 119.757 4.26C119.795 4.26 119.947 4.336 119.985 4.336C121.581 4.26 123.177 4.146 124.773 4.146C125.799 4.184 126.825 4.336 127.699 4.792C129.561 5.818 130.511 7.984 130.093 9.998C129.827 11.214 128.877 12.278 127.851 12.886C127.053 13.342 126.065 13.57 125.115 13.57C125.419 17.294 126.027 20.98 125.875 24.704C125.799 26.262 125.457 27.858 124.735 29.264ZM139.504 32.038C138.744 32.266 137.908 32.342 137.11 32.304C135.97 32.228 134.716 31.962 133.88 31.202C133.462 30.822 133.12 30.328 132.93 29.796C132.702 29.15 132.702 28.428 132.702 27.744C132.74 26.11 133.196 24.514 133.5 22.918C133.804 21.132 134.032 19.308 133.804 17.522C133.538 15.166 132.17 13 132.094 10.644C132.056 9.58 132.284 8.478 132.74 7.528C133.196 6.616 133.842 5.742 134.716 5.21C135.97 4.45 137.68 4.184 139.086 4.602C139.656 4.754 140.112 5.134 140.53 5.552C141.29 6.312 141.86 7.3 142.05 8.326C142.468 10.758 141.86 13.228 141.632 15.66C142.202 15.888 142.886 15.926 143.532 15.888C144.596 15.85 145.622 15.622 146.686 15.394C146.648 14.33 146.344 13.304 146.192 12.24C146.04 11.328 146.116 10.416 146.268 9.542C146.496 7.984 147.332 6.426 148.548 5.438C149.992 4.298 152.576 4.336 153.982 5.552C154.59 6.046 155.046 6.768 155.274 7.49C155.616 8.478 155.692 9.542 155.616 10.53C155.464 12.506 154.818 14.406 154.476 16.306C154.172 17.94 154.058 19.65 154.286 21.246C154.514 22.918 155.16 24.438 155.502 26.072C155.73 27.212 155.692 28.466 155.274 29.568C155.046 30.138 154.704 30.67 154.248 31.05C153.716 31.468 153.07 31.734 152.386 31.886C151.398 32.076 150.372 31.962 149.384 31.772C148.624 31.62 147.788 31.43 147.142 30.974C146.686 30.67 146.306 30.214 146.116 29.682C145.774 28.846 145.66 27.896 145.66 26.946C145.66 25.502 146.078 24.096 146.534 22.728C145.014 22.462 143.456 22.272 141.974 22.614C142.392 24.286 142.772 26.034 142.658 27.782C142.62 28.884 142.164 29.986 141.404 30.784C140.91 31.354 140.226 31.81 139.504 32.038ZM173.862 32.076C171.392 32.19 168.922 32.19 166.49 31.772C164.932 31.506 163.374 30.898 162.196 29.872C160.41 28.314 159.232 25.92 158.89 23.526C158.472 21.018 158.586 18.396 158.966 15.85C159.27 13.57 159.764 11.29 160.79 9.238C161.436 8.022 162.31 6.882 163.336 5.932C163.944 5.362 164.628 4.868 165.426 4.602C166.3 4.26 167.288 4.298 168.2 4.108C169.644 3.842 171.126 3.842 172.57 3.766C174.85 3.614 177.282 3.69 179.296 4.716C179.79 4.982 180.246 5.4 180.588 5.894C180.968 6.502 181.158 7.224 181.196 7.984C181.348 10.264 179.828 12.506 177.548 12.468C176.902 12.468 176.218 12.316 175.61 12.126C174.432 11.822 173.254 11.442 172.038 11.29C171.05 11.214 169.948 11.328 169.15 11.936C168.808 12.202 168.542 12.658 168.542 13.114C168.58 13.494 168.998 13.494 169.378 13.456C170.556 13.304 171.658 12.886 172.836 12.772C173.558 12.696 174.318 12.658 175.002 12.886C175.61 13.152 176.18 13.646 176.446 14.254C176.788 15.09 176.902 16.002 176.826 16.876C176.788 17.712 176.56 18.624 176.028 19.27C175.686 19.726 175.23 20.068 174.698 20.296C174.128 20.524 173.52 20.562 172.874 20.6C171.924 20.638 169.188 20.22 168.504 20.904C167.782 21.588 168.732 22.652 169.72 22.88C170.708 23.07 171.772 22.804 172.76 22.576C174.204 22.272 175.724 21.892 177.168 22.158C178.308 22.31 179.486 22.956 180.094 23.868C180.588 24.628 180.702 25.654 180.512 26.528C180.17 28.2 179.258 29.91 177.928 30.974C176.826 31.848 175.268 32.038 173.862 32.076Z" fill="#E11CD9"/>
<path d="M206.133 36.37C205.031 36.864 203.131 36.408 202.333 35.496C202.105 35.23 201.991 34.85 201.953 34.546C201.877 33.824 202.029 33.102 202.219 32.38C201.079 32.418 199.901 32.342 198.761 32.076C197.811 31.886 196.937 31.392 196.139 30.784C195.037 29.986 194.049 28.846 193.669 27.516C193.023 25.35 193.707 22.576 195.797 21.816C196.975 21.36 198.343 21.588 199.521 21.968C199.825 22.082 201.611 22.842 201.915 22.918C202.409 23.032 202.941 23.108 203.397 22.918C203.663 22.804 203.739 22.5 203.549 22.272C203.321 22.082 202.219 21.664 201.915 21.55C200.243 20.942 198.457 20.448 196.899 19.498C195.911 18.89 195.113 17.826 194.695 16.686C194.201 15.318 194.049 13.76 194.277 12.316C194.505 11.062 195.113 9.808 195.911 8.782C196.253 8.402 196.519 7.946 196.899 7.566C198.305 6.084 200.281 4.906 202.333 4.564C202.029 3.766 201.763 2.816 202.067 1.98C202.447 0.991998 204.081 0.155998 205.145 0.194C205.715 0.194 206.323 0.421999 206.741 0.801998C207.159 1.22 207.387 1.828 207.463 2.398C207.539 3.082 207.501 3.804 207.349 4.488C208.489 4.64 209.629 5.02 210.579 5.628C211.225 6.084 211.833 6.654 212.289 7.3C213.505 8.934 214.303 11.632 212.821 13.038C211.947 13.874 210.769 14.444 209.553 14.52C207.843 14.634 206.133 14.026 204.461 14.33C204.119 14.406 203.473 14.558 203.397 14.862C203.321 15.09 203.625 15.432 203.815 15.584C204.271 15.926 206.665 17.104 207.159 17.37C208.907 18.244 210.693 19.27 211.909 20.79C212.783 21.892 213.315 23.374 213.239 24.78C213.163 26.718 212.327 28.542 210.883 29.872C209.895 30.784 208.603 31.354 207.311 31.734C207.539 32.57 207.691 33.482 207.615 34.356C207.501 35.268 206.969 35.99 206.133 36.37ZM237.222 31.62C236.462 31.962 235.55 32 234.752 31.848C233.764 31.658 232.814 31.088 232.016 30.48C230.8 29.53 229.812 28.314 228.862 27.098C227.494 25.35 226.392 23.374 225.404 21.398C225.328 23.792 225.29 26.224 224.758 28.58C224.53 29.53 224.15 30.556 223.466 31.24C223.086 31.582 222.63 31.81 222.136 31.886C219.78 32.304 218.032 29.872 217.538 27.516C217.158 25.654 217.272 23.716 217.196 21.778C217.158 20.41 217.272 12.772 217.348 11.404C217.424 10.036 217.614 8.668 218.146 7.452C218.602 6.388 219.324 5.362 220.35 4.792C221.3 4.298 222.63 4.26 223.618 4.716C224.796 5.21 225.784 6.084 226.544 7.11C227.95 8.896 229.052 10.91 230.116 12.924C230.876 14.406 231.636 15.85 232.358 17.332C232.282 15.09 232.358 12.848 232.624 10.644C232.738 9.504 233.042 8.402 233.498 7.376C233.878 6.54 234.448 5.704 235.17 5.172C235.93 4.564 237.07 4.26 238.02 4.526C238.628 4.716 239.16 5.134 239.578 5.628C240.718 7.072 241.25 8.972 241.478 10.796C242.01 14.634 241.858 18.586 241.44 22.462C241.25 24.4 241.022 26.414 240.3 28.2C239.692 29.606 238.628 30.974 237.222 31.62ZM258.206 32.342C256.192 32.532 254.102 32.228 252.202 31.582C249.96 30.822 247.946 29.074 246.654 27.098C246.122 26.262 245.59 25.388 245.286 24.438C244.488 22.082 244.488 19.498 244.754 17.066C245.058 14.33 246.274 11.632 247.908 9.352C249.048 7.794 250.53 6.35 252.24 5.362C253.798 4.412 255.698 3.918 257.522 3.918C259.308 3.956 261.094 4.26 262.766 4.792C264.438 5.362 265.882 6.73 266.908 8.174C267.706 9.276 268.238 10.644 268.542 12.012C268.998 13.95 269.112 15.926 269.074 17.902C268.998 20.904 268.2 24.02 266.642 26.566C265.73 28.162 264.438 29.644 262.88 30.632C261.512 31.544 259.878 32.152 258.206 32.342ZM256.496 23.07C257.75 23.754 259.118 22.766 259.802 21.55C260.79 19.878 261.094 17.75 260.79 15.85C260.638 14.938 260.334 14.026 259.764 13.266C259.46 12.848 258.966 12.43 258.434 12.316C257.902 12.164 257.294 12.316 256.838 12.658C254.672 14.102 254.064 18.244 254.862 20.714C255.166 21.626 255.66 22.614 256.496 23.07ZM280.095 31.81C278.917 32.266 277.435 32.228 276.257 31.696C275.003 31.126 273.977 30.024 273.293 28.884C272.305 27.212 272.001 25.122 271.887 23.184C271.773 20.676 271.963 18.13 272.305 15.622C272.571 13.418 272.951 11.252 273.597 9.162C273.673 8.972 273.863 8.288 274.053 8.136C274.319 7.452 274.851 6.844 275.459 6.35C276.523 5.476 277.777 4.792 279.107 4.488C281.615 3.956 284.275 3.88 286.783 4.374C289.519 4.906 292.407 6.198 294.193 8.402C295.029 9.428 295.637 10.682 295.865 11.974C296.093 13.418 295.789 14.976 295.105 16.23C294.649 17.142 294.003 18.016 293.205 18.7C292.445 19.384 291.533 19.878 290.659 20.372C292.065 21.664 293.813 22.424 295.409 23.45C296.055 23.868 296.625 24.476 296.967 25.198C297.917 27.212 296.853 29.872 294.877 30.936C294.079 31.392 293.015 31.506 292.103 31.392C290.849 31.24 289.671 30.632 288.607 29.948C286.251 28.352 284.541 25.882 283.059 23.488C283.363 25.046 283.401 26.718 283.021 28.238C282.755 29.188 282.337 30.1 281.653 30.784C281.235 31.24 280.703 31.582 280.095 31.81ZM284.085 16.306C285.111 16.724 286.745 16.23 287.429 15.356C287.771 14.9 287.923 14.254 287.809 13.722C287.619 12.772 286.745 12.012 285.909 11.594C285.453 11.404 284.921 11.252 284.427 11.366C283.097 11.746 282.565 13.684 282.717 15.09C283.059 15.584 283.515 16.078 284.085 16.306ZM303.288 32.38C301.35 32.722 300.096 30.67 299.716 28.77C299.526 27.744 299.45 26.718 299.488 25.692C299.64 22.576 300.248 19.46 301.008 16.42C301.35 14.938 301.73 13.494 302.224 12.05C302.49 11.214 303.934 7.224 304.39 6.464C304.428 6.388 304.58 6.35 304.618 6.274C304.96 5.818 305.34 5.362 305.796 5.02C306.632 4.412 307.696 4.032 308.722 3.994C308.874 3.994 309.368 3.918 309.482 3.994C309.558 4.07 310.014 4.108 310.128 4.146C310.508 4.26 310.888 4.526 311.192 4.792C311.686 5.324 312.028 6.008 312.37 6.692C313.168 8.364 313.738 10.112 314.232 11.898C314.764 13.684 315.22 15.47 315.676 17.256C315.752 17.066 316.246 15.888 316.36 15.698C317.538 12.924 318.868 10.226 320.464 7.68C321.566 5.932 324.036 4.07 325.974 4.792C328.824 5.78 329.926 12.088 330.458 15.052C330.572 15.736 331.332 19.916 331.446 20.6C331.826 22.804 332.092 25.046 331.864 27.25C331.75 28.656 331.294 30.214 330.268 31.24C329.584 31.886 328.368 32.228 327.456 31.924C326.544 31.582 325.784 30.746 325.328 29.872C323.846 27.136 323.086 23.982 322.288 20.942C321.756 22.234 321.186 23.488 320.578 24.742C319.856 26.224 319.058 27.668 317.956 28.884C317.462 29.378 316.854 29.796 316.17 29.948C315.676 30.062 315.144 29.986 314.65 29.796C313.966 29.454 313.32 28.884 312.864 28.238C311.42 26.186 310.622 23.716 309.786 21.322C309.14 23.45 308.494 25.616 307.658 27.668C306.974 29.302 305.872 30.86 304.428 31.848C304.086 32.114 303.706 32.304 303.288 32.38ZM345.807 31.962C344.325 32.038 342.881 32.152 341.399 32.114C340.069 32.076 338.701 32 337.409 31.582C336.725 31.354 336.041 30.974 335.585 30.404C335.129 29.834 334.901 29.112 334.863 28.39C334.825 26.794 335.623 24.248 337.143 23.716C338.169 23.336 339.347 23.298 340.449 23.374C340.069 20.296 340.107 17.142 340.525 14.102C339.271 14.406 337.751 14.33 336.649 13.684C335.965 13.266 335.433 12.658 335.053 11.974C334.293 10.72 334.141 9.01 334.521 7.566C334.901 6.236 335.927 4.944 337.181 4.412C338.511 3.88 340.031 3.918 341.437 3.994C341.703 3.994 343.337 3.804 343.603 3.804C344.287 3.766 348.201 3.766 348.847 3.804C350.215 3.842 351.735 4.032 352.837 4.792C353.369 5.172 353.787 5.666 354.091 6.198C355.459 8.706 354.509 12.24 352.153 13.836C351.507 14.292 350.671 14.482 349.873 14.558C350.291 17.104 350.291 19.764 349.835 22.348C350.671 22.386 351.507 22.5 352.267 22.842C352.837 23.108 353.407 23.526 353.787 24.058C354.661 25.198 355.117 26.794 354.965 28.238C354.851 29.34 354.205 30.48 353.331 31.088C352.457 31.696 351.317 31.886 350.253 31.962C348.771 32.038 347.289 31.848 345.807 31.962ZM372.731 32.076C370.261 32.19 367.791 32.19 365.359 31.772C363.801 31.506 362.243 30.898 361.065 29.872C359.279 28.314 358.101 25.92 357.759 23.526C357.341 21.018 357.455 18.396 357.835 15.85C358.139 13.57 358.633 11.29 359.659 9.238C360.305 8.022 361.179 6.882 362.205 5.932C362.813 5.362 363.497 4.868 364.295 4.602C365.169 4.26 366.157 4.298 367.069 4.108C368.513 3.842 369.995 3.842 371.439 3.766C373.719 3.614 376.151 3.69 378.165 4.716C378.659 4.982 379.115 5.4 379.457 5.894C379.837 6.502 380.027 7.224 380.065 7.984C380.217 10.264 378.697 12.506 376.417 12.468C375.771 12.468 375.087 12.316 374.479 12.126C373.301 11.822 372.123 11.442 370.907 11.29C369.919 11.214 368.817 11.328 368.019 11.936C367.677 12.202 367.411 12.658 367.411 13.114C367.449 13.494 367.867 13.494 368.247 13.456C369.425 13.304 370.527 12.886 371.705 12.772C372.427 12.696 373.187 12.658 373.871 12.886C374.479 13.152 375.049 13.646 375.315 14.254C375.657 15.09 375.771 16.002 375.695 16.876C375.657 17.712 375.429 18.624 374.897 19.27C374.555 19.726 374.099 20.068 373.567 20.296C372.997 20.524 372.389 20.562 371.743 20.6C370.793 20.638 368.057 20.22 367.373 20.904C366.651 21.588 367.601 22.652 368.589 22.88C369.577 23.07 370.641 22.804 371.629 22.576C373.073 22.272 374.593 21.892 376.037 22.158C377.177 22.31 378.355 22.956 378.963 23.868C379.457 24.628 379.571 25.654 379.381 26.528C379.039 28.2 378.127 29.91 376.797 30.974C375.695 31.848 374.137 32.038 372.731 32.076ZM397.63 31.43C396.984 31.848 396.224 32.038 395.502 32.038C394.704 32.076 393.868 31.848 393.26 31.354C392.31 30.594 391.74 29.34 391.588 28.162C391.284 25.806 391.816 23.374 392.386 21.094C393.526 16.762 395.464 12.544 398.086 8.934C398.96 7.718 400.062 6.578 401.24 5.59C401.772 5.172 402.418 4.754 403.102 4.602C404.128 4.374 405.192 4.336 406.218 4.526C407.814 4.792 409.334 5.628 410.512 6.692C412.26 8.364 413.514 10.53 414.616 12.696C415.68 14.824 416.44 17.142 417.01 19.498C417.504 21.778 417.808 24.172 417.542 26.49C417.314 28.238 416.212 30.1 414.692 31.05C413.286 31.886 411.462 32.19 409.904 31.81C409.296 31.658 408.688 31.354 408.232 30.936C407.586 30.366 407.13 29.568 406.788 28.77C406.142 27.326 405.8 25.768 405.686 24.21C404.28 24.324 402.874 24.4 401.468 24.362C400.974 25.882 400.518 27.44 399.758 28.846C399.264 29.834 398.58 30.822 397.63 31.43ZM403.862 13.19C402.722 14.596 402.152 16.382 401.848 18.168C402.38 18.13 405.306 17.826 405.8 17.75C405.686 16.838 405.648 15.888 405.534 14.976C405.458 14.216 405.268 13.456 404.926 12.81C404.85 12.658 404.584 12.658 404.432 12.696C404.204 12.772 404.014 13 403.862 13.19ZM428.421 31.81C427.243 32.266 425.761 32.228 424.583 31.696C423.329 31.126 422.303 30.024 421.619 28.884C420.631 27.212 420.327 25.122 420.213 23.184C420.099 20.676 420.289 18.13 420.631 15.622C420.897 13.418 421.277 11.252 421.923 9.162C421.999 8.972 422.189 8.288 422.379 8.136C422.645 7.452 423.177 6.844 423.785 6.35C424.849 5.476 426.103 4.792 427.433 4.488C429.941 3.956 432.601 3.88 435.109 4.374C437.845 4.906 440.733 6.198 442.519 8.402C443.355 9.428 443.963 10.682 444.191 11.974C444.419 13.418 444.115 14.976 443.431 16.23C442.975 17.142 442.329 18.016 441.531 18.7C440.771 19.384 439.859 19.878 438.985 20.372C440.391 21.664 442.139 22.424 443.735 23.45C444.381 23.868 444.951 24.476 445.293 25.198C446.243 27.212 445.179 29.872 443.203 30.936C442.405 31.392 441.341 31.506 440.429 31.392C439.175 31.24 437.997 30.632 436.933 29.948C434.577 28.352 432.867 25.882 431.385 23.488C431.689 25.046 431.727 26.718 431.347 28.238C431.081 29.188 430.663 30.1 429.979 30.784C429.561 31.24 429.029 31.582 428.421 31.81ZM432.411 16.306C433.437 16.724 435.071 16.23 435.755 15.356C436.097 14.9 436.249 14.254 436.135 13.722C435.945 12.772 435.071 12.012 434.235 11.594C433.779 11.404 433.247 11.252 432.753 11.366C431.423 11.746 430.891 13.684 431.043 15.09C431.385 15.584 431.841 16.078 432.411 16.306ZM451.614 32.38C449.676 32.722 448.422 30.67 448.042 28.77C447.852 27.744 447.776 26.718 447.814 25.692C447.966 22.576 448.574 19.46 449.334 16.42C449.676 14.938 450.056 13.494 450.55 12.05C450.816 11.214 452.26 7.224 452.716 6.464C452.754 6.388 452.906 6.35 452.944 6.274C453.286 5.818 453.666 5.362 454.122 5.02C454.958 4.412 456.022 4.032 457.048 3.994C457.2 3.994 457.694 3.918 457.808 3.994C457.884 4.07 458.34 4.108 458.454 4.146C458.834 4.26 459.214 4.526 459.518 4.792C460.012 5.324 460.354 6.008 460.696 6.692C461.494 8.364 462.064 10.112 462.558 11.898C463.09 13.684 463.546 15.47 464.002 17.256C464.078 17.066 464.572 15.888 464.686 15.698C465.864 12.924 467.194 10.226 468.79 7.68C469.892 5.932 472.362 4.07 474.3 4.792C477.15 5.78 478.252 12.088 478.784 15.052C478.898 15.736 479.658 19.916 479.772 20.6C480.152 22.804 480.418 25.046 480.19 27.25C480.076 28.656 479.62 30.214 478.594 31.24C477.91 31.886 476.694 32.228 475.782 31.924C474.87 31.582 474.11 30.746 473.654 29.872C472.172 27.136 471.412 23.982 470.614 20.942C470.082 22.234 469.512 23.488 468.904 24.742C468.182 26.224 467.384 27.668 466.282 28.884C465.788 29.378 465.18 29.796 464.496 29.948C464.002 30.062 463.47 29.986 462.976 29.796C462.292 29.454 461.646 28.884 461.19 28.238C459.746 26.186 458.948 23.716 458.112 21.322C457.466 23.45 456.82 25.616 455.984 27.668C455.3 29.302 454.198 30.86 452.754 31.848C452.412 32.114 452.032 32.304 451.614 32.38ZM496.656 31.278C495.098 32.456 492.096 32.532 490.538 31.354C489.322 30.366 488.79 28.466 488.904 26.908C489.018 25.046 489.816 23.26 489.968 21.398C488.03 20.068 486.13 18.624 484.534 16.914C483.736 16.04 483.052 15.09 482.558 14.026C481.798 12.468 481.418 10.644 481.57 8.896C481.646 7.908 481.912 6.882 482.482 6.084C483.09 5.248 484.116 4.754 485.104 4.526C486.092 4.298 487.232 4.488 488.144 4.982C488.98 5.4 489.664 6.084 490.196 6.844C491.868 9.124 492.058 12.278 493.654 14.596C493.692 14.634 493.882 14.672 493.92 14.71C494.3 14.786 494.756 14.596 495.022 14.292C495.326 13.988 495.592 13.57 495.82 13.152C496.96 11.024 497.15 8.478 498.442 6.426C498.746 5.932 499.164 5.476 499.658 5.172C500.076 4.906 500.57 4.792 501.064 4.678C501.482 4.564 501.9 4.45 502.356 4.412C504.902 3.994 506.84 6.274 507.144 8.858C507.296 9.884 507.258 10.986 506.954 11.974C506.726 12.772 506.308 13.532 506.004 14.292C505.206 16.23 503.914 17.978 502.318 19.346C500.988 20.448 499.43 21.36 497.796 21.778C498.366 23.944 498.784 26.338 498.252 28.542C497.986 29.53 497.492 30.632 496.656 31.278Z" fill="white"/>
</svg>
