<svg width="852" height="198" viewBox="0 0 852 198" fill="none" xmlns="http://www.w3.org/2000/svg">
<path d="M213.779 75.764C207.393 77.721 199.977 77.206 193.694 74.734C187.102 71.953 181.952 65.052 181.334 57.842C181.025 53.928 182.879 49.396 185.866 46.821C187.823 45.173 190.913 44.555 193.385 44.967C196.99 45.688 199.977 48.057 203.17 49.499C204.2 50.014 205.23 50.323 206.363 50.22C207.496 50.014 208.732 49.293 209.453 48.366C210.38 47.027 210.792 45.276 210.895 43.731C211.307 38.581 210.586 33.534 210.071 28.487C207.702 29.105 205.436 30.032 202.964 30.547C199.256 31.371 195.239 31.577 191.325 31.165C188.441 30.753 185.351 29.414 183.497 27.045C181.231 24.161 180.304 20.041 180.51 16.333C180.716 13.655 181.54 11.08 182.879 8.711C184.115 6.548 186.175 4.797 188.544 3.664C190.913 2.428 193.797 2.016 196.578 1.81C202.552 1.398 208.629 1.501 214.706 1.81C214.912 1.81 216.045 1.501 216.251 1.501C219.032 0.882998 222.019 0.573996 224.8 0.882998C227.169 1.19199 229.435 2.222 231.289 3.767C233.452 5.724 234.791 8.711 235.203 11.595C235.615 13.861 235.409 16.127 234.894 18.29C234.173 21.277 232.319 23.852 231.701 26.839C231.083 29.414 231.804 32.092 232.113 34.77C233.452 44.349 232.628 54.958 228.302 63.61C225.521 69.275 219.856 73.91 213.779 75.764ZM278.729 77.927C273.27 78.442 267.605 77.618 262.455 75.867C256.378 73.807 250.919 69.069 247.417 63.713C245.975 61.447 244.533 59.078 243.709 56.503C241.546 50.117 241.546 43.113 242.267 36.521C243.091 29.105 246.387 21.792 250.816 15.612C253.906 11.389 257.923 7.475 262.558 4.797C266.781 2.222 271.931 0.882998 276.875 0.882998C281.716 0.985996 286.557 1.81 291.089 3.252C295.621 4.797 299.535 8.505 302.316 12.419C304.479 15.406 305.921 19.114 306.745 22.822C307.981 28.075 308.29 33.431 308.187 38.787C307.981 46.924 305.818 55.37 301.595 62.271C299.123 66.597 295.621 70.614 291.398 73.292C287.69 75.764 283.261 77.412 278.729 77.927ZM274.094 52.795C277.493 54.649 281.201 51.971 283.055 48.675C285.733 44.143 286.557 38.375 285.733 33.225C285.321 30.753 284.497 28.281 282.952 26.221C282.128 25.088 280.789 23.955 279.347 23.646C277.905 23.234 276.257 23.646 275.021 24.573C269.15 28.487 267.502 39.714 269.665 46.409C270.489 48.881 271.828 51.559 274.094 52.795ZM345.682 76.897C341.665 77.103 337.751 77.412 333.734 77.309C330.129 77.206 326.421 77 322.919 75.867C321.065 75.249 319.211 74.219 317.975 72.674C316.739 71.129 316.121 69.172 316.018 67.215C315.915 62.889 318.078 55.988 322.198 54.546C324.979 53.516 328.172 53.413 331.159 53.619C330.129 45.276 330.232 36.727 331.365 28.487C327.966 29.311 323.846 29.105 320.859 27.354C319.005 26.221 317.563 24.573 316.533 22.719C314.473 19.32 314.061 14.685 315.091 10.771C316.121 7.166 318.902 3.664 322.301 2.222C325.906 0.779999 330.026 0.882998 333.837 1.089C334.558 1.089 338.987 0.573996 339.708 0.573996C341.562 0.470997 352.171 0.470997 353.922 0.573996C357.63 0.676994 361.75 1.19199 364.737 3.252C366.179 4.282 367.312 5.621 368.136 7.063C371.844 13.861 369.269 23.44 362.883 27.766C361.132 29.002 358.866 29.517 356.703 29.723C357.836 36.624 357.836 43.834 356.6 50.838C358.866 50.941 361.132 51.25 363.192 52.177C364.737 52.898 366.282 54.031 367.312 55.473C369.681 58.563 370.917 62.889 370.505 66.803C370.196 69.79 368.445 72.88 366.076 74.528C363.707 76.176 360.617 76.691 357.733 76.897C353.716 77.103 349.699 76.588 345.682 76.897ZM433.182 75.97C431.122 76.897 428.65 77 426.487 76.588C423.809 76.073 421.234 74.528 419.071 72.88C415.775 70.305 413.097 67.009 410.522 63.713C406.814 58.975 403.827 53.619 401.149 48.263C400.943 54.752 400.84 61.344 399.398 67.73C398.78 70.305 397.75 73.086 395.896 74.94C394.866 75.867 393.63 76.485 392.291 76.691C385.905 77.824 381.167 71.232 379.828 64.846C378.798 59.799 379.107 54.546 378.901 49.293C378.798 45.585 379.107 24.882 379.313 21.174C379.519 17.466 380.034 13.758 381.476 10.462C382.712 7.578 384.669 4.797 387.45 3.252C390.025 1.913 393.63 1.81 396.308 3.04599C399.501 4.385 402.179 6.754 404.239 9.535C408.05 14.376 411.037 19.835 413.921 25.294C415.981 29.311 418.041 33.225 419.998 37.242C419.792 31.165 419.998 25.088 420.719 19.114C421.028 16.024 421.852 13.037 423.088 10.256C424.118 7.99 425.663 5.724 427.62 4.282C429.68 2.63399 432.77 1.81 435.345 2.53099C436.993 3.04599 438.435 4.179 439.568 5.518C442.658 9.432 444.1 14.582 444.718 19.526C446.16 29.929 445.748 40.641 444.615 51.147C444.1 56.4 443.482 61.859 441.525 66.7C439.877 70.511 436.993 74.219 433.182 75.97ZM517.149 69.584C514.883 74.013 510.454 76.691 505.613 76.691C502.214 76.588 498.712 74.734 496.446 72.159C494.283 69.584 492.944 66.391 492.017 63.301C490.884 59.078 490.369 54.649 490.472 50.22C490.678 42.907 491.708 35.594 492.944 28.384C490.575 28.384 488.103 28.178 485.94 27.354C483.468 26.427 481.305 24.882 479.554 23.028C475.64 18.908 476.258 11.08 479.76 6.651C481.305 4.694 483.468 3.252 485.734 2.428C487.176 2.016 488.618 1.81 490.06 1.81C493.768 1.60399 497.476 1.913 501.184 1.913C502.008 1.913 502.832 1.81 503.656 1.81C503.759 1.81 504.171 2.016 504.274 2.016C508.6 1.81 512.926 1.501 517.252 1.501C520.033 1.60399 522.814 2.016 525.183 3.252C530.23 6.033 532.805 11.904 531.672 17.363C530.951 20.659 528.376 23.543 525.595 25.191C523.432 26.427 520.754 27.045 518.179 27.045C519.003 37.139 520.651 47.13 520.239 57.224C520.033 61.447 519.106 65.773 517.149 69.584ZM557.182 77.103C555.122 77.721 552.856 77.927 550.693 77.824C547.603 77.618 544.204 76.897 541.938 74.837C540.805 73.807 539.878 72.468 539.363 71.026C538.745 69.275 538.745 67.318 538.745 65.464C538.848 61.035 540.084 56.709 540.908 52.383C541.732 47.542 542.35 42.598 541.732 37.757C541.011 31.371 537.303 25.5 537.097 19.114C536.994 16.23 537.612 13.243 538.848 10.668C540.084 8.196 541.835 5.827 544.204 4.385C547.603 2.325 552.238 1.60399 556.049 2.737C557.594 3.149 558.83 4.179 559.963 5.312C562.023 7.37199 563.568 10.05 564.083 12.831C565.216 19.423 563.568 26.118 562.95 32.71C564.495 33.328 566.349 33.431 568.1 33.328C570.984 33.225 573.765 32.607 576.649 31.989C576.546 29.105 575.722 26.324 575.31 23.44C574.898 20.968 575.104 18.496 575.516 16.127C576.134 11.904 578.4 7.681 581.696 5.00299C585.61 1.913 592.614 2.016 596.425 5.312C598.073 6.651 599.309 8.608 599.927 10.565C600.854 13.243 601.06 16.127 600.854 18.805C600.442 24.161 598.691 29.311 597.764 34.461C596.94 38.89 596.631 43.525 597.249 47.851C597.867 52.383 599.618 56.503 600.545 60.932C601.163 64.022 601.06 67.421 599.927 70.408C599.309 71.953 598.382 73.395 597.146 74.425C595.704 75.558 593.953 76.279 592.099 76.691C589.421 77.206 586.64 76.897 583.962 76.382C581.902 75.97 579.636 75.455 577.885 74.219C576.649 73.395 575.619 72.159 575.104 70.717C574.177 68.451 573.868 65.876 573.868 63.301C573.868 59.387 575.001 55.576 576.237 51.868C572.117 51.147 567.894 50.632 563.877 51.559C565.01 56.091 566.04 60.829 565.731 65.567C565.628 68.554 564.392 71.541 562.332 73.704C560.993 75.249 559.139 76.485 557.182 77.103ZM650.309 77.206C643.614 77.515 636.919 77.515 630.327 76.382C626.104 75.661 621.881 74.013 618.688 71.232C613.847 67.009 610.654 60.52 609.727 54.031C608.594 47.233 608.903 40.126 609.933 33.225C610.757 27.045 612.096 20.865 614.877 15.303C616.628 12.007 618.997 8.917 621.778 6.34199C623.426 4.797 625.28 3.458 627.443 2.737C629.812 1.81 632.49 1.913 634.962 1.398C638.876 0.676994 642.893 0.676994 646.807 0.470997C652.987 0.058996 659.579 0.264993 665.038 3.04599C666.377 3.767 667.613 4.9 668.54 6.239C669.57 7.887 670.085 9.844 670.188 11.904C670.6 18.084 666.48 24.161 660.3 24.058C658.549 24.058 656.695 23.646 655.047 23.131C651.854 22.307 648.661 21.277 645.365 20.865C642.687 20.659 639.7 20.968 637.537 22.616C636.61 23.337 635.889 24.573 635.889 25.809C635.992 26.839 637.125 26.839 638.155 26.736C641.348 26.324 644.335 25.191 647.528 24.882C649.485 24.676 651.545 24.573 653.399 25.191C655.047 25.912 656.592 27.251 657.313 28.899C658.24 31.165 658.549 33.637 658.343 36.006C658.24 38.272 657.622 40.744 656.18 42.495C655.253 43.731 654.017 44.658 652.575 45.276C651.03 45.894 649.382 45.997 647.631 46.1C645.056 46.203 637.64 45.07 635.786 46.924C633.829 48.778 636.404 51.662 639.082 52.28C641.76 52.795 644.644 52.074 647.322 51.456C651.236 50.632 655.356 49.602 659.27 50.323C662.36 50.735 665.553 52.486 667.201 54.958C668.54 57.018 668.849 59.799 668.334 62.168C667.407 66.7 664.935 71.335 661.33 74.219C658.343 76.588 654.12 77.103 650.309 77.206ZM35.6391 195.845C32.6521 197.184 27.5021 195.948 25.3391 193.476C24.7211 192.755 24.4121 191.725 24.3091 190.901C24.1031 188.944 24.5151 186.987 25.0301 185.03C21.9401 185.133 18.7471 184.927 15.6571 184.206C13.0821 183.691 10.7131 182.352 8.55008 180.704C5.56308 178.541 2.88508 175.451 1.85508 171.846C0.104078 165.975 1.95808 158.456 7.62308 156.396C10.8161 155.16 14.5241 155.778 17.7171 156.808C18.5411 157.117 23.3821 159.177 24.2061 159.383C25.5451 159.692 26.9871 159.898 28.2231 159.383C28.9441 159.074 29.1501 158.25 28.6351 157.632C28.0171 157.117 25.0301 155.984 24.2061 155.675C19.6741 154.027 14.8331 152.688 10.6101 150.113C7.93208 148.465 5.76908 145.581 4.63608 142.491C3.29708 138.783 2.88508 134.56 3.50308 130.646C4.12108 127.247 5.76908 123.848 7.93208 121.067C8.85908 120.037 9.58008 118.801 10.6101 117.771C14.4211 113.754 19.7771 110.561 25.3391 109.634C24.5151 107.471 23.7941 104.896 24.6181 102.63C25.6481 99.952 30.0771 97.686 32.9611 97.789C34.5061 97.789 36.1541 98.407 37.2871 99.437C38.4201 100.57 39.0381 102.218 39.2441 103.763C39.4501 105.617 39.3471 107.574 38.9351 109.428C42.0251 109.84 45.1151 110.87 47.6901 112.518C49.4411 113.754 51.0891 115.299 52.3251 117.05C55.6211 121.479 57.7841 128.792 53.7671 132.603C51.3981 134.869 48.2051 136.414 44.9091 136.62C40.2741 136.929 35.6391 135.281 31.1071 136.105C30.1801 136.311 28.4291 136.723 28.2231 137.547C28.0171 138.165 28.8411 139.092 29.3561 139.504C30.5921 140.431 37.0811 143.624 38.4201 144.345C43.1581 146.714 47.9991 149.495 51.2951 153.615C53.6641 156.602 55.1061 160.619 54.9001 164.43C54.6941 169.683 52.4281 174.627 48.5141 178.232C45.8361 180.704 42.3341 182.249 38.8321 183.279C39.4501 185.545 39.8621 188.017 39.6561 190.386C39.3471 192.858 37.9051 194.815 35.6391 195.845ZM119.908 182.97C117.848 183.897 115.376 184 113.213 183.588C110.535 183.073 107.96 181.528 105.797 179.88C102.501 177.305 99.8226 174.009 97.2476 170.713C93.5396 165.975 90.5526 160.619 87.8746 155.263C87.6686 161.752 87.5656 168.344 86.1236 174.73C85.5056 177.305 84.4756 180.086 82.6216 181.94C81.5916 182.867 80.3556 183.485 79.0166 183.691C72.6306 184.824 67.8926 178.232 66.5536 171.846C65.5236 166.799 65.8326 161.546 65.6266 156.293C65.5236 152.585 65.8326 131.882 66.0386 128.174C66.2446 124.466 66.7596 120.758 68.2016 117.462C69.4376 114.578 71.3946 111.797 74.1756 110.252C76.7506 108.913 80.3556 108.81 83.0336 110.046C86.2266 111.385 88.9046 113.754 90.9646 116.535C94.7756 121.376 97.7626 126.835 100.647 132.294C102.707 136.311 104.767 140.225 106.724 144.242C106.518 138.165 106.724 132.088 107.445 126.114C107.754 123.024 108.578 120.037 109.814 117.256C110.844 114.99 112.389 112.724 114.346 111.282C116.406 109.634 119.496 108.81 122.071 109.531C123.719 110.046 125.161 111.179 126.294 112.518C129.384 116.432 130.826 121.582 131.444 126.526C132.886 136.929 132.474 147.641 131.341 158.147C130.826 163.4 130.208 168.859 128.251 173.7C126.603 177.511 123.719 181.219 119.908 182.97ZM176.785 184.927C171.326 185.442 165.661 184.618 160.511 182.867C154.434 180.807 148.975 176.069 145.473 170.713C144.031 168.447 142.589 166.078 141.765 163.503C139.602 157.117 139.602 150.113 140.323 143.521C141.147 136.105 144.443 128.792 148.872 122.612C151.962 118.389 155.979 114.475 160.614 111.797C164.837 109.222 169.987 107.883 174.931 107.883C179.772 107.986 184.613 108.81 189.145 110.252C193.677 111.797 197.591 115.505 200.372 119.419C202.535 122.406 203.977 126.114 204.801 129.822C206.037 135.075 206.346 140.431 206.243 145.787C206.037 153.924 203.874 162.37 199.651 169.271C197.179 173.597 193.677 177.614 189.454 180.292C185.746 182.764 181.317 184.412 176.785 184.927ZM172.15 159.795C175.549 161.649 179.257 158.971 181.111 155.675C183.789 151.143 184.613 145.375 183.789 140.225C183.377 137.753 182.553 135.281 181.008 133.221C180.184 132.088 178.845 130.955 177.403 130.646C175.961 130.234 174.313 130.646 173.077 131.573C167.206 135.487 165.558 146.714 167.721 153.409C168.545 155.881 169.884 158.559 172.15 159.795ZM236.117 183.485C232.924 184.721 228.907 184.618 225.714 183.176C222.315 181.631 219.534 178.644 217.68 175.554C215.002 171.022 214.178 165.357 213.869 160.104C213.56 153.306 214.075 146.405 215.002 139.607C215.723 133.633 216.753 127.762 218.504 122.097C218.71 121.582 219.225 119.728 219.74 119.316C220.461 117.462 221.903 115.814 223.551 114.475C226.435 112.106 229.834 110.252 233.439 109.428C240.237 107.986 247.447 107.78 254.245 109.119C261.661 110.561 269.489 114.063 274.33 120.037C276.596 122.818 278.244 126.217 278.862 129.719C279.48 133.633 278.656 137.856 276.802 141.255C275.566 143.727 273.815 146.096 271.652 147.95C269.592 149.804 267.12 151.143 264.751 152.482C268.562 155.984 273.3 158.044 277.626 160.825C279.377 161.958 280.922 163.606 281.849 165.563C284.424 171.022 281.54 178.232 276.184 181.116C274.021 182.352 271.137 182.661 268.665 182.352C265.266 181.94 262.073 180.292 259.189 178.438C252.803 174.112 248.168 167.417 244.151 160.928C244.975 165.151 245.078 169.683 244.048 173.803C243.327 176.378 242.194 178.85 240.34 180.704C239.207 181.94 237.765 182.867 236.117 183.485ZM246.932 141.461C249.713 142.594 254.142 141.255 255.996 138.886C256.923 137.65 257.335 135.899 257.026 134.457C256.511 131.882 254.142 129.822 251.876 128.689C250.64 128.174 249.198 127.762 247.859 128.071C244.254 129.101 242.812 134.354 243.224 138.165C244.151 139.504 245.387 140.843 246.932 141.461ZM298.98 185.03C293.727 185.957 290.328 180.395 289.298 175.245C288.783 172.464 288.577 169.683 288.68 166.902C289.092 158.456 290.74 150.01 292.8 141.77C293.727 137.753 294.757 133.839 296.096 129.925C296.817 127.659 300.731 116.844 301.967 114.784C302.07 114.578 302.482 114.475 302.585 114.269C303.512 113.033 304.542 111.797 305.778 110.87C308.044 109.222 310.928 108.192 313.709 108.089C314.121 108.089 315.46 107.883 315.769 108.089C315.975 108.295 317.211 108.398 317.52 108.501C318.55 108.81 319.58 109.531 320.404 110.252C321.743 111.694 322.67 113.548 323.597 115.402C325.76 119.934 327.305 124.672 328.644 129.513C330.086 134.354 331.322 139.195 332.558 144.036C332.764 143.521 334.103 140.328 334.412 139.813C337.605 132.294 341.21 124.981 345.536 118.08C348.523 113.342 355.218 108.295 360.471 110.252C368.196 112.93 371.183 130.028 372.625 138.062C372.934 139.916 374.994 151.246 375.303 153.1C376.333 159.074 377.054 165.151 376.436 171.125C376.127 174.936 374.891 179.159 372.11 181.94C370.256 183.691 366.96 184.618 364.488 183.794C362.016 182.867 359.956 180.601 358.72 178.232C354.703 170.816 352.643 162.267 350.48 154.027C349.038 157.529 347.493 160.928 345.845 164.327C343.888 168.344 341.725 172.258 338.738 175.554C337.399 176.893 335.751 178.026 333.897 178.438C332.558 178.747 331.116 178.541 329.777 178.026C327.923 177.099 326.172 175.554 324.936 173.803C321.022 168.241 318.859 161.546 316.593 155.057C314.842 160.825 313.091 166.696 310.825 172.258C308.971 176.687 305.984 180.91 302.07 183.588C301.143 184.309 300.113 184.824 298.98 185.03ZM414.232 183.897C410.215 184.103 406.301 184.412 402.284 184.309C398.679 184.206 394.971 184 391.469 182.867C389.615 182.249 387.761 181.219 386.525 179.674C385.289 178.129 384.671 176.172 384.568 174.215C384.465 169.889 386.628 162.988 390.748 161.546C393.529 160.516 396.722 160.413 399.709 160.619C398.679 152.276 398.782 143.727 399.915 135.487C396.516 136.311 392.396 136.105 389.409 134.354C387.555 133.221 386.113 131.573 385.083 129.719C383.023 126.32 382.611 121.685 383.641 117.771C384.671 114.166 387.452 110.664 390.851 109.222C394.456 107.78 398.576 107.883 402.387 108.089C403.108 108.089 407.537 107.574 408.258 107.574C410.112 107.471 420.721 107.471 422.472 107.574C426.18 107.677 430.3 108.192 433.287 110.252C434.729 111.282 435.862 112.621 436.686 114.063C440.394 120.861 437.819 130.44 431.433 134.766C429.682 136.002 427.416 136.517 425.253 136.723C426.386 143.624 426.386 150.834 425.15 157.838C427.416 157.941 429.682 158.25 431.742 159.177C433.287 159.898 434.832 161.031 435.862 162.473C438.231 165.563 439.467 169.889 439.055 173.803C438.746 176.79 436.995 179.88 434.626 181.528C432.257 183.176 429.167 183.691 426.283 183.897C422.266 184.103 418.249 183.588 414.232 183.897ZM487.209 184.206C480.514 184.515 473.819 184.515 467.227 183.382C463.004 182.661 458.781 181.013 455.588 178.232C450.747 174.009 447.554 167.52 446.627 161.031C445.494 154.233 445.803 147.126 446.833 140.225C447.657 134.045 448.996 127.865 451.777 122.303C453.528 119.007 455.897 115.917 458.678 113.342C460.326 111.797 462.18 110.458 464.343 109.737C466.712 108.81 469.39 108.913 471.862 108.398C475.776 107.677 479.793 107.677 483.707 107.471C489.887 107.059 496.479 107.265 501.938 110.046C503.277 110.767 504.513 111.9 505.44 113.239C506.47 114.887 506.985 116.844 507.088 118.904C507.5 125.084 503.38 131.161 497.2 131.058C495.449 131.058 493.595 130.646 491.947 130.131C488.754 129.307 485.561 128.277 482.265 127.865C479.587 127.659 476.6 127.968 474.437 129.616C473.51 130.337 472.789 131.573 472.789 132.809C472.892 133.839 474.025 133.839 475.055 133.736C478.248 133.324 481.235 132.191 484.428 131.882C486.385 131.676 488.445 131.573 490.299 132.191C491.947 132.912 493.492 134.251 494.213 135.899C495.14 138.165 495.449 140.637 495.243 143.006C495.14 145.272 494.522 147.744 493.08 149.495C492.153 150.731 490.917 151.658 489.475 152.276C487.93 152.894 486.282 152.997 484.531 153.1C481.956 153.203 474.54 152.07 472.686 153.924C470.729 155.778 473.304 158.662 475.982 159.28C478.66 159.795 481.544 159.074 484.222 158.456C488.136 157.632 492.256 156.602 496.17 157.323C499.26 157.735 502.453 159.486 504.101 161.958C505.44 164.018 505.749 166.799 505.234 169.168C504.307 173.7 501.835 178.335 498.23 181.219C495.243 183.588 491.02 184.103 487.209 184.206ZM554.697 182.455C552.946 183.588 550.886 184.103 548.929 184.103C546.766 184.206 544.5 183.588 542.852 182.249C540.277 180.189 538.732 176.79 538.32 173.597C537.496 167.211 538.938 160.619 540.483 154.439C543.573 142.697 548.826 131.264 555.933 121.479C558.302 118.183 561.289 115.093 564.482 112.415C565.924 111.282 567.675 110.149 569.529 109.737C572.31 109.119 575.194 109.016 577.975 109.531C582.301 110.252 586.421 112.518 589.614 115.402C594.352 119.934 597.751 125.805 600.738 131.676C603.622 137.444 605.682 143.727 607.227 150.113C608.566 156.293 609.39 162.782 608.669 169.065C608.051 173.803 605.064 178.85 600.944 181.425C597.133 183.691 592.189 184.515 587.966 183.485C586.318 183.073 584.67 182.249 583.434 181.116C581.683 179.571 580.447 177.408 579.52 175.245C577.769 171.331 576.842 167.108 576.533 162.885C572.722 163.194 568.911 163.4 565.1 163.297C563.761 167.417 562.525 171.64 560.465 175.451C559.126 178.129 557.272 180.807 554.697 182.455ZM571.589 133.015C568.499 136.826 566.954 141.667 566.13 146.508C567.572 146.405 575.503 145.581 576.842 145.375C576.533 142.903 576.43 140.328 576.121 137.856C575.915 135.796 575.4 133.736 574.473 131.985C574.267 131.573 573.546 131.573 573.134 131.676C572.516 131.882 572.001 132.5 571.589 133.015ZM638.158 183.485C634.966 184.721 630.949 184.618 627.756 183.176C624.357 181.631 621.576 178.644 619.722 175.554C617.044 171.022 616.22 165.357 615.911 160.104C615.602 153.306 616.117 146.405 617.044 139.607C617.765 133.633 618.795 127.762 620.546 122.097C620.752 121.582 621.267 119.728 621.782 119.316C622.503 117.462 623.945 115.814 625.593 114.475C628.477 112.106 631.876 110.252 635.481 109.428C642.279 107.986 649.489 107.78 656.287 109.119C663.702 110.561 671.531 114.063 676.372 120.037C678.638 122.818 680.286 126.217 680.904 129.719C681.522 133.633 680.698 137.856 678.844 141.255C677.608 143.727 675.857 146.096 673.694 147.95C671.634 149.804 669.162 151.143 666.793 152.482C670.604 155.984 675.342 158.044 679.668 160.825C681.419 161.958 682.964 163.606 683.891 165.563C686.466 171.022 683.582 178.232 678.226 181.116C676.062 182.352 673.179 182.661 670.707 182.352C667.308 181.94 664.115 180.292 661.231 178.438C654.845 174.112 650.21 167.417 646.193 160.928C647.017 165.151 647.12 169.683 646.09 173.803C645.369 176.378 644.236 178.85 642.382 180.704C641.249 181.94 639.807 182.867 638.158 183.485ZM648.974 141.461C651.755 142.594 656.184 141.255 658.038 138.886C658.965 137.65 659.377 135.899 659.068 134.457C658.553 131.882 656.184 129.822 653.918 128.689C652.682 128.174 651.24 127.762 649.901 128.071C646.296 129.101 644.854 134.354 645.266 138.165C646.193 139.504 647.429 140.843 648.974 141.461ZM701.022 185.03C695.769 185.957 692.37 180.395 691.34 175.245C690.825 172.464 690.619 169.683 690.722 166.902C691.134 158.456 692.782 150.01 694.842 141.77C695.769 137.753 696.799 133.839 698.138 129.925C698.859 127.659 702.773 116.844 704.009 114.784C704.112 114.578 704.524 114.475 704.627 114.269C705.554 113.033 706.584 111.797 707.82 110.87C710.086 109.222 712.97 108.192 715.751 108.089C716.163 108.089 717.502 107.883 717.811 108.089C718.017 108.295 719.253 108.398 719.562 108.501C720.592 108.81 721.622 109.531 722.446 110.252C723.785 111.694 724.712 113.548 725.639 115.402C727.802 119.934 729.347 124.672 730.686 129.513C732.128 134.354 733.364 139.195 734.6 144.036C734.806 143.521 736.145 140.328 736.454 139.813C739.647 132.294 743.252 124.981 747.578 118.08C750.565 113.342 757.26 108.295 762.513 110.252C770.238 112.93 773.225 130.028 774.667 138.062C774.976 139.916 777.036 151.246 777.345 153.1C778.375 159.074 779.096 165.151 778.478 171.125C778.169 174.936 776.933 179.159 774.152 181.94C772.298 183.691 769.002 184.618 766.53 183.794C764.058 182.867 761.998 180.601 760.762 178.232C756.745 170.816 754.685 162.267 752.522 154.027C751.08 157.529 749.535 160.928 747.887 164.327C745.93 168.344 743.767 172.258 740.78 175.554C739.441 176.893 737.793 178.026 735.939 178.438C734.6 178.747 733.158 178.541 731.819 178.026C729.965 177.099 728.214 175.554 726.978 173.803C723.064 168.241 720.901 161.546 718.635 155.057C716.884 160.825 715.133 166.696 712.867 172.258C711.013 176.687 708.026 180.91 704.112 183.588C703.185 184.309 702.155 184.824 701.022 185.03ZM823.11 182.043C818.887 185.236 810.75 185.442 806.527 182.249C803.231 179.571 801.789 174.421 802.098 170.198C802.407 165.151 804.57 160.31 804.982 155.263C799.729 151.658 794.579 147.744 790.253 143.109C788.09 140.74 786.236 138.165 784.897 135.281C782.837 131.058 781.807 126.114 782.219 121.376C782.425 118.698 783.146 115.917 784.691 113.754C786.339 111.488 789.12 110.149 791.798 109.531C794.476 108.913 797.566 109.428 800.038 110.767C802.304 111.9 804.158 113.754 805.6 115.814C810.132 121.994 810.647 130.543 814.973 136.826C815.076 136.929 815.591 137.032 815.694 137.135C816.724 137.341 817.96 136.826 818.681 136.002C819.505 135.178 820.226 134.045 820.844 132.912C823.934 127.144 824.449 120.243 827.951 114.681C828.775 113.342 829.908 112.106 831.247 111.282C832.38 110.561 833.719 110.252 835.058 109.943C836.191 109.634 837.324 109.325 838.56 109.222C845.461 108.089 850.714 114.269 851.538 121.273C851.95 124.054 851.847 127.041 851.023 129.719C850.405 131.882 849.272 133.942 848.448 136.002C846.285 141.255 842.783 145.993 838.457 149.701C834.852 152.688 830.629 155.16 826.2 156.293C827.745 162.164 828.878 168.653 827.436 174.627C826.715 177.305 825.376 180.292 823.11 182.043Z" fill="#D9E3EA"/>
</svg>
