<svg width="651" height="31" viewBox="0 0 651 31" fill="none" xmlns="http://www.w3.org/2000/svg">
<path d="M13.6169 29.52C11.1369 30.28 8.25688 30.08 5.81688 29.12C3.25688 28.04 1.25688 25.36 1.01688 22.56C0.896875 21.04 1.61688 19.28 2.77688 18.28C3.53688 17.64 4.73688 17.4 5.69688 17.56C7.09688 17.84 8.25688 18.76 9.49688 19.32C9.89688 19.52 10.2969 19.64 10.7369 19.6C11.1769 19.52 11.6569 19.24 11.9369 18.88C12.2969 18.36 12.4569 17.68 12.4969 17.08C12.6569 15.08 12.3769 13.12 12.1769 11.16C11.2569 11.4 10.3769 11.76 9.41688 11.96C7.97688 12.28 6.41688 12.36 4.89688 12.2C3.77688 12.04 2.57688 11.52 1.85688 10.6C0.976875 9.48 0.616875 7.88 0.696875 6.44C0.776875 5.4 1.09688 4.4 1.61688 3.48C2.09688 2.64 2.89688 1.96 3.81688 1.52C4.73688 1.04 5.85688 0.879998 6.93688 0.799999C9.25688 0.639999 11.6169 0.679998 13.9769 0.799999C14.0569 0.799999 14.4969 0.679998 14.5769 0.679998C15.6569 0.439999 16.8169 0.319998 17.8969 0.439999C18.8169 0.559998 19.6969 0.96 20.4169 1.56C21.2569 2.32 21.7769 3.48 21.9369 4.6C22.0969 5.48 22.0169 6.36 21.8169 7.2C21.5369 8.36 20.8169 9.36 20.5769 10.52C20.3369 11.52 20.6169 12.56 20.7369 13.6C21.2569 17.32 20.9369 21.44 19.2569 24.8C18.1769 27 15.9769 28.8 13.6169 29.52ZM38.8403 30.36C36.7203 30.56 34.5203 30.24 32.5203 29.56C30.1603 28.76 28.0403 26.92 26.6803 24.84C26.1203 23.96 25.5603 23.04 25.2403 22.04C24.4003 19.56 24.4003 16.84 24.6803 14.28C25.0003 11.4 26.2803 8.56 28.0003 6.16C29.2003 4.52 30.7603 3 32.5603 1.96C34.2003 0.96 36.2003 0.439999 38.1203 0.439999C40.0003 0.479999 41.8803 0.799999 43.6403 1.36C45.4003 1.96 46.9203 3.4 48.0003 4.92C48.8403 6.08 49.4003 7.52 49.7203 8.96C50.2003 11 50.3203 13.08 50.2803 15.16C50.2003 18.32 49.3603 21.6 47.7203 24.28C46.7603 25.96 45.4003 27.52 43.7603 28.56C42.3203 29.52 40.6003 30.16 38.8403 30.36ZM37.0403 20.6C38.3603 21.32 39.8003 20.28 40.5203 19C41.5603 17.24 41.8803 15 41.5603 13C41.4003 12.04 41.0803 11.08 40.4803 10.28C40.1603 9.84 39.6403 9.4 39.0803 9.28C38.5203 9.12 37.8803 9.28 37.4003 9.64C35.1203 11.16 34.4803 15.52 35.3203 18.12C35.6403 19.08 36.1603 20.12 37.0403 20.6ZM64.8416 29.96C63.2816 30.04 61.7616 30.16 60.2016 30.12C58.8016 30.08 57.3616 30 56.0016 29.56C55.2816 29.32 54.5616 28.92 54.0816 28.32C53.6016 27.72 53.3616 26.96 53.3216 26.2C53.2816 24.52 54.1216 21.84 55.7216 21.28C56.8016 20.88 58.0416 20.84 59.2016 20.92C58.8016 17.68 58.8416 14.36 59.2816 11.16C57.9616 11.48 56.3616 11.4 55.2016 10.72C54.4816 10.28 53.9216 9.64 53.5216 8.92C52.7216 7.6 52.5616 5.8 52.9616 4.28C53.3616 2.88 54.4416 1.52 55.7616 0.96C57.1616 0.4 58.7616 0.439999 60.2416 0.519998C60.5216 0.519998 62.2416 0.319998 62.5216 0.319998C63.2416 0.279999 67.3616 0.279999 68.0416 0.319998C69.4816 0.359998 71.0816 0.559998 72.2416 1.36C72.8016 1.76 73.2416 2.28 73.5616 2.84C75.0016 5.48 74.0016 9.2 71.5216 10.88C70.8416 11.36 69.9616 11.56 69.1216 11.64C69.5616 14.32 69.5616 17.12 69.0816 19.84C69.9616 19.88 70.8416 20 71.6416 20.36C72.2416 20.64 72.8416 21.08 73.2416 21.64C74.1616 22.84 74.6416 24.52 74.4816 26.04C74.3616 27.2 73.6816 28.4 72.7616 29.04C71.8416 29.68 70.6416 29.88 69.5216 29.96C67.9616 30.04 66.4016 29.84 64.8416 29.96ZM98.8222 29.6C98.0222 29.96 97.0622 30 96.2222 29.84C95.1822 29.64 94.1822 29.04 93.3422 28.4C92.0622 27.4 91.0222 26.12 90.0222 24.84C88.5822 23 87.4222 20.92 86.3822 18.84C86.3022 21.36 86.2622 23.92 85.7022 26.4C85.4622 27.4 85.0622 28.48 84.3422 29.2C83.9422 29.56 83.4622 29.8 82.9422 29.88C80.4622 30.32 78.6222 27.76 78.1022 25.28C77.7022 23.32 77.8222 21.28 77.7422 19.24C77.7022 17.8 77.8222 9.76 77.9022 8.32C77.9822 6.88 78.1822 5.44 78.7422 4.16C79.2222 3.04 79.9822 1.96 81.0622 1.36C82.0622 0.839999 83.4622 0.799999 84.5022 1.28C85.7422 1.8 86.7822 2.72 87.5822 3.8C89.0622 5.68 90.2222 7.8 91.3422 9.92C92.1422 11.48 92.9422 13 93.7022 14.56C93.6222 12.2 93.7022 9.84 93.9822 7.52C94.1022 6.32 94.4222 5.16 94.9022 4.08C95.3022 3.2 95.9022 2.32 96.6622 1.76C97.4622 1.12 98.6622 0.799999 99.6622 1.08C100.302 1.28 100.862 1.72 101.302 2.24C102.502 3.76 103.062 5.76 103.302 7.68C103.862 11.72 103.702 15.88 103.262 19.96C103.062 22 102.822 24.12 102.062 26C101.422 27.48 100.302 28.92 98.8222 29.6ZM131.431 27.12C130.551 28.84 128.831 29.88 126.951 29.88C125.631 29.84 124.271 29.12 123.391 28.12C122.551 27.12 122.031 25.88 121.671 24.68C121.231 23.04 121.031 21.32 121.071 19.6C121.151 16.76 121.551 13.92 122.031 11.12C121.111 11.12 120.151 11.04 119.311 10.72C118.351 10.36 117.511 9.76 116.831 9.04C115.311 7.44 115.551 4.4 116.911 2.68C117.511 1.92 118.351 1.36 119.231 1.04C119.791 0.879998 120.351 0.799999 120.911 0.799999C122.351 0.719998 123.791 0.839999 125.231 0.839999C125.551 0.839999 125.871 0.799999 126.191 0.799999C126.231 0.799999 126.391 0.879998 126.431 0.879998C128.111 0.799999 129.791 0.679998 131.471 0.679998C132.551 0.719998 133.631 0.879998 134.551 1.36C136.511 2.44 137.511 4.72 137.071 6.84C136.791 8.12 135.791 9.24 134.711 9.88C133.871 10.36 132.831 10.6 131.831 10.6C132.151 14.52 132.791 18.4 132.631 22.32C132.551 23.96 132.191 25.64 131.431 27.12ZM146.977 30.04C146.177 30.28 145.297 30.36 144.457 30.32C143.257 30.24 141.937 29.96 141.057 29.16C140.617 28.76 140.257 28.24 140.057 27.68C139.817 27 139.817 26.24 139.817 25.52C139.857 23.8 140.337 22.12 140.657 20.44C140.977 18.56 141.217 16.64 140.977 14.76C140.697 12.28 139.257 10 139.177 7.52C139.137 6.4 139.377 5.24 139.857 4.24C140.337 3.28 141.017 2.36 141.937 1.8C143.257 0.999999 145.057 0.719998 146.537 1.16C147.137 1.32 147.617 1.72 148.057 2.16C148.857 2.96 149.457 4 149.657 5.08C150.097 7.64 149.457 10.24 149.217 12.8C149.817 13.04 150.537 13.08 151.217 13.04C152.337 13 153.417 12.76 154.537 12.52C154.497 11.4 154.177 10.32 154.017 9.2C153.857 8.24 153.937 7.28 154.097 6.36C154.337 4.72 155.217 3.08 156.497 2.04C158.017 0.839999 160.737 0.879998 162.217 2.16C162.857 2.68 163.337 3.44 163.577 4.2C163.937 5.24 164.017 6.36 163.937 7.4C163.777 9.48 163.097 11.48 162.737 13.48C162.417 15.2 162.297 17 162.537 18.68C162.777 20.44 163.457 22.04 163.817 23.76C164.057 24.96 164.017 26.28 163.577 27.44C163.337 28.04 162.977 28.6 162.497 29C161.937 29.44 161.257 29.72 160.537 29.88C159.497 30.08 158.417 29.96 157.377 29.76C156.577 29.6 155.697 29.4 155.017 28.92C154.537 28.6 154.137 28.12 153.937 27.56C153.577 26.68 153.457 25.68 153.457 24.68C153.457 23.16 153.897 21.68 154.377 20.24C152.777 19.96 151.137 19.76 149.577 20.12C150.017 21.88 150.417 23.72 150.297 25.56C150.257 26.72 149.777 27.88 148.977 28.72C148.457 29.32 147.737 29.8 146.977 30.04ZM183.143 30.08C180.543 30.2 177.943 30.2 175.383 29.76C173.743 29.48 172.103 28.84 170.863 27.76C168.983 26.12 167.743 23.6 167.383 21.08C166.943 18.44 167.063 15.68 167.463 13C167.783 10.6 168.303 8.2 169.383 6.04C170.063 4.76 170.983 3.56 172.063 2.56C172.703 1.96 173.423 1.44 174.263 1.16C175.183 0.799999 176.223 0.839999 177.183 0.639999C178.703 0.359998 180.263 0.359998 181.783 0.279999C184.183 0.119998 186.743 0.199997 188.863 1.28C189.383 1.56 189.863 2 190.223 2.52C190.623 3.16 190.823 3.92 190.863 4.72C191.023 7.12 189.423 9.48 187.023 9.44C186.343 9.44 185.623 9.28 184.983 9.08C183.743 8.76 182.503 8.36 181.223 8.2C180.183 8.12 179.023 8.24 178.183 8.88C177.823 9.16 177.543 9.64 177.543 10.12C177.583 10.52 178.023 10.52 178.423 10.48C179.663 10.32 180.823 9.88 182.063 9.76C182.823 9.68 183.623 9.64 184.343 9.88C184.983 10.16 185.583 10.68 185.863 11.32C186.223 12.2 186.343 13.16 186.263 14.08C186.223 14.96 185.983 15.92 185.423 16.6C185.063 17.08 184.583 17.44 184.023 17.68C183.423 17.92 182.783 17.96 182.103 18C181.103 18.04 178.223 17.6 177.503 18.32C176.743 19.04 177.743 20.16 178.783 20.4C179.823 20.6 180.943 20.32 181.983 20.08C183.503 19.76 185.103 19.36 186.623 19.64C187.823 19.8 189.063 20.48 189.703 21.44C190.223 22.24 190.343 23.32 190.143 24.24C189.783 26 188.823 27.8 187.423 28.92C186.263 29.84 184.623 30.04 183.143 30.08ZM409.003 27.6C407.363 29.4 404.643 30.28 402.203 30.2C398.923 30.16 395.443 29.08 392.803 27.08C391.043 25.8 389.643 23.88 388.803 21.84C388.083 20.2 387.843 18.32 387.723 16.52C387.603 13.68 388.283 10.76 389.523 8.24C391.083 5.12 393.923 2.28 397.243 1.2C399.443 0.439999 401.883 0.319998 404.203 0.639999C405.603 0.839999 407.043 1.32 408.203 2.12C408.843 2.56 409.363 3.12 409.763 3.76C410.643 5.04 411.123 6.64 411.203 8.16C411.243 9.44 410.923 10.8 410.203 11.88C409.683 12.68 408.963 13.44 408.123 13.88C406.963 14.44 405.483 14.56 404.323 14.12C403.083 13.64 401.963 12.48 401.643 11.2C401.323 10.88 400.963 10.56 400.523 10.44C399.923 10.28 399.363 10.44 398.963 10.92C397.763 12.44 397.323 14.64 397.883 16.48C398.043 17.04 398.403 17.56 398.923 17.88C399.443 18.24 400.163 18.36 400.843 18.32C402.603 18.24 404.403 17.72 406.163 17.96C407.443 18.12 408.803 18.84 409.563 19.88C410.163 20.76 410.283 21.92 410.403 22.96C410.563 24.56 410.082 26.4 409.003 27.6ZM428.098 30.36C425.978 30.56 423.778 30.24 421.778 29.56C419.418 28.76 417.298 26.92 415.938 24.84C415.378 23.96 414.818 23.04 414.498 22.04C413.658 19.56 413.658 16.84 413.938 14.28C414.258 11.4 415.538 8.56 417.258 6.16C418.458 4.52 420.018 3 421.818 1.96C423.458 0.96 425.458 0.439999 427.378 0.439999C429.258 0.479999 431.138 0.799999 432.898 1.36C434.658 1.96 436.178 3.4 437.258 4.92C438.098 6.08 438.658 7.52 438.978 8.96C439.458 11 439.578 13.08 439.538 15.16C439.458 18.32 438.618 21.6 436.978 24.28C436.018 25.96 434.658 27.52 433.018 28.56C431.578 29.52 429.858 30.16 428.098 30.36ZM426.298 20.6C427.618 21.32 429.058 20.28 429.778 19C430.818 17.24 431.138 15 430.818 13C430.658 12.04 430.338 11.08 429.738 10.28C429.418 9.84 428.898 9.4 428.338 9.28C427.778 9.12 427.138 9.28 426.658 9.64C424.378 11.16 423.738 15.52 424.578 18.12C424.898 19.08 425.418 20.12 426.298 20.6ZM446.099 30.4C444.059 30.76 442.739 28.6 442.339 26.6C442.139 25.52 442.059 24.44 442.099 23.36C442.259 20.08 442.899 16.8 443.699 13.6C444.059 12.04 444.459 10.52 444.979 9C445.259 8.12 446.779 3.92 447.259 3.12C447.299 3.04 447.459 3 447.499 2.92C447.859 2.44 448.259 1.96 448.739 1.6C449.619 0.96 450.739 0.559998 451.819 0.519998C451.979 0.519998 452.499 0.439999 452.619 0.519998C452.699 0.599999 453.179 0.639999 453.299 0.679998C453.699 0.799999 454.099 1.08 454.419 1.36C454.939 1.92 455.299 2.64 455.659 3.36C456.499 5.12 457.099 6.96 457.619 8.84C458.179 10.72 458.659 12.6 459.139 14.48C459.219 14.28 459.739 13.04 459.859 12.84C461.099 9.92 462.499 7.08 464.179 4.4C465.339 2.56 467.939 0.599999 469.979 1.36C472.979 2.4 474.139 9.04 474.699 12.16C474.819 12.88 475.619 17.28 475.739 18C476.139 20.32 476.419 22.68 476.179 25C476.059 26.48 475.579 28.12 474.499 29.2C473.779 29.88 472.499 30.24 471.539 29.92C470.579 29.56 469.779 28.68 469.299 27.76C467.739 24.88 466.939 21.56 466.099 18.36C465.539 19.72 464.939 21.04 464.299 22.36C463.539 23.92 462.699 25.44 461.539 26.72C461.019 27.24 460.379 27.68 459.659 27.84C459.139 27.96 458.579 27.88 458.059 27.68C457.339 27.32 456.659 26.72 456.179 26.04C454.659 23.88 453.819 21.28 452.939 18.76C452.259 21 451.579 23.28 450.699 25.44C449.979 27.16 448.819 28.8 447.299 29.84C446.939 30.12 446.539 30.32 446.099 30.4ZM482.857 30.4C480.817 30.76 479.497 28.6 479.097 26.6C478.897 25.52 478.817 24.44 478.857 23.36C479.017 20.08 479.657 16.8 480.457 13.6C480.817 12.04 481.217 10.52 481.737 9C482.017 8.12 483.537 3.92 484.017 3.12C484.057 3.04 484.217 3 484.257 2.92C484.617 2.44 485.017 1.96 485.497 1.6C486.377 0.96 487.497 0.559998 488.577 0.519998C488.737 0.519998 489.257 0.439999 489.377 0.519998C489.457 0.599999 489.937 0.639999 490.057 0.679998C490.457 0.799999 490.857 1.08 491.177 1.36C491.697 1.92 492.057 2.64 492.417 3.36C493.257 5.12 493.857 6.96 494.377 8.84C494.937 10.72 495.417 12.6 495.897 14.48C495.977 14.28 496.497 13.04 496.617 12.84C497.857 9.92 499.257 7.08 500.937 4.4C502.097 2.56 504.697 0.599999 506.737 1.36C509.737 2.4 510.897 9.04 511.457 12.16C511.577 12.88 512.377 17.28 512.497 18C512.897 20.32 513.177 22.68 512.937 25C512.817 26.48 512.337 28.12 511.257 29.2C510.537 29.88 509.257 30.24 508.297 29.92C507.337 29.56 506.537 28.68 506.057 27.76C504.497 24.88 503.697 21.56 502.857 18.36C502.297 19.72 501.697 21.04 501.057 22.36C500.297 23.92 499.457 25.44 498.297 26.72C497.777 27.24 497.137 27.68 496.417 27.84C495.897 27.96 495.337 27.88 494.817 27.68C494.097 27.32 493.417 26.72 492.937 26.04C491.417 23.88 490.577 21.28 489.697 18.76C489.017 21 488.337 23.28 487.457 25.44C486.737 27.16 485.577 28.8 484.057 29.84C483.697 30.12 483.297 30.32 482.857 30.4ZM534.255 30.2C532.895 30.4 531.535 30.48 530.175 30.36C530.095 30.36 529.775 30.32 529.735 30.32C527.775 30.4 525.775 30.12 523.975 29.36C522.175 28.6 520.615 27.24 519.455 25.68C518.095 23.76 516.975 21.6 516.535 19.32C515.775 15.76 515.695 12.04 516.095 8.4C516.335 6.56 516.735 4.6 517.855 3.12C518.855 1.76 520.375 0.919998 522.015 0.799999C523.455 0.679998 524.975 1.56 525.935 2.6C526.495 3.16 526.855 3.96 527.095 4.72C527.575 6.36 527.495 8.12 527.375 9.84C527.215 12.36 526.855 14.92 526.975 17.44C527.055 19.16 527.655 20.88 528.575 22.36C528.975 23 529.815 23.64 530.615 23.56C530.655 23.56 530.735 23.56 530.815 23.56C531.135 23.64 531.655 23.16 531.895 22.92C532.295 22.48 532.575 21.96 532.815 21.44C533.655 19.84 533.935 17.92 533.895 16.08C533.855 13.68 533.495 11.28 533.415 8.84C533.335 7.12 533.415 5.24 534.215 3.68C534.975 2.2 536.655 0.999999 538.295 0.879998C539.615 0.76 541.015 1.32 542.055 2.2C542.775 2.8 543.335 3.6 543.735 4.44C544.335 5.84 544.615 7.4 544.815 8.92C545.135 11.96 545.055 15.08 544.575 18.12C544.055 21.48 542.455 24.88 540.015 27.32C538.495 28.84 536.375 29.88 534.255 30.2ZM569.525 29.6C568.725 29.96 567.765 30 566.925 29.84C565.885 29.64 564.885 29.04 564.045 28.4C562.765 27.4 561.725 26.12 560.725 24.84C559.285 23 558.125 20.92 557.085 18.84C557.005 21.36 556.965 23.92 556.405 26.4C556.165 27.4 555.765 28.48 555.045 29.2C554.645 29.56 554.165 29.8 553.645 29.88C551.165 30.32 549.325 27.76 548.805 25.28C548.405 23.32 548.525 21.28 548.445 19.24C548.405 17.8 548.525 9.76 548.605 8.32C548.685 6.88 548.885 5.44 549.445 4.16C549.925 3.04 550.685 1.96 551.765 1.36C552.765 0.839999 554.165 0.799999 555.205 1.28C556.445 1.8 557.485 2.72 558.285 3.8C559.765 5.68 560.925 7.8 562.045 9.92C562.845 11.48 563.645 13 564.405 14.56C564.325 12.2 564.405 9.84 564.685 7.52C564.805 6.32 565.125 5.16 565.605 4.08C566.005 3.2 566.605 2.32 567.365 1.76C568.165 1.12 569.365 0.799999 570.365 1.08C571.005 1.28 571.565 1.72 572.005 2.24C573.205 3.76 573.765 5.76 574.005 7.68C574.565 11.72 574.405 15.88 573.965 19.96C573.765 22 573.525 24.12 572.765 26C572.125 27.48 571.005 28.92 569.525 29.6ZM589.334 29.96C587.774 30.04 586.254 30.16 584.694 30.12C583.294 30.08 581.854 30 580.494 29.56C579.774 29.32 579.054 28.92 578.574 28.32C578.094 27.72 577.854 26.96 577.814 26.2C577.774 24.52 578.614 21.84 580.214 21.28C581.294 20.88 582.534 20.84 583.694 20.92C583.294 17.68 583.334 14.36 583.774 11.16C582.454 11.48 580.854 11.4 579.694 10.72C578.974 10.28 578.414 9.64 578.014 8.92C577.214 7.6 577.054 5.8 577.454 4.28C577.854 2.88 578.934 1.52 580.254 0.96C581.654 0.4 583.254 0.439999 584.734 0.519998C585.014 0.519998 586.734 0.319998 587.014 0.319998C587.734 0.279999 591.854 0.279999 592.534 0.319998C593.974 0.359998 595.574 0.559998 596.734 1.36C597.294 1.76 597.734 2.28 598.054 2.84C599.494 5.48 598.494 9.2 596.014 10.88C595.334 11.36 594.454 11.56 593.614 11.64C594.054 14.32 594.054 17.12 593.574 19.84C594.454 19.88 595.334 20 596.134 20.36C596.734 20.64 597.334 21.08 597.734 21.64C598.654 22.84 599.134 24.52 598.974 26.04C598.854 27.2 598.174 28.4 597.254 29.04C596.334 29.68 595.134 29.88 594.014 29.96C592.454 30.04 590.894 29.84 589.334 29.96ZM616.274 27.12C615.394 28.84 613.674 29.88 611.794 29.88C610.474 29.84 609.114 29.12 608.234 28.12C607.394 27.12 606.874 25.88 606.514 24.68C606.074 23.04 605.874 21.32 605.914 19.6C605.994 16.76 606.394 13.92 606.874 11.12C605.954 11.12 604.994 11.04 604.154 10.72C603.194 10.36 602.354 9.76 601.674 9.04C600.154 7.44 600.394 4.4 601.754 2.68C602.354 1.92 603.194 1.36 604.074 1.04C604.634 0.879998 605.194 0.799999 605.754 0.799999C607.194 0.719998 608.634 0.839999 610.074 0.839999C610.394 0.839999 610.714 0.799999 611.034 0.799999C611.074 0.799999 611.234 0.879998 611.274 0.879998C612.954 0.799999 614.634 0.679998 616.314 0.679998C617.394 0.719998 618.474 0.879998 619.394 1.36C621.354 2.44 622.354 4.72 621.914 6.84C621.634 8.12 620.634 9.24 619.554 9.88C618.714 10.36 617.674 10.6 616.674 10.6C616.994 14.52 617.634 18.4 617.474 22.32C617.394 23.96 617.034 25.64 616.274 27.12ZM638.981 29.24C637.341 30.48 634.181 30.56 632.541 29.32C631.261 28.28 630.701 26.28 630.821 24.64C630.941 22.68 631.781 20.8 631.941 18.84C629.901 17.44 627.901 15.92 626.221 14.12C625.381 13.2 624.661 12.2 624.141 11.08C623.341 9.44 622.941 7.52 623.101 5.68C623.181 4.64 623.461 3.56 624.061 2.72C624.701 1.84 625.781 1.32 626.821 1.08C627.861 0.839999 629.061 1.04 630.021 1.56C630.901 2 631.621 2.72 632.181 3.52C633.941 5.92 634.141 9.24 635.821 11.68C635.861 11.72 636.061 11.76 636.101 11.8C636.501 11.88 636.981 11.68 637.261 11.36C637.581 11.04 637.861 10.6 638.101 10.16C639.301 7.92 639.501 5.24 640.861 3.08C641.181 2.56 641.621 2.08 642.141 1.76C642.581 1.48 643.101 1.36 643.621 1.24C644.061 1.12 644.501 0.999999 644.981 0.96C647.661 0.519998 649.701 2.92 650.021 5.64C650.181 6.72 650.141 7.88 649.821 8.92C649.581 9.76 649.141 10.56 648.821 11.36C647.981 13.4 646.621 15.24 644.941 16.68C643.541 17.84 641.901 18.8 640.181 19.24C640.781 21.52 641.221 24.04 640.661 26.36C640.381 27.4 639.861 28.56 638.981 29.24Z" fill="white"/>
<path d="M225.072 29.6C224.272 29.96 223.312 30 222.472 29.84C221.432 29.64 220.432 29.04 219.592 28.4C218.312 27.4 217.272 26.12 216.272 24.84C214.832 23 213.672 20.92 212.632 18.84C212.552 21.36 212.512 23.92 211.952 26.4C211.712 27.4 211.312 28.48 210.592 29.2C210.192 29.56 209.712 29.8 209.192 29.88C206.712 30.32 204.872 27.76 204.352 25.28C203.952 23.32 204.072 21.28 203.992 19.24C203.952 17.8 204.072 9.76 204.152 8.32C204.232 6.88 204.432 5.44 204.992 4.16C205.472 3.04 206.232 1.96 207.312 1.36C208.312 0.839999 209.712 0.799999 210.752 1.28C211.992 1.8 213.032 2.72 213.832 3.8C215.312 5.68 216.472 7.8 217.592 9.92C218.392 11.48 219.192 13 219.952 14.56C219.872 12.2 219.952 9.84 220.232 7.52C220.352 6.32 220.672 5.16 221.152 4.08C221.552 3.2 222.152 2.32 222.912 1.76C223.712 1.12 224.912 0.799999 225.912 1.08C226.552 1.28 227.112 1.72 227.552 2.24C228.752 3.76 229.312 5.76 229.552 7.68C230.112 11.72 229.952 15.88 229.512 19.96C229.312 22 229.072 24.12 228.312 26C227.672 27.48 226.552 28.92 225.072 29.6ZM247.161 30.36C245.041 30.56 242.841 30.24 240.841 29.56C238.481 28.76 236.361 26.92 235.001 24.84C234.441 23.96 233.881 23.04 233.561 22.04C232.721 19.56 232.721 16.84 233.001 14.28C233.321 11.4 234.601 8.56 236.321 6.16C237.521 4.52 239.081 3 240.881 1.96C242.521 0.96 244.521 0.439999 246.441 0.439999C248.321 0.479999 250.201 0.799999 251.961 1.36C253.721 1.96 255.241 3.4 256.321 4.92C257.161 6.08 257.721 7.52 258.041 8.96C258.521 11 258.641 13.08 258.601 15.16C258.521 18.32 257.681 21.6 256.041 24.28C255.081 25.96 253.721 27.52 252.081 28.56C250.641 29.52 248.921 30.16 247.161 30.36ZM245.361 20.6C246.681 21.32 248.121 20.28 248.841 19C249.881 17.24 250.201 15 249.881 13C249.721 12.04 249.401 11.08 248.801 10.28C248.481 9.84 247.961 9.4 247.401 9.28C246.841 9.12 246.201 9.28 245.721 9.64C243.441 11.16 242.801 15.52 243.641 18.12C243.961 19.08 244.481 20.12 245.361 20.6ZM270.202 29.8C268.962 30.28 267.402 30.24 266.162 29.68C264.842 29.08 263.762 27.92 263.042 26.72C262.002 24.96 261.682 22.76 261.562 20.72C261.442 18.08 261.642 15.4 262.002 12.76C262.282 10.44 262.682 8.16 263.362 5.96C263.442 5.76 263.642 5.04 263.842 4.88C264.122 4.16 264.682 3.52 265.322 3C266.442 2.08 267.762 1.36 269.162 1.04C271.802 0.479999 274.602 0.4 277.242 0.919998C280.122 1.48 283.162 2.84 285.042 5.16C285.922 6.24 286.562 7.56 286.802 8.92C287.042 10.44 286.722 12.08 286.002 13.4C285.522 14.36 284.842 15.28 284.002 16C283.202 16.72 282.242 17.24 281.322 17.76C282.802 19.12 284.642 19.92 286.322 21C287.002 21.44 287.602 22.08 287.962 22.84C288.962 24.96 287.842 27.76 285.762 28.88C284.922 29.36 283.802 29.48 282.842 29.36C281.522 29.2 280.282 28.56 279.162 27.84C276.682 26.16 274.882 23.56 273.322 21.04C273.642 22.68 273.682 24.44 273.282 26.04C273.002 27.04 272.562 28 271.842 28.72C271.402 29.2 270.842 29.56 270.202 29.8ZM274.402 13.48C275.482 13.92 277.202 13.4 277.922 12.48C278.282 12 278.442 11.32 278.322 10.76C278.122 9.76 277.202 8.96 276.322 8.52C275.842 8.32 275.282 8.16 274.762 8.28C273.362 8.68 272.802 10.72 272.962 12.2C273.322 12.72 273.802 13.24 274.402 13.48ZM294.615 30.4C292.575 30.76 291.255 28.6 290.855 26.6C290.655 25.52 290.575 24.44 290.615 23.36C290.775 20.08 291.415 16.8 292.215 13.6C292.575 12.04 292.975 10.52 293.495 9C293.775 8.12 295.295 3.92 295.775 3.12C295.815 3.04 295.975 3 296.015 2.92C296.375 2.44 296.775 1.96 297.255 1.6C298.135 0.96 299.255 0.559998 300.335 0.519998C300.495 0.519998 301.015 0.439999 301.135 0.519998C301.215 0.599999 301.695 0.639999 301.815 0.679998C302.215 0.799999 302.615 1.08 302.935 1.36C303.455 1.92 303.815 2.64 304.175 3.36C305.015 5.12 305.615 6.96 306.135 8.84C306.695 10.72 307.175 12.6 307.655 14.48C307.735 14.28 308.255 13.04 308.375 12.84C309.615 9.92 311.015 7.08 312.695 4.4C313.855 2.56 316.455 0.599999 318.495 1.36C321.495 2.4 322.655 9.04 323.215 12.16C323.335 12.88 324.135 17.28 324.255 18C324.655 20.32 324.935 22.68 324.695 25C324.575 26.48 324.095 28.12 323.015 29.2C322.295 29.88 321.015 30.24 320.055 29.92C319.095 29.56 318.295 28.68 317.815 27.76C316.255 24.88 315.455 21.56 314.615 18.36C314.055 19.72 313.455 21.04 312.815 22.36C312.055 23.92 311.215 25.44 310.055 26.72C309.535 27.24 308.895 27.68 308.175 27.84C307.655 27.96 307.095 27.88 306.575 27.68C305.855 27.32 305.175 26.72 304.695 26.04C303.175 23.88 302.335 21.28 301.455 18.76C300.775 21 300.095 23.28 299.215 25.44C298.495 27.16 297.335 28.8 295.815 29.84C295.455 30.12 295.055 30.32 294.615 30.4ZM339.373 29.96C337.813 30.04 336.293 30.16 334.733 30.12C333.333 30.08 331.893 30 330.533 29.56C329.813 29.32 329.093 28.92 328.613 28.32C328.133 27.72 327.893 26.96 327.853 26.2C327.813 24.52 328.653 21.84 330.253 21.28C331.333 20.88 332.573 20.84 333.733 20.92C333.333 17.68 333.373 14.36 333.813 11.16C332.493 11.48 330.893 11.4 329.733 10.72C329.013 10.28 328.453 9.64 328.053 8.92C327.253 7.6 327.093 5.8 327.493 4.28C327.893 2.88 328.973 1.52 330.293 0.96C331.693 0.4 333.293 0.439999 334.773 0.519998C335.053 0.519998 336.773 0.319998 337.053 0.319998C337.773 0.279999 341.893 0.279999 342.573 0.319998C344.013 0.359998 345.613 0.559998 346.773 1.36C347.333 1.76 347.773 2.28 348.093 2.84C349.533 5.48 348.533 9.2 346.053 10.88C345.373 11.36 344.493 11.56 343.653 11.64C344.093 14.32 344.093 17.12 343.613 19.84C344.493 19.88 345.373 20 346.173 20.36C346.773 20.64 347.373 21.08 347.773 21.64C348.693 22.84 349.173 24.52 349.013 26.04C348.893 27.2 348.213 28.4 347.293 29.04C346.373 29.68 345.173 29.88 344.053 29.96C342.493 30.04 340.933 29.84 339.373 29.96ZM367.713 30.08C365.113 30.2 362.513 30.2 359.953 29.76C358.313 29.48 356.673 28.84 355.433 27.76C353.553 26.12 352.313 23.6 351.953 21.08C351.513 18.44 351.633 15.68 352.033 13C352.353 10.6 352.873 8.2 353.953 6.04C354.633 4.76 355.553 3.56 356.633 2.56C357.273 1.96 357.993 1.44 358.833 1.16C359.753 0.799999 360.793 0.839999 361.753 0.639999C363.273 0.359998 364.833 0.359998 366.353 0.279999C368.753 0.119998 371.313 0.199997 373.433 1.28C373.953 1.56 374.433 2 374.793 2.52C375.193 3.16 375.393 3.92 375.433 4.72C375.593 7.12 373.993 9.48 371.593 9.44C370.913 9.44 370.193 9.28 369.553 9.08C368.313 8.76 367.073 8.36 365.793 8.2C364.753 8.12 363.593 8.24 362.753 8.88C362.393 9.16 362.113 9.64 362.113 10.12C362.153 10.52 362.593 10.52 362.993 10.48C364.233 10.32 365.393 9.88 366.633 9.76C367.393 9.68 368.193 9.64 368.913 9.88C369.553 10.16 370.153 10.68 370.433 11.32C370.793 12.2 370.913 13.16 370.833 14.08C370.793 14.96 370.553 15.92 369.993 16.6C369.633 17.08 369.153 17.44 368.593 17.68C367.993 17.92 367.353 17.96 366.673 18C365.673 18.04 362.793 17.6 362.073 18.32C361.313 19.04 362.313 20.16 363.353 20.4C364.393 20.6 365.513 20.32 366.553 20.08C368.073 19.76 369.673 19.36 371.193 19.64C372.393 19.8 373.633 20.48 374.273 21.44C374.793 22.24 374.913 23.32 374.713 24.24C374.353 26 373.393 27.8 371.993 28.92C370.833 29.84 369.193 30.04 367.713 30.08Z" fill="#08EAEA"/>
</svg>
