<svg width="515" height="46" viewBox="0 0 515 46" fill="none" xmlns="http://www.w3.org/2000/svg">
<rect x="0.5" y="0.5" width="514" height="45" rx="22.5" fill="white" stroke="black"/>
<path d="M71.1014 30.132C70.5294 30.286 69.8694 30.308 69.2754 30.176C69.2094 30.154 68.7694 30.066 68.6814 30.044C67.9774 29.824 67.3834 29.274 66.9214 28.702C66.3054 27.954 65.7774 27.096 65.3814 26.194C64.8974 25.05 64.6114 23.818 64.3914 22.586C64.1934 21.288 64.0834 19.946 64.1494 18.604C64.1934 17.614 64.4134 16.558 64.9634 15.722C65.4474 14.974 66.2394 14.336 67.1194 14.138C67.9554 13.94 68.8574 14.204 69.4954 14.82C70.0454 15.326 70.3754 16.074 70.5954 16.778C71.1234 18.692 70.8814 20.76 70.8814 22.74C70.8814 23.18 70.9254 23.62 71.0574 24.038C71.1014 24.148 71.1894 24.368 71.3214 24.368C71.4534 24.368 71.6074 24.148 71.6514 24.038C71.8494 23.642 71.9374 23.202 72.0034 22.784C72.2014 21.728 72.1354 20.628 72.2454 19.572C72.2894 18.956 72.4434 18.318 72.7294 17.768C73.1694 16.91 74.1814 16.36 75.1274 16.448C75.5014 16.47 75.8534 16.646 76.1174 16.91C76.4474 17.24 76.6894 17.658 76.8654 18.098C77.1734 18.868 77.2614 19.704 77.3274 20.518C77.3934 21.464 77.4154 22.454 77.3714 23.4C77.3714 23.532 77.5254 23.906 77.6134 24.016C77.6794 24.104 77.8114 24.214 77.9214 24.192C78.1634 24.192 78.4274 23.796 78.5154 23.576C78.7354 23.07 78.8454 22.52 78.9334 21.948C79.0654 21.222 79.1314 20.496 79.1754 19.77C79.2414 18.912 79.2194 18.032 79.3734 17.196C79.4614 16.646 79.6594 16.096 79.9894 15.612C80.9354 14.204 82.8934 13.786 84.2354 14.842C84.9174 15.392 85.4234 16.184 85.7314 16.998C86.2594 18.362 86.2814 19.924 85.9954 21.354C85.6434 23.224 84.9614 25.05 84.0374 26.7C83.5754 27.536 82.9814 28.284 82.2774 28.922C81.7714 29.362 81.1994 29.758 80.5614 29.956C80.1874 30.088 79.7694 30.088 79.3734 30.022C78.0314 29.846 76.7994 29.164 75.8974 28.108C75.4574 27.602 75.1274 27.008 74.8634 26.392C74.4454 27.272 73.8734 28.086 73.2134 28.79C72.6414 29.384 71.9154 29.89 71.1014 30.132ZM96.3889 30.044C94.9589 30.11 93.5289 30.11 92.1209 29.868C91.2189 29.714 90.3169 29.362 89.6349 28.768C88.6009 27.866 87.9189 26.48 87.7209 25.094C87.4789 23.642 87.5449 22.124 87.7649 20.65C87.9409 19.33 88.2269 18.01 88.8209 16.822C89.1949 16.118 89.7009 15.458 90.2949 14.908C90.6469 14.578 91.0429 14.292 91.5049 14.138C92.0109 13.94 92.5829 13.962 93.1109 13.852C93.9469 13.698 94.8049 13.698 95.6409 13.654C96.9609 13.566 98.3689 13.61 99.5349 14.204C99.8209 14.358 100.085 14.6 100.283 14.886C100.503 15.238 100.613 15.656 100.635 16.096C100.723 17.416 99.8429 18.714 98.5229 18.692C98.1489 18.692 97.7529 18.604 97.4009 18.494C96.7189 18.318 96.0369 18.098 95.3329 18.01C94.7609 17.966 94.1229 18.032 93.6609 18.384C93.4629 18.538 93.3089 18.802 93.3089 19.066C93.3309 19.286 93.5729 19.286 93.7929 19.264C94.4749 19.176 95.1129 18.934 95.7949 18.868C96.2129 18.824 96.6529 18.802 97.0489 18.934C97.4009 19.088 97.7309 19.374 97.8849 19.726C98.0829 20.21 98.1489 20.738 98.1049 21.244C98.0829 21.728 97.9509 22.256 97.6429 22.63C97.4449 22.894 97.1809 23.092 96.8729 23.224C96.5429 23.356 96.1909 23.378 95.8169 23.4C95.2669 23.422 93.6829 23.18 93.2869 23.576C92.8689 23.972 93.4189 24.588 93.9909 24.72C94.5629 24.83 95.1789 24.676 95.7509 24.544C96.5869 24.368 97.4669 24.148 98.3029 24.302C98.9629 24.39 99.6449 24.764 99.9969 25.292C100.283 25.732 100.349 26.326 100.239 26.832C100.041 27.8 99.5129 28.79 98.7429 29.406C98.1049 29.912 97.2029 30.022 96.3889 30.044ZM108.67 30.286C107.922 30.33 107.152 30.308 106.404 30.198C105.392 30.044 104.358 29.648 103.632 28.944C103.038 28.372 102.664 27.602 102.422 26.81C102.158 25.842 102.092 24.808 102.092 23.796C102.092 21.838 102.312 19.88 102.84 18.01C102.994 17.416 103.214 16.844 103.522 16.316C104.006 15.48 104.71 14.71 105.59 14.27C106.316 13.874 107.196 13.83 108.032 13.764C109.044 13.698 110.1 13.72 111.09 13.896C111.838 14.028 112.586 14.292 113.18 14.754C113.598 15.084 113.972 15.568 114.17 16.074C114.478 16.778 114.5 17.614 114.324 18.34C114.06 19.418 113.356 20.364 112.586 21.134C113.774 21.552 114.764 22.74 115.094 23.95C115.27 24.61 115.314 25.336 115.138 25.996C114.918 26.876 114.368 27.624 113.774 28.306C113.334 28.79 112.828 29.274 112.234 29.56C111.156 30.088 109.88 30.198 108.67 30.286ZM107.834 19.66C108.45 19.704 109.176 19.594 109.682 19.198C109.902 19.044 110.1 18.824 110.144 18.56C110.232 18.054 109.792 17.504 109.308 17.35C109.022 17.262 108.714 17.306 108.406 17.306C108.01 18.01 107.768 18.846 107.834 19.66ZM107.944 26.546C108.736 26.59 109.66 26.392 110.276 25.864C111.046 25.204 110.518 23.994 109.484 23.862C108.978 23.796 108.45 23.796 107.944 23.862C107.944 23.884 107.922 23.906 107.922 23.906C107.834 24.456 107.79 25.028 107.812 25.578C107.834 25.908 107.834 26.238 107.944 26.546ZM122.618 30.176C121.65 30.264 120.66 30.264 119.692 30.044C119.142 29.934 118.636 29.648 118.174 29.296C117.536 28.834 116.964 28.174 116.744 27.404C116.37 26.15 116.766 24.544 117.976 24.104C118.658 23.84 119.45 23.972 120.132 24.192C120.308 24.258 121.342 24.698 121.518 24.742C121.804 24.808 122.112 24.852 122.376 24.742C122.53 24.676 122.574 24.5 122.464 24.368C122.332 24.258 121.694 24.016 121.518 23.95C120.55 23.598 119.516 23.312 118.614 22.762C118.042 22.41 117.58 21.794 117.338 21.134C117.052 20.342 116.964 19.44 117.096 18.604C117.228 17.878 117.58 17.152 118.042 16.558C118.328 16.228 118.592 15.854 118.922 15.546C119.582 14.952 120.374 14.49 121.232 14.248C122.354 13.918 123.564 13.918 124.708 14.094C125.346 14.182 125.984 14.38 126.534 14.732C126.908 14.996 127.26 15.326 127.524 15.7C128.228 16.646 128.69 18.208 127.832 19.022C127.326 19.506 126.644 19.836 125.94 19.88C124.95 19.946 123.96 19.594 122.992 19.77C122.794 19.814 122.42 19.902 122.376 20.078C122.332 20.21 122.508 20.408 122.618 20.496C122.882 20.694 124.268 21.376 124.554 21.53C125.566 22.036 126.6 22.63 127.304 23.51C127.744 24.082 128.03 24.83 128.074 25.556C128.118 26.194 127.964 26.832 127.7 27.426C127.304 28.284 126.556 29.032 125.72 29.45C124.752 29.912 123.674 30.11 122.618 30.176ZM136.296 29.978C135.438 30.022 134.602 30.088 133.744 30.066C132.974 30.044 132.182 30 131.434 29.758C131.038 29.626 130.642 29.406 130.378 29.076C130.114 28.746 129.982 28.328 129.96 27.91C129.938 26.986 130.4 25.512 131.28 25.204C131.874 24.984 132.556 24.962 133.194 25.006C132.974 23.224 132.996 21.398 133.238 19.638C132.512 19.814 131.632 19.77 130.994 19.396C130.598 19.154 130.29 18.802 130.07 18.406C129.63 17.68 129.542 16.69 129.762 15.854C129.982 15.084 130.576 14.336 131.302 14.028C132.072 13.72 132.952 13.742 133.766 13.786C133.92 13.786 134.866 13.676 135.02 13.676C135.416 13.654 137.682 13.654 138.056 13.676C138.848 13.698 139.728 13.808 140.366 14.248C140.674 14.468 140.916 14.754 141.092 15.062C141.884 16.514 141.334 18.56 139.97 19.484C139.596 19.748 139.112 19.858 138.65 19.902C138.892 21.376 138.892 22.916 138.628 24.412C139.112 24.434 139.596 24.5 140.036 24.698C140.366 24.852 140.696 25.094 140.916 25.402C141.422 26.062 141.686 26.986 141.598 27.822C141.532 28.46 141.158 29.12 140.652 29.472C140.146 29.824 139.486 29.934 138.87 29.978C138.012 30.022 137.154 29.912 136.296 29.978ZM151.113 28.416C150.629 29.362 149.683 29.934 148.649 29.934C147.923 29.912 147.175 29.516 146.691 28.966C146.229 28.416 145.943 27.734 145.745 27.074C145.503 26.172 145.393 25.226 145.415 24.28C145.459 22.718 145.679 21.156 145.943 19.616C145.437 19.616 144.909 19.572 144.447 19.396C143.919 19.198 143.457 18.868 143.083 18.472C142.247 17.592 142.379 15.92 143.127 14.974C143.457 14.556 143.919 14.248 144.403 14.072C144.711 13.984 145.019 13.94 145.327 13.94C146.119 13.896 146.911 13.962 147.703 13.962C147.879 13.962 148.055 13.94 148.231 13.94C148.253 13.94 148.341 13.984 148.363 13.984C149.287 13.94 150.211 13.874 151.135 13.874C151.729 13.896 152.323 13.984 152.829 14.248C153.907 14.842 154.457 16.096 154.215 17.262C154.061 17.966 153.511 18.582 152.917 18.934C152.455 19.198 151.883 19.33 151.333 19.33C151.509 21.486 151.861 23.62 151.773 25.776C151.729 26.678 151.531 27.602 151.113 28.416ZM164.108 30.044C162.678 30.11 161.248 30.11 159.84 29.868C158.938 29.714 158.036 29.362 157.354 28.768C156.32 27.866 155.638 26.48 155.44 25.094C155.198 23.642 155.264 22.124 155.484 20.65C155.66 19.33 155.946 18.01 156.54 16.822C156.914 16.118 157.42 15.458 158.014 14.908C158.366 14.578 158.762 14.292 159.224 14.138C159.73 13.94 160.302 13.962 160.83 13.852C161.666 13.698 162.524 13.698 163.36 13.654C164.68 13.566 166.088 13.61 167.254 14.204C167.54 14.358 167.804 14.6 168.002 14.886C168.222 15.238 168.332 15.656 168.354 16.096C168.442 17.416 167.562 18.714 166.242 18.692C165.868 18.692 165.472 18.604 165.12 18.494C164.438 18.318 163.756 18.098 163.052 18.01C162.48 17.966 161.842 18.032 161.38 18.384C161.182 18.538 161.028 18.802 161.028 19.066C161.05 19.286 161.292 19.286 161.512 19.264C162.194 19.176 162.832 18.934 163.514 18.868C163.932 18.824 164.372 18.802 164.768 18.934C165.12 19.088 165.45 19.374 165.604 19.726C165.802 20.21 165.868 20.738 165.824 21.244C165.802 21.728 165.67 22.256 165.362 22.63C165.164 22.894 164.9 23.092 164.592 23.224C164.262 23.356 163.91 23.378 163.536 23.4C162.986 23.422 161.402 23.18 161.006 23.576C160.588 23.972 161.138 24.588 161.71 24.72C162.282 24.83 162.898 24.676 163.47 24.544C164.306 24.368 165.186 24.148 166.022 24.302C166.682 24.39 167.364 24.764 167.716 25.292C168.002 25.732 168.068 26.326 167.958 26.832C167.76 27.8 167.232 28.79 166.462 29.406C165.824 29.912 164.922 30.022 164.108 30.044ZM186.817 28.68C185.915 29.67 184.419 30.154 183.077 30.11C181.273 30.088 179.359 29.494 177.907 28.394C176.939 27.69 176.169 26.634 175.707 25.512C175.311 24.61 175.179 23.576 175.113 22.586C175.047 21.024 175.421 19.418 176.103 18.032C176.961 16.316 178.523 14.754 180.349 14.16C181.559 13.742 182.901 13.676 184.177 13.852C184.947 13.962 185.739 14.226 186.377 14.666C186.729 14.908 187.015 15.216 187.235 15.568C187.719 16.272 187.983 17.152 188.027 17.988C188.049 18.692 187.873 19.44 187.477 20.034C187.191 20.474 186.795 20.892 186.333 21.134C185.695 21.442 184.881 21.508 184.243 21.266C183.561 21.002 182.945 20.364 182.769 19.66C182.593 19.484 182.395 19.308 182.153 19.242C181.823 19.154 181.515 19.242 181.295 19.506C180.635 20.342 180.393 21.552 180.701 22.564C180.789 22.872 180.987 23.158 181.273 23.334C181.559 23.532 181.955 23.598 182.329 23.576C183.297 23.532 184.287 23.246 185.255 23.378C185.959 23.466 186.707 23.862 187.125 24.434C187.455 24.918 187.521 25.556 187.587 26.128C187.675 27.008 187.411 28.02 186.817 28.68ZM194.437 29.89C193.755 30.154 192.897 30.132 192.215 29.824C191.489 29.494 190.895 28.856 190.499 28.196C189.927 27.228 189.751 26.018 189.685 24.896C189.619 23.444 189.729 21.97 189.927 20.518C190.081 19.242 190.301 17.988 190.675 16.778C190.719 16.668 190.829 16.272 190.939 16.184C191.093 15.788 191.401 15.436 191.753 15.15C192.369 14.644 193.095 14.248 193.865 14.072C195.317 13.764 196.857 13.72 198.309 14.006C199.893 14.314 201.565 15.062 202.599 16.338C203.083 16.932 203.435 17.658 203.567 18.406C203.699 19.242 203.523 20.144 203.127 20.87C202.863 21.398 202.489 21.904 202.027 22.3C201.587 22.696 201.059 22.982 200.553 23.268C201.367 24.016 202.379 24.456 203.303 25.05C203.677 25.292 204.007 25.644 204.205 26.062C204.755 27.228 204.139 28.768 202.995 29.384C202.533 29.648 201.917 29.714 201.389 29.648C200.663 29.56 199.981 29.208 199.365 28.812C198.001 27.888 197.011 26.458 196.153 25.072C196.329 25.974 196.351 26.942 196.131 27.822C195.977 28.372 195.735 28.9 195.339 29.296C195.097 29.56 194.789 29.758 194.437 29.89ZM196.747 20.914C197.341 21.156 198.287 20.87 198.683 20.364C198.881 20.1 198.969 19.726 198.903 19.418C198.793 18.868 198.287 18.428 197.803 18.186C197.539 18.076 197.231 17.988 196.945 18.054C196.175 18.274 195.867 19.396 195.955 20.21C196.153 20.496 196.417 20.782 196.747 20.914ZM214.574 30.044C213.144 30.11 211.714 30.11 210.306 29.868C209.404 29.714 208.502 29.362 207.82 28.768C206.786 27.866 206.104 26.48 205.906 25.094C205.664 23.642 205.73 22.124 205.95 20.65C206.126 19.33 206.412 18.01 207.006 16.822C207.38 16.118 207.886 15.458 208.48 14.908C208.832 14.578 209.228 14.292 209.69 14.138C210.196 13.94 210.768 13.962 211.296 13.852C212.132 13.698 212.99 13.698 213.826 13.654C215.146 13.566 216.554 13.61 217.72 14.204C218.006 14.358 218.27 14.6 218.468 14.886C218.688 15.238 218.798 15.656 218.82 16.096C218.908 17.416 218.028 18.714 216.708 18.692C216.334 18.692 215.938 18.604 215.586 18.494C214.904 18.318 214.222 18.098 213.518 18.01C212.946 17.966 212.308 18.032 211.846 18.384C211.648 18.538 211.494 18.802 211.494 19.066C211.516 19.286 211.758 19.286 211.978 19.264C212.66 19.176 213.298 18.934 213.98 18.868C214.398 18.824 214.838 18.802 215.234 18.934C215.586 19.088 215.916 19.374 216.07 19.726C216.268 20.21 216.334 20.738 216.29 21.244C216.268 21.728 216.136 22.256 215.828 22.63C215.63 22.894 215.366 23.092 215.058 23.224C214.728 23.356 214.376 23.378 214.002 23.4C213.452 23.422 211.868 23.18 211.472 23.576C211.054 23.972 211.604 24.588 212.176 24.72C212.748 24.83 213.364 24.676 213.936 24.544C214.772 24.368 215.652 24.148 216.488 24.302C217.148 24.39 217.83 24.764 218.182 25.292C218.468 25.732 218.534 26.326 218.424 26.832C218.226 27.8 217.698 28.79 216.928 29.406C216.29 29.912 215.388 30.022 214.574 30.044ZM223.489 29.67C223.115 29.912 222.675 30.022 222.257 30.022C221.795 30.044 221.311 29.912 220.959 29.626C220.409 29.186 220.079 28.46 219.991 27.778C219.815 26.414 220.123 25.006 220.453 23.686C221.113 21.178 222.235 18.736 223.753 16.646C224.259 15.942 224.897 15.282 225.579 14.71C225.887 14.468 226.261 14.226 226.657 14.138C227.251 14.006 227.867 13.984 228.461 14.094C229.385 14.248 230.265 14.732 230.947 15.348C231.959 16.316 232.685 17.57 233.323 18.824C233.939 20.056 234.379 21.398 234.709 22.762C234.995 24.082 235.171 25.468 235.017 26.81C234.885 27.822 234.247 28.9 233.367 29.45C232.553 29.934 231.497 30.11 230.595 29.89C230.243 29.802 229.891 29.626 229.627 29.384C229.253 29.054 228.989 28.592 228.791 28.13C228.417 27.294 228.219 26.392 228.153 25.49C227.339 25.556 226.525 25.6 225.711 25.578C225.425 26.458 225.161 27.36 224.721 28.174C224.435 28.746 224.039 29.318 223.489 29.67ZM227.097 19.11C226.437 19.924 226.107 20.958 225.931 21.992C226.239 21.97 227.933 21.794 228.219 21.75C228.153 21.222 228.131 20.672 228.065 20.144C228.021 19.704 227.911 19.264 227.713 18.89C227.669 18.802 227.515 18.802 227.427 18.824C227.295 18.868 227.185 19 227.097 19.11ZM243.668 28.416C243.184 29.362 242.238 29.934 241.204 29.934C240.478 29.912 239.73 29.516 239.246 28.966C238.784 28.416 238.498 27.734 238.3 27.074C238.058 26.172 237.948 25.226 237.97 24.28C238.014 22.718 238.234 21.156 238.498 19.616C237.992 19.616 237.464 19.572 237.002 19.396C236.474 19.198 236.012 18.868 235.638 18.472C234.802 17.592 234.934 15.92 235.682 14.974C236.012 14.556 236.474 14.248 236.958 14.072C237.266 13.984 237.574 13.94 237.882 13.94C238.674 13.896 239.466 13.962 240.258 13.962C240.434 13.962 240.61 13.94 240.786 13.94C240.808 13.94 240.896 13.984 240.918 13.984C241.842 13.94 242.766 13.874 243.69 13.874C244.284 13.896 244.878 13.984 245.384 14.248C246.462 14.842 247.012 16.096 246.77 17.262C246.616 17.966 246.066 18.582 245.472 18.934C245.01 19.198 244.438 19.33 243.888 19.33C244.064 21.486 244.416 23.62 244.328 25.776C244.284 26.678 244.086 27.602 243.668 28.416ZM256.662 30.044C255.232 30.11 253.802 30.11 252.394 29.868C251.492 29.714 250.59 29.362 249.908 28.768C248.874 27.866 248.192 26.48 247.994 25.094C247.752 23.642 247.818 22.124 248.038 20.65C248.214 19.33 248.5 18.01 249.094 16.822C249.468 16.118 249.974 15.458 250.568 14.908C250.92 14.578 251.316 14.292 251.778 14.138C252.284 13.94 252.856 13.962 253.384 13.852C254.22 13.698 255.078 13.698 255.914 13.654C257.234 13.566 258.642 13.61 259.808 14.204C260.094 14.358 260.358 14.6 260.556 14.886C260.776 15.238 260.886 15.656 260.908 16.096C260.996 17.416 260.116 18.714 258.796 18.692C258.422 18.692 258.026 18.604 257.674 18.494C256.992 18.318 256.31 18.098 255.606 18.01C255.034 17.966 254.396 18.032 253.934 18.384C253.736 18.538 253.582 18.802 253.582 19.066C253.604 19.286 253.846 19.286 254.066 19.264C254.748 19.176 255.386 18.934 256.068 18.868C256.486 18.824 256.926 18.802 257.322 18.934C257.674 19.088 258.004 19.374 258.158 19.726C258.356 20.21 258.422 20.738 258.378 21.244C258.356 21.728 258.224 22.256 257.916 22.63C257.718 22.894 257.454 23.092 257.146 23.224C256.816 23.356 256.464 23.378 256.09 23.4C255.54 23.422 253.956 23.18 253.56 23.576C253.142 23.972 253.692 24.588 254.264 24.72C254.836 24.83 255.452 24.676 256.024 24.544C256.86 24.368 257.74 24.148 258.576 24.302C259.236 24.39 259.918 24.764 260.27 25.292C260.556 25.732 260.622 26.326 260.512 26.832C260.314 27.8 259.786 28.79 259.016 29.406C258.378 29.912 257.476 30.022 256.662 30.044ZM271.011 30C269.713 30.22 268.327 30.22 267.007 30C266.303 29.89 265.599 29.648 265.005 29.23C264.631 28.944 264.301 28.592 264.015 28.218C263.377 27.316 262.937 26.26 262.717 25.182C262.387 23.62 262.387 21.97 262.497 20.386C262.585 18.846 262.783 17.284 263.135 15.788C263.135 15.766 263.135 15.722 263.135 15.7C263.179 15.304 263.311 14.908 263.553 14.578C263.751 14.27 264.081 14.028 264.411 13.918C265.071 13.654 265.797 13.632 266.501 13.632C267.821 13.632 269.141 13.72 270.461 13.896C271.429 14.028 272.419 14.248 273.321 14.644C274.641 15.238 275.939 16.162 276.709 17.394C277.061 17.922 277.281 18.538 277.435 19.154C277.765 20.408 277.787 21.772 277.611 23.048C277.391 24.566 276.665 26.018 275.719 27.25C275.103 28.042 274.311 28.746 273.431 29.208C272.683 29.604 271.847 29.846 271.011 30ZM269.889 24.676C270.461 24.72 271.099 24.566 271.583 24.236C271.979 23.972 272.265 23.51 272.397 23.026C272.639 22.058 272.463 20.892 271.913 20.034C271.583 19.528 271.011 19.198 270.461 18.956C269.911 18.736 269.317 18.604 268.723 18.692C268.569 19.814 268.503 20.98 268.525 22.102C268.525 22.806 268.613 23.51 268.767 24.192C269.075 24.456 269.471 24.632 269.889 24.676ZM291.244 30.286C290.496 30.33 289.726 30.308 288.978 30.198C287.966 30.044 286.932 29.648 286.206 28.944C285.612 28.372 285.238 27.602 284.996 26.81C284.732 25.842 284.666 24.808 284.666 23.796C284.666 21.838 284.886 19.88 285.414 18.01C285.568 17.416 285.788 16.844 286.096 16.316C286.58 15.48 287.284 14.71 288.164 14.27C288.89 13.874 289.77 13.83 290.606 13.764C291.618 13.698 292.674 13.72 293.664 13.896C294.412 14.028 295.16 14.292 295.754 14.754C296.172 15.084 296.546 15.568 296.744 16.074C297.052 16.778 297.074 17.614 296.898 18.34C296.634 19.418 295.93 20.364 295.16 21.134C296.348 21.552 297.338 22.74 297.668 23.95C297.844 24.61 297.888 25.336 297.712 25.996C297.492 26.876 296.942 27.624 296.348 28.306C295.908 28.79 295.402 29.274 294.808 29.56C293.73 30.088 292.454 30.198 291.244 30.286ZM290.408 19.66C291.024 19.704 291.75 19.594 292.256 19.198C292.476 19.044 292.674 18.824 292.718 18.56C292.806 18.054 292.366 17.504 291.882 17.35C291.596 17.262 291.288 17.306 290.98 17.306C290.584 18.01 290.342 18.846 290.408 19.66ZM290.518 26.546C291.31 26.59 292.234 26.392 292.85 25.864C293.62 25.204 293.092 23.994 292.058 23.862C291.552 23.796 291.024 23.796 290.518 23.862C290.518 23.884 290.496 23.906 290.496 23.906C290.408 24.456 290.364 25.028 290.386 25.578C290.408 25.908 290.408 26.238 290.518 26.546ZM307.568 29.582C306.666 30.264 304.928 30.308 304.026 29.626C303.322 29.054 303.014 27.954 303.08 27.052C303.146 25.974 303.608 24.94 303.696 23.862C302.574 23.092 301.474 22.256 300.55 21.266C300.088 20.76 299.692 20.21 299.406 19.594C298.966 18.692 298.746 17.636 298.834 16.624C298.878 16.052 299.032 15.458 299.362 14.996C299.714 14.512 300.308 14.226 300.88 14.094C301.452 13.962 302.112 14.072 302.64 14.358C303.124 14.6 303.52 14.996 303.828 15.436C304.796 16.756 304.906 18.582 305.83 19.924C305.852 19.946 305.962 19.968 305.984 19.99C306.204 20.034 306.468 19.924 306.622 19.748C306.798 19.572 306.952 19.33 307.084 19.088C307.744 17.856 307.854 16.382 308.602 15.194C308.778 14.908 309.02 14.644 309.306 14.468C309.548 14.314 309.834 14.248 310.12 14.182C310.362 14.116 310.604 14.05 310.868 14.028C312.342 13.786 313.464 15.106 313.64 16.602C313.728 17.196 313.706 17.834 313.53 18.406C313.398 18.868 313.156 19.308 312.98 19.748C312.518 20.87 311.77 21.882 310.846 22.674C310.076 23.312 309.174 23.84 308.228 24.082C308.558 25.336 308.8 26.722 308.492 27.998C308.338 28.57 308.052 29.208 307.568 29.582ZM331.748 31.188C330.274 31.386 328.778 31.276 327.304 31.056C325.94 30.858 324.554 30.506 323.388 29.758C322.244 28.988 321.276 27.778 320.902 26.458C320.374 24.654 320.352 22.652 320.704 20.804C321.056 18.846 322.398 17.02 323.982 15.766C326.028 14.138 328.712 13.28 331.374 13.434C332.452 13.478 333.53 13.72 334.52 14.094C335.466 14.468 336.39 14.996 337.094 15.744C337.798 16.514 338.194 17.57 338.414 18.604C338.612 19.528 338.59 20.496 338.458 21.42C338.282 22.52 337.93 23.686 337.16 24.5C336.368 25.358 335.136 25.864 333.97 25.952C333.222 25.996 332.452 25.578 331.968 25.028C331.594 25.49 331.176 25.93 330.648 26.194C329.724 26.678 328.58 26.7 327.634 26.282C327.04 26.04 326.512 25.578 326.204 25.028C325.5 23.664 326.094 21.156 327.15 20.012C327.766 19.374 328.624 18.846 329.504 18.714C330.142 18.626 330.846 18.868 331.396 19.198C332.034 19.594 332.43 20.32 332.738 21.002C332.936 21.42 333.09 22.586 333.53 22.696C334.014 22.806 334.652 22.3 334.894 21.882C335.158 21.442 335.268 20.914 335.224 20.43C335.07 18.56 333.574 16.844 331.792 16.448C330.516 16.14 329.064 16.36 327.854 16.932C326.556 17.548 325.412 18.714 324.818 20.034C324.246 21.288 324.158 22.806 324.4 24.17C324.686 25.754 326.292 27.492 327.876 27.558C328.602 27.58 329.35 27.404 330.032 27.118C330.67 26.876 331.308 26.546 331.968 26.458C332.804 26.348 333.772 26.436 334.454 26.942C335.048 27.382 335.246 28.328 335.092 29.054C335.004 29.472 334.762 29.868 334.454 30.154C333.728 30.814 332.694 31.056 331.748 31.188ZM329.284 23.554C329.768 23.62 330.164 23.026 330.318 22.564C330.406 22.212 330.384 21.618 330.076 21.442C329.834 21.288 329.504 21.53 329.306 21.75C329.064 22.058 328.866 22.476 328.866 22.872C328.844 23.158 328.998 23.51 329.284 23.554ZM342.271 30.22C341.149 30.418 340.423 29.23 340.203 28.13C340.093 27.536 340.049 26.942 340.071 26.348C340.159 24.544 340.511 22.74 340.951 20.98C341.149 20.122 341.369 19.286 341.655 18.45C341.809 17.966 342.645 15.656 342.909 15.216C342.931 15.172 343.019 15.15 343.041 15.106C343.239 14.842 343.459 14.578 343.723 14.38C344.207 14.028 344.823 13.808 345.417 13.786C345.505 13.786 345.791 13.742 345.857 13.786C345.901 13.83 346.165 13.852 346.231 13.874C346.451 13.94 346.671 14.094 346.847 14.248C347.133 14.556 347.331 14.952 347.529 15.348C347.991 16.316 348.321 17.328 348.607 18.362C348.915 19.396 349.179 20.43 349.443 21.464C349.487 21.354 349.773 20.672 349.839 20.562C350.521 18.956 351.291 17.394 352.215 15.92C352.853 14.908 354.283 13.83 355.405 14.248C357.055 14.82 357.693 18.472 358.001 20.188C358.067 20.584 358.507 23.004 358.573 23.4C358.793 24.676 358.947 25.974 358.815 27.25C358.749 28.064 358.485 28.966 357.891 29.56C357.495 29.934 356.791 30.132 356.263 29.956C355.735 29.758 355.295 29.274 355.031 28.768C354.173 27.184 353.733 25.358 353.271 23.598C352.963 24.346 352.633 25.072 352.281 25.798C351.863 26.656 351.401 27.492 350.763 28.196C350.477 28.482 350.125 28.724 349.729 28.812C349.443 28.878 349.135 28.834 348.849 28.724C348.453 28.526 348.079 28.196 347.815 27.822C346.979 26.634 346.517 25.204 346.033 23.818C345.659 25.05 345.285 26.304 344.801 27.492C344.405 28.438 343.767 29.34 342.931 29.912C342.733 30.066 342.513 30.176 342.271 30.22ZM368.141 30.198C366.975 30.308 365.765 30.132 364.665 29.758C363.367 29.318 362.201 28.306 361.453 27.162C361.145 26.678 360.837 26.172 360.661 25.622C360.199 24.258 360.199 22.762 360.353 21.354C360.529 19.77 361.233 18.208 362.179 16.888C362.839 15.986 363.697 15.15 364.687 14.578C365.589 14.028 366.689 13.742 367.745 13.742C368.779 13.764 369.813 13.94 370.781 14.248C371.749 14.578 372.585 15.37 373.179 16.206C373.641 16.844 373.949 17.636 374.125 18.428C374.389 19.55 374.455 20.694 374.433 21.838C374.389 23.576 373.927 25.38 373.025 26.854C372.497 27.778 371.749 28.636 370.847 29.208C370.055 29.736 369.109 30.088 368.141 30.198ZM367.151 24.83C367.877 25.226 368.669 24.654 369.065 23.95C369.637 22.982 369.813 21.75 369.637 20.65C369.549 20.122 369.373 19.594 369.043 19.154C368.867 18.912 368.581 18.67 368.273 18.604C367.965 18.516 367.613 18.604 367.349 18.802C366.095 19.638 365.743 22.036 366.205 23.466C366.381 23.994 366.667 24.566 367.151 24.83ZM387.854 29.78C387.414 29.978 386.886 30 386.424 29.912C385.852 29.802 385.302 29.472 384.84 29.12C384.136 28.57 383.564 27.866 383.014 27.162C382.222 26.15 381.584 25.006 381.012 23.862C380.968 25.248 380.946 26.656 380.638 28.02C380.506 28.57 380.286 29.164 379.89 29.56C379.67 29.758 379.406 29.89 379.12 29.934C377.756 30.176 376.744 28.768 376.458 27.404C376.238 26.326 376.304 25.204 376.26 24.082C376.238 23.29 376.304 18.868 376.348 18.076C376.392 17.284 376.502 16.492 376.81 15.788C377.074 15.172 377.492 14.578 378.086 14.248C378.636 13.962 379.406 13.94 379.978 14.204C380.66 14.49 381.232 14.996 381.672 15.59C382.486 16.624 383.124 17.79 383.74 18.956C384.18 19.814 384.62 20.65 385.038 21.508C384.994 20.21 385.038 18.912 385.192 17.636C385.258 16.976 385.434 16.338 385.698 15.744C385.918 15.26 386.248 14.776 386.666 14.468C387.106 14.116 387.766 13.94 388.316 14.094C388.668 14.204 388.976 14.446 389.218 14.732C389.878 15.568 390.186 16.668 390.318 17.724C390.626 19.946 390.538 22.234 390.296 24.478C390.186 25.6 390.054 26.766 389.636 27.8C389.284 28.614 388.668 29.406 387.854 29.78ZM395.515 29.67C395.141 29.912 394.701 30.022 394.283 30.022C393.821 30.044 393.337 29.912 392.985 29.626C392.435 29.186 392.105 28.46 392.017 27.778C391.841 26.414 392.149 25.006 392.479 23.686C393.139 21.178 394.261 18.736 395.779 16.646C396.285 15.942 396.923 15.282 397.605 14.71C397.913 14.468 398.287 14.226 398.683 14.138C399.277 14.006 399.893 13.984 400.487 14.094C401.411 14.248 402.291 14.732 402.973 15.348C403.985 16.316 404.711 17.57 405.349 18.824C405.965 20.056 406.405 21.398 406.735 22.762C407.021 24.082 407.197 25.468 407.043 26.81C406.911 27.822 406.273 28.9 405.393 29.45C404.579 29.934 403.523 30.11 402.621 29.89C402.269 29.802 401.917 29.626 401.653 29.384C401.279 29.054 401.015 28.592 400.817 28.13C400.443 27.294 400.245 26.392 400.179 25.49C399.365 25.556 398.551 25.6 397.737 25.578C397.451 26.458 397.187 27.36 396.747 28.174C396.461 28.746 396.065 29.318 395.515 29.67ZM399.123 19.11C398.463 19.924 398.133 20.958 397.957 21.992C398.265 21.97 399.959 21.794 400.245 21.75C400.179 21.222 400.157 20.672 400.091 20.144C400.047 19.704 399.937 19.264 399.739 18.89C399.695 18.802 399.541 18.802 399.453 18.824C399.321 18.868 399.211 19 399.123 19.11ZM413.341 29.89C412.66 30.154 411.802 30.132 411.12 29.824C410.394 29.494 409.8 28.856 409.404 28.196C408.832 27.228 408.656 26.018 408.59 24.896C408.524 23.444 408.634 21.97 408.832 20.518C408.986 19.242 409.206 17.988 409.58 16.778C409.624 16.668 409.734 16.272 409.844 16.184C409.998 15.788 410.306 15.436 410.658 15.15C411.274 14.644 412 14.248 412.77 14.072C414.222 13.764 415.762 13.72 417.214 14.006C418.797 14.314 420.47 15.062 421.504 16.338C421.988 16.932 422.34 17.658 422.472 18.406C422.604 19.242 422.428 20.144 422.032 20.87C421.768 21.398 421.394 21.904 420.932 22.3C420.492 22.696 419.964 22.982 419.458 23.268C420.272 24.016 421.284 24.456 422.208 25.05C422.582 25.292 422.912 25.644 423.11 26.062C423.66 27.228 423.044 28.768 421.9 29.384C421.438 29.648 420.822 29.714 420.294 29.648C419.568 29.56 418.886 29.208 418.27 28.812C416.906 27.888 415.916 26.458 415.058 25.072C415.234 25.974 415.256 26.942 415.036 27.822C414.882 28.372 414.64 28.9 414.244 29.296C414.002 29.56 413.694 29.758 413.341 29.89ZM415.652 20.914C416.246 21.156 417.192 20.87 417.588 20.364C417.786 20.1 417.874 19.726 417.808 19.418C417.698 18.868 417.192 18.428 416.708 18.186C416.444 18.076 416.136 17.988 415.85 18.054C415.08 18.274 414.772 19.396 414.86 20.21C415.058 20.496 415.322 20.782 415.652 20.914ZM436.229 28.68C435.327 29.67 433.831 30.154 432.489 30.11C430.685 30.088 428.771 29.494 427.319 28.394C426.351 27.69 425.581 26.634 425.119 25.512C424.723 24.61 424.591 23.576 424.525 22.586C424.459 21.024 424.833 19.418 425.515 18.032C426.373 16.316 427.935 14.754 429.761 14.16C430.971 13.742 432.313 13.676 433.589 13.852C434.359 13.962 435.151 14.226 435.789 14.666C436.141 14.908 436.427 15.216 436.647 15.568C437.131 16.272 437.395 17.152 437.439 17.988C437.461 18.692 437.285 19.44 436.889 20.034C436.603 20.474 436.207 20.892 435.745 21.134C435.107 21.442 434.293 21.508 433.655 21.266C432.973 21.002 432.357 20.364 432.181 19.66C432.005 19.484 431.807 19.308 431.565 19.242C431.235 19.154 430.927 19.242 430.707 19.506C430.047 20.342 429.805 21.552 430.113 22.564C430.201 22.872 430.399 23.158 430.685 23.334C430.971 23.532 431.367 23.598 431.741 23.576C432.709 23.532 433.699 23.246 434.667 23.378C435.371 23.466 436.119 23.862 436.537 24.434C436.867 24.918 436.933 25.556 436.999 26.128C437.087 27.008 436.823 28.02 436.229 28.68ZM443.343 30.022C442.903 30.154 442.419 30.198 441.957 30.176C441.297 30.132 440.571 29.978 440.087 29.538C439.845 29.318 439.647 29.032 439.537 28.724C439.405 28.35 439.405 27.932 439.405 27.536C439.427 26.59 439.691 25.666 439.867 24.742C440.043 23.708 440.175 22.652 440.043 21.618C439.889 20.254 439.097 19 439.053 17.636C439.031 17.02 439.163 16.382 439.427 15.832C439.691 15.304 440.065 14.798 440.571 14.49C441.297 14.05 442.287 13.896 443.101 14.138C443.431 14.226 443.695 14.446 443.937 14.688C444.377 15.128 444.707 15.7 444.817 16.294C445.059 17.702 444.707 19.132 444.575 20.54C444.905 20.672 445.301 20.694 445.675 20.672C446.291 20.65 446.885 20.518 447.501 20.386C447.479 19.77 447.303 19.176 447.215 18.56C447.127 18.032 447.171 17.504 447.259 16.998C447.391 16.096 447.875 15.194 448.579 14.622C449.415 13.962 450.911 13.984 451.725 14.688C452.077 14.974 452.341 15.392 452.473 15.81C452.671 16.382 452.715 16.998 452.671 17.57C452.583 18.714 452.209 19.814 452.011 20.914C451.835 21.86 451.769 22.85 451.901 23.774C452.033 24.742 452.407 25.622 452.605 26.568C452.737 27.228 452.715 27.954 452.473 28.592C452.341 28.922 452.143 29.23 451.879 29.45C451.571 29.692 451.197 29.846 450.801 29.934C450.229 30.044 449.635 29.978 449.063 29.868C448.623 29.78 448.139 29.67 447.765 29.406C447.501 29.23 447.281 28.966 447.171 28.658C446.973 28.174 446.907 27.624 446.907 27.074C446.907 26.238 447.149 25.424 447.413 24.632C446.533 24.478 445.631 24.368 444.773 24.566C445.015 25.534 445.235 26.546 445.169 27.558C445.147 28.196 444.883 28.834 444.443 29.296C444.157 29.626 443.761 29.89 443.343 30.022Z" fill="black"/>
</svg>
