<svg width="1184" height="416" viewBox="0 0 1184 416" fill="none" xmlns="http://www.w3.org/2000/svg">
<path d="M142.02 347.716C136.8 349.726 130.54 348.076 125.05 344.656C118.27 340.456 111.72 332.486 106.19 324.616C97.72 312.726 90.64 299.146 83.67 286.196C73.2 268.586 63.79 250.416 54.71 233.336C56.49 253.046 58.77 273.386 57.1 292.786C56.08 300.676 53.92 309.026 49.63 313.726C47.2 315.986 44.28 317.016 41.16 316.596C26.25 314.976 19.01 292.136 19.58 274.076C18 260.276 8.02 246.726 0 232.636C3.45 223.026 7.84 168.166 14.68 158.286C19.33 148.326 20.08 138.426 21.07 129.176C22.11 120.746 24.85 111.626 30.19 104.816C35.56 98.3461 43.71 94.6961 49.96 96.3761C57.39 98.0161 63.57 103.706 68.18 111.396C76.78 124.926 83.47 141.496 90.32 158.566C95.48 171.486 100.87 184.396 106.11 198.036C105.62 176.806 106.4 155.296 108.57 133.526C109.51 122.096 111.73 110.516 114.95 99.1661C117.58 89.7161 121.49 79.6661 126.41 72.2661C131.57 63.8261 139.33 57.5761 145.84 58.0861C150.01 58.6461 153.7 62.0061 156.63 66.5561C164.66 80.3361 168.61 100.986 170.48 121.446C174.78 164.626 174.12 209.556 171.29 253.136C169.95 274.776 168.33 297.176 163.27 316.116C159.04 330.696 151.7 343.676 142.02 347.716Z" fill="white"/>
<path d="M288.38 399.846C274.16 400.826 259.51 392.456 246.26 379.966C230.62 365.606 216.65 339.816 207.75 313.336C204.08 302.406 200.4 291.166 198.3 279.406C192.75 250.746 192.7 220.236 194.39 191.456C196.15 158.686 204.18 124.706 215.06 93.9061C222.62 71.9861 232.59 50.2061 244.22 33.3761C254.81 16.9061 267.9 5.72614 280.69 2.99614C293.42 4.87614 306.35 12.9261 318.51 24.0861C330.67 35.5661 341.35 56.5761 348.99 77.1461C354.91 92.5361 358.96 110.556 361.34 128.026C364.85 152.496 365.9 176.896 365.8 201.116C365.43 237.896 359.84 276.746 348.76 310.266C342.23 331.816 332.96 353.006 321.8 368.726C311.99 383.486 300.3 394.886 288.38 399.846ZM277.22 269.266C286.03 278.626 295.71 265.236 300.54 248.876C307.45 226.536 309.44 198.356 307.07 173.066C305.85 160.836 303.54 148.516 299.36 138.086C297.12 132.316 293.53 126.506 289.75 124.876C285.97 122.776 281.71 124.896 278.58 129.646C263.65 149.816 259.97 204.906 265.72 237.556C267.87 249.716 271.34 262.986 277.22 269.266Z" fill="white"/>
<path d="M443.97 345.346C435.61 352.836 425.11 355.886 416.76 352.836C407.88 349.386 400.64 339.236 395.82 327.646C388.86 310.066 386.73 286.136 385.91 263.556C385.03 234.146 386.25 204.196 388.47 174.906C390.13 149.306 392.57 124.516 396.91 101.406C397.42 99.3561 398.68 91.8861 400.01 90.5161C401.83 83.2961 405.54 77.6061 409.82 73.4661C417.32 66.3761 426.22 62.1461 435.7 62.3761C453.61 63.5561 472.64 70.0261 490.6 81.5261C510.19 93.4761 530.81 111.146 543.49 131.226C549.4 139.796 553.68 149.576 555.27 159.376C556.86 170.446 554.72 182.356 549.9 191.986C546.69 199.106 542.14 205.956 536.52 211.386C531.16 216.916 524.73 221.016 518.58 225.266C528.53 235.576 540.87 241.136 552.14 248.696C556.71 251.756 560.73 256.256 563.16 261.616C569.9 276.256 562.51 295.256 548.62 305.476C542.99 310.526 535.46 313.636 529.01 314.606C520.13 315.976 511.8 313.116 504.27 309.186C487.58 299.016 475.46 278.576 464.94 257.296C467.11 272.036 467.4 288.106 464.73 303.476C462.85 313.276 459.88 323.146 455.03 331.426C452.07 336.956 448.29 341.626 443.97 345.346ZM471.96 188.406C479.24 192.756 490.8 188.936 495.62 181.486C498.02 177.666 499.09 172.106 498.26 167.346C496.9 158.806 490.67 151.046 484.72 146.196C481.47 143.846 477.68 141.686 474.19 142.076C464.75 143.896 461.08 162.116 462.23 175.936C464.67 180.966 467.92 185.956 471.96 188.406Z" fill="white"/>
<path d="M607.42 321.206C593.99 318.606 585.27 301.186 582.55 287.776C581.19 280.436 580.62 273.026 580.87 265.536C581.89 242.046 586.14 217.936 591.46 194.066C593.87 182.416 596.54 171.076 600.02 159.706C601.89 153.106 612 120.766 615.16 113.906C615.41 113.216 616.48 112.586 616.74 111.896C619.11 107.426 621.72 102.776 624.88 98.7361C630.62 91.2461 637.97 84.8961 645.07 81.6661C646.12 81.2361 649.54 79.1261 650.33 79.5261C650.87 80.0361 654.03 79.1261 654.82 79.1761C657.46 79.2061 660.13 80.7361 662.27 82.4861C665.75 86.3561 668.19 92.1461 670.64 98.0061C676.35 112.656 680.48 128.906 684.06 145.986C687.87 163.416 691.13 181.266 694.36 199.476C694.89 197.506 698.33 185.106 699.13 183.056C707.25 152.766 716.31 121.646 727.1 90.1861C734.46 67.6961 751.22 39.4161 764.85 42.7961C784.94 47.8461 794.17 128.856 798.31 167.986C799.18 177.086 804.59 233.186 805.34 242.486C807.78 272.656 809.23 303.646 807.07 333.686C805.85 352.756 802.17 372.906 794.69 383.936C789.73 390.436 781.18 391.356 774.94 384.986C768.71 378.236 763.64 365.936 760.67 354.076C750.9 317.616 746.04 278.606 740.7 241.856C736.88 256.546 732.76 270.486 728.38 284.056C723.15 299.686 717.38 314.276 709.53 325.236C706.01 329.436 701.74 332.456 696.95 332.396C693.51 332.366 689.82 330.236 686.41 327.056C681.7 321.916 677.27 314.686 674.16 307.246C664.26 284.576 658.81 260.196 653.03 237.356C648.45 256.086 643.86 274.646 637.95 291.346C633.11 304.216 625.38 315.126 615.33 319.836C612.94 321.166 610.31 321.726 607.42 321.206Z" fill="white"/>
<path d="M904.39 401.176C893.62 406.136 883.11 411.496 872.42 414.436C862.88 416.046 853.21 414.786 844.35 406.296C839.68 401.496 835.06 394.446 832.11 385.166C829.14 375.966 827.83 365.076 827.82 354.566C828.09 331.456 834.47 295.576 845.44 288.636C852.86 283.416 861.33 282.956 869.25 283.966C867.04 239.956 867.42 195.286 870.11 152.096C861.12 156.356 850.18 155.356 842.18 146.376C837.23 140.646 833.31 132.226 830.46 122.736C824.76 105.546 823.2 81.3861 825.41 60.1761C827.58 40.3161 834.22 19.4561 842.76 8.93614C851.8 -1.59386 862.6 -1.31386 872.74 2.15614C874.67 2.73614 886.38 3.97614 888.29 4.66614C893.23 5.95614 921.59 16.6661 926.3 18.9561C936.26 23.2261 947.41 29.8361 955.91 42.3561C960.05 48.4861 963.43 55.6761 966 62.9861C977.76 96.6161 972.58 137.896 955.45 155.206C950.74 160.476 944.54 162.306 938.62 162.736C942.08 195.976 942.01 230.346 938.12 264.176C944.33 263.976 950.53 264.726 956.1 268.346C960.28 271.106 964.4 275.686 967.03 281.786C973.05 294.516 975.53 313.126 973.49 330.926C971.91 344.606 966.4 360.126 959.6 369.866C952.85 379.756 944.45 385.246 936.66 389.126C925.85 394.146 915.2 395.646 904.39 401.176Z" fill="white"/>
<path d="M1100.18 328.596C1082.14 336.556 1064.18 343.416 1046.94 345.706C1035.85 347.056 1025.05 344.506 1017.38 336.086C1005.52 322.656 998.53 297.606 997.41 270.646C995.25 242.266 996.58 212.196 999.31 183.266C1000.87 157.576 1003.41 132.316 1009.68 110.856C1013.49 98.5261 1018.96 87.7461 1025.62 79.6861C1029.51 74.9561 1034 71.3361 1039.57 70.5661C1045.56 69.2261 1052.85 72.3261 1059.27 72.8161C1069.45 74.0461 1080.23 78.1661 1090.58 81.4261C1106.76 86.3061 1124.1 93.7861 1138.99 107.896C1142.43 111.146 1145.63 115.296 1148.04 119.616C1150.67 124.666 1152.21 130.146 1153.11 135.706C1160.49 152.416 1183.32 168.726 1161.37 166.656C1154.85 166.046 1146.91 164.126 1139.8 161.936C1127.06 158.056 1114.74 153.316 1103.4 150.306C1094.56 148.216 1085.32 147.656 1079.61 152.216C1077.14 154.286 1075.56 158.256 1076.24 162.566C1077.12 166.186 1080.86 166.606 1084.22 166.636C1094.79 166.476 1104.19 163.946 1115.22 164.256C1122.07 164.406 1129.51 164.916 1137.59 167.526C1145.47 170.296 1154.87 174.816 1161.99 179.886C1171.93 186.766 1178.69 193.996 1180.73 200.756C1181.57 207.196 1177.27 214.146 1167.37 219.046C1160.96 222.586 1153.44 225.306 1145.61 227.196C1137.77 229.186 1130.36 229.696 1122.85 230.236C1112.38 230.926 1085.43 228.366 1078.41 234.986C1071.2 241.846 1078.31 251.026 1086.82 252.186C1095.5 252.936 1106.16 249.606 1116.55 246.826C1132.82 243.246 1152.19 239.356 1168.66 240.686C1182 241.326 1188.19 245.386 1180.35 251.346C1172.03 256.216 1160.91 263.206 1154.88 269.576C1148.25 282.066 1140.39 296.426 1130.36 307.946C1121.56 318.406 1110.29 324.366 1100.18 328.596Z" fill="white"/>
</svg>
