<svg width="90" height="90" viewBox="0 0 90 90" fill="none" xmlns="http://www.w3.org/2000/svg">
<g clip-path="url(#clip0_47_89)">
<mask id="mask0_47_89" style="mask-type:luminance" maskUnits="userSpaceOnUse" x="0" y="0" width="90" height="90">
<path d="M90 0H0V90H90V0Z" fill="white"/>
</mask>
<g mask="url(#mask0_47_89)">
<path d="M44.9496 89.4046C69.5014 89.4046 89.4047 69.5014 89.4047 44.9496C89.4047 20.3977 69.5014 0.494507 44.9496 0.494507C20.3977 0.494507 0.494507 20.3977 0.494507 44.9496C0.494507 69.5014 20.3977 89.4046 44.9496 89.4046Z" fill="white"/>
<path d="M36.7994 65.3249C35.3592 65.3249 35.6042 64.7815 35.1072 63.4092L30.8723 49.4721L63.4725 30.1313" fill="#C8DAEA"/>
<path d="M36.7994 65.325C37.9109 65.325 38.4019 64.8171 39.0222 64.2135L44.9496 58.4501L37.5561 53.9917" fill="black"/>
<path d="M37.5552 53.9928L55.4706 67.2284C57.5157 68.3566 58.9905 67.7729 59.5001 65.3308L66.7928 30.9661C67.5396 27.9727 65.6519 26.6144 63.6957 27.5024L20.8737 44.0141C17.9505 45.1868 17.9683 46.8178 20.3413 47.5439L31.3306 50.9738L56.7707 34.9236C57.9719 34.1955 59.0744 34.5866 58.1695 35.3898L37.5552 53.9928Z" fill="black"/>
</g>
</g>
<defs>
<clipPath id="clip0_47_89">
<rect width="90" height="90" fill="white"/>
</clipPath>
</defs>
</svg>
