<svg width="1440" height="53" viewBox="0 0 1440 53" fill="none" xmlns="http://www.w3.org/2000/svg">
<rect x="2" y="2" width="1556" height="49" fill="#E11CD9" stroke="black" stroke-width="4"/>
<path d="M-102.108 41.91C-103.094 42.352 -104.794 41.944 -105.508 41.128C-105.712 40.89 -105.814 40.55 -105.848 40.278C-105.916 39.632 -105.78 38.986 -105.61 38.34C-106.63 38.374 -107.684 38.306 -108.704 38.068C-109.554 37.898 -110.336 37.456 -111.05 36.912C-112.036 36.198 -112.92 35.178 -113.26 33.988C-113.838 32.05 -113.226 29.568 -111.356 28.888C-110.302 28.48 -109.078 28.684 -108.024 29.024C-107.752 29.126 -106.154 29.806 -105.882 29.874C-105.44 29.976 -104.964 30.044 -104.556 29.874C-104.318 29.772 -104.25 29.5 -104.42 29.296C-104.624 29.126 -105.61 28.752 -105.882 28.65C-107.378 28.106 -108.976 27.664 -110.37 26.814C-111.254 26.27 -111.968 25.318 -112.342 24.298C-112.784 23.074 -112.92 21.68 -112.716 20.388C-112.512 19.266 -111.968 18.144 -111.254 17.226C-110.948 16.886 -110.71 16.478 -110.37 16.138C-109.112 14.812 -107.344 13.758 -105.508 13.452C-105.78 12.738 -106.018 11.888 -105.746 11.14C-105.406 10.256 -103.944 9.508 -102.992 9.542C-102.482 9.542 -101.938 9.746 -101.564 10.086C-101.19 10.46 -100.986 11.004 -100.918 11.514C-100.85 12.126 -100.884 12.772 -101.02 13.384C-100 13.52 -98.98 13.86 -98.13 14.404C-97.552 14.812 -97.008 15.322 -96.6 15.9C-95.512 17.362 -94.798 19.776 -96.124 21.034C-96.906 21.782 -97.96 22.292 -99.048 22.36C-100.578 22.462 -102.108 21.918 -103.604 22.19C-103.91 22.258 -104.488 22.394 -104.556 22.666C-104.624 22.87 -104.352 23.176 -104.182 23.312C-103.774 23.618 -101.632 24.672 -101.19 24.91C-99.626 25.692 -98.028 26.61 -96.94 27.97C-96.158 28.956 -95.682 30.282 -95.75 31.54C-95.818 33.274 -96.566 34.906 -97.858 36.096C-98.742 36.912 -99.898 37.422 -101.054 37.762C-100.85 38.51 -100.714 39.326 -100.782 40.108C-100.884 40.924 -101.36 41.57 -102.108 41.91ZM-74.2912 37.66C-74.9712 37.966 -75.7872 38 -76.5012 37.864C-77.3852 37.694 -78.2352 37.184 -78.9492 36.64C-80.0372 35.79 -80.9212 34.702 -81.7712 33.614C-82.9952 32.05 -83.9812 30.282 -84.8652 28.514C-84.9332 30.656 -84.9672 32.832 -85.4432 34.94C-85.6472 35.79 -85.9872 36.708 -86.5992 37.32C-86.9392 37.626 -87.3472 37.83 -87.7892 37.898C-89.8972 38.272 -91.4612 36.096 -91.9032 33.988C-92.2432 32.322 -92.1412 30.588 -92.2092 28.854C-92.2432 27.63 -92.1412 20.796 -92.0732 19.572C-92.0052 18.348 -91.8352 17.124 -91.3592 16.036C-90.9512 15.084 -90.3052 14.166 -89.3872 13.656C-88.5372 13.214 -87.3472 13.18 -86.4632 13.588C-85.4092 14.03 -84.5252 14.812 -83.8452 15.73C-82.5872 17.328 -81.6012 19.13 -80.6492 20.932C-79.9692 22.258 -79.2892 23.55 -78.6432 24.876C-78.7112 22.87 -78.6432 20.864 -78.4052 18.892C-78.3032 17.872 -78.0312 16.886 -77.6232 15.968C-77.2832 15.22 -76.7732 14.472 -76.1272 13.996C-75.4472 13.452 -74.4272 13.18 -73.5772 13.418C-73.0332 13.588 -72.5572 13.962 -72.1832 14.404C-71.1632 15.696 -70.6872 17.396 -70.4832 19.028C-70.0072 22.462 -70.1432 25.998 -70.5172 29.466C-70.6872 31.2 -70.8912 33.002 -71.5372 34.6C-72.0812 35.858 -73.0332 37.082 -74.2912 37.66ZM-55.516 38.306C-57.318 38.476 -59.188 38.204 -60.888 37.626C-62.894 36.946 -64.696 35.382 -65.852 33.614C-66.328 32.866 -66.804 32.084 -67.076 31.234C-67.79 29.126 -67.79 26.814 -67.552 24.638C-67.28 22.19 -66.192 19.776 -64.73 17.736C-63.71 16.342 -62.384 15.05 -60.854 14.166C-59.46 13.316 -57.76 12.874 -56.128 12.874C-54.53 12.908 -52.932 13.18 -51.436 13.656C-49.94 14.166 -48.648 15.39 -47.73 16.682C-47.016 17.668 -46.54 18.892 -46.268 20.116C-45.86 21.85 -45.758 23.618 -45.792 25.386C-45.86 28.072 -46.574 30.86 -47.968 33.138C-48.784 34.566 -49.94 35.892 -51.334 36.776C-52.558 37.592 -54.02 38.136 -55.516 38.306ZM-57.046 30.01C-55.924 30.622 -54.7 29.738 -54.088 28.65C-53.204 27.154 -52.932 25.25 -53.204 23.55C-53.34 22.734 -53.612 21.918 -54.122 21.238C-54.394 20.864 -54.836 20.49 -55.312 20.388C-55.788 20.252 -56.332 20.388 -56.74 20.694C-58.678 21.986 -59.222 25.692 -58.508 27.902C-58.236 28.718 -57.794 29.602 -57.046 30.01ZM-35.9309 37.83C-36.9849 38.238 -38.3109 38.204 -39.3649 37.728C-40.4869 37.218 -41.4049 36.232 -42.0169 35.212C-42.9009 33.716 -43.1729 31.846 -43.2749 30.112C-43.3769 27.868 -43.2069 25.59 -42.9009 23.346C-42.6629 21.374 -42.3229 19.436 -41.7449 17.566C-41.6769 17.396 -41.5069 16.784 -41.3369 16.648C-41.0989 16.036 -40.6229 15.492 -40.0789 15.05C-39.1269 14.268 -38.0049 13.656 -36.8149 13.384C-34.5709 12.908 -32.1909 12.84 -29.9469 13.282C-27.4989 13.758 -24.9149 14.914 -23.3169 16.886C-22.5689 17.804 -22.0249 18.926 -21.8209 20.082C-21.6169 21.374 -21.8889 22.768 -22.5009 23.89C-22.9089 24.706 -23.4869 25.488 -24.2009 26.1C-24.8809 26.712 -25.6969 27.154 -26.4789 27.596C-25.2209 28.752 -23.6569 29.432 -22.2289 30.35C-21.6509 30.724 -21.1409 31.268 -20.8349 31.914C-19.9849 33.716 -20.9369 36.096 -22.7049 37.048C-23.4189 37.456 -24.3709 37.558 -25.1869 37.456C-26.3089 37.32 -27.3629 36.776 -28.3149 36.164C-30.4229 34.736 -31.9529 32.526 -33.2789 30.384C-33.0069 31.778 -32.9729 33.274 -33.3129 34.634C-33.5509 35.484 -33.9249 36.3 -34.5369 36.912C-34.9109 37.32 -35.3869 37.626 -35.9309 37.83ZM-32.3609 23.958C-31.4429 24.332 -29.9809 23.89 -29.3689 23.108C-29.0629 22.7 -28.9269 22.122 -29.0289 21.646C-29.1989 20.796 -29.9809 20.116 -30.7289 19.742C-31.1369 19.572 -31.6129 19.436 -32.0549 19.538C-33.2449 19.878 -33.7209 21.612 -33.5849 22.87C-33.2789 23.312 -32.8709 23.754 -32.3609 23.958ZM-15.1798 38.34C-16.9138 38.646 -18.0358 36.81 -18.3758 35.11C-18.5458 34.192 -18.6138 33.274 -18.5798 32.356C-18.4438 29.568 -17.8998 26.78 -17.2198 24.06C-16.9138 22.734 -16.5738 21.442 -16.1318 20.15C-15.8938 19.402 -14.6018 15.832 -14.1938 15.152C-14.1598 15.084 -14.0238 15.05 -13.9898 14.982C-13.6838 14.574 -13.3438 14.166 -12.9358 13.86C-12.1878 13.316 -11.2358 12.976 -10.3178 12.942C-10.1818 12.942 -9.73979 12.874 -9.63779 12.942C-9.56979 13.01 -9.16179 13.044 -9.05979 13.078C-8.71979 13.18 -8.37979 13.418 -8.10779 13.656C-7.66579 14.132 -7.35979 14.744 -7.05379 15.356C-6.33979 16.852 -5.82979 18.416 -5.38779 20.014C-4.91179 21.612 -4.50379 23.21 -4.09579 24.808C-4.02779 24.638 -3.58579 23.584 -3.48379 23.414C-2.42979 20.932 -1.23979 18.518 0.188211 16.24C1.17421 14.676 3.38421 13.01 5.11821 13.656C7.66821 14.54 8.65421 20.184 9.13021 22.836C9.23221 23.448 9.91221 27.188 10.0142 27.8C10.3542 29.772 10.5922 31.778 10.3882 33.75C10.2862 35.008 9.87821 36.402 8.96021 37.32C8.34821 37.898 7.26021 38.204 6.44421 37.932C5.62821 37.626 4.94821 36.878 4.54021 36.096C3.21421 33.648 2.53421 30.826 1.82021 28.106C1.34421 29.262 0.834213 30.384 0.290212 31.506C-0.355788 32.832 -1.06979 34.124 -2.05579 35.212C-2.49779 35.654 -3.04179 36.028 -3.65379 36.164C-4.09579 36.266 -4.57179 36.198 -5.01379 36.028C-5.62579 35.722 -6.20379 35.212 -6.61179 34.634C-7.90379 32.798 -8.61779 30.588 -9.36579 28.446C-9.94379 30.35 -10.5218 32.288 -11.2698 34.124C-11.8818 35.586 -12.8678 36.98 -14.1598 37.864C-14.4658 38.102 -14.8058 38.272 -15.1798 38.34ZM22.8644 37.966C21.5384 38.034 20.2464 38.136 18.9204 38.102C17.7304 38.068 16.5064 38 15.3504 37.626C14.7384 37.422 14.1264 37.082 13.7184 36.572C13.3104 36.062 13.1064 35.416 13.0724 34.77C13.0384 33.342 13.7524 31.064 15.1124 30.588C16.0304 30.248 17.0844 30.214 18.0704 30.282C17.7304 27.528 17.7644 24.706 18.1384 21.986C17.0164 22.258 15.6564 22.19 14.6704 21.612C14.0584 21.238 13.5824 20.694 13.2424 20.082C12.5624 18.96 12.4264 17.43 12.7664 16.138C13.1064 14.948 14.0244 13.792 15.1464 13.316C16.3364 12.84 17.6964 12.874 18.9544 12.942C19.1924 12.942 20.6544 12.772 20.8924 12.772C21.5044 12.738 25.0064 12.738 25.5844 12.772C26.8084 12.806 28.1684 12.976 29.1544 13.656C29.6304 13.996 30.0044 14.438 30.2764 14.914C31.5004 17.158 30.6504 20.32 28.5424 21.748C27.9644 22.156 27.2164 22.326 26.5024 22.394C26.8764 24.672 26.8764 27.052 26.4684 29.364C27.2164 29.398 27.9644 29.5 28.6444 29.806C29.1544 30.044 29.6644 30.418 30.0044 30.894C30.7864 31.914 31.1944 33.342 31.0584 34.634C30.9564 35.62 30.3784 36.64 29.5964 37.184C28.8144 37.728 27.7944 37.898 26.8424 37.966C25.5164 38.034 24.1904 37.864 22.8644 37.966ZM46.9539 38.068C44.7439 38.17 42.5339 38.17 40.3579 37.796C38.9639 37.558 37.5699 37.014 36.5159 36.096C34.9179 34.702 33.8639 32.56 33.5579 30.418C33.1839 28.174 33.2859 25.828 33.6259 23.55C33.8979 21.51 34.3399 19.47 35.2579 17.634C35.8359 16.546 36.6179 15.526 37.5359 14.676C38.0799 14.166 38.6919 13.724 39.4059 13.486C40.1879 13.18 41.0719 13.214 41.8879 13.044C43.1799 12.806 44.5059 12.806 45.7979 12.738C47.8379 12.602 50.0139 12.67 51.8159 13.588C52.2579 13.826 52.6659 14.2 52.9719 14.642C53.3119 15.186 53.4819 15.832 53.5159 16.512C53.6519 18.552 52.2919 20.558 50.2519 20.524C49.6739 20.524 49.0619 20.388 48.5179 20.218C47.4639 19.946 46.4099 19.606 45.3219 19.47C44.4379 19.402 43.4519 19.504 42.7379 20.048C42.4319 20.286 42.1939 20.694 42.1939 21.102C42.2279 21.442 42.6019 21.442 42.9419 21.408C43.9959 21.272 44.9819 20.898 46.0359 20.796C46.6819 20.728 47.3619 20.694 47.9739 20.898C48.5179 21.136 49.0279 21.578 49.2659 22.122C49.5719 22.87 49.6739 23.686 49.6059 24.468C49.5719 25.216 49.3679 26.032 48.8919 26.61C48.5859 27.018 48.1779 27.324 47.7019 27.528C47.1919 27.732 46.6479 27.766 46.0699 27.8C45.2199 27.834 42.7719 27.46 42.1599 28.072C41.5139 28.684 42.3639 29.636 43.2479 29.84C44.1319 30.01 45.0839 29.772 45.9679 29.568C47.2599 29.296 48.6199 28.956 49.9119 29.194C50.9319 29.33 51.9859 29.908 52.5299 30.724C52.9719 31.404 53.0739 32.322 52.9039 33.104C52.5979 34.6 51.7819 36.13 50.5919 37.082C49.6059 37.864 48.2119 38.034 46.9539 38.068ZM75.8276 41.91C74.8416 42.352 73.1416 41.944 72.4276 41.128C72.2236 40.89 72.1216 40.55 72.0876 40.278C72.0196 39.632 72.1556 38.986 72.3256 38.34C71.3056 38.374 70.2516 38.306 69.2316 38.068C68.3816 37.898 67.5996 37.456 66.8856 36.912C65.8996 36.198 65.0156 35.178 64.6756 33.988C64.0976 32.05 64.7096 29.568 66.5796 28.888C67.6336 28.48 68.8576 28.684 69.9116 29.024C70.1836 29.126 71.7816 29.806 72.0536 29.874C72.4956 29.976 72.9716 30.044 73.3796 29.874C73.6176 29.772 73.6856 29.5 73.5156 29.296C73.3116 29.126 72.3256 28.752 72.0536 28.65C70.5576 28.106 68.9596 27.664 67.5656 26.814C66.6816 26.27 65.9676 25.318 65.5936 24.298C65.1516 23.074 65.0156 21.68 65.2196 20.388C65.4236 19.266 65.9676 18.144 66.6816 17.226C66.9876 16.886 67.2256 16.478 67.5656 16.138C68.8236 14.812 70.5916 13.758 72.4276 13.452C72.1556 12.738 71.9176 11.888 72.1896 11.14C72.5296 10.256 73.9916 9.508 74.9436 9.542C75.4536 9.542 75.9976 9.746 76.3716 10.086C76.7456 10.46 76.9496 11.004 77.0176 11.514C77.0856 12.126 77.0516 12.772 76.9156 13.384C77.9356 13.52 78.9556 13.86 79.8056 14.404C80.3836 14.812 80.9276 15.322 81.3356 15.9C82.4236 17.362 83.1376 19.776 81.8116 21.034C81.0296 21.782 79.9756 22.292 78.8876 22.36C77.3576 22.462 75.8276 21.918 74.3316 22.19C74.0256 22.258 73.4476 22.394 73.3796 22.666C73.3116 22.87 73.5836 23.176 73.7536 23.312C74.1616 23.618 76.3036 24.672 76.7456 24.91C78.3096 25.692 79.9076 26.61 80.9956 27.97C81.7776 28.956 82.2536 30.282 82.1856 31.54C82.1176 33.274 81.3696 34.906 80.0776 36.096C79.1936 36.912 78.0376 37.422 76.8816 37.762C77.0856 38.51 77.2216 39.326 77.1536 40.108C77.0516 40.924 76.5756 41.57 75.8276 41.91ZM103.644 37.66C102.964 37.966 102.148 38 101.434 37.864C100.55 37.694 99.7004 37.184 98.9864 36.64C97.8984 35.79 97.0144 34.702 96.1644 33.614C94.9404 32.05 93.9544 30.282 93.0704 28.514C93.0024 30.656 92.9684 32.832 92.4924 34.94C92.2884 35.79 91.9484 36.708 91.3364 37.32C90.9964 37.626 90.5884 37.83 90.1464 37.898C88.0384 38.272 86.4744 36.096 86.0324 33.988C85.6924 32.322 85.7944 30.588 85.7264 28.854C85.6924 27.63 85.7944 20.796 85.8624 19.572C85.9304 18.348 86.1004 17.124 86.5764 16.036C86.9844 15.084 87.6304 14.166 88.5484 13.656C89.3984 13.214 90.5884 13.18 91.4724 13.588C92.5264 14.03 93.4104 14.812 94.0904 15.73C95.3484 17.328 96.3344 19.13 97.2864 20.932C97.9664 22.258 98.6464 23.55 99.2924 24.876C99.2244 22.87 99.2924 20.864 99.5304 18.892C99.6324 17.872 99.9044 16.886 100.312 15.968C100.652 15.22 101.162 14.472 101.808 13.996C102.488 13.452 103.508 13.18 104.358 13.418C104.902 13.588 105.378 13.962 105.752 14.404C106.772 15.696 107.248 17.396 107.452 19.028C107.928 22.462 107.792 25.998 107.418 29.466C107.248 31.2 107.044 33.002 106.398 34.6C105.854 35.858 104.902 37.082 103.644 37.66ZM122.42 38.306C120.618 38.476 118.748 38.204 117.048 37.626C115.042 36.946 113.24 35.382 112.084 33.614C111.608 32.866 111.132 32.084 110.86 31.234C110.146 29.126 110.146 26.814 110.384 24.638C110.656 22.19 111.744 19.776 113.206 17.736C114.226 16.342 115.552 15.05 117.082 14.166C118.476 13.316 120.176 12.874 121.808 12.874C123.406 12.908 125.004 13.18 126.5 13.656C127.996 14.166 129.288 15.39 130.206 16.682C130.92 17.668 131.396 18.892 131.668 20.116C132.076 21.85 132.178 23.618 132.144 25.386C132.076 28.072 131.362 30.86 129.968 33.138C129.152 34.566 127.996 35.892 126.602 36.776C125.378 37.592 123.916 38.136 122.42 38.306ZM120.89 30.01C122.012 30.622 123.236 29.738 123.848 28.65C124.732 27.154 125.004 25.25 124.732 23.55C124.596 22.734 124.324 21.918 123.814 21.238C123.542 20.864 123.1 20.49 122.624 20.388C122.148 20.252 121.604 20.388 121.196 20.694C119.258 21.986 118.714 25.692 119.428 27.902C119.7 28.718 120.142 29.602 120.89 30.01ZM142.005 37.83C140.951 38.238 139.625 38.204 138.571 37.728C137.449 37.218 136.531 36.232 135.919 35.212C135.035 33.716 134.763 31.846 134.661 30.112C134.559 27.868 134.729 25.59 135.035 23.346C135.273 21.374 135.613 19.436 136.191 17.566C136.259 17.396 136.429 16.784 136.599 16.648C136.837 16.036 137.313 15.492 137.857 15.05C138.809 14.268 139.931 13.656 141.121 13.384C143.365 12.908 145.745 12.84 147.989 13.282C150.437 13.758 153.021 14.914 154.619 16.886C155.367 17.804 155.911 18.926 156.115 20.082C156.319 21.374 156.047 22.768 155.435 23.89C155.027 24.706 154.449 25.488 153.735 26.1C153.055 26.712 152.239 27.154 151.457 27.596C152.715 28.752 154.279 29.432 155.707 30.35C156.285 30.724 156.795 31.268 157.101 31.914C157.951 33.716 156.999 36.096 155.231 37.048C154.517 37.456 153.565 37.558 152.749 37.456C151.627 37.32 150.573 36.776 149.621 36.164C147.513 34.736 145.983 32.526 144.657 30.384C144.929 31.778 144.963 33.274 144.623 34.634C144.385 35.484 144.011 36.3 143.399 36.912C143.025 37.32 142.549 37.626 142.005 37.83ZM145.575 23.958C146.493 24.332 147.955 23.89 148.567 23.108C148.873 22.7 149.009 22.122 148.907 21.646C148.737 20.796 147.955 20.116 147.207 19.742C146.799 19.572 146.323 19.436 145.881 19.538C144.691 19.878 144.215 21.612 144.351 22.87C144.657 23.312 145.065 23.754 145.575 23.958ZM162.756 38.34C161.022 38.646 159.9 36.81 159.56 35.11C159.39 34.192 159.322 33.274 159.356 32.356C159.492 29.568 160.036 26.78 160.716 24.06C161.022 22.734 161.362 21.442 161.804 20.15C162.042 19.402 163.334 15.832 163.742 15.152C163.776 15.084 163.912 15.05 163.946 14.982C164.252 14.574 164.592 14.166 165 13.86C165.748 13.316 166.7 12.976 167.618 12.942C167.754 12.942 168.196 12.874 168.298 12.942C168.366 13.01 168.774 13.044 168.876 13.078C169.216 13.18 169.556 13.418 169.828 13.656C170.27 14.132 170.576 14.744 170.882 15.356C171.596 16.852 172.106 18.416 172.548 20.014C173.024 21.612 173.432 23.21 173.84 24.808C173.908 24.638 174.35 23.584 174.452 23.414C175.506 20.932 176.696 18.518 178.124 16.24C179.11 14.676 181.32 13.01 183.054 13.656C185.604 14.54 186.59 20.184 187.066 22.836C187.168 23.448 187.848 27.188 187.95 27.8C188.29 29.772 188.528 31.778 188.324 33.75C188.222 35.008 187.814 36.402 186.896 37.32C186.284 37.898 185.196 38.204 184.38 37.932C183.564 37.626 182.884 36.878 182.476 36.096C181.15 33.648 180.47 30.826 179.756 28.106C179.28 29.262 178.77 30.384 178.226 31.506C177.58 32.832 176.866 34.124 175.88 35.212C175.438 35.654 174.894 36.028 174.282 36.164C173.84 36.266 173.364 36.198 172.922 36.028C172.31 35.722 171.732 35.212 171.324 34.634C170.032 32.798 169.318 30.588 168.57 28.446C167.992 30.35 167.414 32.288 166.666 34.124C166.054 35.586 165.068 36.98 163.776 37.864C163.47 38.102 163.13 38.272 162.756 38.34ZM200.8 37.966C199.474 38.034 198.182 38.136 196.856 38.102C195.666 38.068 194.442 38 193.286 37.626C192.674 37.422 192.062 37.082 191.654 36.572C191.246 36.062 191.042 35.416 191.008 34.77C190.974 33.342 191.688 31.064 193.048 30.588C193.966 30.248 195.02 30.214 196.006 30.282C195.666 27.528 195.7 24.706 196.074 21.986C194.952 22.258 193.592 22.19 192.606 21.612C191.994 21.238 191.518 20.694 191.178 20.082C190.498 18.96 190.362 17.43 190.702 16.138C191.042 14.948 191.96 13.792 193.082 13.316C194.272 12.84 195.632 12.874 196.89 12.942C197.128 12.942 198.59 12.772 198.828 12.772C199.44 12.738 202.942 12.738 203.52 12.772C204.744 12.806 206.104 12.976 207.09 13.656C207.566 13.996 207.94 14.438 208.212 14.914C209.436 17.158 208.586 20.32 206.478 21.748C205.9 22.156 205.152 22.326 204.438 22.394C204.812 24.672 204.812 27.052 204.404 29.364C205.152 29.398 205.9 29.5 206.58 29.806C207.09 30.044 207.6 30.418 207.94 30.894C208.722 31.914 209.13 33.342 208.994 34.634C208.892 35.62 208.314 36.64 207.532 37.184C206.75 37.728 205.73 37.898 204.778 37.966C203.452 38.034 202.126 37.864 200.8 37.966ZM224.889 38.068C222.679 38.17 220.469 38.17 218.293 37.796C216.899 37.558 215.505 37.014 214.451 36.096C212.853 34.702 211.799 32.56 211.493 30.418C211.119 28.174 211.221 25.828 211.561 23.55C211.833 21.51 212.275 19.47 213.193 17.634C213.771 16.546 214.553 15.526 215.471 14.676C216.015 14.166 216.627 13.724 217.341 13.486C218.123 13.18 219.007 13.214 219.823 13.044C221.115 12.806 222.441 12.806 223.733 12.738C225.773 12.602 227.949 12.67 229.751 13.588C230.193 13.826 230.601 14.2 230.907 14.642C231.247 15.186 231.417 15.832 231.451 16.512C231.587 18.552 230.227 20.558 228.187 20.524C227.609 20.524 226.997 20.388 226.453 20.218C225.399 19.946 224.345 19.606 223.257 19.47C222.373 19.402 221.387 19.504 220.673 20.048C220.367 20.286 220.129 20.694 220.129 21.102C220.163 21.442 220.537 21.442 220.877 21.408C221.931 21.272 222.917 20.898 223.971 20.796C224.617 20.728 225.297 20.694 225.909 20.898C226.453 21.136 226.963 21.578 227.201 22.122C227.507 22.87 227.609 23.686 227.541 24.468C227.507 25.216 227.303 26.032 226.827 26.61C226.521 27.018 226.113 27.324 225.637 27.528C225.127 27.732 224.583 27.766 224.005 27.8C223.155 27.834 220.707 27.46 220.095 28.072C219.449 28.684 220.299 29.636 221.183 29.84C222.067 30.01 223.019 29.772 223.903 29.568C225.195 29.296 226.555 28.956 227.847 29.194C228.867 29.33 229.921 29.908 230.465 30.724C230.907 31.404 231.009 32.322 230.839 33.104C230.533 34.6 229.717 36.13 228.527 37.082C227.541 37.864 226.147 38.034 224.889 38.068ZM253.763 41.91C252.777 42.352 251.077 41.944 250.363 41.128C250.159 40.89 250.057 40.55 250.023 40.278C249.955 39.632 250.091 38.986 250.261 38.34C249.241 38.374 248.187 38.306 247.167 38.068C246.317 37.898 245.535 37.456 244.821 36.912C243.835 36.198 242.951 35.178 242.611 33.988C242.033 32.05 242.645 29.568 244.515 28.888C245.569 28.48 246.793 28.684 247.847 29.024C248.119 29.126 249.717 29.806 249.989 29.874C250.431 29.976 250.907 30.044 251.315 29.874C251.553 29.772 251.621 29.5 251.451 29.296C251.247 29.126 250.261 28.752 249.989 28.65C248.493 28.106 246.895 27.664 245.501 26.814C244.617 26.27 243.903 25.318 243.529 24.298C243.087 23.074 242.951 21.68 243.155 20.388C243.359 19.266 243.903 18.144 244.617 17.226C244.923 16.886 245.161 16.478 245.501 16.138C246.759 14.812 248.527 13.758 250.363 13.452C250.091 12.738 249.853 11.888 250.125 11.14C250.465 10.256 251.927 9.508 252.879 9.542C253.389 9.542 253.933 9.746 254.307 10.086C254.681 10.46 254.885 11.004 254.953 11.514C255.021 12.126 254.987 12.772 254.851 13.384C255.871 13.52 256.891 13.86 257.741 14.404C258.319 14.812 258.863 15.322 259.271 15.9C260.359 17.362 261.073 19.776 259.747 21.034C258.965 21.782 257.911 22.292 256.823 22.36C255.293 22.462 253.763 21.918 252.267 22.19C251.961 22.258 251.383 22.394 251.315 22.666C251.247 22.87 251.519 23.176 251.689 23.312C252.097 23.618 254.239 24.672 254.681 24.91C256.245 25.692 257.843 26.61 258.931 27.97C259.713 28.956 260.189 30.282 260.121 31.54C260.053 33.274 259.305 34.906 258.013 36.096C257.129 36.912 255.973 37.422 254.817 37.762C255.021 38.51 255.157 39.326 255.089 40.108C254.987 40.924 254.511 41.57 253.763 41.91ZM281.58 37.66C280.9 37.966 280.084 38 279.37 37.864C278.486 37.694 277.636 37.184 276.922 36.64C275.834 35.79 274.95 34.702 274.1 33.614C272.876 32.05 271.89 30.282 271.006 28.514C270.938 30.656 270.904 32.832 270.428 34.94C270.224 35.79 269.884 36.708 269.272 37.32C268.932 37.626 268.524 37.83 268.082 37.898C265.974 38.272 264.41 36.096 263.968 33.988C263.628 32.322 263.73 30.588 263.662 28.854C263.628 27.63 263.73 20.796 263.798 19.572C263.866 18.348 264.036 17.124 264.512 16.036C264.92 15.084 265.566 14.166 266.484 13.656C267.334 13.214 268.524 13.18 269.408 13.588C270.462 14.03 271.346 14.812 272.026 15.73C273.284 17.328 274.27 19.13 275.222 20.932C275.902 22.258 276.582 23.55 277.228 24.876C277.16 22.87 277.228 20.864 277.466 18.892C277.568 17.872 277.84 16.886 278.248 15.968C278.588 15.22 279.098 14.472 279.744 13.996C280.424 13.452 281.444 13.18 282.294 13.418C282.838 13.588 283.314 13.962 283.688 14.404C284.708 15.696 285.184 17.396 285.388 19.028C285.864 22.462 285.728 25.998 285.354 29.466C285.184 31.2 284.98 33.002 284.334 34.6C283.79 35.858 282.838 37.082 281.58 37.66ZM300.355 38.306C298.553 38.476 296.683 38.204 294.983 37.626C292.977 36.946 291.175 35.382 290.019 33.614C289.543 32.866 289.067 32.084 288.795 31.234C288.081 29.126 288.081 26.814 288.319 24.638C288.591 22.19 289.679 19.776 291.141 17.736C292.161 16.342 293.487 15.05 295.017 14.166C296.411 13.316 298.111 12.874 299.743 12.874C301.341 12.908 302.939 13.18 304.435 13.656C305.931 14.166 307.223 15.39 308.141 16.682C308.855 17.668 309.331 18.892 309.603 20.116C310.011 21.85 310.113 23.618 310.079 25.386C310.011 28.072 309.297 30.86 307.903 33.138C307.087 34.566 305.931 35.892 304.537 36.776C303.313 37.592 301.851 38.136 300.355 38.306ZM298.825 30.01C299.947 30.622 301.171 29.738 301.783 28.65C302.667 27.154 302.939 25.25 302.667 23.55C302.531 22.734 302.259 21.918 301.749 21.238C301.477 20.864 301.035 20.49 300.559 20.388C300.083 20.252 299.539 20.388 299.131 20.694C297.193 21.986 296.649 25.692 297.363 27.902C297.635 28.718 298.077 29.602 298.825 30.01ZM319.94 37.83C318.886 38.238 317.56 38.204 316.506 37.728C315.384 37.218 314.466 36.232 313.854 35.212C312.97 33.716 312.698 31.846 312.596 30.112C312.494 27.868 312.664 25.59 312.97 23.346C313.208 21.374 313.548 19.436 314.126 17.566C314.194 17.396 314.364 16.784 314.534 16.648C314.772 16.036 315.248 15.492 315.792 15.05C316.744 14.268 317.866 13.656 319.056 13.384C321.3 12.908 323.68 12.84 325.924 13.282C328.372 13.758 330.956 14.914 332.554 16.886C333.302 17.804 333.846 18.926 334.05 20.082C334.254 21.374 333.982 22.768 333.37 23.89C332.962 24.706 332.384 25.488 331.67 26.1C330.99 26.712 330.174 27.154 329.392 27.596C330.65 28.752 332.214 29.432 333.642 30.35C334.22 30.724 334.73 31.268 335.036 31.914C335.886 33.716 334.934 36.096 333.166 37.048C332.452 37.456 331.5 37.558 330.684 37.456C329.562 37.32 328.508 36.776 327.556 36.164C325.448 34.736 323.918 32.526 322.592 30.384C322.864 31.778 322.898 33.274 322.558 34.634C322.32 35.484 321.946 36.3 321.334 36.912C320.96 37.32 320.484 37.626 319.94 37.83ZM323.51 23.958C324.428 24.332 325.89 23.89 326.502 23.108C326.808 22.7 326.944 22.122 326.842 21.646C326.672 20.796 325.89 20.116 325.142 19.742C324.734 19.572 324.258 19.436 323.816 19.538C322.626 19.878 322.15 21.612 322.286 22.87C322.592 23.312 323 23.754 323.51 23.958ZM340.691 38.34C338.957 38.646 337.835 36.81 337.495 35.11C337.325 34.192 337.257 33.274 337.291 32.356C337.427 29.568 337.971 26.78 338.651 24.06C338.957 22.734 339.297 21.442 339.739 20.15C339.977 19.402 341.269 15.832 341.677 15.152C341.711 15.084 341.847 15.05 341.881 14.982C342.187 14.574 342.527 14.166 342.935 13.86C343.683 13.316 344.635 12.976 345.553 12.942C345.689 12.942 346.131 12.874 346.233 12.942C346.301 13.01 346.709 13.044 346.811 13.078C347.151 13.18 347.491 13.418 347.763 13.656C348.205 14.132 348.511 14.744 348.817 15.356C349.531 16.852 350.041 18.416 350.483 20.014C350.959 21.612 351.367 23.21 351.775 24.808C351.843 24.638 352.285 23.584 352.387 23.414C353.441 20.932 354.631 18.518 356.059 16.24C357.045 14.676 359.255 13.01 360.989 13.656C363.539 14.54 364.525 20.184 365.001 22.836C365.103 23.448 365.783 27.188 365.885 27.8C366.225 29.772 366.463 31.778 366.259 33.75C366.157 35.008 365.749 36.402 364.831 37.32C364.219 37.898 363.131 38.204 362.315 37.932C361.499 37.626 360.819 36.878 360.411 36.096C359.085 33.648 358.405 30.826 357.691 28.106C357.215 29.262 356.705 30.384 356.161 31.506C355.515 32.832 354.801 34.124 353.815 35.212C353.373 35.654 352.829 36.028 352.217 36.164C351.775 36.266 351.299 36.198 350.857 36.028C350.245 35.722 349.667 35.212 349.259 34.634C347.967 32.798 347.253 30.588 346.505 28.446C345.927 30.35 345.349 32.288 344.601 34.124C343.989 35.586 343.003 36.98 341.711 37.864C341.405 38.102 341.065 38.272 340.691 38.34ZM378.735 37.966C377.409 38.034 376.117 38.136 374.791 38.102C373.601 38.068 372.377 38 371.221 37.626C370.609 37.422 369.997 37.082 369.589 36.572C369.181 36.062 368.977 35.416 368.943 34.77C368.909 33.342 369.623 31.064 370.983 30.588C371.901 30.248 372.955 30.214 373.941 30.282C373.601 27.528 373.635 24.706 374.009 21.986C372.887 22.258 371.527 22.19 370.541 21.612C369.929 21.238 369.453 20.694 369.113 20.082C368.433 18.96 368.297 17.43 368.637 16.138C368.977 14.948 369.895 13.792 371.017 13.316C372.207 12.84 373.567 12.874 374.825 12.942C375.063 12.942 376.525 12.772 376.763 12.772C377.375 12.738 380.877 12.738 381.455 12.772C382.679 12.806 384.039 12.976 385.025 13.656C385.501 13.996 385.875 14.438 386.147 14.914C387.371 17.158 386.521 20.32 384.413 21.748C383.835 22.156 383.087 22.326 382.373 22.394C382.747 24.672 382.747 27.052 382.339 29.364C383.087 29.398 383.835 29.5 384.515 29.806C385.025 30.044 385.535 30.418 385.875 30.894C386.657 31.914 387.065 33.342 386.929 34.634C386.827 35.62 386.249 36.64 385.467 37.184C384.685 37.728 383.665 37.898 382.713 37.966C381.387 38.034 380.061 37.864 378.735 37.966ZM402.825 38.068C400.615 38.17 398.405 38.17 396.229 37.796C394.835 37.558 393.441 37.014 392.387 36.096C390.789 34.702 389.735 32.56 389.429 30.418C389.055 28.174 389.157 25.828 389.497 23.55C389.769 21.51 390.211 19.47 391.129 17.634C391.707 16.546 392.489 15.526 393.407 14.676C393.951 14.166 394.563 13.724 395.277 13.486C396.059 13.18 396.943 13.214 397.759 13.044C399.051 12.806 400.377 12.806 401.669 12.738C403.709 12.602 405.885 12.67 407.687 13.588C408.129 13.826 408.537 14.2 408.843 14.642C409.183 15.186 409.353 15.832 409.387 16.512C409.523 18.552 408.163 20.558 406.123 20.524C405.545 20.524 404.933 20.388 404.389 20.218C403.335 19.946 402.281 19.606 401.193 19.47C400.309 19.402 399.323 19.504 398.609 20.048C398.303 20.286 398.065 20.694 398.065 21.102C398.099 21.442 398.473 21.442 398.813 21.408C399.867 21.272 400.853 20.898 401.907 20.796C402.553 20.728 403.233 20.694 403.845 20.898C404.389 21.136 404.899 21.578 405.137 22.122C405.443 22.87 405.545 23.686 405.477 24.468C405.443 25.216 405.239 26.032 404.763 26.61C404.457 27.018 404.049 27.324 403.573 27.528C403.063 27.732 402.519 27.766 401.941 27.8C401.091 27.834 398.643 27.46 398.031 28.072C397.385 28.684 398.235 29.636 399.119 29.84C400.003 30.01 400.955 29.772 401.839 29.568C403.131 29.296 404.491 28.956 405.783 29.194C406.803 29.33 407.857 29.908 408.401 30.724C408.843 31.404 408.945 32.322 408.775 33.104C408.469 34.6 407.653 36.13 406.463 37.082C405.477 37.864 404.083 38.034 402.825 38.068ZM431.699 41.91C430.713 42.352 429.013 41.944 428.299 41.128C428.095 40.89 427.993 40.55 427.959 40.278C427.891 39.632 428.027 38.986 428.197 38.34C427.177 38.374 426.123 38.306 425.103 38.068C424.253 37.898 423.471 37.456 422.757 36.912C421.771 36.198 420.887 35.178 420.547 33.988C419.969 32.05 420.581 29.568 422.451 28.888C423.505 28.48 424.729 28.684 425.783 29.024C426.055 29.126 427.653 29.806 427.925 29.874C428.367 29.976 428.843 30.044 429.251 29.874C429.489 29.772 429.557 29.5 429.387 29.296C429.183 29.126 428.197 28.752 427.925 28.65C426.429 28.106 424.831 27.664 423.437 26.814C422.553 26.27 421.839 25.318 421.465 24.298C421.023 23.074 420.887 21.68 421.091 20.388C421.295 19.266 421.839 18.144 422.553 17.226C422.859 16.886 423.097 16.478 423.437 16.138C424.695 14.812 426.463 13.758 428.299 13.452C428.027 12.738 427.789 11.888 428.061 11.14C428.401 10.256 429.863 9.508 430.815 9.542C431.325 9.542 431.869 9.746 432.243 10.086C432.617 10.46 432.821 11.004 432.889 11.514C432.957 12.126 432.923 12.772 432.787 13.384C433.807 13.52 434.827 13.86 435.677 14.404C436.255 14.812 436.799 15.322 437.207 15.9C438.295 17.362 439.009 19.776 437.683 21.034C436.901 21.782 435.847 22.292 434.759 22.36C433.229 22.462 431.699 21.918 430.203 22.19C429.897 22.258 429.319 22.394 429.251 22.666C429.183 22.87 429.455 23.176 429.625 23.312C430.033 23.618 432.175 24.672 432.617 24.91C434.181 25.692 435.779 26.61 436.867 27.97C437.649 28.956 438.125 30.282 438.057 31.54C437.989 33.274 437.241 34.906 435.949 36.096C435.065 36.912 433.909 37.422 432.753 37.762C432.957 38.51 433.093 39.326 433.025 40.108C432.923 40.924 432.447 41.57 431.699 41.91ZM459.515 37.66C458.835 37.966 458.019 38 457.305 37.864C456.421 37.694 455.571 37.184 454.857 36.64C453.769 35.79 452.885 34.702 452.035 33.614C450.811 32.05 449.825 30.282 448.941 28.514C448.873 30.656 448.839 32.832 448.363 34.94C448.159 35.79 447.819 36.708 447.207 37.32C446.867 37.626 446.459 37.83 446.017 37.898C443.909 38.272 442.345 36.096 441.903 33.988C441.563 32.322 441.665 30.588 441.597 28.854C441.563 27.63 441.665 20.796 441.733 19.572C441.801 18.348 441.971 17.124 442.447 16.036C442.855 15.084 443.501 14.166 444.419 13.656C445.269 13.214 446.459 13.18 447.343 13.588C448.397 14.03 449.281 14.812 449.961 15.73C451.219 17.328 452.205 19.13 453.157 20.932C453.837 22.258 454.517 23.55 455.163 24.876C455.095 22.87 455.163 20.864 455.401 18.892C455.503 17.872 455.775 16.886 456.183 15.968C456.523 15.22 457.033 14.472 457.679 13.996C458.359 13.452 459.379 13.18 460.229 13.418C460.773 13.588 461.249 13.962 461.623 14.404C462.643 15.696 463.119 17.396 463.323 19.028C463.799 22.462 463.663 25.998 463.289 29.466C463.119 31.2 462.915 33.002 462.269 34.6C461.725 35.858 460.773 37.082 459.515 37.66ZM478.291 38.306C476.489 38.476 474.619 38.204 472.919 37.626C470.913 36.946 469.111 35.382 467.955 33.614C467.479 32.866 467.003 32.084 466.731 31.234C466.017 29.126 466.017 26.814 466.255 24.638C466.527 22.19 467.615 19.776 469.077 17.736C470.097 16.342 471.423 15.05 472.953 14.166C474.347 13.316 476.047 12.874 477.679 12.874C479.277 12.908 480.875 13.18 482.371 13.656C483.867 14.166 485.159 15.39 486.077 16.682C486.791 17.668 487.267 18.892 487.539 20.116C487.947 21.85 488.049 23.618 488.015 25.386C487.947 28.072 487.233 30.86 485.839 33.138C485.023 34.566 483.867 35.892 482.473 36.776C481.249 37.592 479.787 38.136 478.291 38.306ZM476.761 30.01C477.883 30.622 479.107 29.738 479.719 28.65C480.603 27.154 480.875 25.25 480.603 23.55C480.467 22.734 480.195 21.918 479.685 21.238C479.413 20.864 478.971 20.49 478.495 20.388C478.019 20.252 477.475 20.388 477.067 20.694C475.129 21.986 474.585 25.692 475.299 27.902C475.571 28.718 476.013 29.602 476.761 30.01ZM497.876 37.83C496.822 38.238 495.496 38.204 494.442 37.728C493.32 37.218 492.402 36.232 491.79 35.212C490.906 33.716 490.634 31.846 490.532 30.112C490.43 27.868 490.6 25.59 490.906 23.346C491.144 21.374 491.484 19.436 492.062 17.566C492.13 17.396 492.3 16.784 492.47 16.648C492.708 16.036 493.184 15.492 493.728 15.05C494.68 14.268 495.802 13.656 496.992 13.384C499.236 12.908 501.616 12.84 503.86 13.282C506.308 13.758 508.892 14.914 510.49 16.886C511.238 17.804 511.782 18.926 511.986 20.082C512.19 21.374 511.918 22.768 511.306 23.89C510.898 24.706 510.32 25.488 509.606 26.1C508.926 26.712 508.11 27.154 507.328 27.596C508.586 28.752 510.15 29.432 511.578 30.35C512.156 30.724 512.666 31.268 512.972 31.914C513.822 33.716 512.87 36.096 511.102 37.048C510.388 37.456 509.436 37.558 508.62 37.456C507.498 37.32 506.444 36.776 505.492 36.164C503.384 34.736 501.854 32.526 500.528 30.384C500.8 31.778 500.834 33.274 500.494 34.634C500.256 35.484 499.882 36.3 499.27 36.912C498.896 37.32 498.42 37.626 497.876 37.83ZM501.446 23.958C502.364 24.332 503.826 23.89 504.438 23.108C504.744 22.7 504.88 22.122 504.778 21.646C504.608 20.796 503.826 20.116 503.078 19.742C502.67 19.572 502.194 19.436 501.752 19.538C500.562 19.878 500.086 21.612 500.222 22.87C500.528 23.312 500.936 23.754 501.446 23.958ZM518.627 38.34C516.893 38.646 515.771 36.81 515.431 35.11C515.261 34.192 515.193 33.274 515.227 32.356C515.363 29.568 515.907 26.78 516.587 24.06C516.893 22.734 517.233 21.442 517.675 20.15C517.913 19.402 519.205 15.832 519.613 15.152C519.647 15.084 519.783 15.05 519.817 14.982C520.123 14.574 520.463 14.166 520.871 13.86C521.619 13.316 522.571 12.976 523.489 12.942C523.625 12.942 524.067 12.874 524.169 12.942C524.237 13.01 524.645 13.044 524.747 13.078C525.087 13.18 525.427 13.418 525.699 13.656C526.141 14.132 526.447 14.744 526.753 15.356C527.467 16.852 527.977 18.416 528.419 20.014C528.895 21.612 529.303 23.21 529.711 24.808C529.779 24.638 530.221 23.584 530.323 23.414C531.377 20.932 532.567 18.518 533.995 16.24C534.981 14.676 537.191 13.01 538.925 13.656C541.475 14.54 542.461 20.184 542.937 22.836C543.039 23.448 543.719 27.188 543.821 27.8C544.161 29.772 544.399 31.778 544.195 33.75C544.093 35.008 543.685 36.402 542.767 37.32C542.155 37.898 541.067 38.204 540.251 37.932C539.435 37.626 538.755 36.878 538.347 36.096C537.021 33.648 536.341 30.826 535.627 28.106C535.151 29.262 534.641 30.384 534.097 31.506C533.451 32.832 532.737 34.124 531.751 35.212C531.309 35.654 530.765 36.028 530.153 36.164C529.711 36.266 529.235 36.198 528.793 36.028C528.181 35.722 527.603 35.212 527.195 34.634C525.903 32.798 525.189 30.588 524.441 28.446C523.863 30.35 523.285 32.288 522.537 34.124C521.925 35.586 520.939 36.98 519.647 37.864C519.341 38.102 519.001 38.272 518.627 38.34ZM556.671 37.966C555.345 38.034 554.053 38.136 552.727 38.102C551.537 38.068 550.313 38 549.157 37.626C548.545 37.422 547.933 37.082 547.525 36.572C547.117 36.062 546.913 35.416 546.879 34.77C546.845 33.342 547.559 31.064 548.919 30.588C549.837 30.248 550.891 30.214 551.877 30.282C551.537 27.528 551.571 24.706 551.945 21.986C550.823 22.258 549.463 22.19 548.477 21.612C547.865 21.238 547.389 20.694 547.049 20.082C546.369 18.96 546.233 17.43 546.573 16.138C546.913 14.948 547.831 13.792 548.953 13.316C550.143 12.84 551.503 12.874 552.761 12.942C552.999 12.942 554.461 12.772 554.699 12.772C555.311 12.738 558.813 12.738 559.391 12.772C560.615 12.806 561.975 12.976 562.961 13.656C563.437 13.996 563.811 14.438 564.083 14.914C565.307 17.158 564.457 20.32 562.349 21.748C561.771 22.156 561.023 22.326 560.309 22.394C560.683 24.672 560.683 27.052 560.275 29.364C561.023 29.398 561.771 29.5 562.451 29.806C562.961 30.044 563.471 30.418 563.811 30.894C564.593 31.914 565.001 33.342 564.865 34.634C564.763 35.62 564.185 36.64 563.403 37.184C562.621 37.728 561.601 37.898 560.649 37.966C559.323 38.034 557.997 37.864 556.671 37.966ZM580.761 38.068C578.551 38.17 576.341 38.17 574.165 37.796C572.771 37.558 571.377 37.014 570.323 36.096C568.725 34.702 567.671 32.56 567.365 30.418C566.991 28.174 567.093 25.828 567.433 23.55C567.705 21.51 568.147 19.47 569.065 17.634C569.643 16.546 570.425 15.526 571.343 14.676C571.887 14.166 572.499 13.724 573.213 13.486C573.995 13.18 574.879 13.214 575.695 13.044C576.987 12.806 578.313 12.806 579.605 12.738C581.645 12.602 583.821 12.67 585.623 13.588C586.065 13.826 586.473 14.2 586.779 14.642C587.119 15.186 587.289 15.832 587.323 16.512C587.459 18.552 586.099 20.558 584.059 20.524C583.481 20.524 582.869 20.388 582.325 20.218C581.271 19.946 580.217 19.606 579.129 19.47C578.245 19.402 577.259 19.504 576.545 20.048C576.239 20.286 576.001 20.694 576.001 21.102C576.035 21.442 576.409 21.442 576.749 21.408C577.803 21.272 578.789 20.898 579.843 20.796C580.489 20.728 581.169 20.694 581.781 20.898C582.325 21.136 582.835 21.578 583.073 22.122C583.379 22.87 583.481 23.686 583.413 24.468C583.379 25.216 583.175 26.032 582.699 26.61C582.393 27.018 581.985 27.324 581.509 27.528C580.999 27.732 580.455 27.766 579.877 27.8C579.027 27.834 576.579 27.46 575.967 28.072C575.321 28.684 576.171 29.636 577.055 29.84C577.939 30.01 578.891 29.772 579.775 29.568C581.067 29.296 582.427 28.956 583.719 29.194C584.739 29.33 585.793 29.908 586.337 30.724C586.779 31.404 586.881 32.322 586.711 33.104C586.405 34.6 585.589 36.13 584.399 37.082C583.413 37.864 582.019 38.034 580.761 38.068ZM609.634 41.91C608.648 42.352 606.948 41.944 606.234 41.128C606.03 40.89 605.928 40.55 605.894 40.278C605.826 39.632 605.962 38.986 606.132 38.34C605.112 38.374 604.058 38.306 603.038 38.068C602.188 37.898 601.406 37.456 600.692 36.912C599.706 36.198 598.822 35.178 598.482 33.988C597.904 32.05 598.516 29.568 600.386 28.888C601.44 28.48 602.664 28.684 603.718 29.024C603.99 29.126 605.588 29.806 605.86 29.874C606.302 29.976 606.778 30.044 607.186 29.874C607.424 29.772 607.492 29.5 607.322 29.296C607.118 29.126 606.132 28.752 605.86 28.65C604.364 28.106 602.766 27.664 601.372 26.814C600.488 26.27 599.774 25.318 599.4 24.298C598.958 23.074 598.822 21.68 599.026 20.388C599.23 19.266 599.774 18.144 600.488 17.226C600.794 16.886 601.032 16.478 601.372 16.138C602.63 14.812 604.398 13.758 606.234 13.452C605.962 12.738 605.724 11.888 605.996 11.14C606.336 10.256 607.798 9.508 608.75 9.542C609.26 9.542 609.804 9.746 610.178 10.086C610.552 10.46 610.756 11.004 610.824 11.514C610.892 12.126 610.858 12.772 610.722 13.384C611.742 13.52 612.762 13.86 613.612 14.404C614.19 14.812 614.734 15.322 615.142 15.9C616.23 17.362 616.944 19.776 615.618 21.034C614.836 21.782 613.782 22.292 612.694 22.36C611.164 22.462 609.634 21.918 608.138 22.19C607.832 22.258 607.254 22.394 607.186 22.666C607.118 22.87 607.39 23.176 607.56 23.312C607.968 23.618 610.11 24.672 610.552 24.91C612.116 25.692 613.714 26.61 614.802 27.97C615.584 28.956 616.06 30.282 615.992 31.54C615.924 33.274 615.176 34.906 613.884 36.096C613 36.912 611.844 37.422 610.688 37.762C610.892 38.51 611.028 39.326 610.96 40.108C610.858 40.924 610.382 41.57 609.634 41.91ZM637.451 37.66C636.771 37.966 635.955 38 635.241 37.864C634.357 37.694 633.507 37.184 632.793 36.64C631.705 35.79 630.821 34.702 629.971 33.614C628.747 32.05 627.761 30.282 626.877 28.514C626.809 30.656 626.775 32.832 626.299 34.94C626.095 35.79 625.755 36.708 625.143 37.32C624.803 37.626 624.395 37.83 623.953 37.898C621.845 38.272 620.281 36.096 619.839 33.988C619.499 32.322 619.601 30.588 619.533 28.854C619.499 27.63 619.601 20.796 619.669 19.572C619.737 18.348 619.907 17.124 620.383 16.036C620.791 15.084 621.437 14.166 622.355 13.656C623.205 13.214 624.395 13.18 625.279 13.588C626.333 14.03 627.217 14.812 627.897 15.73C629.155 17.328 630.141 19.13 631.093 20.932C631.773 22.258 632.453 23.55 633.099 24.876C633.031 22.87 633.099 20.864 633.337 18.892C633.439 17.872 633.711 16.886 634.119 15.968C634.459 15.22 634.969 14.472 635.615 13.996C636.295 13.452 637.315 13.18 638.165 13.418C638.709 13.588 639.185 13.962 639.559 14.404C640.579 15.696 641.055 17.396 641.259 19.028C641.735 22.462 641.599 25.998 641.225 29.466C641.055 31.2 640.851 33.002 640.205 34.6C639.661 35.858 638.709 37.082 637.451 37.66ZM656.226 38.306C654.424 38.476 652.554 38.204 650.854 37.626C648.848 36.946 647.046 35.382 645.89 33.614C645.414 32.866 644.938 32.084 644.666 31.234C643.952 29.126 643.952 26.814 644.19 24.638C644.462 22.19 645.55 19.776 647.012 17.736C648.032 16.342 649.358 15.05 650.888 14.166C652.282 13.316 653.982 12.874 655.614 12.874C657.212 12.908 658.81 13.18 660.306 13.656C661.802 14.166 663.094 15.39 664.012 16.682C664.726 17.668 665.202 18.892 665.474 20.116C665.882 21.85 665.984 23.618 665.95 25.386C665.882 28.072 665.168 30.86 663.774 33.138C662.958 34.566 661.802 35.892 660.408 36.776C659.184 37.592 657.722 38.136 656.226 38.306ZM654.696 30.01C655.818 30.622 657.042 29.738 657.654 28.65C658.538 27.154 658.81 25.25 658.538 23.55C658.402 22.734 658.13 21.918 657.62 21.238C657.348 20.864 656.906 20.49 656.43 20.388C655.954 20.252 655.41 20.388 655.002 20.694C653.064 21.986 652.52 25.692 653.234 27.902C653.506 28.718 653.948 29.602 654.696 30.01ZM675.811 37.83C674.757 38.238 673.431 38.204 672.377 37.728C671.255 37.218 670.337 36.232 669.725 35.212C668.841 33.716 668.569 31.846 668.467 30.112C668.365 27.868 668.535 25.59 668.841 23.346C669.079 21.374 669.419 19.436 669.997 17.566C670.065 17.396 670.235 16.784 670.405 16.648C670.643 16.036 671.119 15.492 671.663 15.05C672.615 14.268 673.737 13.656 674.927 13.384C677.171 12.908 679.551 12.84 681.795 13.282C684.243 13.758 686.827 14.914 688.425 16.886C689.173 17.804 689.717 18.926 689.921 20.082C690.125 21.374 689.853 22.768 689.241 23.89C688.833 24.706 688.255 25.488 687.541 26.1C686.861 26.712 686.045 27.154 685.263 27.596C686.521 28.752 688.085 29.432 689.513 30.35C690.091 30.724 690.601 31.268 690.907 31.914C691.757 33.716 690.805 36.096 689.037 37.048C688.323 37.456 687.371 37.558 686.555 37.456C685.433 37.32 684.379 36.776 683.427 36.164C681.319 34.736 679.789 32.526 678.463 30.384C678.735 31.778 678.769 33.274 678.429 34.634C678.191 35.484 677.817 36.3 677.205 36.912C676.831 37.32 676.355 37.626 675.811 37.83ZM679.381 23.958C680.299 24.332 681.761 23.89 682.373 23.108C682.679 22.7 682.815 22.122 682.713 21.646C682.543 20.796 681.761 20.116 681.013 19.742C680.605 19.572 680.129 19.436 679.687 19.538C678.497 19.878 678.021 21.612 678.157 22.87C678.463 23.312 678.871 23.754 679.381 23.958ZM696.562 38.34C694.828 38.646 693.706 36.81 693.366 35.11C693.196 34.192 693.128 33.274 693.162 32.356C693.298 29.568 693.842 26.78 694.522 24.06C694.828 22.734 695.168 21.442 695.61 20.15C695.848 19.402 697.14 15.832 697.548 15.152C697.582 15.084 697.718 15.05 697.752 14.982C698.058 14.574 698.398 14.166 698.806 13.86C699.554 13.316 700.506 12.976 701.424 12.942C701.56 12.942 702.002 12.874 702.104 12.942C702.172 13.01 702.58 13.044 702.682 13.078C703.022 13.18 703.362 13.418 703.634 13.656C704.076 14.132 704.382 14.744 704.688 15.356C705.402 16.852 705.912 18.416 706.354 20.014C706.83 21.612 707.238 23.21 707.646 24.808C707.714 24.638 708.156 23.584 708.258 23.414C709.312 20.932 710.502 18.518 711.93 16.24C712.916 14.676 715.126 13.01 716.86 13.656C719.41 14.54 720.396 20.184 720.872 22.836C720.974 23.448 721.654 27.188 721.756 27.8C722.096 29.772 722.334 31.778 722.13 33.75C722.028 35.008 721.62 36.402 720.702 37.32C720.09 37.898 719.002 38.204 718.186 37.932C717.37 37.626 716.69 36.878 716.282 36.096C714.956 33.648 714.276 30.826 713.562 28.106C713.086 29.262 712.576 30.384 712.032 31.506C711.386 32.832 710.672 34.124 709.686 35.212C709.244 35.654 708.7 36.028 708.088 36.164C707.646 36.266 707.17 36.198 706.728 36.028C706.116 35.722 705.538 35.212 705.13 34.634C703.838 32.798 703.124 30.588 702.376 28.446C701.798 30.35 701.22 32.288 700.472 34.124C699.86 35.586 698.874 36.98 697.582 37.864C697.276 38.102 696.936 38.272 696.562 38.34ZM734.607 37.966C733.281 38.034 731.989 38.136 730.663 38.102C729.473 38.068 728.249 38 727.093 37.626C726.481 37.422 725.869 37.082 725.461 36.572C725.053 36.062 724.849 35.416 724.815 34.77C724.781 33.342 725.495 31.064 726.855 30.588C727.773 30.248 728.827 30.214 729.813 30.282C729.473 27.528 729.507 24.706 729.881 21.986C728.759 22.258 727.399 22.19 726.413 21.612C725.801 21.238 725.325 20.694 724.985 20.082C724.305 18.96 724.169 17.43 724.509 16.138C724.849 14.948 725.767 13.792 726.889 13.316C728.079 12.84 729.439 12.874 730.697 12.942C730.935 12.942 732.397 12.772 732.635 12.772C733.247 12.738 736.749 12.738 737.327 12.772C738.551 12.806 739.911 12.976 740.897 13.656C741.373 13.996 741.747 14.438 742.019 14.914C743.243 17.158 742.393 20.32 740.285 21.748C739.707 22.156 738.959 22.326 738.245 22.394C738.619 24.672 738.619 27.052 738.211 29.364C738.959 29.398 739.707 29.5 740.387 29.806C740.897 30.044 741.407 30.418 741.747 30.894C742.529 31.914 742.937 33.342 742.801 34.634C742.699 35.62 742.121 36.64 741.339 37.184C740.557 37.728 739.537 37.898 738.585 37.966C737.259 38.034 735.933 37.864 734.607 37.966ZM758.696 38.068C756.486 38.17 754.276 38.17 752.1 37.796C750.706 37.558 749.312 37.014 748.258 36.096C746.66 34.702 745.606 32.56 745.3 30.418C744.926 28.174 745.028 25.828 745.368 23.55C745.64 21.51 746.082 19.47 747 17.634C747.578 16.546 748.36 15.526 749.278 14.676C749.822 14.166 750.434 13.724 751.148 13.486C751.93 13.18 752.814 13.214 753.63 13.044C754.922 12.806 756.248 12.806 757.54 12.738C759.58 12.602 761.756 12.67 763.558 13.588C764 13.826 764.408 14.2 764.714 14.642C765.054 15.186 765.224 15.832 765.258 16.512C765.394 18.552 764.034 20.558 761.994 20.524C761.416 20.524 760.804 20.388 760.26 20.218C759.206 19.946 758.152 19.606 757.064 19.47C756.18 19.402 755.194 19.504 754.48 20.048C754.174 20.286 753.936 20.694 753.936 21.102C753.97 21.442 754.344 21.442 754.684 21.408C755.738 21.272 756.724 20.898 757.778 20.796C758.424 20.728 759.104 20.694 759.716 20.898C760.26 21.136 760.77 21.578 761.008 22.122C761.314 22.87 761.416 23.686 761.348 24.468C761.314 25.216 761.11 26.032 760.634 26.61C760.328 27.018 759.92 27.324 759.444 27.528C758.934 27.732 758.39 27.766 757.812 27.8C756.962 27.834 754.514 27.46 753.902 28.072C753.256 28.684 754.106 29.636 754.99 29.84C755.874 30.01 756.826 29.772 757.71 29.568C759.002 29.296 760.362 28.956 761.654 29.194C762.674 29.33 763.728 29.908 764.272 30.724C764.714 31.404 764.816 32.322 764.646 33.104C764.34 34.6 763.524 36.13 762.334 37.082C761.348 37.864 759.954 38.034 758.696 38.068ZM787.57 41.91C786.584 42.352 784.884 41.944 784.17 41.128C783.966 40.89 783.864 40.55 783.83 40.278C783.762 39.632 783.898 38.986 784.068 38.34C783.048 38.374 781.994 38.306 780.974 38.068C780.124 37.898 779.342 37.456 778.628 36.912C777.642 36.198 776.758 35.178 776.418 33.988C775.84 32.05 776.452 29.568 778.322 28.888C779.376 28.48 780.6 28.684 781.654 29.024C781.926 29.126 783.524 29.806 783.796 29.874C784.238 29.976 784.714 30.044 785.122 29.874C785.36 29.772 785.428 29.5 785.258 29.296C785.054 29.126 784.068 28.752 783.796 28.65C782.3 28.106 780.702 27.664 779.308 26.814C778.424 26.27 777.71 25.318 777.336 24.298C776.894 23.074 776.758 21.68 776.962 20.388C777.166 19.266 777.71 18.144 778.424 17.226C778.73 16.886 778.968 16.478 779.308 16.138C780.566 14.812 782.334 13.758 784.17 13.452C783.898 12.738 783.66 11.888 783.932 11.14C784.272 10.256 785.734 9.508 786.686 9.542C787.196 9.542 787.74 9.746 788.114 10.086C788.488 10.46 788.692 11.004 788.76 11.514C788.828 12.126 788.794 12.772 788.658 13.384C789.678 13.52 790.698 13.86 791.548 14.404C792.126 14.812 792.67 15.322 793.078 15.9C794.166 17.362 794.88 19.776 793.554 21.034C792.772 21.782 791.718 22.292 790.63 22.36C789.1 22.462 787.57 21.918 786.074 22.19C785.768 22.258 785.19 22.394 785.122 22.666C785.054 22.87 785.326 23.176 785.496 23.312C785.904 23.618 788.046 24.672 788.488 24.91C790.052 25.692 791.65 26.61 792.738 27.97C793.52 28.956 793.996 30.282 793.928 31.54C793.86 33.274 793.112 34.906 791.82 36.096C790.936 36.912 789.78 37.422 788.624 37.762C788.828 38.51 788.964 39.326 788.896 40.108C788.794 40.924 788.318 41.57 787.57 41.91ZM815.387 37.66C814.707 37.966 813.891 38 813.177 37.864C812.293 37.694 811.443 37.184 810.729 36.64C809.641 35.79 808.757 34.702 807.907 33.614C806.683 32.05 805.697 30.282 804.813 28.514C804.745 30.656 804.711 32.832 804.235 34.94C804.031 35.79 803.691 36.708 803.079 37.32C802.739 37.626 802.331 37.83 801.889 37.898C799.781 38.272 798.217 36.096 797.775 33.988C797.435 32.322 797.537 30.588 797.469 28.854C797.435 27.63 797.537 20.796 797.605 19.572C797.673 18.348 797.843 17.124 798.319 16.036C798.727 15.084 799.373 14.166 800.291 13.656C801.141 13.214 802.331 13.18 803.215 13.588C804.269 14.03 805.153 14.812 805.833 15.73C807.091 17.328 808.077 19.13 809.029 20.932C809.709 22.258 810.389 23.55 811.035 24.876C810.967 22.87 811.035 20.864 811.273 18.892C811.375 17.872 811.647 16.886 812.055 15.968C812.395 15.22 812.905 14.472 813.551 13.996C814.231 13.452 815.251 13.18 816.101 13.418C816.645 13.588 817.121 13.962 817.495 14.404C818.515 15.696 818.991 17.396 819.195 19.028C819.671 22.462 819.535 25.998 819.161 29.466C818.991 31.2 818.787 33.002 818.141 34.6C817.597 35.858 816.645 37.082 815.387 37.66ZM834.162 38.306C832.36 38.476 830.49 38.204 828.79 37.626C826.784 36.946 824.982 35.382 823.826 33.614C823.35 32.866 822.874 32.084 822.602 31.234C821.888 29.126 821.888 26.814 822.126 24.638C822.398 22.19 823.486 19.776 824.948 17.736C825.968 16.342 827.294 15.05 828.824 14.166C830.218 13.316 831.918 12.874 833.55 12.874C835.148 12.908 836.746 13.18 838.242 13.656C839.738 14.166 841.03 15.39 841.948 16.682C842.662 17.668 843.138 18.892 843.41 20.116C843.818 21.85 843.92 23.618 843.886 25.386C843.818 28.072 843.104 30.86 841.71 33.138C840.894 34.566 839.738 35.892 838.344 36.776C837.12 37.592 835.658 38.136 834.162 38.306ZM832.632 30.01C833.754 30.622 834.978 29.738 835.59 28.65C836.474 27.154 836.746 25.25 836.474 23.55C836.338 22.734 836.066 21.918 835.556 21.238C835.284 20.864 834.842 20.49 834.366 20.388C833.89 20.252 833.346 20.388 832.938 20.694C831 21.986 830.456 25.692 831.17 27.902C831.442 28.718 831.884 29.602 832.632 30.01ZM853.747 37.83C852.693 38.238 851.367 38.204 850.313 37.728C849.191 37.218 848.273 36.232 847.661 35.212C846.777 33.716 846.505 31.846 846.403 30.112C846.301 27.868 846.471 25.59 846.777 23.346C847.015 21.374 847.355 19.436 847.933 17.566C848.001 17.396 848.171 16.784 848.341 16.648C848.579 16.036 849.055 15.492 849.599 15.05C850.551 14.268 851.673 13.656 852.863 13.384C855.107 12.908 857.487 12.84 859.731 13.282C862.179 13.758 864.763 14.914 866.361 16.886C867.109 17.804 867.653 18.926 867.857 20.082C868.061 21.374 867.789 22.768 867.177 23.89C866.769 24.706 866.191 25.488 865.477 26.1C864.797 26.712 863.981 27.154 863.199 27.596C864.457 28.752 866.021 29.432 867.449 30.35C868.027 30.724 868.537 31.268 868.843 31.914C869.693 33.716 868.741 36.096 866.973 37.048C866.259 37.456 865.307 37.558 864.491 37.456C863.369 37.32 862.315 36.776 861.363 36.164C859.255 34.736 857.725 32.526 856.399 30.384C856.671 31.778 856.705 33.274 856.365 34.634C856.127 35.484 855.753 36.3 855.141 36.912C854.767 37.32 854.291 37.626 853.747 37.83ZM857.317 23.958C858.235 24.332 859.697 23.89 860.309 23.108C860.615 22.7 860.751 22.122 860.649 21.646C860.479 20.796 859.697 20.116 858.949 19.742C858.541 19.572 858.065 19.436 857.623 19.538C856.433 19.878 855.957 21.612 856.093 22.87C856.399 23.312 856.807 23.754 857.317 23.958ZM874.498 38.34C872.764 38.646 871.642 36.81 871.302 35.11C871.132 34.192 871.064 33.274 871.098 32.356C871.234 29.568 871.778 26.78 872.458 24.06C872.764 22.734 873.104 21.442 873.546 20.15C873.784 19.402 875.076 15.832 875.484 15.152C875.518 15.084 875.654 15.05 875.688 14.982C875.994 14.574 876.334 14.166 876.742 13.86C877.49 13.316 878.442 12.976 879.36 12.942C879.496 12.942 879.938 12.874 880.04 12.942C880.108 13.01 880.516 13.044 880.618 13.078C880.958 13.18 881.298 13.418 881.57 13.656C882.012 14.132 882.318 14.744 882.624 15.356C883.338 16.852 883.848 18.416 884.29 20.014C884.766 21.612 885.174 23.21 885.582 24.808C885.65 24.638 886.092 23.584 886.194 23.414C887.248 20.932 888.438 18.518 889.866 16.24C890.852 14.676 893.062 13.01 894.796 13.656C897.346 14.54 898.332 20.184 898.808 22.836C898.91 23.448 899.59 27.188 899.692 27.8C900.032 29.772 900.27 31.778 900.066 33.75C899.964 35.008 899.556 36.402 898.638 37.32C898.026 37.898 896.938 38.204 896.122 37.932C895.306 37.626 894.626 36.878 894.218 36.096C892.892 33.648 892.212 30.826 891.498 28.106C891.022 29.262 890.512 30.384 889.968 31.506C889.322 32.832 888.608 34.124 887.622 35.212C887.18 35.654 886.636 36.028 886.024 36.164C885.582 36.266 885.106 36.198 884.664 36.028C884.052 35.722 883.474 35.212 883.066 34.634C881.774 32.798 881.06 30.588 880.312 28.446C879.734 30.35 879.156 32.288 878.408 34.124C877.796 35.586 876.81 36.98 875.518 37.864C875.212 38.102 874.872 38.272 874.498 38.34ZM912.542 37.966C911.216 38.034 909.924 38.136 908.598 38.102C907.408 38.068 906.184 38 905.028 37.626C904.416 37.422 903.804 37.082 903.396 36.572C902.988 36.062 902.784 35.416 902.75 34.77C902.716 33.342 903.43 31.064 904.79 30.588C905.708 30.248 906.762 30.214 907.748 30.282C907.408 27.528 907.442 24.706 907.816 21.986C906.694 22.258 905.334 22.19 904.348 21.612C903.736 21.238 903.26 20.694 902.92 20.082C902.24 18.96 902.104 17.43 902.444 16.138C902.784 14.948 903.702 13.792 904.824 13.316C906.014 12.84 907.374 12.874 908.632 12.942C908.87 12.942 910.332 12.772 910.57 12.772C911.182 12.738 914.684 12.738 915.262 12.772C916.486 12.806 917.846 12.976 918.832 13.656C919.308 13.996 919.682 14.438 919.954 14.914C921.178 17.158 920.328 20.32 918.22 21.748C917.642 22.156 916.894 22.326 916.18 22.394C916.554 24.672 916.554 27.052 916.146 29.364C916.894 29.398 917.642 29.5 918.322 29.806C918.832 30.044 919.342 30.418 919.682 30.894C920.464 31.914 920.872 33.342 920.736 34.634C920.634 35.62 920.056 36.64 919.274 37.184C918.492 37.728 917.472 37.898 916.52 37.966C915.194 38.034 913.868 37.864 912.542 37.966ZM936.632 38.068C934.422 38.17 932.212 38.17 930.036 37.796C928.642 37.558 927.248 37.014 926.194 36.096C924.596 34.702 923.542 32.56 923.236 30.418C922.862 28.174 922.964 25.828 923.304 23.55C923.576 21.51 924.018 19.47 924.936 17.634C925.514 16.546 926.296 15.526 927.214 14.676C927.758 14.166 928.37 13.724 929.084 13.486C929.866 13.18 930.75 13.214 931.566 13.044C932.858 12.806 934.184 12.806 935.476 12.738C937.516 12.602 939.692 12.67 941.494 13.588C941.936 13.826 942.344 14.2 942.65 14.642C942.99 15.186 943.16 15.832 943.194 16.512C943.33 18.552 941.97 20.558 939.93 20.524C939.352 20.524 938.74 20.388 938.196 20.218C937.142 19.946 936.088 19.606 935 19.47C934.116 19.402 933.13 19.504 932.416 20.048C932.11 20.286 931.872 20.694 931.872 21.102C931.906 21.442 932.28 21.442 932.62 21.408C933.674 21.272 934.66 20.898 935.714 20.796C936.36 20.728 937.04 20.694 937.652 20.898C938.196 21.136 938.706 21.578 938.944 22.122C939.25 22.87 939.352 23.686 939.284 24.468C939.25 25.216 939.046 26.032 938.57 26.61C938.264 27.018 937.856 27.324 937.38 27.528C936.87 27.732 936.326 27.766 935.748 27.8C934.898 27.834 932.45 27.46 931.838 28.072C931.192 28.684 932.042 29.636 932.926 29.84C933.81 30.01 934.762 29.772 935.646 29.568C936.938 29.296 938.298 28.956 939.59 29.194C940.61 29.33 941.664 29.908 942.208 30.724C942.65 31.404 942.752 32.322 942.582 33.104C942.276 34.6 941.46 36.13 940.27 37.082C939.284 37.864 937.89 38.034 936.632 38.068ZM965.505 41.91C964.519 42.352 962.819 41.944 962.105 41.128C961.901 40.89 961.799 40.55 961.765 40.278C961.697 39.632 961.833 38.986 962.003 38.34C960.983 38.374 959.929 38.306 958.909 38.068C958.059 37.898 957.277 37.456 956.563 36.912C955.577 36.198 954.693 35.178 954.353 33.988C953.775 32.05 954.387 29.568 956.257 28.888C957.311 28.48 958.535 28.684 959.589 29.024C959.861 29.126 961.459 29.806 961.731 29.874C962.173 29.976 962.649 30.044 963.057 29.874C963.295 29.772 963.363 29.5 963.193 29.296C962.989 29.126 962.003 28.752 961.731 28.65C960.235 28.106 958.637 27.664 957.243 26.814C956.359 26.27 955.645 25.318 955.271 24.298C954.829 23.074 954.693 21.68 954.897 20.388C955.101 19.266 955.645 18.144 956.359 17.226C956.665 16.886 956.903 16.478 957.243 16.138C958.501 14.812 960.269 13.758 962.105 13.452C961.833 12.738 961.595 11.888 961.867 11.14C962.207 10.256 963.669 9.508 964.621 9.542C965.131 9.542 965.675 9.746 966.049 10.086C966.423 10.46 966.627 11.004 966.695 11.514C966.763 12.126 966.729 12.772 966.593 13.384C967.613 13.52 968.633 13.86 969.483 14.404C970.061 14.812 970.605 15.322 971.013 15.9C972.101 17.362 972.815 19.776 971.489 21.034C970.707 21.782 969.653 22.292 968.565 22.36C967.035 22.462 965.505 21.918 964.009 22.19C963.703 22.258 963.125 22.394 963.057 22.666C962.989 22.87 963.261 23.176 963.431 23.312C963.839 23.618 965.981 24.672 966.423 24.91C967.987 25.692 969.585 26.61 970.673 27.97C971.455 28.956 971.931 30.282 971.863 31.54C971.795 33.274 971.047 34.906 969.755 36.096C968.871 36.912 967.715 37.422 966.559 37.762C966.763 38.51 966.899 39.326 966.831 40.108C966.729 40.924 966.253 41.57 965.505 41.91ZM993.322 37.66C992.642 37.966 991.826 38 991.112 37.864C990.228 37.694 989.378 37.184 988.664 36.64C987.576 35.79 986.692 34.702 985.842 33.614C984.618 32.05 983.632 30.282 982.748 28.514C982.68 30.656 982.646 32.832 982.17 34.94C981.966 35.79 981.626 36.708 981.014 37.32C980.674 37.626 980.266 37.83 979.824 37.898C977.716 38.272 976.152 36.096 975.71 33.988C975.37 32.322 975.472 30.588 975.404 28.854C975.37 27.63 975.472 20.796 975.54 19.572C975.608 18.348 975.778 17.124 976.254 16.036C976.662 15.084 977.308 14.166 978.226 13.656C979.076 13.214 980.266 13.18 981.15 13.588C982.204 14.03 983.088 14.812 983.768 15.73C985.026 17.328 986.012 19.13 986.964 20.932C987.644 22.258 988.324 23.55 988.97 24.876C988.902 22.87 988.97 20.864 989.208 18.892C989.31 17.872 989.582 16.886 989.99 15.968C990.33 15.22 990.84 14.472 991.486 13.996C992.166 13.452 993.186 13.18 994.036 13.418C994.58 13.588 995.056 13.962 995.43 14.404C996.45 15.696 996.926 17.396 997.13 19.028C997.606 22.462 997.47 25.998 997.096 29.466C996.926 31.2 996.722 33.002 996.076 34.6C995.532 35.858 994.58 37.082 993.322 37.66ZM1012.1 38.306C1010.3 38.476 1008.43 38.204 1006.73 37.626C1004.72 36.946 1002.92 35.382 1001.76 33.614C1001.29 32.866 1000.81 32.084 1000.54 31.234C999.823 29.126 999.823 26.814 1000.06 24.638C1000.33 22.19 1001.42 19.776 1002.88 17.736C1003.9 16.342 1005.23 15.05 1006.76 14.166C1008.15 13.316 1009.85 12.874 1011.49 12.874C1013.08 12.908 1014.68 13.18 1016.18 13.656C1017.67 14.166 1018.97 15.39 1019.88 16.682C1020.6 17.668 1021.07 18.892 1021.35 20.116C1021.75 21.85 1021.86 23.618 1021.82 25.386C1021.75 28.072 1021.04 30.86 1019.65 33.138C1018.83 34.566 1017.67 35.892 1016.28 36.776C1015.06 37.592 1013.59 38.136 1012.1 38.306ZM1010.57 30.01C1011.69 30.622 1012.91 29.738 1013.53 28.65C1014.41 27.154 1014.68 25.25 1014.41 23.55C1014.27 22.734 1014 21.918 1013.49 21.238C1013.22 20.864 1012.78 20.49 1012.3 20.388C1011.83 20.252 1011.28 20.388 1010.87 20.694C1008.94 21.986 1008.39 25.692 1009.11 27.902C1009.38 28.718 1009.82 29.602 1010.57 30.01ZM1031.68 37.83C1030.63 38.238 1029.3 38.204 1028.25 37.728C1027.13 37.218 1026.21 36.232 1025.6 35.212C1024.71 33.716 1024.44 31.846 1024.34 30.112C1024.24 27.868 1024.41 25.59 1024.71 23.346C1024.95 21.374 1025.29 19.436 1025.87 17.566C1025.94 17.396 1026.11 16.784 1026.28 16.648C1026.51 16.036 1026.99 15.492 1027.53 15.05C1028.49 14.268 1029.61 13.656 1030.8 13.384C1033.04 12.908 1035.42 12.84 1037.67 13.282C1040.11 13.758 1042.7 14.914 1044.3 16.886C1045.04 17.804 1045.59 18.926 1045.79 20.082C1046 21.374 1045.72 22.768 1045.11 23.89C1044.7 24.706 1044.13 25.488 1043.41 26.1C1042.73 26.712 1041.92 27.154 1041.13 27.596C1042.39 28.752 1043.96 29.432 1045.38 30.35C1045.96 30.724 1046.47 31.268 1046.78 31.914C1047.63 33.716 1046.68 36.096 1044.91 37.048C1044.19 37.456 1043.24 37.558 1042.43 37.456C1041.3 37.32 1040.25 36.776 1039.3 36.164C1037.19 34.736 1035.66 32.526 1034.33 30.384C1034.61 31.778 1034.64 33.274 1034.3 34.634C1034.06 35.484 1033.69 36.3 1033.08 36.912C1032.7 37.32 1032.23 37.626 1031.68 37.83ZM1035.25 23.958C1036.17 24.332 1037.63 23.89 1038.24 23.108C1038.55 22.7 1038.69 22.122 1038.58 21.646C1038.41 20.796 1037.63 20.116 1036.88 19.742C1036.48 19.572 1036 19.436 1035.56 19.538C1034.37 19.878 1033.89 21.612 1034.03 22.87C1034.33 23.312 1034.74 23.754 1035.25 23.958ZM1052.43 38.34C1050.7 38.646 1049.58 36.81 1049.24 35.11C1049.07 34.192 1049 33.274 1049.03 32.356C1049.17 29.568 1049.71 26.78 1050.39 24.06C1050.7 22.734 1051.04 21.442 1051.48 20.15C1051.72 19.402 1053.01 15.832 1053.42 15.152C1053.45 15.084 1053.59 15.05 1053.62 14.982C1053.93 14.574 1054.27 14.166 1054.68 13.86C1055.43 13.316 1056.38 12.976 1057.3 12.942C1057.43 12.942 1057.87 12.874 1057.98 12.942C1058.04 13.01 1058.45 13.044 1058.55 13.078C1058.89 13.18 1059.23 13.418 1059.51 13.656C1059.95 14.132 1060.25 14.744 1060.56 15.356C1061.27 16.852 1061.78 18.416 1062.23 20.014C1062.7 21.612 1063.11 23.21 1063.52 24.808C1063.59 24.638 1064.03 23.584 1064.13 23.414C1065.18 20.932 1066.37 18.518 1067.8 16.24C1068.79 14.676 1071 13.01 1072.73 13.656C1075.28 14.54 1076.27 20.184 1076.74 22.836C1076.85 23.448 1077.53 27.188 1077.63 27.8C1077.97 29.772 1078.21 31.778 1078 33.75C1077.9 35.008 1077.49 36.402 1076.57 37.32C1075.96 37.898 1074.87 38.204 1074.06 37.932C1073.24 37.626 1072.56 36.878 1072.15 36.096C1070.83 33.648 1070.15 30.826 1069.43 28.106C1068.96 29.262 1068.45 30.384 1067.9 31.506C1067.26 32.832 1066.54 34.124 1065.56 35.212C1065.12 35.654 1064.57 36.028 1063.96 36.164C1063.52 36.266 1063.04 36.198 1062.6 36.028C1061.99 35.722 1061.41 35.212 1061 34.634C1059.71 32.798 1059 30.588 1058.25 28.446C1057.67 30.35 1057.09 32.288 1056.34 34.124C1055.73 35.586 1054.75 36.98 1053.45 37.864C1053.15 38.102 1052.81 38.272 1052.43 38.34ZM1090.48 37.966C1089.15 38.034 1087.86 38.136 1086.53 38.102C1085.34 38.068 1084.12 38 1082.96 37.626C1082.35 37.422 1081.74 37.082 1081.33 36.572C1080.92 36.062 1080.72 35.416 1080.69 34.77C1080.65 33.342 1081.37 31.064 1082.73 30.588C1083.64 30.248 1084.7 30.214 1085.68 30.282C1085.34 27.528 1085.38 24.706 1085.75 21.986C1084.63 22.258 1083.27 22.19 1082.28 21.612C1081.67 21.238 1081.2 20.694 1080.86 20.082C1080.18 18.96 1080.04 17.43 1080.38 16.138C1080.72 14.948 1081.64 13.792 1082.76 13.316C1083.95 12.84 1085.31 12.874 1086.57 12.942C1086.81 12.942 1088.27 12.772 1088.51 12.772C1089.12 12.738 1092.62 12.738 1093.2 12.772C1094.42 12.806 1095.78 12.976 1096.77 13.656C1097.24 13.996 1097.62 14.438 1097.89 14.914C1099.11 17.158 1098.26 20.32 1096.16 21.748C1095.58 22.156 1094.83 22.326 1094.12 22.394C1094.49 24.672 1094.49 27.052 1094.08 29.364C1094.83 29.398 1095.58 29.5 1096.26 29.806C1096.77 30.044 1097.28 30.418 1097.62 30.894C1098.4 31.914 1098.81 33.342 1098.67 34.634C1098.57 35.62 1097.99 36.64 1097.21 37.184C1096.43 37.728 1095.41 37.898 1094.46 37.966C1093.13 38.034 1091.8 37.864 1090.48 37.966ZM1114.57 38.068C1112.36 38.17 1110.15 38.17 1107.97 37.796C1106.58 37.558 1105.18 37.014 1104.13 36.096C1102.53 34.702 1101.48 32.56 1101.17 30.418C1100.8 28.174 1100.9 25.828 1101.24 23.55C1101.51 21.51 1101.95 19.47 1102.87 17.634C1103.45 16.546 1104.23 15.526 1105.15 14.676C1105.69 14.166 1106.31 13.724 1107.02 13.486C1107.8 13.18 1108.69 13.214 1109.5 13.044C1110.79 12.806 1112.12 12.806 1113.41 12.738C1115.45 12.602 1117.63 12.67 1119.43 13.588C1119.87 13.826 1120.28 14.2 1120.59 14.642C1120.93 15.186 1121.1 15.832 1121.13 16.512C1121.27 18.552 1119.91 20.558 1117.87 20.524C1117.29 20.524 1116.68 20.388 1116.13 20.218C1115.08 19.946 1114.02 19.606 1112.94 19.47C1112.05 19.402 1111.07 19.504 1110.35 20.048C1110.05 20.286 1109.81 20.694 1109.81 21.102C1109.84 21.442 1110.22 21.442 1110.56 21.408C1111.61 21.272 1112.6 20.898 1113.65 20.796C1114.3 20.728 1114.98 20.694 1115.59 20.898C1116.13 21.136 1116.64 21.578 1116.88 22.122C1117.19 22.87 1117.29 23.686 1117.22 24.468C1117.19 25.216 1116.98 26.032 1116.51 26.61C1116.2 27.018 1115.79 27.324 1115.32 27.528C1114.81 27.732 1114.26 27.766 1113.68 27.8C1112.83 27.834 1110.39 27.46 1109.77 28.072C1109.13 28.684 1109.98 29.636 1110.86 29.84C1111.75 30.01 1112.7 29.772 1113.58 29.568C1114.87 29.296 1116.23 28.956 1117.53 29.194C1118.55 29.33 1119.6 29.908 1120.14 30.724C1120.59 31.404 1120.69 32.322 1120.52 33.104C1120.21 34.6 1119.4 36.13 1118.21 37.082C1117.22 37.864 1115.83 38.034 1114.57 38.068ZM1143.44 41.91C1142.45 42.352 1140.75 41.944 1140.04 41.128C1139.84 40.89 1139.73 40.55 1139.7 40.278C1139.63 39.632 1139.77 38.986 1139.94 38.34C1138.92 38.374 1137.86 38.306 1136.84 38.068C1135.99 37.898 1135.21 37.456 1134.5 36.912C1133.51 36.198 1132.63 35.178 1132.29 33.988C1131.71 32.05 1132.32 29.568 1134.19 28.888C1135.25 28.48 1136.47 28.684 1137.52 29.024C1137.8 29.126 1139.39 29.806 1139.67 29.874C1140.11 29.976 1140.58 30.044 1140.99 29.874C1141.23 29.772 1141.3 29.5 1141.13 29.296C1140.92 29.126 1139.94 28.752 1139.67 28.65C1138.17 28.106 1136.57 27.664 1135.18 26.814C1134.29 26.27 1133.58 25.318 1133.21 24.298C1132.76 23.074 1132.63 21.68 1132.83 20.388C1133.04 19.266 1133.58 18.144 1134.29 17.226C1134.6 16.886 1134.84 16.478 1135.18 16.138C1136.44 14.812 1138.2 13.758 1140.04 13.452C1139.77 12.738 1139.53 11.888 1139.8 11.14C1140.14 10.256 1141.6 9.508 1142.56 9.542C1143.07 9.542 1143.61 9.746 1143.98 10.086C1144.36 10.46 1144.56 11.004 1144.63 11.514C1144.7 12.126 1144.66 12.772 1144.53 13.384C1145.55 13.52 1146.57 13.86 1147.42 14.404C1148 14.812 1148.54 15.322 1148.95 15.9C1150.04 17.362 1150.75 19.776 1149.42 21.034C1148.64 21.782 1147.59 22.292 1146.5 22.36C1144.97 22.462 1143.44 21.918 1141.94 22.19C1141.64 22.258 1141.06 22.394 1140.99 22.666C1140.92 22.87 1141.2 23.176 1141.37 23.312C1141.77 23.618 1143.92 24.672 1144.36 24.91C1145.92 25.692 1147.52 26.61 1148.61 27.97C1149.39 28.956 1149.87 30.282 1149.8 31.54C1149.73 33.274 1148.98 34.906 1147.69 36.096C1146.81 36.912 1145.65 37.422 1144.49 37.762C1144.7 38.51 1144.83 39.326 1144.77 40.108C1144.66 40.924 1144.19 41.57 1143.44 41.91ZM1171.26 37.66C1170.58 37.966 1169.76 38 1169.05 37.864C1168.16 37.694 1167.31 37.184 1166.6 36.64C1165.51 35.79 1164.63 34.702 1163.78 33.614C1162.55 32.05 1161.57 30.282 1160.68 28.514C1160.62 30.656 1160.58 32.832 1160.11 34.94C1159.9 35.79 1159.56 36.708 1158.95 37.32C1158.61 37.626 1158.2 37.83 1157.76 37.898C1155.65 38.272 1154.09 36.096 1153.65 33.988C1153.31 32.322 1153.41 30.588 1153.34 28.854C1153.31 27.63 1153.41 20.796 1153.48 19.572C1153.54 18.348 1153.71 17.124 1154.19 16.036C1154.6 15.084 1155.24 14.166 1156.16 13.656C1157.01 13.214 1158.2 13.18 1159.09 13.588C1160.14 14.03 1161.02 14.812 1161.7 15.73C1162.96 17.328 1163.95 19.13 1164.9 20.932C1165.58 22.258 1166.26 23.55 1166.91 24.876C1166.84 22.87 1166.91 20.864 1167.14 18.892C1167.25 17.872 1167.52 16.886 1167.93 15.968C1168.27 15.22 1168.78 14.472 1169.42 13.996C1170.1 13.452 1171.12 13.18 1171.97 13.418C1172.52 13.588 1172.99 13.962 1173.37 14.404C1174.39 15.696 1174.86 17.396 1175.07 19.028C1175.54 22.462 1175.41 25.998 1175.03 29.466C1174.86 31.2 1174.66 33.002 1174.01 34.6C1173.47 35.858 1172.52 37.082 1171.26 37.66ZM1190.03 38.306C1188.23 38.476 1186.36 38.204 1184.66 37.626C1182.65 36.946 1180.85 35.382 1179.7 33.614C1179.22 32.866 1178.74 32.084 1178.47 31.234C1177.76 29.126 1177.76 26.814 1178 24.638C1178.27 22.19 1179.36 19.776 1180.82 17.736C1181.84 16.342 1183.16 15.05 1184.69 14.166C1186.09 13.316 1187.79 12.874 1189.42 12.874C1191.02 12.908 1192.62 13.18 1194.11 13.656C1195.61 14.166 1196.9 15.39 1197.82 16.682C1198.53 17.668 1199.01 18.892 1199.28 20.116C1199.69 21.85 1199.79 23.618 1199.76 25.386C1199.69 28.072 1198.97 30.86 1197.58 33.138C1196.76 34.566 1195.61 35.892 1194.21 36.776C1192.99 37.592 1191.53 38.136 1190.03 38.306ZM1188.5 30.01C1189.62 30.622 1190.85 29.738 1191.46 28.65C1192.34 27.154 1192.62 25.25 1192.34 23.55C1192.21 22.734 1191.94 21.918 1191.43 21.238C1191.15 20.864 1190.71 20.49 1190.24 20.388C1189.76 20.252 1189.22 20.388 1188.81 20.694C1186.87 21.986 1186.33 25.692 1187.04 27.902C1187.31 28.718 1187.75 29.602 1188.5 30.01ZM1209.62 37.83C1208.56 38.238 1207.24 38.204 1206.18 37.728C1205.06 37.218 1204.14 36.232 1203.53 35.212C1202.65 33.716 1202.38 31.846 1202.27 30.112C1202.17 27.868 1202.34 25.59 1202.65 23.346C1202.89 21.374 1203.23 19.436 1203.8 17.566C1203.87 17.396 1204.04 16.784 1204.21 16.648C1204.45 16.036 1204.93 15.492 1205.47 15.05C1206.42 14.268 1207.54 13.656 1208.73 13.384C1210.98 12.908 1213.36 12.84 1215.6 13.282C1218.05 13.758 1220.63 14.914 1222.23 16.886C1222.98 17.804 1223.52 18.926 1223.73 20.082C1223.93 21.374 1223.66 22.768 1223.05 23.89C1222.64 24.706 1222.06 25.488 1221.35 26.1C1220.67 26.712 1219.85 27.154 1219.07 27.596C1220.33 28.752 1221.89 29.432 1223.32 30.35C1223.9 30.724 1224.41 31.268 1224.71 31.914C1225.56 33.716 1224.61 36.096 1222.84 37.048C1222.13 37.456 1221.18 37.558 1220.36 37.456C1219.24 37.32 1218.19 36.776 1217.23 36.164C1215.13 34.736 1213.6 32.526 1212.27 30.384C1212.54 31.778 1212.58 33.274 1212.24 34.634C1212 35.484 1211.62 36.3 1211.01 36.912C1210.64 37.32 1210.16 37.626 1209.62 37.83ZM1213.19 23.958C1214.11 24.332 1215.57 23.89 1216.18 23.108C1216.49 22.7 1216.62 22.122 1216.52 21.646C1216.35 20.796 1215.57 20.116 1214.82 19.742C1214.41 19.572 1213.94 19.436 1213.49 19.538C1212.3 19.878 1211.83 21.612 1211.96 22.87C1212.27 23.312 1212.68 23.754 1213.19 23.958ZM1230.37 38.34C1228.64 38.646 1227.51 36.81 1227.17 35.11C1227 34.192 1226.94 33.274 1226.97 32.356C1227.11 29.568 1227.65 26.78 1228.33 24.06C1228.64 22.734 1228.98 21.442 1229.42 20.15C1229.66 19.402 1230.95 15.832 1231.36 15.152C1231.39 15.084 1231.53 15.05 1231.56 14.982C1231.87 14.574 1232.21 14.166 1232.61 13.86C1233.36 13.316 1234.31 12.976 1235.23 12.942C1235.37 12.942 1235.81 12.874 1235.91 12.942C1235.98 13.01 1236.39 13.044 1236.49 13.078C1236.83 13.18 1237.17 13.418 1237.44 13.656C1237.88 14.132 1238.19 14.744 1238.5 15.356C1239.21 16.852 1239.72 18.416 1240.16 20.014C1240.64 21.612 1241.05 23.21 1241.45 24.808C1241.52 24.638 1241.96 23.584 1242.07 23.414C1243.12 20.932 1244.31 18.518 1245.74 16.24C1246.72 14.676 1248.93 13.01 1250.67 13.656C1253.22 14.54 1254.2 20.184 1254.68 22.836C1254.78 23.448 1255.46 27.188 1255.56 27.8C1255.9 29.772 1256.14 31.778 1255.94 33.75C1255.84 35.008 1255.43 36.402 1254.51 37.32C1253.9 37.898 1252.81 38.204 1251.99 37.932C1251.18 37.626 1250.5 36.878 1250.09 36.096C1248.76 33.648 1248.08 30.826 1247.37 28.106C1246.89 29.262 1246.38 30.384 1245.84 31.506C1245.19 32.832 1244.48 34.124 1243.49 35.212C1243.05 35.654 1242.51 36.028 1241.9 36.164C1241.45 36.266 1240.98 36.198 1240.54 36.028C1239.92 35.722 1239.35 35.212 1238.94 34.634C1237.65 32.798 1236.93 30.588 1236.18 28.446C1235.61 30.35 1235.03 32.288 1234.28 34.124C1233.67 35.586 1232.68 36.98 1231.39 37.864C1231.08 38.102 1230.74 38.272 1230.37 38.34ZM1268.41 37.966C1267.09 38.034 1265.8 38.136 1264.47 38.102C1263.28 38.068 1262.06 38 1260.9 37.626C1260.29 37.422 1259.68 37.082 1259.27 36.572C1258.86 36.062 1258.66 35.416 1258.62 34.77C1258.59 33.342 1259.3 31.064 1260.66 30.588C1261.58 30.248 1262.63 30.214 1263.62 30.282C1263.28 27.528 1263.31 24.706 1263.69 21.986C1262.57 22.258 1261.21 22.19 1260.22 21.612C1259.61 21.238 1259.13 20.694 1258.79 20.082C1258.11 18.96 1257.98 17.43 1258.32 16.138C1258.66 14.948 1259.57 13.792 1260.7 13.316C1261.89 12.84 1263.25 12.874 1264.5 12.942C1264.74 12.942 1266.2 12.772 1266.44 12.772C1267.05 12.738 1270.56 12.738 1271.13 12.772C1272.36 12.806 1273.72 12.976 1274.7 13.656C1275.18 13.996 1275.55 14.438 1275.83 14.914C1277.05 17.158 1276.2 20.32 1274.09 21.748C1273.51 22.156 1272.77 22.326 1272.05 22.394C1272.43 24.672 1272.43 27.052 1272.02 29.364C1272.77 29.398 1273.51 29.5 1274.19 29.806C1274.7 30.044 1275.21 30.418 1275.55 30.894C1276.34 31.914 1276.74 33.342 1276.61 34.634C1276.51 35.62 1275.93 36.64 1275.15 37.184C1274.36 37.728 1273.34 37.898 1272.39 37.966C1271.07 38.034 1269.74 37.864 1268.41 37.966ZM1292.5 38.068C1290.29 38.17 1288.08 38.17 1285.91 37.796C1284.51 37.558 1283.12 37.014 1282.06 36.096C1280.47 34.702 1279.41 32.56 1279.11 30.418C1278.73 28.174 1278.83 25.828 1279.17 23.55C1279.45 21.51 1279.89 19.47 1280.81 17.634C1281.38 16.546 1282.17 15.526 1283.08 14.676C1283.63 14.166 1284.24 13.724 1284.95 13.486C1285.74 13.18 1286.62 13.214 1287.44 13.044C1288.73 12.806 1290.05 12.806 1291.35 12.738C1293.39 12.602 1295.56 12.67 1297.36 13.588C1297.81 13.826 1298.21 14.2 1298.52 14.642C1298.86 15.186 1299.03 15.832 1299.06 16.512C1299.2 18.552 1297.84 20.558 1295.8 20.524C1295.22 20.524 1294.61 20.388 1294.07 20.218C1293.01 19.946 1291.96 19.606 1290.87 19.47C1289.99 19.402 1289 19.504 1288.29 20.048C1287.98 20.286 1287.74 20.694 1287.74 21.102C1287.78 21.442 1288.15 21.442 1288.49 21.408C1289.54 21.272 1290.53 20.898 1291.58 20.796C1292.23 20.728 1292.91 20.694 1293.52 20.898C1294.07 21.136 1294.58 21.578 1294.81 22.122C1295.12 22.87 1295.22 23.686 1295.15 24.468C1295.12 25.216 1294.92 26.032 1294.44 26.61C1294.13 27.018 1293.73 27.324 1293.25 27.528C1292.74 27.732 1292.2 27.766 1291.62 27.8C1290.77 27.834 1288.32 27.46 1287.71 28.072C1287.06 28.684 1287.91 29.636 1288.8 29.84C1289.68 30.01 1290.63 29.772 1291.52 29.568C1292.81 29.296 1294.17 28.956 1295.46 29.194C1296.48 29.33 1297.53 29.908 1298.08 30.724C1298.52 31.404 1298.62 32.322 1298.45 33.104C1298.15 34.6 1297.33 36.13 1296.14 37.082C1295.15 37.864 1293.76 38.034 1292.5 38.068ZM1321.38 41.91C1320.39 42.352 1318.69 41.944 1317.98 41.128C1317.77 40.89 1317.67 40.55 1317.64 40.278C1317.57 39.632 1317.7 38.986 1317.87 38.34C1316.85 38.374 1315.8 38.306 1314.78 38.068C1313.93 37.898 1313.15 37.456 1312.43 36.912C1311.45 36.198 1310.56 35.178 1310.22 33.988C1309.65 32.05 1310.26 29.568 1312.13 28.888C1313.18 28.48 1314.41 28.684 1315.46 29.024C1315.73 29.126 1317.33 29.806 1317.6 29.874C1318.04 29.976 1318.52 30.044 1318.93 29.874C1319.17 29.772 1319.23 29.5 1319.06 29.296C1318.86 29.126 1317.87 28.752 1317.6 28.65C1316.11 28.106 1314.51 27.664 1313.11 26.814C1312.23 26.27 1311.52 25.318 1311.14 24.298C1310.7 23.074 1310.56 21.68 1310.77 20.388C1310.97 19.266 1311.52 18.144 1312.23 17.226C1312.54 16.886 1312.77 16.478 1313.11 16.138C1314.37 14.812 1316.14 13.758 1317.98 13.452C1317.7 12.738 1317.47 11.888 1317.74 11.14C1318.08 10.256 1319.54 9.508 1320.49 9.542C1321 9.542 1321.55 9.746 1321.92 10.086C1322.29 10.46 1322.5 11.004 1322.57 11.514C1322.63 12.126 1322.6 12.772 1322.46 13.384C1323.48 13.52 1324.5 13.86 1325.35 14.404C1325.93 14.812 1326.48 15.322 1326.88 15.9C1327.97 17.362 1328.69 19.776 1327.36 21.034C1326.58 21.782 1325.52 22.292 1324.44 22.36C1322.91 22.462 1321.38 21.918 1319.88 22.19C1319.57 22.258 1319 22.394 1318.93 22.666C1318.86 22.87 1319.13 23.176 1319.3 23.312C1319.71 23.618 1321.85 24.672 1322.29 24.91C1323.86 25.692 1325.46 26.61 1326.54 27.97C1327.33 28.956 1327.8 30.282 1327.73 31.54C1327.67 33.274 1326.92 34.906 1325.63 36.096C1324.74 36.912 1323.59 37.422 1322.43 37.762C1322.63 38.51 1322.77 39.326 1322.7 40.108C1322.6 40.924 1322.12 41.57 1321.38 41.91ZM1349.19 37.66C1348.51 37.966 1347.7 38 1346.98 37.864C1346.1 37.694 1345.25 37.184 1344.54 36.64C1343.45 35.79 1342.56 34.702 1341.71 33.614C1340.49 32.05 1339.5 30.282 1338.62 28.514C1338.55 30.656 1338.52 32.832 1338.04 34.94C1337.84 35.79 1337.5 36.708 1336.89 37.32C1336.55 37.626 1336.14 37.83 1335.7 37.898C1333.59 38.272 1332.02 36.096 1331.58 33.988C1331.24 32.322 1331.34 30.588 1331.28 28.854C1331.24 27.63 1331.34 20.796 1331.41 19.572C1331.48 18.348 1331.65 17.124 1332.13 16.036C1332.53 15.084 1333.18 14.166 1334.1 13.656C1334.95 13.214 1336.14 13.18 1337.02 13.588C1338.08 14.03 1338.96 14.812 1339.64 15.73C1340.9 17.328 1341.88 19.13 1342.84 20.932C1343.52 22.258 1344.2 23.55 1344.84 24.876C1344.77 22.87 1344.84 20.864 1345.08 18.892C1345.18 17.872 1345.45 16.886 1345.86 15.968C1346.2 15.22 1346.71 14.472 1347.36 13.996C1348.04 13.452 1349.06 13.18 1349.91 13.418C1350.45 13.588 1350.93 13.962 1351.3 14.404C1352.32 15.696 1352.8 17.396 1353 19.028C1353.48 22.462 1353.34 25.998 1352.97 29.466C1352.8 31.2 1352.59 33.002 1351.95 34.6C1351.4 35.858 1350.45 37.082 1349.19 37.66ZM1367.97 38.306C1366.17 38.476 1364.3 38.204 1362.6 37.626C1360.59 36.946 1358.79 35.382 1357.63 33.614C1357.16 32.866 1356.68 32.084 1356.41 31.234C1355.69 29.126 1355.69 26.814 1355.93 24.638C1356.2 22.19 1357.29 19.776 1358.75 17.736C1359.77 16.342 1361.1 15.05 1362.63 14.166C1364.02 13.316 1365.72 12.874 1367.36 12.874C1368.95 12.908 1370.55 13.18 1372.05 13.656C1373.54 14.166 1374.84 15.39 1375.75 16.682C1376.47 17.668 1376.94 18.892 1377.22 20.116C1377.62 21.85 1377.73 23.618 1377.69 25.386C1377.62 28.072 1376.91 30.86 1375.52 33.138C1374.7 34.566 1373.54 35.892 1372.15 36.776C1370.93 37.592 1369.46 38.136 1367.97 38.306ZM1366.44 30.01C1367.56 30.622 1368.78 29.738 1369.4 28.65C1370.28 27.154 1370.55 25.25 1370.28 23.55C1370.14 22.734 1369.87 21.918 1369.36 21.238C1369.09 20.864 1368.65 20.49 1368.17 20.388C1367.7 20.252 1367.15 20.388 1366.74 20.694C1364.81 21.986 1364.26 25.692 1364.98 27.902C1365.25 28.718 1365.69 29.602 1366.44 30.01ZM1387.55 37.83C1386.5 38.238 1385.17 38.204 1384.12 37.728C1383 37.218 1382.08 36.232 1381.47 35.212C1380.58 33.716 1380.31 31.846 1380.21 30.112C1380.11 27.868 1380.28 25.59 1380.58 23.346C1380.82 21.374 1381.16 19.436 1381.74 17.566C1381.81 17.396 1381.98 16.784 1382.15 16.648C1382.39 16.036 1382.86 15.492 1383.41 15.05C1384.36 14.268 1385.48 13.656 1386.67 13.384C1388.91 12.908 1391.29 12.84 1393.54 13.282C1395.99 13.758 1398.57 14.914 1400.17 16.886C1400.92 17.804 1401.46 18.926 1401.66 20.082C1401.87 21.374 1401.6 22.768 1400.98 23.89C1400.58 24.706 1400 25.488 1399.28 26.1C1398.6 26.712 1397.79 27.154 1397.01 27.596C1398.26 28.752 1399.83 29.432 1401.26 30.35C1401.83 30.724 1402.34 31.268 1402.65 31.914C1403.5 33.716 1402.55 36.096 1400.78 37.048C1400.07 37.456 1399.11 37.558 1398.3 37.456C1397.18 37.32 1396.12 36.776 1395.17 36.164C1393.06 34.736 1391.53 32.526 1390.21 30.384C1390.48 31.778 1390.51 33.274 1390.17 34.634C1389.93 35.484 1389.56 36.3 1388.95 36.912C1388.57 37.32 1388.1 37.626 1387.55 37.83ZM1391.12 23.958C1392.04 24.332 1393.5 23.89 1394.12 23.108C1394.42 22.7 1394.56 22.122 1394.46 21.646C1394.29 20.796 1393.5 20.116 1392.76 19.742C1392.35 19.572 1391.87 19.436 1391.43 19.538C1390.24 19.878 1389.76 21.612 1389.9 22.87C1390.21 23.312 1390.61 23.754 1391.12 23.958ZM1408.3 38.34C1406.57 38.646 1405.45 36.81 1405.11 35.11C1404.94 34.192 1404.87 33.274 1404.9 32.356C1405.04 29.568 1405.58 26.78 1406.26 24.06C1406.57 22.734 1406.91 21.442 1407.35 20.15C1407.59 19.402 1408.88 15.832 1409.29 15.152C1409.32 15.084 1409.46 15.05 1409.49 14.982C1409.8 14.574 1410.14 14.166 1410.55 13.86C1411.3 13.316 1412.25 12.976 1413.17 12.942C1413.3 12.942 1413.74 12.874 1413.85 12.942C1413.91 13.01 1414.32 13.044 1414.42 13.078C1414.76 13.18 1415.1 13.418 1415.38 13.656C1415.82 14.132 1416.12 14.744 1416.43 15.356C1417.14 16.852 1417.65 18.416 1418.1 20.014C1418.57 21.612 1418.98 23.21 1419.39 24.808C1419.46 24.638 1419.9 23.584 1420 23.414C1421.05 20.932 1422.24 18.518 1423.67 16.24C1424.66 14.676 1426.87 13.01 1428.6 13.656C1431.15 14.54 1432.14 20.184 1432.61 22.836C1432.72 23.448 1433.4 27.188 1433.5 27.8C1433.84 29.772 1434.08 31.778 1433.87 33.75C1433.77 35.008 1433.36 36.402 1432.44 37.32C1431.83 37.898 1430.74 38.204 1429.93 37.932C1429.11 37.626 1428.43 36.878 1428.02 36.096C1426.7 33.648 1426.02 30.826 1425.3 28.106C1424.83 29.262 1424.32 30.384 1423.77 31.506C1423.13 32.832 1422.41 34.124 1421.43 35.212C1420.99 35.654 1420.44 36.028 1419.83 36.164C1419.39 36.266 1418.91 36.198 1418.47 36.028C1417.86 35.722 1417.28 35.212 1416.87 34.634C1415.58 32.798 1414.87 30.588 1414.12 28.446C1413.54 30.35 1412.96 32.288 1412.21 34.124C1411.6 35.586 1410.62 36.98 1409.32 37.864C1409.02 38.102 1408.68 38.272 1408.3 38.34ZM1446.35 37.966C1445.02 38.034 1443.73 38.136 1442.4 38.102C1441.21 38.068 1439.99 38 1438.83 37.626C1438.22 37.422 1437.61 37.082 1437.2 36.572C1436.79 36.062 1436.59 35.416 1436.56 34.77C1436.52 33.342 1437.24 31.064 1438.6 30.588C1439.51 30.248 1440.57 30.214 1441.55 30.282C1441.21 27.528 1441.25 24.706 1441.62 21.986C1440.5 22.258 1439.14 22.19 1438.15 21.612C1437.54 21.238 1437.07 20.694 1436.73 20.082C1436.05 18.96 1435.91 17.43 1436.25 16.138C1436.59 14.948 1437.51 13.792 1438.63 13.316C1439.82 12.84 1441.18 12.874 1442.44 12.942C1442.68 12.942 1444.14 12.772 1444.38 12.772C1444.99 12.738 1448.49 12.738 1449.07 12.772C1450.29 12.806 1451.65 12.976 1452.64 13.656C1453.11 13.996 1453.49 14.438 1453.76 14.914C1454.98 17.158 1454.13 20.32 1452.03 21.748C1451.45 22.156 1450.7 22.326 1449.99 22.394C1450.36 24.672 1450.36 27.052 1449.95 29.364C1450.7 29.398 1451.45 29.5 1452.13 29.806C1452.64 30.044 1453.15 30.418 1453.49 30.894C1454.27 31.914 1454.68 33.342 1454.54 34.634C1454.44 35.62 1453.86 36.64 1453.08 37.184C1452.3 37.728 1451.28 37.898 1450.33 37.966C1449 38.034 1447.67 37.864 1446.35 37.966ZM1470.44 38.068C1468.23 38.17 1466.02 38.17 1463.84 37.796C1462.45 37.558 1461.05 37.014 1460 36.096C1458.4 34.702 1457.35 32.56 1457.04 30.418C1456.67 28.174 1456.77 25.828 1457.11 23.55C1457.38 21.51 1457.82 19.47 1458.74 17.634C1459.32 16.546 1460.1 15.526 1461.02 14.676C1461.56 14.166 1462.18 13.724 1462.89 13.486C1463.67 13.18 1464.56 13.214 1465.37 13.044C1466.66 12.806 1467.99 12.806 1469.28 12.738C1471.32 12.602 1473.5 12.67 1475.3 13.588C1475.74 13.826 1476.15 14.2 1476.46 14.642C1476.8 15.186 1476.97 15.832 1477 16.512C1477.14 18.552 1475.78 20.558 1473.74 20.524C1473.16 20.524 1472.55 20.388 1472 20.218C1470.95 19.946 1469.89 19.606 1468.81 19.47C1467.92 19.402 1466.94 19.504 1466.22 20.048C1465.92 20.286 1465.68 20.694 1465.68 21.102C1465.71 21.442 1466.09 21.442 1466.43 21.408C1467.48 21.272 1468.47 20.898 1469.52 20.796C1470.17 20.728 1470.85 20.694 1471.46 20.898C1472 21.136 1472.51 21.578 1472.75 22.122C1473.06 22.87 1473.16 23.686 1473.09 24.468C1473.06 25.216 1472.85 26.032 1472.38 26.61C1472.07 27.018 1471.66 27.324 1471.19 27.528C1470.68 27.732 1470.13 27.766 1469.55 27.8C1468.7 27.834 1466.26 27.46 1465.64 28.072C1465 28.684 1465.85 29.636 1466.73 29.84C1467.62 30.01 1468.57 29.772 1469.45 29.568C1470.74 29.296 1472.1 28.956 1473.4 29.194C1474.42 29.33 1475.47 29.908 1476.01 30.724C1476.46 31.404 1476.56 32.322 1476.39 33.104C1476.08 34.6 1475.27 36.13 1474.08 37.082C1473.09 37.864 1471.7 38.034 1470.44 38.068Z" fill="white"/>
</svg>
