<svg width="535" height="92" viewBox="0 0 535 92" fill="none" xmlns="http://www.w3.org/2000/svg">
<path d="M34.6547 90.96C29.3747 91.44 23.9747 91.44 18.6947 90.24C15.6947 89.64 12.9347 88.08 10.4147 86.16C6.93469 83.64 3.81469 80.04 2.61469 75.84C0.574688 69 2.73469 60.24 9.33469 57.84C13.0547 56.4 17.3747 57.12 21.0947 58.32C22.0547 58.68 27.6947 61.08 28.6547 61.32C30.2147 61.68 31.8947 61.92 33.3347 61.32C34.1747 60.96 34.4147 60 33.8147 59.28C33.0947 58.68 29.6147 57.36 28.6547 57C23.3747 55.08 17.7347 53.52 12.8147 50.52C9.69469 48.6 7.17469 45.24 5.85469 41.64C4.29469 37.32 3.81469 32.4 4.53469 27.84C5.25469 23.88 7.17469 19.92 9.69469 16.68C11.2547 14.88 12.6947 12.84 14.4947 11.16C18.0947 7.92 22.4147 5.39999 27.0947 4.08C33.2147 2.28 39.8147 2.28 46.0547 3.23999C49.5347 3.72 53.0147 4.8 56.0147 6.72C58.0547 8.16 59.9747 9.95999 61.4147 12C65.2547 17.16 67.7747 25.68 63.0947 30.12C60.3347 32.76 56.6147 34.56 52.7747 34.8C47.3747 35.16 41.9747 33.24 36.6947 34.2C35.6147 34.44 33.5747 34.92 33.3347 35.88C33.0947 36.6 34.0547 37.68 34.6547 38.16C36.0947 39.24 43.6547 42.96 45.2147 43.8C50.7347 46.56 56.3747 49.8 60.2147 54.6C62.6147 57.72 64.1747 61.8 64.4147 65.76C64.6547 69.24 63.8147 72.72 62.3747 75.96C60.2147 80.64 56.1347 84.72 51.5747 87C46.2947 89.52 40.4147 90.6 34.6547 90.96ZM116.099 91.08C109.739 91.68 103.139 90.72 97.1391 88.68C90.0591 86.28 83.6991 80.76 79.6191 74.52C77.9391 71.88 76.2591 69.12 75.2991 66.12C72.7791 58.68 72.7791 50.52 73.6191 42.84C74.5791 34.2 78.4191 25.68 83.5791 18.48C87.1791 13.56 91.8591 9 97.2591 5.88C102.179 2.88 108.179 1.32 113.939 1.32C119.579 1.44 125.219 2.4 130.499 4.08C135.779 5.88 140.339 10.2 143.579 14.76C146.099 18.24 147.779 22.56 148.739 26.88C150.179 33 150.539 39.24 150.419 45.48C150.179 54.96 147.659 64.8 142.739 72.84C139.859 77.88 135.779 82.56 130.859 85.68C126.539 88.56 121.379 90.48 116.099 91.08ZM110.699 61.8C114.659 63.96 118.979 60.84 121.139 57C124.259 51.72 125.219 45 124.259 39C123.779 36.12 122.819 33.24 121.019 30.84C120.059 29.52 118.499 28.2 116.819 27.84C115.139 27.36 113.219 27.84 111.779 28.92C104.939 33.48 103.019 46.56 105.539 54.36C106.499 57.24 108.059 60.36 110.699 61.8ZM221.703 82.8C216.783 88.2 208.623 90.84 201.303 90.6C191.463 90.48 181.023 87.24 173.103 81.24C167.823 77.4 163.623 71.64 161.103 65.52C158.943 60.6 158.223 54.96 157.863 49.56C157.503 41.04 159.543 32.28 163.263 24.72C167.943 15.36 176.463 6.84 186.423 3.6C193.023 1.32 200.343 0.959995 207.303 1.92C211.503 2.52 215.823 3.96 219.303 6.36C221.223 7.67999 222.783 9.35999 223.983 11.28C226.623 15.12 228.063 19.92 228.303 24.48C228.423 28.32 227.463 32.4 225.303 35.64C223.743 38.04 221.583 40.32 219.063 41.64C215.583 43.32 211.143 43.68 207.663 42.36C203.943 40.92 200.583 37.44 199.623 33.6C198.663 32.64 197.583 31.68 196.263 31.32C194.463 30.84 192.783 31.32 191.583 32.76C187.983 37.32 186.663 43.92 188.343 49.44C188.823 51.12 189.903 52.68 191.463 53.64C193.023 54.72 195.183 55.08 197.223 54.96C202.503 54.72 207.903 53.16 213.183 53.88C217.023 54.36 221.103 56.52 223.383 59.64C225.183 62.28 225.543 65.76 225.903 68.88C226.383 73.68 224.943 79.2 221.703 82.8ZM272.15 89.88C267.47 90.12 262.91 90.48 258.23 90.36C254.03 90.24 249.71 90 245.63 88.68C243.47 87.96 241.31 86.76 239.87 84.96C238.43 83.16 237.71 80.88 237.59 78.6C237.47 73.56 239.99 65.52 244.79 63.84C248.03 62.64 251.75 62.52 255.23 62.76C254.03 53.04 254.15 43.08 255.47 33.48C251.51 34.44 246.71 34.2 243.23 32.16C241.07 30.84 239.39 28.92 238.19 26.76C235.79 22.8 235.31 17.4 236.51 12.84C237.71 8.64 240.95 4.56 244.91 2.88C249.11 1.2 253.91 1.32 258.35 1.55999C259.19 1.55999 264.35 0.959995 265.19 0.959995C267.35 0.839996 279.71 0.839996 281.75 0.959995C286.07 1.07999 290.87 1.67999 294.35 4.08C296.03 5.28 297.35 6.84 298.31 8.52C302.63 16.44 299.63 27.6 292.19 32.64C290.15 34.08 287.51 34.68 284.99 34.92C286.31 42.96 286.31 51.36 284.87 59.52C287.51 59.64 290.15 60 292.55 61.08C294.35 61.92 296.15 63.24 297.35 64.92C300.11 68.52 301.55 73.56 301.07 78.12C300.71 81.6 298.67 85.2 295.91 87.12C293.15 89.04 289.55 89.64 286.19 89.88C281.51 90.12 276.83 89.52 272.15 89.88ZM326.932 88.2C324.892 89.52 322.492 90.12 320.212 90.12C317.692 90.24 315.052 89.52 313.132 87.96C310.132 85.56 308.332 81.6 307.852 77.88C306.892 70.44 308.572 62.76 310.372 55.56C313.972 41.88 320.092 28.56 328.372 17.16C331.132 13.32 334.612 9.72 338.332 6.59999C340.012 5.28 342.052 3.96 344.212 3.48C347.452 2.75999 350.812 2.63999 354.052 3.23999C359.092 4.08 363.892 6.72 367.612 10.08C373.132 15.36 377.092 22.2 380.572 29.04C383.932 35.76 386.332 43.08 388.132 50.52C389.692 57.72 390.652 65.28 389.812 72.6C389.092 78.12 385.612 84 380.812 87C376.372 89.64 370.612 90.6 365.692 89.4C363.772 88.92 361.852 87.96 360.412 86.64C358.372 84.84 356.932 82.32 355.852 79.8C353.812 75.24 352.732 70.32 352.372 65.4C347.932 65.76 343.492 66 339.052 65.88C337.492 70.68 336.052 75.6 333.652 80.04C332.092 83.16 329.932 86.28 326.932 88.2ZM346.612 30.6C343.012 35.04 341.212 40.68 340.252 46.32C341.932 46.2 351.172 45.24 352.732 45C352.372 42.12 352.252 39.12 351.892 36.24C351.652 33.84 351.052 31.44 349.972 29.4C349.732 28.92 348.892 28.92 348.412 29.04C347.692 29.28 347.092 30 346.612 30.6ZM443.728 89.76C439.648 89.88 435.448 90.24 431.368 89.88C428.248 89.52 425.128 89.64 422.128 89.16C418.648 88.56 415.168 87.24 412.288 85.32C407.968 82.44 404.608 78.12 402.688 73.32C399.448 65.76 398.488 57.24 398.248 48.96C398.008 42 398.248 35.04 399.088 28.08C399.568 23.28 400.888 18.24 403.408 14.04C405.568 10.32 409.048 6.96 413.008 5.28C415.768 3.96 419.128 3.48 422.128 4.08C424.888 4.56 427.648 6.11999 429.568 8.16C432.448 11.04 434.368 15.12 435.088 19.2C435.928 23.76 435.328 28.68 434.488 33.24C433.168 39.6 431.248 45.84 430.408 52.32C430.048 54.36 429.808 59.28 431.008 60.84C432.088 62.04 434.848 61.56 436.408 61.08C440.968 59.64 445.648 57.6 450.328 57.72C453.808 57.84 456.808 59.16 459.088 61.68C465.208 68.76 464.968 79.56 457.408 85.08C453.448 87.84 448.528 89.64 443.728 89.76ZM501.061 90.96C495.781 91.44 490.381 91.44 485.101 90.24C482.101 89.64 479.341 88.08 476.821 86.16C473.341 83.64 470.221 80.04 469.021 75.84C466.981 69 469.141 60.24 475.741 57.84C479.461 56.4 483.781 57.12 487.501 58.32C488.461 58.68 494.101 61.08 495.061 61.32C496.621 61.68 498.301 61.92 499.741 61.32C500.581 60.96 500.821 60 500.221 59.28C499.501 58.68 496.021 57.36 495.061 57C489.781 55.08 484.141 53.52 479.221 50.52C476.101 48.6 473.581 45.24 472.261 41.64C470.701 37.32 470.221 32.4 470.941 27.84C471.661 23.88 473.581 19.92 476.101 16.68C477.661 14.88 479.101 12.84 480.901 11.16C484.501 7.92 488.821 5.39999 493.501 4.08C499.621 2.28 506.221 2.28 512.461 3.23999C515.941 3.72 519.421 4.8 522.421 6.72C524.461 8.16 526.381 9.95999 527.821 12C531.661 17.16 534.181 25.68 529.501 30.12C526.741 32.76 523.021 34.56 519.181 34.8C513.781 35.16 508.381 33.24 503.101 34.2C502.021 34.44 499.981 34.92 499.741 35.88C499.501 36.6 500.461 37.68 501.061 38.16C502.501 39.24 510.061 42.96 511.621 43.8C517.141 46.56 522.781 49.8 526.621 54.6C529.021 57.72 530.581 61.8 530.821 65.76C531.061 69.24 530.221 72.72 528.781 75.96C526.621 80.64 522.541 84.72 517.981 87C512.701 89.52 506.821 90.6 501.061 90.96Z" fill="#D9E3EA"/>
</svg>
