<svg width="706" height="81" viewBox="0 0 706 81" fill="none" xmlns="http://www.w3.org/2000/svg">
<path d="M41.6961 69.584C39.4301 74.013 35.0011 76.691 30.1601 76.691C26.7611 76.588 23.2591 74.734 20.9931 72.159C18.8301 69.584 17.4911 66.391 16.5641 63.301C15.4311 59.078 14.9161 54.649 15.0191 50.22C15.2251 42.907 16.2551 35.594 17.4911 28.384C15.1221 28.384 12.6501 28.178 10.4871 27.354C8.01507 26.427 5.85207 24.882 4.10107 23.028C0.187066 18.908 0.805066 11.08 4.30707 6.651C5.85207 4.694 8.01507 3.252 10.2811 2.428C11.7231 2.016 13.1651 1.81 14.6071 1.81C18.3151 1.60399 22.0231 1.913 25.7311 1.913C26.5551 1.913 27.3791 1.81 28.2031 1.81C28.3061 1.81 28.7181 2.016 28.8211 2.016C33.1471 1.81 37.4731 1.501 41.7991 1.501C44.5801 1.60399 47.3611 2.016 49.7301 3.252C54.7771 6.033 57.3521 11.904 56.2191 17.363C55.4981 20.659 52.9231 23.543 50.1421 25.191C47.9791 26.427 45.3011 27.045 42.7261 27.045C43.5501 37.139 45.1981 47.13 44.7861 57.224C44.5801 61.447 43.6531 65.773 41.6961 69.584ZM96.2828 77.927C90.8238 78.442 85.1588 77.618 80.0088 75.867C73.9318 73.807 68.4728 69.069 64.9708 63.713C63.5288 61.447 62.0868 59.078 61.2628 56.503C59.0998 50.117 59.0998 43.113 59.8208 36.521C60.6448 29.105 63.9408 21.792 68.3698 15.612C71.4598 11.389 75.4768 7.475 80.1118 4.797C84.3348 2.222 89.4849 0.882998 94.4288 0.882998C99.2699 0.985996 104.111 1.81 108.643 3.252C113.175 4.797 117.089 8.505 119.87 12.419C122.033 15.406 123.475 19.114 124.299 22.822C125.535 28.075 125.844 33.431 125.741 38.787C125.535 46.924 123.372 55.37 119.149 62.271C116.677 66.597 113.175 70.614 108.952 73.292C105.244 75.764 100.815 77.412 96.2828 77.927ZM91.6479 52.795C95.0468 54.649 98.7549 51.971 100.609 48.675C103.287 44.143 104.111 38.375 103.287 33.225C102.875 30.753 102.051 28.281 100.506 26.221C99.6819 25.088 98.3428 23.955 96.9009 23.646C95.4589 23.234 93.8108 23.646 92.5749 24.573C86.7038 28.487 85.0558 39.714 87.2188 46.409C88.0429 48.881 89.3818 51.559 91.6479 52.795ZM155.923 75.558C151.7 78.03 146.344 78.03 142.43 75.455C140.061 73.91 138.31 71.438 137.177 68.863C134.808 63.713 134.396 57.739 134.19 51.971C133.984 45.482 134.087 38.89 134.293 32.401C134.499 26.736 134.499 20.968 135.632 15.406C136.662 10.565 139.855 5.621 144.387 3.458C149.434 0.985996 156.85 1.913 159.94 6.651C161.176 8.505 161.588 10.771 161.794 13.037C162.206 16.848 162 20.659 161.897 24.367C165.708 18.702 170.24 13.346 175.596 9.02C178.789 6.548 182.291 4.179 186.205 3.252C188.574 2.84 191.149 3.149 193.312 4.076C197.741 6.136 202.891 13.14 202.685 18.084C202.582 22.101 200.11 26.221 197.02 28.796C192.797 32.401 187.441 34.461 182.188 36.109C181.57 36.315 180.231 37.86 179.819 38.272C179.51 38.684 179.922 39.817 180.025 40.332C180.746 42.598 182.394 44.555 184.145 46.203C186.205 48.366 188.677 50.117 191.149 51.765C193.106 53.001 195.166 54.237 196.917 55.885C198.256 57.327 199.389 59.181 199.698 61.138C200.007 62.786 199.801 64.537 199.286 66.082C198.256 69.275 195.887 72.159 193.003 73.91C182.6 80.502 171.682 69.79 165.605 59.078C164.987 61.653 164.266 64.228 163.236 66.7C161.691 70.202 159.219 73.498 155.923 75.558ZM250.295 77.206C243.6 77.515 236.905 77.515 230.313 76.382C226.09 75.661 221.867 74.013 218.674 71.232C213.833 67.009 210.64 60.52 209.713 54.031C208.58 47.233 208.889 40.126 209.919 33.225C210.743 27.045 212.082 20.865 214.863 15.303C216.614 12.007 218.983 8.917 221.764 6.34199C223.412 4.797 225.266 3.458 227.429 2.737C229.798 1.81 232.476 1.913 234.948 1.398C238.862 0.676994 242.879 0.676994 246.793 0.470997C252.973 0.058996 259.565 0.264993 265.024 3.04599C266.363 3.767 267.599 4.9 268.526 6.239C269.556 7.887 270.071 9.844 270.174 11.904C270.586 18.084 266.466 24.161 260.286 24.058C258.535 24.058 256.681 23.646 255.033 23.131C251.84 22.307 248.647 21.277 245.351 20.865C242.673 20.659 239.686 20.968 237.523 22.616C236.596 23.337 235.875 24.573 235.875 25.809C235.978 26.839 237.111 26.839 238.141 26.736C241.334 26.324 244.321 25.191 247.514 24.882C249.471 24.676 251.531 24.573 253.385 25.191C255.033 25.912 256.578 27.251 257.299 28.899C258.226 31.165 258.535 33.637 258.329 36.006C258.226 38.272 257.608 40.744 256.166 42.495C255.239 43.731 254.003 44.658 252.561 45.276C251.016 45.894 249.368 45.997 247.617 46.1C245.042 46.203 237.626 45.07 235.772 46.924C233.815 48.778 236.39 51.662 239.068 52.28C241.746 52.795 244.63 52.074 247.308 51.456C251.222 50.632 255.342 49.602 259.256 50.323C262.346 50.735 265.539 52.486 267.187 54.958C268.526 57.018 268.835 59.799 268.32 62.168C267.393 66.7 264.921 71.335 261.316 74.219C258.329 76.588 254.106 77.103 250.295 77.206ZM332.513 75.97C330.453 76.897 327.981 77 325.818 76.588C323.14 76.073 320.565 74.528 318.402 72.88C315.106 70.305 312.428 67.009 309.853 63.713C306.145 58.975 303.158 53.619 300.48 48.263C300.274 54.752 300.171 61.344 298.729 67.73C298.111 70.305 297.081 73.086 295.227 74.94C294.197 75.867 292.961 76.485 291.622 76.691C285.236 77.824 280.498 71.232 279.159 64.846C278.129 59.799 278.438 54.546 278.232 49.293C278.129 45.585 278.438 24.882 278.644 21.174C278.85 17.466 279.365 13.758 280.807 10.462C282.043 7.578 284 4.797 286.781 3.252C289.356 1.913 292.961 1.81 295.639 3.04599C298.832 4.385 301.51 6.754 303.57 9.535C307.381 14.376 310.368 19.835 313.252 25.294C315.312 29.311 317.372 33.225 319.329 37.242C319.123 31.165 319.329 25.088 320.05 19.114C320.359 16.024 321.183 13.037 322.419 10.256C323.449 7.99 324.994 5.724 326.951 4.282C329.011 2.63399 332.101 1.81 334.676 2.53099C336.324 3.04599 337.766 4.179 338.899 5.518C341.989 9.432 343.431 14.582 344.049 19.526C345.491 29.929 345.079 40.641 343.946 51.147C343.431 56.4 342.813 61.859 340.856 66.7C339.208 70.511 336.324 74.219 332.513 75.97ZM389.39 77.927C383.931 78.442 378.266 77.618 373.116 75.867C367.039 73.807 361.58 69.069 358.078 63.713C356.636 61.447 355.194 59.078 354.37 56.503C352.207 50.117 352.207 43.113 352.928 36.521C353.752 29.105 357.048 21.792 361.477 15.612C364.567 11.389 368.584 7.475 373.219 4.797C377.442 2.222 382.592 0.882998 387.536 0.882998C392.377 0.985996 397.218 1.81 401.75 3.252C406.282 4.797 410.196 8.505 412.977 12.419C415.14 15.406 416.582 19.114 417.406 22.822C418.642 28.075 418.951 33.431 418.848 38.787C418.642 46.924 416.479 55.37 412.256 62.271C409.784 66.597 406.282 70.614 402.059 73.292C398.351 75.764 393.922 77.412 389.39 77.927ZM384.755 52.795C388.154 54.649 391.862 51.971 393.716 48.675C396.394 44.143 397.218 38.375 396.394 33.225C395.982 30.753 395.158 28.281 393.613 26.221C392.789 25.088 391.45 23.955 390.008 23.646C388.566 23.234 386.918 23.646 385.682 24.573C379.811 28.487 378.163 39.714 380.326 46.409C381.15 48.881 382.489 51.559 384.755 52.795ZM435.743 78.03C430.49 78.957 427.091 73.395 426.061 68.245C425.546 65.464 425.34 62.683 425.443 59.902C425.855 51.456 427.503 43.01 429.563 34.77C430.49 30.753 431.52 26.839 432.859 22.925C433.58 20.659 437.494 9.844 438.73 7.78399C438.833 7.578 439.245 7.475 439.348 7.269C440.275 6.033 441.305 4.797 442.541 3.87C444.807 2.222 447.691 1.19199 450.472 1.089C450.884 1.089 452.223 0.882998 452.532 1.089C452.738 1.295 453.974 1.398 454.283 1.501C455.313 1.81 456.343 2.53099 457.167 3.252C458.506 4.694 459.433 6.548 460.36 8.402C462.523 12.934 464.068 17.672 465.407 22.513C466.849 27.354 468.085 32.195 469.321 37.036C469.527 36.521 470.866 33.328 471.175 32.813C474.368 25.294 477.973 17.981 482.299 11.08C485.286 6.34199 491.981 1.295 497.234 3.252C504.959 5.92999 507.946 23.028 509.388 31.062C509.697 32.916 511.757 44.246 512.066 46.1C513.096 52.074 513.817 58.151 513.199 64.125C512.89 67.936 511.654 72.159 508.873 74.94C507.019 76.691 503.723 77.618 501.251 76.794C498.779 75.867 496.719 73.601 495.483 71.232C491.466 63.816 489.406 55.267 487.243 47.027C485.801 50.529 484.256 53.928 482.608 57.327C480.651 61.344 478.488 65.258 475.501 68.554C474.162 69.893 472.514 71.026 470.66 71.438C469.321 71.747 467.879 71.541 466.54 71.026C464.686 70.099 462.935 68.554 461.699 66.803C457.785 61.241 455.622 54.546 453.356 48.057C451.605 53.825 449.854 59.696 447.588 65.258C445.734 69.687 442.747 73.91 438.833 76.588C437.906 77.309 436.876 77.824 435.743 78.03ZM550.995 76.897C546.978 77.103 543.064 77.412 539.047 77.309C535.442 77.206 531.734 77 528.232 75.867C526.378 75.249 524.524 74.219 523.288 72.674C522.052 71.129 521.434 69.172 521.331 67.215C521.228 62.889 523.391 55.988 527.511 54.546C530.292 53.516 533.485 53.413 536.472 53.619C535.442 45.276 535.545 36.727 536.678 28.487C533.279 29.311 529.159 29.105 526.172 27.354C524.318 26.221 522.876 24.573 521.846 22.719C519.786 19.32 519.374 14.685 520.404 10.771C521.434 7.166 524.215 3.664 527.614 2.222C531.219 0.779999 535.339 0.882998 539.15 1.089C539.871 1.089 544.3 0.573996 545.021 0.573996C546.875 0.470997 557.484 0.470997 559.235 0.573996C562.943 0.676994 567.063 1.19199 570.05 3.252C571.492 4.282 572.625 5.621 573.449 7.063C577.157 13.861 574.582 23.44 568.196 27.766C566.445 29.002 564.179 29.517 562.016 29.723C563.149 36.624 563.149 43.834 561.913 50.838C564.179 50.941 566.445 51.25 568.505 52.177C570.05 52.898 571.595 54.031 572.625 55.473C574.994 58.563 576.23 62.889 575.818 66.803C575.509 69.79 573.758 72.88 571.389 74.528C569.02 76.176 565.93 76.691 563.046 76.897C559.029 77.103 555.012 76.588 550.995 76.897ZM636.042 70.82C631.819 75.455 624.815 77.721 618.532 77.515C610.086 77.412 601.125 74.631 594.327 69.481C589.795 66.185 586.19 61.241 584.027 55.988C582.173 51.765 581.555 46.924 581.246 42.289C580.937 34.976 582.688 27.457 585.881 20.968C589.898 12.934 597.211 5.621 605.76 2.84C611.425 0.882998 617.708 0.573996 623.682 1.398C627.287 1.913 630.995 3.149 633.982 5.209C635.63 6.34199 636.969 7.78399 637.999 9.432C640.265 12.728 641.501 16.848 641.707 20.762C641.81 24.058 640.986 27.56 639.132 30.341C637.793 32.401 635.939 34.358 633.776 35.491C630.789 36.933 626.978 37.242 623.991 36.109C620.798 34.873 617.914 31.886 617.09 28.59C616.266 27.766 615.339 26.942 614.206 26.633C612.661 26.221 611.219 26.633 610.189 27.869C607.099 31.783 605.966 37.448 607.408 42.186C607.82 43.628 608.747 44.967 610.086 45.791C611.425 46.718 613.279 47.027 615.03 46.924C619.562 46.718 624.197 45.379 628.729 45.997C632.025 46.409 635.527 48.263 637.484 50.941C639.029 53.207 639.338 56.194 639.647 58.872C640.059 62.992 638.823 67.73 636.042 70.82ZM676.665 77.824C672.133 78.236 667.498 78.236 662.966 77.206C660.391 76.691 658.022 75.352 655.859 73.704C652.872 71.541 650.194 68.451 649.164 64.846C647.413 58.975 649.267 51.456 654.932 49.396C658.125 48.16 661.833 48.778 665.026 49.808C665.85 50.117 670.691 52.177 671.515 52.383C672.854 52.692 674.296 52.898 675.532 52.383C676.253 52.074 676.459 51.25 675.944 50.632C675.326 50.117 672.339 48.984 671.515 48.675C666.983 47.027 662.142 45.688 657.919 43.113C655.241 41.465 653.078 38.581 651.945 35.491C650.606 31.783 650.194 27.56 650.812 23.646C651.43 20.247 653.078 16.848 655.241 14.067C656.58 12.522 657.816 10.771 659.361 9.329C662.451 6.548 666.159 4.385 670.176 3.252C675.429 1.707 681.094 1.707 686.45 2.53099C689.437 2.943 692.424 3.87 694.999 5.518C696.75 6.754 698.398 8.29899 699.634 10.05C702.93 14.479 705.093 21.792 701.076 25.603C698.707 27.869 695.514 29.414 692.218 29.62C687.583 29.929 682.948 28.281 678.416 29.105C677.489 29.311 675.738 29.723 675.532 30.547C675.326 31.165 676.15 32.092 676.665 32.504C677.901 33.431 684.39 36.624 685.729 37.345C690.467 39.714 695.308 42.495 698.604 46.615C700.664 49.293 702.003 52.795 702.209 56.194C702.415 59.181 701.694 62.168 700.458 64.949C698.604 68.966 695.102 72.468 691.188 74.425C686.656 76.588 681.609 77.515 676.665 77.824Z" fill="#D9E3EA"/>
</svg>
