<svg width="565" height="159" viewBox="0 0 565 159" fill="none" xmlns="http://www.w3.org/2000/svg">
<rect x="2" y="2" width="561" height="155" fill="#E11CD9" stroke="black" stroke-width="4"/>
<path d="M136.461 59.264C135.625 60.898 133.991 61.886 132.205 61.886C130.951 61.848 129.659 61.164 128.823 60.214C128.025 59.264 127.531 58.086 127.189 56.946C126.771 55.388 126.581 53.754 126.619 52.12C126.695 49.422 127.075 46.724 127.531 44.064C126.657 44.064 125.745 43.988 124.947 43.684C124.035 43.342 123.237 42.772 122.591 42.088C121.147 40.568 121.375 37.68 122.667 36.046C123.237 35.324 124.035 34.792 124.871 34.488C125.403 34.336 125.935 34.26 126.467 34.26C127.835 34.184 129.203 34.298 130.571 34.298C130.875 34.298 131.179 34.26 131.483 34.26C131.521 34.26 131.673 34.336 131.711 34.336C133.307 34.26 134.903 34.146 136.499 34.146C137.525 34.184 138.551 34.336 139.425 34.792C141.287 35.818 142.237 37.984 141.819 39.998C141.553 41.214 140.603 42.278 139.577 42.886C138.779 43.342 137.791 43.57 136.841 43.57C137.145 47.294 137.753 50.98 137.601 54.704C137.525 56.262 137.183 57.858 136.461 59.264ZM156.599 62.342C154.585 62.532 152.495 62.228 150.595 61.582C148.353 60.822 146.339 59.074 145.047 57.098C144.515 56.262 143.983 55.388 143.679 54.438C142.881 52.082 142.881 49.498 143.147 47.066C143.451 44.33 144.667 41.632 146.301 39.352C147.441 37.794 148.923 36.35 150.633 35.362C152.191 34.412 154.091 33.918 155.915 33.918C157.701 33.956 159.487 34.26 161.159 34.792C162.831 35.362 164.275 36.73 165.301 38.174C166.099 39.276 166.631 40.644 166.935 42.012C167.391 43.95 167.505 45.926 167.467 47.902C167.391 50.904 166.593 54.02 165.035 56.566C164.123 58.162 162.831 59.644 161.273 60.632C159.905 61.544 158.271 62.152 156.599 62.342ZM154.889 53.07C156.143 53.754 157.511 52.766 158.195 51.55C159.183 49.878 159.487 47.75 159.183 45.85C159.031 44.938 158.727 44.026 158.157 43.266C157.853 42.848 157.359 42.43 156.827 42.316C156.295 42.164 155.687 42.316 155.231 42.658C153.065 44.102 152.457 48.244 153.255 50.714C153.559 51.626 154.053 52.614 154.889 53.07ZM178.603 61.468C177.045 62.38 175.069 62.38 173.625 61.43C172.751 60.86 172.105 59.948 171.687 58.998C170.813 57.098 170.661 54.894 170.585 52.766C170.509 50.372 170.547 47.94 170.623 45.546C170.699 43.456 170.699 41.328 171.117 39.276C171.497 37.49 172.675 35.666 174.347 34.868C176.209 33.956 178.945 34.298 180.085 36.046C180.541 36.73 180.693 37.566 180.769 38.402C180.921 39.808 180.845 41.214 180.807 42.582C182.213 40.492 183.885 38.516 185.861 36.92C187.039 36.008 188.331 35.134 189.775 34.792C190.649 34.64 191.599 34.754 192.397 35.096C194.031 35.856 195.931 38.44 195.855 40.264C195.817 41.746 194.905 43.266 193.765 44.216C192.207 45.546 190.231 46.306 188.293 46.914C188.065 46.99 187.571 47.56 187.419 47.712C187.305 47.864 187.457 48.282 187.495 48.472C187.761 49.308 188.369 50.03 189.015 50.638C189.775 51.436 190.687 52.082 191.599 52.69C192.321 53.146 193.081 53.602 193.727 54.21C194.221 54.742 194.639 55.426 194.753 56.148C194.867 56.756 194.791 57.402 194.601 57.972C194.221 59.15 193.347 60.214 192.283 60.86C188.445 63.292 184.417 59.34 182.175 55.388C181.947 56.338 181.681 57.288 181.301 58.2C180.731 59.492 179.819 60.708 178.603 61.468ZM213.42 62.076C210.95 62.19 208.48 62.19 206.048 61.772C204.49 61.506 202.932 60.898 201.754 59.872C199.968 58.314 198.79 55.92 198.448 53.526C198.03 51.018 198.144 48.396 198.524 45.85C198.828 43.57 199.322 41.29 200.348 39.238C200.994 38.022 201.868 36.882 202.894 35.932C203.502 35.362 204.186 34.868 204.984 34.602C205.858 34.26 206.846 34.298 207.758 34.108C209.202 33.842 210.684 33.842 212.128 33.766C214.408 33.614 216.84 33.69 218.854 34.716C219.348 34.982 219.804 35.4 220.146 35.894C220.526 36.502 220.716 37.224 220.754 37.984C220.906 40.264 219.386 42.506 217.106 42.468C216.46 42.468 215.776 42.316 215.168 42.126C213.99 41.822 212.812 41.442 211.596 41.29C210.608 41.214 209.506 41.328 208.708 41.936C208.366 42.202 208.1 42.658 208.1 43.114C208.138 43.494 208.556 43.494 208.936 43.456C210.114 43.304 211.216 42.886 212.394 42.772C213.116 42.696 213.876 42.658 214.56 42.886C215.168 43.152 215.738 43.646 216.004 44.254C216.346 45.09 216.46 46.002 216.384 46.876C216.346 47.712 216.118 48.624 215.586 49.27C215.244 49.726 214.788 50.068 214.256 50.296C213.686 50.524 213.078 50.562 212.432 50.6C211.482 50.638 208.746 50.22 208.062 50.904C207.34 51.588 208.29 52.652 209.278 52.88C210.266 53.07 211.33 52.804 212.318 52.576C213.762 52.272 215.282 51.892 216.726 52.158C217.866 52.31 219.044 52.956 219.652 53.868C220.146 54.628 220.26 55.654 220.07 56.528C219.728 58.2 218.816 59.91 217.486 60.974C216.384 61.848 214.826 62.038 213.42 62.076ZM243.752 61.62C242.992 61.962 242.08 62 241.282 61.848C240.294 61.658 239.344 61.088 238.546 60.48C237.33 59.53 236.342 58.314 235.392 57.098C234.024 55.35 232.922 53.374 231.934 51.398C231.858 53.792 231.82 56.224 231.288 58.58C231.06 59.53 230.68 60.556 229.996 61.24C229.616 61.582 229.16 61.81 228.666 61.886C226.31 62.304 224.562 59.872 224.068 57.516C223.688 55.654 223.802 53.716 223.726 51.778C223.688 50.41 223.802 42.772 223.878 41.404C223.954 40.036 224.144 38.668 224.676 37.452C225.132 36.388 225.854 35.362 226.88 34.792C227.83 34.298 229.16 34.26 230.148 34.716C231.326 35.21 232.314 36.084 233.074 37.11C234.48 38.896 235.582 40.91 236.646 42.924C237.406 44.406 238.166 45.85 238.888 47.332C238.812 45.09 238.888 42.848 239.154 40.644C239.268 39.504 239.572 38.402 240.028 37.376C240.408 36.54 240.978 35.704 241.7 35.172C242.46 34.564 243.6 34.26 244.55 34.526C245.158 34.716 245.69 35.134 246.108 35.628C247.248 37.072 247.78 38.972 248.008 40.796C248.54 44.634 248.388 48.586 247.97 52.462C247.78 54.4 247.552 56.414 246.83 58.2C246.222 59.606 245.158 60.974 243.752 61.62ZM266.484 61.43C265.838 61.848 265.078 62.038 264.356 62.038C263.558 62.076 262.722 61.848 262.114 61.354C261.164 60.594 260.594 59.34 260.442 58.162C260.138 55.806 260.67 53.374 261.24 51.094C262.38 46.762 264.318 42.544 266.94 38.934C267.814 37.718 268.916 36.578 270.094 35.59C270.626 35.172 271.272 34.754 271.956 34.602C272.982 34.374 274.046 34.336 275.072 34.526C276.668 34.792 278.188 35.628 279.366 36.692C281.114 38.364 282.368 40.53 283.47 42.696C284.534 44.824 285.294 47.142 285.864 49.498C286.358 51.778 286.662 54.172 286.396 56.49C286.168 58.238 285.066 60.1 283.546 61.05C282.14 61.886 280.316 62.19 278.758 61.81C278.15 61.658 277.542 61.354 277.086 60.936C276.44 60.366 275.984 59.568 275.642 58.77C274.996 57.326 274.654 55.768 274.54 54.21C273.134 54.324 271.728 54.4 270.322 54.362C269.828 55.882 269.372 57.44 268.612 58.846C268.118 59.834 267.434 60.822 266.484 61.43ZM272.716 43.19C271.576 44.596 271.006 46.382 270.702 48.168C271.234 48.13 274.16 47.826 274.654 47.75C274.54 46.838 274.502 45.888 274.388 44.976C274.312 44.216 274.122 43.456 273.78 42.81C273.704 42.658 273.438 42.658 273.286 42.696C273.058 42.772 272.868 43 272.716 43.19ZM303.888 62C301.646 62.38 299.252 62.38 296.972 62C295.756 61.81 294.54 61.392 293.514 60.67C292.868 60.176 292.298 59.568 291.804 58.922C290.702 57.364 289.942 55.54 289.562 53.678C288.992 50.98 288.992 48.13 289.182 45.394C289.334 42.734 289.676 40.036 290.284 37.452C290.284 37.414 290.284 37.338 290.284 37.3C290.36 36.616 290.588 35.932 291.006 35.362C291.348 34.83 291.918 34.412 292.488 34.222C293.628 33.766 294.882 33.728 296.098 33.728C298.378 33.728 300.658 33.88 302.938 34.184C304.61 34.412 306.32 34.792 307.878 35.476C310.158 36.502 312.4 38.098 313.73 40.226C314.338 41.138 314.718 42.202 314.984 43.266C315.554 45.432 315.592 47.788 315.288 49.992C314.908 52.614 313.654 55.122 312.02 57.25C310.956 58.618 309.588 59.834 308.068 60.632C306.776 61.316 305.332 61.734 303.888 62ZM301.95 52.804C302.938 52.88 304.04 52.614 304.876 52.044C305.56 51.588 306.054 50.79 306.282 49.954C306.7 48.282 306.396 46.268 305.446 44.786C304.876 43.912 303.888 43.342 302.938 42.924C301.988 42.544 300.962 42.316 299.936 42.468C299.67 44.406 299.556 46.42 299.594 48.358C299.594 49.574 299.746 50.79 300.012 51.968C300.544 52.424 301.228 52.728 301.95 52.804ZM332.907 62C330.665 62.38 328.271 62.38 325.991 62C324.775 61.81 323.559 61.392 322.533 60.67C321.887 60.176 321.317 59.568 320.823 58.922C319.721 57.364 318.961 55.54 318.581 53.678C318.011 50.98 318.011 48.13 318.201 45.394C318.353 42.734 318.695 40.036 319.303 37.452C319.303 37.414 319.303 37.338 319.303 37.3C319.379 36.616 319.607 35.932 320.025 35.362C320.367 34.83 320.937 34.412 321.507 34.222C322.647 33.766 323.901 33.728 325.117 33.728C327.397 33.728 329.677 33.88 331.957 34.184C333.629 34.412 335.339 34.792 336.897 35.476C339.177 36.502 341.419 38.098 342.749 40.226C343.357 41.138 343.737 42.202 344.003 43.266C344.573 45.432 344.611 47.788 344.307 49.992C343.927 52.614 342.673 55.122 341.039 57.25C339.975 58.618 338.607 59.834 337.087 60.632C335.795 61.316 334.351 61.734 332.907 62ZM330.969 52.804C331.957 52.88 333.059 52.614 333.895 52.044C334.579 51.588 335.073 50.79 335.301 49.954C335.719 48.282 335.415 46.268 334.465 44.786C333.895 43.912 332.907 43.342 331.957 42.924C331.007 42.544 329.981 42.316 328.955 42.468C328.689 44.406 328.575 46.42 328.613 48.358C328.613 49.574 328.765 50.79 329.031 51.968C329.563 52.424 330.247 52.728 330.969 52.804ZM355.315 61.81C354.137 62.266 352.655 62.228 351.477 61.696C350.223 61.126 349.197 60.024 348.513 58.884C347.525 57.212 347.221 55.122 347.107 53.184C346.993 50.676 347.183 48.13 347.525 45.622C347.791 43.418 348.171 41.252 348.817 39.162C348.893 38.972 349.083 38.288 349.273 38.136C349.539 37.452 350.071 36.844 350.679 36.35C351.743 35.476 352.997 34.792 354.327 34.488C356.835 33.956 359.495 33.88 362.003 34.374C364.739 34.906 367.627 36.198 369.413 38.402C370.249 39.428 370.857 40.682 371.085 41.974C371.313 43.418 371.009 44.976 370.325 46.23C369.869 47.142 369.223 48.016 368.425 48.7C367.665 49.384 366.753 49.878 365.879 50.372C367.285 51.664 369.033 52.424 370.629 53.45C371.275 53.868 371.845 54.476 372.187 55.198C373.137 57.212 372.073 59.872 370.097 60.936C369.299 61.392 368.235 61.506 367.323 61.392C366.069 61.24 364.891 60.632 363.827 59.948C361.471 58.352 359.761 55.882 358.279 53.488C358.583 55.046 358.621 56.718 358.241 58.238C357.975 59.188 357.557 60.1 356.873 60.784C356.455 61.24 355.923 61.582 355.315 61.81ZM359.305 46.306C360.331 46.724 361.965 46.23 362.649 45.356C362.991 44.9 363.143 44.254 363.029 43.722C362.839 42.772 361.965 42.012 361.129 41.594C360.673 41.404 360.141 41.252 359.647 41.366C358.317 41.746 357.785 43.684 357.937 45.09C358.279 45.584 358.735 46.078 359.305 46.306ZM390.097 62.076C387.627 62.19 385.157 62.19 382.725 61.772C381.167 61.506 379.609 60.898 378.431 59.872C376.645 58.314 375.467 55.92 375.125 53.526C374.707 51.018 374.821 48.396 375.201 45.85C375.505 43.57 375.999 41.29 377.025 39.238C377.671 38.022 378.545 36.882 379.571 35.932C380.179 35.362 380.863 34.868 381.661 34.602C382.535 34.26 383.523 34.298 384.435 34.108C385.879 33.842 387.361 33.842 388.805 33.766C391.085 33.614 393.517 33.69 395.531 34.716C396.025 34.982 396.481 35.4 396.823 35.894C397.203 36.502 397.393 37.224 397.431 37.984C397.583 40.264 396.063 42.506 393.783 42.468C393.137 42.468 392.453 42.316 391.845 42.126C390.667 41.822 389.489 41.442 388.273 41.29C387.285 41.214 386.183 41.328 385.385 41.936C385.043 42.202 384.777 42.658 384.777 43.114C384.815 43.494 385.233 43.494 385.613 43.456C386.791 43.304 387.893 42.886 389.071 42.772C389.793 42.696 390.553 42.658 391.237 42.886C391.845 43.152 392.415 43.646 392.681 44.254C393.023 45.09 393.137 46.002 393.061 46.876C393.023 47.712 392.795 48.624 392.263 49.27C391.921 49.726 391.465 50.068 390.933 50.296C390.363 50.524 389.755 50.562 389.109 50.6C388.159 50.638 385.423 50.22 384.739 50.904C384.017 51.588 384.967 52.652 385.955 52.88C386.943 53.07 388.007 52.804 388.995 52.576C390.439 52.272 391.959 51.892 393.403 52.158C394.543 52.31 395.721 52.956 396.329 53.868C396.823 54.628 396.937 55.654 396.747 56.528C396.405 58.2 395.493 59.91 394.163 60.974C393.061 61.848 391.503 62.038 390.097 62.076ZM410.094 62.304C408.422 62.456 406.712 62.456 405.04 62.076C404.09 61.886 403.216 61.392 402.418 60.784C401.316 59.986 400.328 58.846 399.948 57.516C399.302 55.35 399.986 52.576 402.076 51.816C403.254 51.36 404.622 51.588 405.8 51.968C406.104 52.082 407.89 52.842 408.194 52.918C408.688 53.032 409.22 53.108 409.676 52.918C409.942 52.804 410.018 52.5 409.828 52.272C409.6 52.082 408.498 51.664 408.194 51.55C406.522 50.942 404.736 50.448 403.178 49.498C402.19 48.89 401.392 47.826 400.974 46.686C400.48 45.318 400.328 43.76 400.556 42.316C400.784 41.062 401.392 39.808 402.19 38.782C402.684 38.212 403.14 37.566 403.71 37.034C404.85 36.008 406.218 35.21 407.7 34.792C409.638 34.222 411.728 34.222 413.704 34.526C414.806 34.678 415.908 35.02 416.858 35.628C417.504 36.084 418.112 36.654 418.568 37.3C419.784 38.934 420.582 41.632 419.1 43.038C418.226 43.874 417.048 44.444 415.832 44.52C414.122 44.634 412.412 44.026 410.74 44.33C410.398 44.406 409.752 44.558 409.676 44.862C409.6 45.09 409.904 45.432 410.094 45.584C410.55 45.926 412.944 47.104 413.438 47.37C415.186 48.244 416.972 49.27 418.188 50.79C418.948 51.778 419.442 53.07 419.518 54.324C419.594 55.426 419.328 56.528 418.872 57.554C418.188 59.036 416.896 60.328 415.452 61.05C413.78 61.848 411.918 62.19 410.094 62.304ZM432.731 62.304C431.059 62.456 429.349 62.456 427.677 62.076C426.727 61.886 425.853 61.392 425.055 60.784C423.953 59.986 422.965 58.846 422.585 57.516C421.939 55.35 422.623 52.576 424.713 51.816C425.891 51.36 427.259 51.588 428.437 51.968C428.741 52.082 430.527 52.842 430.831 52.918C431.325 53.032 431.857 53.108 432.313 52.918C432.579 52.804 432.655 52.5 432.465 52.272C432.237 52.082 431.135 51.664 430.831 51.55C429.159 50.942 427.373 50.448 425.815 49.498C424.827 48.89 424.029 47.826 423.611 46.686C423.117 45.318 422.965 43.76 423.193 42.316C423.421 41.062 424.029 39.808 424.827 38.782C425.321 38.212 425.777 37.566 426.347 37.034C427.487 36.008 428.855 35.21 430.337 34.792C432.275 34.222 434.365 34.222 436.341 34.526C437.443 34.678 438.545 35.02 439.495 35.628C440.141 36.084 440.749 36.654 441.205 37.3C442.421 38.934 443.219 41.632 441.737 43.038C440.863 43.874 439.685 44.444 438.469 44.52C436.759 44.634 435.049 44.026 433.377 44.33C433.035 44.406 432.389 44.558 432.313 44.862C432.237 45.09 432.541 45.432 432.731 45.584C433.187 45.926 435.581 47.104 436.075 47.37C437.823 48.244 439.609 49.27 440.825 50.79C441.585 51.778 442.079 53.07 442.155 54.324C442.231 55.426 441.965 56.528 441.509 57.554C440.825 59.036 439.533 60.328 438.089 61.05C436.417 61.848 434.555 62.19 432.731 62.304Z" fill="#D9E3EA"/>
<path d="M26.9476 109.275C25.5226 109.35 24.0726 109.225 22.6976 108.9C21.7976 108.7 20.9226 108.425 20.1476 107.975C19.7976 107.8 19.4976 107.55 19.2476 107.25C18.2726 106.125 18.4976 103.45 19.1726 102.125C19.6476 101.2 20.4476 100.4 21.3476 99.875C20.6476 99.2 19.9726 98.4 19.6476 97.45C19.3476 96.55 19.2226 95.55 19.3976 94.6C19.5976 93.4 20.3726 92.25 21.4226 91.6C22.0726 91.175 22.8726 90.95 23.6476 90.85C24.7226 90.7 25.8226 90.65 26.9226 90.75C28.2726 90.875 29.6976 91.275 30.7476 92.15C32.5476 93.675 32.6726 96.65 31.2976 98.575C30.9476 99.075 30.4976 99.525 29.9726 99.85C30.9976 100.525 31.9476 101.45 32.4476 102.575C33.1476 104.075 32.8226 105.925 31.6976 107.175C30.5226 108.45 28.6726 109.175 26.9476 109.275ZM25.2976 96.575C26.2226 96.975 27.2726 96.15 26.7976 95.275C26.3476 94.525 25.0976 94.6 24.7726 95.375C24.5726 95.85 24.8476 96.35 25.2976 96.575ZM24.8226 104.45C25.7226 104.925 27.0976 104.725 27.6726 103.9C28.0726 103.325 27.7726 102.6 27.1476 102.25C26.3976 101.825 25.3726 101.9 24.6226 102.375C24.2726 102.625 23.9726 103.125 24.0476 103.55C24.1226 103.925 24.4476 104.275 24.8226 104.45ZM46.2288 109.125C45.3788 109.25 44.5288 109.3 43.6788 109.225C43.6288 109.225 43.4288 109.2 43.4038 109.2C42.1788 109.25 40.9288 109.075 39.8038 108.6C38.6788 108.125 37.7038 107.275 36.9788 106.3C36.1288 105.1 35.4288 103.75 35.1538 102.325C34.6788 100.1 34.6288 97.775 34.8788 95.5C35.0288 94.35 35.2788 93.125 35.9788 92.2C36.6038 91.35 37.5538 90.825 38.5788 90.75C39.4788 90.675 40.4288 91.225 41.0288 91.875C41.3788 92.225 41.6038 92.725 41.7538 93.2C42.0538 94.225 42.0038 95.325 41.9288 96.4C41.8288 97.975 41.6038 99.575 41.6788 101.15C41.7288 102.225 42.1038 103.3 42.6788 104.225C42.9288 104.625 43.4538 105.025 43.9538 104.975C43.9788 104.975 44.0288 104.975 44.0788 104.975C44.2788 105.025 44.6038 104.725 44.7538 104.575C45.0038 104.3 45.1788 103.975 45.3288 103.65C45.8538 102.65 46.0288 101.45 46.0038 100.3C45.9788 98.8 45.7538 97.3 45.7038 95.775C45.6538 94.7 45.7038 93.525 46.2038 92.55C46.6788 91.625 47.7288 90.875 48.7538 90.8C49.5788 90.725 50.4538 91.075 51.1038 91.625C51.5538 92 51.9038 92.5 52.1538 93.025C52.5288 93.9 52.7038 94.875 52.8288 95.825C53.0288 97.725 52.9788 99.675 52.6788 101.575C52.3538 103.675 51.3538 105.8 49.8288 107.325C48.8788 108.275 47.5538 108.925 46.2288 109.125ZM61.9774 108.975C61.0024 109.025 60.0524 109.1 59.0774 109.075C58.2024 109.05 57.3024 109 56.4524 108.725C56.0024 108.575 55.5524 108.325 55.2524 107.95C54.9524 107.575 54.8024 107.1 54.7774 106.625C54.7524 105.575 55.2774 103.9 56.2774 103.55C56.9524 103.3 57.7274 103.275 58.4524 103.325C58.2024 101.3 58.2274 99.225 58.5024 97.225C57.6774 97.425 56.6774 97.375 55.9524 96.95C55.5024 96.675 55.1524 96.275 54.9024 95.825C54.4024 95 54.3024 93.875 54.5524 92.925C54.8024 92.05 55.4774 91.2 56.3024 90.85C57.1774 90.5 58.1774 90.525 59.1024 90.575C59.2774 90.575 60.3524 90.45 60.5274 90.45C60.9774 90.425 63.5524 90.425 63.9774 90.45C64.8774 90.475 65.8774 90.6 66.6024 91.1C66.9524 91.35 67.2274 91.675 67.4274 92.025C68.3274 93.675 67.7024 96 66.1524 97.05C65.7274 97.35 65.1774 97.475 64.6524 97.525C64.9274 99.2 64.9274 100.95 64.6274 102.65C65.1774 102.675 65.7274 102.75 66.2274 102.975C66.6024 103.15 66.9774 103.425 67.2274 103.775C67.8024 104.525 68.1024 105.575 68.0024 106.525C67.9274 107.25 67.5024 108 66.9274 108.4C66.3524 108.8 65.6024 108.925 64.9024 108.975C63.9274 109.025 62.9524 108.9 61.9774 108.975ZM83.5683 109.075C82.4683 109.65 80.9683 109.35 80.2433 108.425C79.9683 108.1 79.8183 107.675 79.6933 107.275C79.2933 107.725 78.8183 108.15 78.2683 108.475C77.5933 108.85 76.8433 109.1 76.0683 109.15C75.2933 109.2 74.4933 109.025 73.7933 108.75C72.7183 108.3 71.6683 107.6 70.9683 106.675C70.1683 105.575 69.7433 104.2 69.5933 102.85C69.4183 101.375 69.5683 99.85 69.8433 98.4C70.1183 96.85 70.6683 95.325 71.5433 94.025C72.0433 93.3 72.6933 92.625 73.4183 92.125C74.2933 91.525 75.2433 90.975 76.2433 90.7C76.8433 90.525 77.4683 90.5 78.0933 90.475C79.1933 90.425 80.3433 90.55 81.3433 91.025C81.7433 91.2 82.1183 91.55 82.3433 91.925C82.7183 92.625 82.8433 93.5 82.6683 94.25C82.3433 95.875 80.8183 97.05 79.2433 96.55C79.0183 96.475 78.8433 96.325 78.6683 96.15C78.5433 96.1 77.8683 95.9 77.6933 95.9C77.4683 95.875 77.2183 95.95 76.9933 96.025C75.9933 96.325 75.1433 97.2 74.7683 98.175C74.3933 99.1 74.2933 100.2 74.4433 101.2C74.5183 101.75 74.7933 102.325 75.1933 102.725C75.7933 103.275 77.1183 103.65 77.8433 103.25C78.1683 103.075 78.4183 102.725 78.5433 102.35C78.5683 102.275 78.6183 102.175 78.5433 102.15C78.4183 102.1 77.8683 102.025 77.7433 102C77.3183 101.95 76.8433 101.875 76.4683 101.65C76.1933 101.5 75.9433 101.2 75.8183 100.9C75.6433 100.5 75.6183 100.05 75.7183 99.65C75.8183 99.2 76.0683 98.8 76.3933 98.475C77.0433 97.85 78.0183 97.525 78.9183 97.5C79.9933 97.475 81.0183 97.875 82.0683 97.975C82.7433 98.05 83.5183 98.1 84.0683 98.5C84.6683 98.95 84.9933 99.8 85.0433 100.55C85.0933 101.35 84.7933 102.125 84.5683 102.875C84.3433 103.65 84.1933 104.45 84.1683 105.25C84.1683 105.9 84.2933 106.525 84.3683 107.15C84.3933 107.55 84.4183 107.95 84.2683 108.325C84.1183 108.65 83.8933 108.9 83.5683 109.075ZM91.9931 109.2C91.1431 109.275 90.2431 109.25 89.4181 109C88.7181 108.75 88.0431 108.325 87.5931 107.75C87.2431 107.325 87.0181 106.8 86.9181 106.275C86.6431 104.975 87.1931 103.4 88.1181 102.45C89.1431 101.375 90.5431 100.775 91.8931 100.2C92.7431 99.85 93.5681 99.425 94.3681 98.975C94.6181 98.825 95.3431 98.425 95.4431 98.175C95.4931 98 95.5181 97.75 95.3431 97.65C95.0181 97.45 94.1931 97.725 93.8431 97.85C93.3431 98.075 92.8681 98.35 92.3681 98.6C91.5431 98.975 90.6681 99.25 89.7681 99.275C88.1181 99.3 86.6931 98.275 86.2681 96.7C85.9181 95.475 86.1181 94 86.7431 92.9C87.1431 92.225 87.8431 91.75 88.5681 91.45C89.9181 90.9 91.4681 90.8 92.9181 90.85C93.0431 90.85 93.6431 90.775 93.7431 90.75C94.9181 90.675 96.1181 90.6 97.3181 90.6C98.2181 90.6 99.1431 90.625 100.018 90.825C100.918 91.05 101.768 91.675 102.318 92.425C103.193 93.625 103.293 95.325 102.543 96.625C102.018 97.55 101.168 98.3 100.318 98.95C99.2431 99.775 97.9681 100.325 96.9181 101.175C96.5431 101.5 96.1431 101.825 95.8681 102.225C95.7181 102.45 95.5681 102.775 95.8181 102.825C95.9681 102.875 96.1431 102.85 96.3181 102.825C96.7431 102.75 97.1681 102.625 97.5931 102.475C98.6181 102.1 99.5681 101.425 100.668 101.35C101.343 101.3 102.118 101.55 102.593 102.05C103.218 102.75 103.318 103.9 103.243 104.85C103.093 106.475 102.018 107.975 100.543 108.6C99.8431 108.925 99.0681 108.975 98.2931 108.975C97.1431 108.95 95.9931 108.85 94.8181 108.9C93.8681 108.95 92.9431 109.1 91.9931 109.2ZM114.945 109.05C113.32 109.125 111.695 109.125 110.095 108.85C109.07 108.675 108.045 108.275 107.27 107.6C106.095 106.575 105.32 105 105.095 103.425C104.82 101.775 104.895 100.05 105.145 98.375C105.345 96.875 105.67 95.375 106.345 94.025C106.77 93.225 107.345 92.475 108.02 91.85C108.42 91.475 108.87 91.15 109.395 90.975C109.97 90.75 110.62 90.775 111.22 90.65C112.17 90.475 113.145 90.475 114.095 90.425C115.595 90.325 117.195 90.375 118.52 91.05C118.845 91.225 119.145 91.5 119.37 91.825C119.62 92.225 119.745 92.7 119.77 93.2C119.87 94.7 118.87 96.175 117.37 96.15C116.945 96.15 116.495 96.05 116.095 95.925C115.32 95.725 114.545 95.475 113.745 95.375C113.095 95.325 112.37 95.4 111.845 95.8C111.62 95.975 111.445 96.275 111.445 96.575C111.47 96.825 111.745 96.825 111.995 96.8C112.77 96.7 113.495 96.425 114.27 96.35C114.745 96.3 115.245 96.275 115.695 96.425C116.095 96.6 116.47 96.925 116.645 97.325C116.87 97.875 116.945 98.475 116.895 99.05C116.87 99.6 116.72 100.2 116.37 100.625C116.145 100.925 115.845 101.15 115.495 101.3C115.12 101.45 114.72 101.475 114.295 101.5C113.67 101.525 111.87 101.25 111.42 101.7C110.945 102.15 111.57 102.85 112.22 103C112.87 103.125 113.57 102.95 114.22 102.8C115.17 102.6 116.17 102.35 117.12 102.525C117.87 102.625 118.645 103.05 119.045 103.65C119.37 104.15 119.445 104.825 119.32 105.4C119.095 106.5 118.495 107.625 117.62 108.325C116.895 108.9 115.87 109.025 114.945 109.05ZM135.251 109.075C134.151 109.65 132.651 109.35 131.926 108.425C131.651 108.1 131.501 107.675 131.376 107.275C130.976 107.725 130.501 108.15 129.951 108.475C129.276 108.85 128.526 109.1 127.751 109.15C126.976 109.2 126.176 109.025 125.476 108.75C124.401 108.3 123.351 107.6 122.651 106.675C121.851 105.575 121.426 104.2 121.276 102.85C121.101 101.375 121.251 99.85 121.526 98.4C121.801 96.85 122.351 95.325 123.226 94.025C123.726 93.3 124.376 92.625 125.101 92.125C125.976 91.525 126.926 90.975 127.926 90.7C128.526 90.525 129.151 90.5 129.776 90.475C130.876 90.425 132.026 90.55 133.026 91.025C133.426 91.2 133.801 91.55 134.026 91.925C134.401 92.625 134.526 93.5 134.351 94.25C134.026 95.875 132.501 97.05 130.926 96.55C130.701 96.475 130.526 96.325 130.351 96.15C130.226 96.1 129.551 95.9 129.376 95.9C129.151 95.875 128.901 95.95 128.676 96.025C127.676 96.325 126.826 97.2 126.451 98.175C126.076 99.1 125.976 100.2 126.126 101.2C126.201 101.75 126.476 102.325 126.876 102.725C127.476 103.275 128.801 103.65 129.526 103.25C129.851 103.075 130.101 102.725 130.226 102.35C130.251 102.275 130.301 102.175 130.226 102.15C130.101 102.1 129.551 102.025 129.426 102C129.001 101.95 128.526 101.875 128.151 101.65C127.876 101.5 127.626 101.2 127.501 100.9C127.326 100.5 127.301 100.05 127.401 99.65C127.501 99.2 127.751 98.8 128.076 98.475C128.726 97.85 129.701 97.525 130.601 97.5C131.676 97.475 132.701 97.875 133.751 97.975C134.426 98.05 135.201 98.1 135.751 98.5C136.351 98.95 136.676 99.8 136.726 100.55C136.776 101.35 136.476 102.125 136.251 102.875C136.026 103.65 135.876 104.45 135.851 105.25C135.851 105.9 135.976 106.525 136.051 107.15C136.076 107.55 136.101 107.95 135.951 108.325C135.801 108.65 135.576 108.9 135.251 109.075ZM151.321 107.5C150.296 108.625 148.596 109.175 147.071 109.125C145.021 109.1 142.846 108.425 141.196 107.175C140.096 106.375 139.221 105.175 138.696 103.9C138.246 102.875 138.096 101.7 138.021 100.575C137.946 98.8 138.371 96.975 139.146 95.4C140.121 93.45 141.896 91.675 143.971 91C145.346 90.525 146.871 90.45 148.321 90.65C149.196 90.775 150.096 91.075 150.821 91.575C151.221 91.85 151.546 92.2 151.796 92.6C152.346 93.4 152.646 94.4 152.696 95.35C152.721 96.15 152.521 97 152.071 97.675C151.746 98.175 151.296 98.65 150.771 98.925C150.046 99.275 149.121 99.35 148.396 99.075C147.621 98.775 146.921 98.05 146.721 97.25C146.521 97.05 146.296 96.85 146.021 96.775C145.646 96.675 145.296 96.775 145.046 97.075C144.296 98.025 144.021 99.4 144.371 100.55C144.471 100.9 144.696 101.225 145.021 101.425C145.346 101.65 145.796 101.725 146.221 101.7C147.321 101.65 148.446 101.325 149.546 101.475C150.346 101.575 151.196 102.025 151.671 102.675C152.046 103.225 152.121 103.95 152.196 104.6C152.296 105.6 151.996 106.75 151.321 107.5ZM163.109 109.225C161.784 109.35 160.409 109.15 159.159 108.725C157.684 108.225 156.359 107.075 155.509 105.775C155.159 105.225 154.809 104.65 154.609 104.025C154.084 102.475 154.084 100.775 154.259 99.175C154.459 97.375 155.259 95.6 156.334 94.1C157.084 93.075 158.059 92.125 159.184 91.475C160.209 90.85 161.459 90.525 162.659 90.525C163.834 90.55 165.009 90.75 166.109 91.1C167.209 91.475 168.159 92.375 168.834 93.325C169.359 94.05 169.709 94.95 169.909 95.85C170.209 97.125 170.284 98.425 170.259 99.725C170.209 101.7 169.684 103.75 168.659 105.425C168.059 106.475 167.209 107.45 166.184 108.1C165.284 108.7 164.209 109.1 163.109 109.225ZM161.984 103.125C162.809 103.575 163.709 102.925 164.159 102.125C164.809 101.025 165.009 99.625 164.809 98.375C164.709 97.775 164.509 97.175 164.134 96.675C163.934 96.4 163.609 96.125 163.259 96.05C162.909 95.95 162.509 96.05 162.209 96.275C160.784 97.225 160.384 99.95 160.909 101.575C161.109 102.175 161.434 102.825 161.984 103.125ZM174.288 109.25C173.013 109.475 172.188 108.125 171.938 106.875C171.813 106.2 171.763 105.525 171.788 104.85C171.888 102.8 172.288 100.75 172.788 98.75C173.013 97.775 173.263 96.825 173.588 95.875C173.763 95.325 174.713 92.7 175.013 92.2C175.038 92.15 175.138 92.125 175.163 92.075C175.388 91.775 175.638 91.475 175.938 91.25C176.488 90.85 177.188 90.6 177.863 90.575C177.963 90.575 178.288 90.525 178.363 90.575C178.413 90.625 178.713 90.65 178.788 90.675C179.038 90.75 179.288 90.925 179.488 91.1C179.813 91.45 180.038 91.9 180.263 92.35C180.788 93.45 181.163 94.6 181.488 95.775C181.838 96.95 182.138 98.125 182.438 99.3C182.488 99.175 182.813 98.4 182.888 98.275C183.663 96.45 184.538 94.675 185.588 93C186.313 91.85 187.938 90.625 189.213 91.1C191.088 91.75 191.813 95.9 192.163 97.85C192.238 98.3 192.738 101.05 192.813 101.5C193.063 102.95 193.238 104.425 193.088 105.875C193.013 106.8 192.713 107.825 192.038 108.5C191.588 108.925 190.788 109.15 190.188 108.95C189.588 108.725 189.088 108.175 188.788 107.6C187.813 105.8 187.313 103.725 186.788 101.725C186.438 102.575 186.063 103.4 185.663 104.225C185.188 105.2 184.663 106.15 183.938 106.95C183.613 107.275 183.213 107.55 182.763 107.65C182.438 107.725 182.088 107.675 181.763 107.55C181.313 107.325 180.888 106.95 180.588 106.525C179.638 105.175 179.113 103.55 178.563 101.975C178.138 103.375 177.713 104.8 177.163 106.15C176.713 107.225 175.988 108.25 175.038 108.9C174.813 109.075 174.563 109.2 174.288 109.25ZM197.212 109.25C195.937 109.475 195.112 108.125 194.862 106.875C194.737 106.2 194.687 105.525 194.712 104.85C194.812 102.8 195.212 100.75 195.712 98.75C195.937 97.775 196.187 96.825 196.512 95.875C196.687 95.325 197.637 92.7 197.937 92.2C197.962 92.15 198.062 92.125 198.087 92.075C198.312 91.775 198.562 91.475 198.862 91.25C199.412 90.85 200.112 90.6 200.787 90.575C200.887 90.575 201.212 90.525 201.287 90.575C201.337 90.625 201.637 90.65 201.712 90.675C201.962 90.75 202.212 90.925 202.412 91.1C202.737 91.45 202.962 91.9 203.187 92.35C203.712 93.45 204.087 94.6 204.412 95.775C204.762 96.95 205.062 98.125 205.362 99.3C205.412 99.175 205.737 98.4 205.812 98.275C206.587 96.45 207.462 94.675 208.512 93C209.237 91.85 210.862 90.625 212.137 91.1C214.012 91.75 214.737 95.9 215.087 97.85C215.162 98.3 215.662 101.05 215.737 101.5C215.987 102.95 216.162 104.425 216.012 105.875C215.937 106.8 215.637 107.825 214.962 108.5C214.512 108.925 213.712 109.15 213.112 108.95C212.512 108.725 212.012 108.175 211.712 107.6C210.737 105.8 210.237 103.725 209.712 101.725C209.362 102.575 208.987 103.4 208.587 104.225C208.112 105.2 207.587 106.15 206.862 106.95C206.537 107.275 206.137 107.55 205.687 107.65C205.362 107.725 205.012 107.675 204.687 107.55C204.237 107.325 203.812 106.95 203.512 106.525C202.562 105.175 202.037 103.55 201.487 101.975C201.062 103.375 200.637 104.8 200.087 106.15C199.637 107.225 198.912 108.25 197.962 108.9C197.737 109.075 197.487 109.2 197.212 109.25ZM229.163 109.125C228.313 109.25 227.463 109.3 226.613 109.225C226.563 109.225 226.363 109.2 226.338 109.2C225.113 109.25 223.863 109.075 222.738 108.6C221.613 108.125 220.638 107.275 219.913 106.3C219.063 105.1 218.363 103.75 218.088 102.325C217.613 100.1 217.563 97.775 217.813 95.5C217.963 94.35 218.213 93.125 218.913 92.2C219.538 91.35 220.488 90.825 221.513 90.75C222.413 90.675 223.363 91.225 223.963 91.875C224.313 92.225 224.538 92.725 224.688 93.2C224.988 94.225 224.938 95.325 224.863 96.4C224.763 97.975 224.538 99.575 224.613 101.15C224.663 102.225 225.038 103.3 225.613 104.225C225.863 104.625 226.388 105.025 226.888 104.975C226.913 104.975 226.963 104.975 227.013 104.975C227.213 105.025 227.538 104.725 227.688 104.575C227.938 104.3 228.113 103.975 228.263 103.65C228.788 102.65 228.963 101.45 228.938 100.3C228.913 98.8 228.688 97.3 228.638 95.775C228.588 94.7 228.638 93.525 229.138 92.55C229.613 91.625 230.663 90.875 231.688 90.8C232.513 90.725 233.388 91.075 234.038 91.625C234.488 92 234.838 92.5 235.088 93.025C235.463 93.9 235.638 94.875 235.763 95.825C235.963 97.725 235.913 99.675 235.613 101.575C235.288 103.675 234.288 105.8 232.763 107.325C231.813 108.275 230.488 108.925 229.163 109.125ZM244.312 109.2C243.212 109.3 242.087 109.3 240.987 109.05C240.362 108.925 239.787 108.6 239.262 108.2C238.537 107.675 237.887 106.925 237.637 106.05C237.212 104.625 237.662 102.8 239.037 102.3C239.812 102 240.712 102.15 241.487 102.4C241.687 102.475 242.862 102.975 243.062 103.025C243.387 103.1 243.737 103.15 244.037 103.025C244.212 102.95 244.262 102.75 244.137 102.6C243.987 102.475 243.262 102.2 243.062 102.125C241.962 101.725 240.787 101.4 239.762 100.775C239.112 100.375 238.587 99.675 238.312 98.925C237.987 98.025 237.887 97 238.037 96.05C238.187 95.225 238.587 94.4 239.112 93.725C239.437 93.35 239.737 92.925 240.112 92.575C240.862 91.9 241.762 91.375 242.737 91.1C244.012 90.725 245.387 90.725 246.687 90.925C247.412 91.025 248.137 91.25 248.762 91.65C249.187 91.95 249.587 92.325 249.887 92.75C250.687 93.825 251.212 95.6 250.237 96.525C249.662 97.075 248.887 97.45 248.087 97.5C246.962 97.575 245.837 97.175 244.737 97.375C244.512 97.425 244.087 97.525 244.037 97.725C243.987 97.875 244.187 98.1 244.312 98.2C244.612 98.425 246.187 99.2 246.512 99.375C247.662 99.95 248.837 100.625 249.637 101.625C250.137 102.275 250.462 103.125 250.512 103.95C250.562 104.675 250.387 105.4 250.087 106.075C249.637 107.05 248.787 107.9 247.837 108.375C246.737 108.9 245.512 109.125 244.312 109.2ZM258.305 108.175C257.78 108.625 257.105 108.875 256.43 108.9C255.68 108.9 254.88 108.475 254.38 107.9C253.68 107.1 253.28 106.025 253.03 105C252.605 103.375 252.53 101.675 252.605 100.025C252.68 98.4 252.88 96.8 253.23 95.225C253.505 93.975 253.955 92.7 254.73 91.675C254.93 91.4 255.23 91.15 255.53 91.025C256.255 90.7 259.555 90.475 260.355 90.425C261.855 90.35 263.43 90.325 264.855 90.825C265.73 91.125 266.555 91.725 267.105 92.475C268.13 93.95 267.555 96 265.855 96.575C265.405 96.725 264.93 96.725 264.48 96.675C263.73 96.575 262.98 96.425 262.23 96.375C261.78 96.35 261.33 96.35 260.905 96.5C260.655 96.575 260.405 96.725 260.255 96.925C259.98 97.275 259.805 97.825 260.23 97.975C260.38 98.025 260.53 98.05 260.68 98.05C261.78 98.025 262.855 97.8 263.93 97.925C264.63 97.975 265.405 98.275 265.805 98.85C266.43 99.7 266.355 101.45 265.705 102.3C265.455 102.65 265.03 102.925 264.605 103.05C263.855 103.275 263.03 103.2 262.255 103.1C261.68 103.025 261.08 102.9 260.505 103C260.23 103.05 259.955 103.2 259.78 103.425C259.805 104.425 259.755 105.475 259.43 106.425C259.205 107.075 258.83 107.725 258.305 108.175ZM276.909 108.7C275.359 109.175 273.559 109.05 272.034 108.45C270.434 107.775 269.184 106.1 269.034 104.35C268.959 103.4 269.409 102.3 270.134 101.675C270.609 101.275 271.359 101.125 271.959 101.225C272.834 101.4 273.559 101.975 274.334 102.325C274.584 102.45 274.834 102.525 275.109 102.5C275.384 102.45 275.684 102.275 275.859 102.05C276.084 101.725 276.184 101.3 276.209 100.925C276.309 99.675 276.134 98.45 276.009 97.225C275.434 97.375 274.884 97.6 274.284 97.725C273.384 97.925 272.409 97.975 271.459 97.875C270.759 97.775 270.009 97.45 269.559 96.875C269.009 96.175 268.784 95.175 268.834 94.275C268.884 93.625 269.084 93 269.409 92.425C269.709 91.9 270.209 91.475 270.784 91.2C271.359 90.9 272.059 90.8 272.734 90.75C274.184 90.65 275.659 90.675 277.134 90.75C277.184 90.75 277.459 90.675 277.509 90.675C278.184 90.525 278.909 90.45 279.584 90.525C280.159 90.6 280.709 90.85 281.159 91.225C281.684 91.7 282.009 92.425 282.109 93.125C282.209 93.675 282.159 94.225 282.034 94.75C281.859 95.475 281.409 96.1 281.259 96.825C281.109 97.45 281.284 98.1 281.359 98.75C281.684 101.075 281.484 103.65 280.434 105.75C279.759 107.125 278.384 108.25 276.909 108.7ZM289.678 108.925C288.703 109.225 287.578 109.2 286.628 108.8C286.128 108.6 285.678 108.275 285.303 107.875C284.703 107.2 284.353 106.325 284.128 105.45C283.728 103.95 283.703 102.35 283.803 100.825C283.928 98.9 284.178 96.95 284.828 95.15C285.253 93.9 285.853 92.65 286.828 91.75C287.428 91.175 288.328 90.825 289.178 90.775C289.253 90.775 289.628 90.725 289.703 90.725C290.328 90.65 290.978 90.675 291.603 90.675C292.453 90.675 293.353 90.775 294.153 91.075C294.953 91.4 295.678 91.9 296.253 92.525C297.128 93.475 297.703 94.75 297.928 96C298.153 97.425 297.953 98.95 297.378 100.25C297.053 101.05 296.503 101.825 295.753 102.25C294.803 102.8 293.703 103.2 292.578 103.225C292.053 103.225 291.503 103.175 290.978 103C291.228 104.05 291.478 105.15 291.403 106.25C291.353 106.95 291.203 107.7 290.728 108.225C290.453 108.55 290.078 108.8 289.678 108.925ZM291.278 98.425C291.528 98.7 291.928 98.925 292.278 98.875C292.803 98.8 293.603 98.175 293.778 97.675C293.903 97.325 293.878 96.875 293.728 96.525C293.528 96.1 293.153 95.75 292.753 95.525C292.453 95.35 291.978 95.325 291.703 95.525C291.428 95.75 291.253 96.1 291.153 96.45C291.003 96.975 291.003 97.525 291.053 98.075C291.078 98.15 291.228 98.35 291.278 98.425ZM305.302 108.175C304.777 108.625 304.102 108.875 303.427 108.9C302.677 108.9 301.877 108.475 301.377 107.9C300.677 107.1 300.277 106.025 300.027 105C299.602 103.375 299.527 101.675 299.602 100.025C299.677 98.4 299.877 96.8 300.227 95.225C300.502 93.975 300.952 92.7 301.727 91.675C301.927 91.4 302.227 91.15 302.527 91.025C303.252 90.7 306.552 90.475 307.352 90.425C308.852 90.35 310.427 90.325 311.852 90.825C312.727 91.125 313.552 91.725 314.102 92.475C315.127 93.95 314.552 96 312.852 96.575C312.402 96.725 311.927 96.725 311.477 96.675C310.727 96.575 309.977 96.425 309.227 96.375C308.777 96.35 308.327 96.35 307.902 96.5C307.652 96.575 307.402 96.725 307.252 96.925C306.977 97.275 306.802 97.825 307.227 97.975C307.377 98.025 307.527 98.05 307.677 98.05C308.777 98.025 309.852 97.8 310.927 97.925C311.627 97.975 312.402 98.275 312.802 98.85C313.427 99.7 313.352 101.45 312.702 102.3C312.452 102.65 312.027 102.925 311.602 103.05C310.852 103.275 310.027 103.2 309.252 103.1C308.677 103.025 308.077 102.9 307.502 103C307.227 103.05 306.952 103.2 306.777 103.425C306.802 104.425 306.752 105.475 306.427 106.425C306.202 107.075 305.827 107.725 305.302 108.175ZM317.745 109.25C316.47 109.475 315.645 108.125 315.395 106.875C315.27 106.2 315.22 105.525 315.245 104.85C315.345 102.8 315.745 100.75 316.245 98.75C316.47 97.775 316.72 96.825 317.045 95.875C317.22 95.325 318.17 92.7 318.47 92.2C318.495 92.15 318.595 92.125 318.62 92.075C318.845 91.775 319.095 91.475 319.395 91.25C319.945 90.85 320.645 90.6 321.32 90.575C321.42 90.575 321.745 90.525 321.82 90.575C321.87 90.625 322.17 90.65 322.245 90.675C322.495 90.75 322.745 90.925 322.945 91.1C323.27 91.45 323.495 91.9 323.72 92.35C324.245 93.45 324.62 94.6 324.945 95.775C325.295 96.95 325.595 98.125 325.895 99.3C325.945 99.175 326.27 98.4 326.345 98.275C327.12 96.45 327.995 94.675 329.045 93C329.77 91.85 331.395 90.625 332.67 91.1C334.545 91.75 335.27 95.9 335.62 97.85C335.695 98.3 336.195 101.05 336.27 101.5C336.52 102.95 336.695 104.425 336.545 105.875C336.47 106.8 336.17 107.825 335.495 108.5C335.045 108.925 334.245 109.15 333.645 108.95C333.045 108.725 332.545 108.175 332.245 107.6C331.27 105.8 330.77 103.725 330.245 101.725C329.895 102.575 329.52 103.4 329.12 104.225C328.645 105.2 328.12 106.15 327.395 106.95C327.07 107.275 326.67 107.55 326.22 107.65C325.895 107.725 325.545 107.675 325.22 107.55C324.77 107.325 324.345 106.95 324.045 106.525C323.095 105.175 322.57 103.55 322.02 101.975C321.595 103.375 321.17 104.8 320.62 106.15C320.17 107.225 319.445 108.25 318.495 108.9C318.27 109.075 318.02 109.2 317.745 109.25ZM341.219 108.8C340.594 108.975 339.869 108.9 339.344 108.55C338.969 108.325 338.694 107.925 338.569 107.525C338.294 106.775 338.344 105.925 338.519 105.15C338.794 103.95 339.494 102.875 340.194 101.875C340.569 101.35 340.969 100.8 341.469 100.375C340.769 99.35 340.019 98.375 339.394 97.325C338.894 96.5 338.419 95.575 338.294 94.625C338.219 94.075 338.219 93.525 338.394 93C338.919 91.375 340.719 90.55 342.344 91.05C342.844 91.225 343.319 91.5 343.694 91.9C344.219 92.475 344.544 93.25 344.794 94C345.069 94.9 345.319 95.8 345.619 96.7C346.044 95.25 346.569 93.8 347.544 92.625C348.094 91.95 348.869 91.375 349.744 91.125C350.244 91 350.794 91 351.294 91.2C352.569 91.65 353.619 93.55 353.519 94.9C353.444 95.975 352.694 96.95 351.919 97.675C350.869 98.625 349.694 99.525 348.969 100.75C349.444 101.45 349.994 102.075 350.544 102.725C351.019 103.3 351.619 103.85 351.894 104.575C352.169 105.3 352.244 106.225 351.944 106.975C351.344 108.45 349.444 109.1 347.919 108.65C347.119 108.4 346.394 107.825 345.894 107.15C345.344 106.4 345.019 105.5 344.719 104.6C344.094 105.825 343.469 107.075 342.519 108.05C342.169 108.4 341.694 108.675 341.219 108.8ZM359.771 109.025C359.271 109.175 358.721 109.225 358.196 109.2C357.446 109.15 356.621 108.975 356.071 108.475C355.796 108.225 355.571 107.9 355.446 107.55C355.296 107.125 355.296 106.65 355.296 106.2C355.321 105.125 355.621 104.075 355.821 103.025C356.021 101.85 356.171 100.65 356.021 99.475C355.846 97.925 354.946 96.5 354.896 94.95C354.871 94.25 355.021 93.525 355.321 92.9C355.621 92.3 356.046 91.725 356.621 91.375C357.446 90.875 358.571 90.7 359.496 90.975C359.871 91.075 360.171 91.325 360.446 91.6C360.946 92.1 361.321 92.75 361.446 93.425C361.721 95.025 361.321 96.65 361.171 98.25C361.546 98.4 361.996 98.425 362.421 98.4C363.121 98.375 363.796 98.225 364.496 98.075C364.471 97.375 364.271 96.7 364.171 96C364.071 95.4 364.121 94.8 364.221 94.225C364.371 93.2 364.921 92.175 365.721 91.525C366.671 90.775 368.371 90.8 369.296 91.6C369.696 91.925 369.996 92.4 370.146 92.875C370.371 93.525 370.421 94.225 370.371 94.875C370.271 96.175 369.846 97.425 369.621 98.675C369.421 99.75 369.346 100.875 369.496 101.925C369.646 103.025 370.071 104.025 370.296 105.1C370.446 105.85 370.421 106.675 370.146 107.4C369.996 107.775 369.771 108.125 369.471 108.375C369.121 108.65 368.696 108.825 368.246 108.925C367.596 109.05 366.921 108.975 366.271 108.85C365.771 108.75 365.221 108.625 364.796 108.325C364.496 108.125 364.246 107.825 364.121 107.475C363.896 106.925 363.821 106.3 363.821 105.675C363.821 104.725 364.096 103.8 364.396 102.9C363.396 102.725 362.371 102.6 361.396 102.825C361.671 103.925 361.921 105.075 361.846 106.225C361.821 106.95 361.521 107.675 361.021 108.2C360.696 108.575 360.246 108.875 359.771 109.025ZM377.754 108.65C376.729 109.25 375.429 109.25 374.479 108.625C373.904 108.25 373.479 107.65 373.204 107.025C372.629 105.775 372.529 104.325 372.479 102.925C372.429 101.35 372.454 99.75 372.504 98.175C372.554 96.8 372.554 95.4 372.829 94.05C373.079 92.875 373.854 91.675 374.954 91.15C376.179 90.55 377.979 90.775 378.729 91.925C379.029 92.375 379.129 92.925 379.179 93.475C379.279 94.4 379.229 95.325 379.204 96.225C380.129 94.85 381.229 93.55 382.529 92.5C383.304 91.9 384.154 91.325 385.104 91.1C385.679 91 386.304 91.075 386.829 91.3C387.904 91.8 389.154 93.5 389.104 94.7C389.079 95.675 388.479 96.675 387.729 97.3C386.704 98.175 385.404 98.675 384.129 99.075C383.979 99.125 383.654 99.5 383.554 99.6C383.479 99.7 383.579 99.975 383.604 100.1C383.779 100.65 384.179 101.125 384.604 101.525C385.104 102.05 385.704 102.475 386.304 102.875C386.779 103.175 387.279 103.475 387.704 103.875C388.029 104.225 388.304 104.675 388.379 105.15C388.454 105.55 388.404 105.975 388.279 106.35C388.029 107.125 387.454 107.825 386.754 108.25C384.229 109.85 381.579 107.25 380.104 104.65C379.954 105.275 379.779 105.9 379.529 106.5C379.154 107.35 378.554 108.15 377.754 108.65ZM396.439 108.175C395.914 108.625 395.239 108.875 394.564 108.9C393.814 108.9 393.014 108.475 392.514 107.9C391.814 107.1 391.414 106.025 391.164 105C390.739 103.375 390.664 101.675 390.739 100.025C390.814 98.4 391.014 96.8 391.364 95.225C391.639 93.975 392.089 92.7 392.864 91.675C393.064 91.4 393.364 91.15 393.664 91.025C394.389 90.7 397.689 90.475 398.489 90.425C399.989 90.35 401.564 90.325 402.989 90.825C403.864 91.125 404.689 91.725 405.239 92.475C406.264 93.95 405.689 96 403.989 96.575C403.539 96.725 403.064 96.725 402.614 96.675C401.864 96.575 401.114 96.425 400.364 96.375C399.914 96.35 399.464 96.35 399.039 96.5C398.789 96.575 398.539 96.725 398.389 96.925C398.114 97.275 397.939 97.825 398.364 97.975C398.514 98.025 398.664 98.05 398.814 98.05C399.914 98.025 400.989 97.8 402.064 97.925C402.764 97.975 403.539 98.275 403.939 98.85C404.564 99.7 404.489 101.45 403.839 102.3C403.589 102.65 403.164 102.925 402.739 103.05C401.989 103.275 401.164 103.2 400.389 103.1C399.814 103.025 399.214 102.9 398.639 103C398.364 103.05 398.089 103.2 397.914 103.425C397.939 104.425 397.889 105.475 397.564 106.425C397.339 107.075 396.964 107.725 396.439 108.175ZM420.619 108.75C420.119 108.975 419.519 109 418.994 108.9C418.344 108.775 417.719 108.4 417.194 108C416.394 107.375 415.744 106.575 415.119 105.775C414.219 104.625 413.494 103.325 412.844 102.025C412.794 103.6 412.769 105.2 412.419 106.75C412.269 107.375 412.019 108.05 411.569 108.5C411.319 108.725 411.019 108.875 410.694 108.925C409.144 109.2 407.994 107.6 407.669 106.05C407.419 104.825 407.494 103.55 407.444 102.275C407.419 101.375 407.494 96.35 407.544 95.45C407.594 94.55 407.719 93.65 408.069 92.85C408.369 92.15 408.844 91.475 409.519 91.1C410.144 90.775 411.019 90.75 411.669 91.05C412.444 91.375 413.094 91.95 413.594 92.625C414.519 93.8 415.244 95.125 415.944 96.45C416.444 97.425 416.944 98.375 417.419 99.35C417.369 97.875 417.419 96.4 417.594 94.95C417.669 94.2 417.869 93.475 418.169 92.8C418.419 92.25 418.794 91.7 419.269 91.35C419.769 90.95 420.519 90.75 421.144 90.925C421.544 91.05 421.894 91.325 422.169 91.65C422.919 92.6 423.269 93.85 423.419 95.05C423.769 97.575 423.669 100.175 423.394 102.725C423.269 104 423.119 105.325 422.644 106.5C422.244 107.425 421.544 108.325 420.619 108.75ZM431.349 108.175C430.824 108.625 430.149 108.875 429.474 108.9C428.724 108.9 427.924 108.475 427.424 107.9C426.724 107.1 426.324 106.025 426.074 105C425.649 103.375 425.574 101.675 425.649 100.025C425.724 98.4 425.924 96.8 426.274 95.225C426.549 93.975 426.999 92.7 427.774 91.675C427.974 91.4 428.274 91.15 428.574 91.025C429.299 90.7 432.599 90.475 433.399 90.425C434.899 90.35 436.474 90.325 437.899 90.825C438.774 91.125 439.599 91.725 440.149 92.475C441.174 93.95 440.599 96 438.899 96.575C438.449 96.725 437.974 96.725 437.524 96.675C436.774 96.575 436.024 96.425 435.274 96.375C434.824 96.35 434.374 96.35 433.949 96.5C433.699 96.575 433.449 96.725 433.299 96.925C433.024 97.275 432.849 97.825 433.274 97.975C433.424 98.025 433.574 98.05 433.724 98.05C434.824 98.025 435.899 97.8 436.974 97.925C437.674 97.975 438.449 98.275 438.849 98.85C439.474 99.7 439.399 101.45 438.749 102.3C438.499 102.65 438.074 102.925 437.649 103.05C436.899 103.275 436.074 103.2 435.299 103.1C434.724 103.025 434.124 102.9 433.549 103C433.274 103.05 432.999 103.2 432.824 103.425C432.849 104.425 432.799 105.475 432.474 106.425C432.249 107.075 431.874 107.725 431.349 108.175ZM447.98 108.925C447.005 109.225 445.88 109.2 444.93 108.8C444.43 108.6 443.98 108.275 443.605 107.875C443.005 107.2 442.655 106.325 442.43 105.45C442.03 103.95 442.005 102.35 442.105 100.825C442.23 98.9 442.48 96.95 443.13 95.15C443.555 93.9 444.155 92.65 445.13 91.75C445.73 91.175 446.63 90.825 447.48 90.775C447.555 90.775 447.93 90.725 448.005 90.725C448.63 90.65 449.28 90.675 449.905 90.675C450.755 90.675 451.655 90.775 452.455 91.075C453.255 91.4 453.98 91.9 454.555 92.525C455.43 93.475 456.005 94.75 456.23 96C456.455 97.425 456.255 98.95 455.68 100.25C455.355 101.05 454.805 101.825 454.055 102.25C453.105 102.8 452.005 103.2 450.88 103.225C450.355 103.225 449.805 103.175 449.28 103C449.53 104.05 449.78 105.15 449.705 106.25C449.655 106.95 449.505 107.7 449.03 108.225C448.755 108.55 448.38 108.8 447.98 108.925ZM449.58 98.425C449.83 98.7 450.23 98.925 450.58 98.875C451.105 98.8 451.905 98.175 452.08 97.675C452.205 97.325 452.18 96.875 452.03 96.525C451.83 96.1 451.455 95.75 451.055 95.525C450.755 95.35 450.28 95.325 450.005 95.525C449.73 95.75 449.555 96.1 449.455 96.45C449.305 96.975 449.305 97.525 449.355 98.075C449.38 98.15 449.53 98.35 449.58 98.425ZM460.078 109.25C458.803 109.475 457.978 108.125 457.728 106.875C457.603 106.2 457.553 105.525 457.578 104.85C457.678 102.8 458.078 100.75 458.578 98.75C458.803 97.775 459.053 96.825 459.378 95.875C459.553 95.325 460.503 92.7 460.803 92.2C460.828 92.15 460.928 92.125 460.953 92.075C461.178 91.775 461.428 91.475 461.728 91.25C462.278 90.85 462.978 90.6 463.653 90.575C463.753 90.575 464.078 90.525 464.153 90.575C464.203 90.625 464.503 90.65 464.578 90.675C464.828 90.75 465.078 90.925 465.278 91.1C465.603 91.45 465.828 91.9 466.053 92.35C466.578 93.45 466.953 94.6 467.278 95.775C467.628 96.95 467.928 98.125 468.228 99.3C468.278 99.175 468.603 98.4 468.678 98.275C469.453 96.45 470.328 94.675 471.378 93C472.103 91.85 473.728 90.625 475.003 91.1C476.878 91.75 477.603 95.9 477.953 97.85C478.028 98.3 478.528 101.05 478.603 101.5C478.853 102.95 479.028 104.425 478.878 105.875C478.803 106.8 478.503 107.825 477.828 108.5C477.378 108.925 476.578 109.15 475.978 108.95C475.378 108.725 474.878 108.175 474.578 107.6C473.603 105.8 473.103 103.725 472.578 101.725C472.228 102.575 471.853 103.4 471.453 104.225C470.978 105.2 470.453 106.15 469.728 106.95C469.403 107.275 469.003 107.55 468.553 107.65C468.228 107.725 467.878 107.675 467.553 107.55C467.103 107.325 466.678 106.95 466.378 106.525C465.428 105.175 464.903 103.55 464.353 101.975C463.928 103.375 463.503 104.8 462.953 106.15C462.503 107.225 461.778 108.25 460.828 108.9C460.603 109.075 460.353 109.2 460.078 109.25ZM488.38 108.625C487.405 109.075 485.43 108.925 484.63 108.2C483.805 107.425 483.43 106.1 483.58 105C483.73 103.675 484.38 102.45 485.03 101.3C485.78 100.025 486.555 98.775 487.23 97.5C486.155 97.775 485.03 98.1 483.905 98.125C483.205 98.125 482.455 98 481.83 97.625C481.38 97.35 481.005 96.925 480.755 96.45C480.48 95.825 480.405 95.125 480.43 94.45C480.48 93.775 480.63 93.1 480.98 92.525C481.355 91.925 482.03 91.475 482.705 91.25C484.205 90.775 485.83 90.85 487.405 90.875C487.555 90.875 488.405 90.9 488.555 90.9C489.18 90.875 489.805 90.85 490.43 90.925C490.98 90.975 491.555 91.125 492.005 91.425C492.63 91.85 493.18 92.45 493.43 93.15C493.63 93.675 493.63 94.275 493.53 94.825C493.28 96.175 492.63 97.425 492.155 98.725C491.68 100.1 491.33 101.525 491.105 102.975C490.905 104.25 490.78 105.6 490.205 106.75C489.805 107.525 489.18 108.275 488.38 108.625ZM501.127 108.175C500.602 108.625 499.927 108.875 499.252 108.9C498.502 108.9 497.702 108.475 497.202 107.9C496.502 107.1 496.102 106.025 495.852 105C495.427 103.375 495.352 101.675 495.427 100.025C495.502 98.4 495.702 96.8 496.052 95.225C496.327 93.975 496.777 92.7 497.552 91.675C497.752 91.4 498.052 91.15 498.352 91.025C499.077 90.7 502.377 90.475 503.177 90.425C504.677 90.35 506.252 90.325 507.677 90.825C508.552 91.125 509.377 91.725 509.927 92.475C510.952 93.95 510.377 96 508.677 96.575C508.227 96.725 507.752 96.725 507.302 96.675C506.552 96.575 505.802 96.425 505.052 96.375C504.602 96.35 504.152 96.35 503.727 96.5C503.477 96.575 503.227 96.725 503.077 96.925C502.802 97.275 502.627 97.825 503.052 97.975C503.202 98.025 503.352 98.05 503.502 98.05C504.602 98.025 505.677 97.8 506.752 97.925C507.452 97.975 508.227 98.275 508.627 98.85C509.252 99.7 509.177 101.45 508.527 102.3C508.277 102.65 507.852 102.925 507.427 103.05C506.677 103.275 505.852 103.2 505.077 103.1C504.502 103.025 503.902 102.9 503.327 103C503.052 103.05 502.777 103.2 502.602 103.425C502.627 104.425 502.577 105.475 502.252 106.425C502.027 107.075 501.652 107.725 501.127 108.175ZM517.206 108.875C516.431 109.175 515.456 109.15 514.681 108.8C513.856 108.425 513.181 107.7 512.731 106.95C512.081 105.85 511.881 104.475 511.806 103.2C511.731 101.55 511.856 99.875 512.081 98.225C512.256 96.775 512.506 95.35 512.931 93.975C512.981 93.85 513.106 93.4 513.231 93.3C513.406 92.85 513.756 92.45 514.156 92.125C514.856 91.55 515.681 91.1 516.556 90.9C518.206 90.55 519.956 90.5 521.606 90.825C523.406 91.175 525.306 92.025 526.481 93.475C527.031 94.15 527.431 94.975 527.581 95.825C527.731 96.775 527.531 97.8 527.081 98.625C526.781 99.225 526.356 99.8 525.831 100.25C525.331 100.7 524.731 101.025 524.156 101.35C525.081 102.2 526.231 102.7 527.281 103.375C527.706 103.65 528.081 104.05 528.306 104.525C528.931 105.85 528.231 107.6 526.931 108.3C526.406 108.6 525.706 108.675 525.106 108.6C524.281 108.5 523.506 108.1 522.806 107.65C521.256 106.6 520.131 104.975 519.156 103.4C519.356 104.425 519.381 105.525 519.131 106.525C518.956 107.15 518.681 107.75 518.231 108.2C517.956 108.5 517.606 108.725 517.206 108.875ZM519.831 98.675C520.506 98.95 521.581 98.625 522.031 98.05C522.256 97.75 522.356 97.325 522.281 96.975C522.156 96.35 521.581 95.85 521.031 95.575C520.731 95.45 520.381 95.35 520.056 95.425C519.181 95.675 518.831 96.95 518.931 97.875C519.156 98.2 519.456 98.525 519.831 98.675ZM535.519 108.875C534.744 109.175 533.769 109.15 532.994 108.8C532.169 108.425 531.494 107.7 531.044 106.95C530.394 105.85 530.194 104.475 530.119 103.2C530.044 101.55 530.169 99.875 530.394 98.225C530.569 96.775 530.819 95.35 531.244 93.975C531.294 93.85 531.419 93.4 531.544 93.3C531.719 92.85 532.069 92.45 532.469 92.125C533.169 91.55 533.994 91.1 534.869 90.9C536.519 90.55 538.269 90.5 539.919 90.825C541.719 91.175 543.619 92.025 544.794 93.475C545.344 94.15 545.744 94.975 545.894 95.825C546.044 96.775 545.844 97.8 545.394 98.625C545.094 99.225 544.669 99.8 544.144 100.25C543.644 100.7 543.044 101.025 542.469 101.35C543.394 102.2 544.544 102.7 545.594 103.375C546.019 103.65 546.394 104.05 546.619 104.525C547.244 105.85 546.544 107.6 545.244 108.3C544.719 108.6 544.019 108.675 543.419 108.6C542.594 108.5 541.819 108.1 541.119 107.65C539.569 106.6 538.444 104.975 537.469 103.4C537.669 104.425 537.694 105.525 537.444 106.525C537.269 107.15 536.994 107.75 536.544 108.2C536.269 108.5 535.919 108.725 535.519 108.875ZM538.144 98.675C538.819 98.95 539.894 98.625 540.344 98.05C540.569 97.75 540.669 97.325 540.594 96.975C540.469 96.35 539.894 95.85 539.344 95.575C539.044 95.45 538.694 95.35 538.369 95.425C537.494 95.675 537.144 96.95 537.244 97.875C537.469 98.2 537.769 98.525 538.144 98.675ZM176.865 135.075C175.765 135.65 174.265 135.35 173.54 134.425C173.265 134.1 173.115 133.675 172.99 133.275C172.59 133.725 172.115 134.15 171.565 134.475C170.89 134.85 170.14 135.1 169.365 135.15C168.59 135.2 167.79 135.025 167.09 134.75C166.015 134.3 164.965 133.6 164.265 132.675C163.465 131.575 163.04 130.2 162.89 128.85C162.715 127.375 162.865 125.85 163.14 124.4C163.415 122.85 163.965 121.325 164.84 120.025C165.34 119.3 165.99 118.625 166.715 118.125C167.59 117.525 168.54 116.975 169.54 116.7C170.14 116.525 170.765 116.5 171.39 116.475C172.49 116.425 173.64 116.55 174.64 117.025C175.04 117.2 175.415 117.55 175.64 117.925C176.015 118.625 176.14 119.5 175.965 120.25C175.64 121.875 174.115 123.05 172.54 122.55C172.315 122.475 172.14 122.325 171.965 122.15C171.84 122.1 171.165 121.9 170.99 121.9C170.765 121.875 170.515 121.95 170.29 122.025C169.29 122.325 168.44 123.2 168.065 124.175C167.69 125.1 167.59 126.2 167.74 127.2C167.815 127.75 168.09 128.325 168.49 128.725C169.09 129.275 170.415 129.65 171.14 129.25C171.465 129.075 171.715 128.725 171.84 128.35C171.865 128.275 171.915 128.175 171.84 128.15C171.715 128.1 171.165 128.025 171.04 128C170.615 127.95 170.14 127.875 169.765 127.65C169.49 127.5 169.24 127.2 169.115 126.9C168.94 126.5 168.915 126.05 169.015 125.65C169.115 125.2 169.365 124.8 169.69 124.475C170.34 123.85 171.315 123.525 172.215 123.5C173.29 123.475 174.315 123.875 175.365 123.975C176.04 124.05 176.815 124.1 177.365 124.5C177.965 124.95 178.29 125.8 178.34 126.55C178.39 127.35 178.09 128.125 177.865 128.875C177.64 129.65 177.49 130.45 177.465 131.25C177.465 131.9 177.59 132.525 177.665 133.15C177.69 133.55 177.715 133.95 177.565 134.325C177.415 134.65 177.19 134.9 176.865 135.075ZM188.13 133.2C187.58 134.275 186.505 134.925 185.33 134.925C184.505 134.9 183.655 134.45 183.105 133.825C182.58 133.2 182.255 132.425 182.03 131.675C181.755 130.65 181.63 129.575 181.655 128.5C181.705 126.725 181.955 124.95 182.255 123.2C181.68 123.2 181.08 123.15 180.555 122.95C179.955 122.725 179.43 122.35 179.005 121.9C178.055 120.9 178.205 119 179.055 117.925C179.43 117.45 179.955 117.1 180.505 116.9C180.855 116.8 181.205 116.75 181.555 116.75C182.455 116.7 183.355 116.775 184.255 116.775C184.455 116.775 184.655 116.75 184.855 116.75C184.88 116.75 184.98 116.8 185.005 116.8C186.055 116.75 187.105 116.675 188.155 116.675C188.83 116.7 189.505 116.8 190.08 117.1C191.305 117.775 191.93 119.2 191.655 120.525C191.48 121.325 190.855 122.025 190.18 122.425C189.655 122.725 189.005 122.875 188.38 122.875C188.58 125.325 188.98 127.75 188.88 130.2C188.83 131.225 188.605 132.275 188.13 133.2ZM205.297 134.85C204.322 135.125 203.247 135 202.197 134.95C200.572 134.875 198.922 135.025 197.297 134.975C196.472 134.925 195.597 134.825 194.922 134.35C194.422 134.025 194.047 133.425 193.947 132.825C193.697 131.575 193.947 130.325 194.647 129.275C195.122 128.575 195.772 128 196.472 127.525C197.547 126.775 198.747 126.25 199.872 125.625C200.322 125.375 201.472 124.775 201.597 124.275C201.697 123.85 201.322 123.45 200.897 123.35C200.522 123.275 200.122 123.325 199.747 123.4C198.647 123.6 197.547 123.95 196.422 124C195.897 124.05 195.372 123.95 194.897 123.775C194.272 123.5 193.697 123 193.397 122.375C193.072 121.75 192.997 120.975 193.047 120.25C193.047 120.2 193.072 120.25 193.072 120.225C193.097 119.2 193.572 118.225 194.397 117.575C195.122 117.025 196.047 116.725 196.947 116.625C197.422 116.575 197.897 116.625 198.347 116.55C199.147 116.45 199.947 116.4 200.747 116.45C200.897 116.475 201.747 116.575 201.897 116.6C202.997 116.7 204.122 116.95 205.072 117.5C205.847 117.95 206.447 118.75 206.722 119.6C207.097 120.775 207.097 122.1 206.772 123.275C206.447 124.55 205.697 125.725 204.747 126.6C204.497 126.825 203.347 127.775 203.172 128.075C203.147 128.1 203.072 128.225 203.097 128.25C203.097 128.3 203.172 128.3 203.197 128.3C203.547 128.35 203.872 128.275 204.222 128.225C204.722 128.125 205.272 128.05 205.772 128.15C206.322 128.25 206.872 128.575 207.222 129.025C207.572 129.5 207.722 130.15 207.772 130.75C207.847 131.65 207.722 132.625 207.272 133.4C206.847 134.1 206.097 134.625 205.297 134.85ZM215.268 134.875C214.493 135.175 213.518 135.15 212.743 134.8C211.918 134.425 211.243 133.7 210.793 132.95C210.143 131.85 209.943 130.475 209.868 129.2C209.793 127.55 209.918 125.875 210.143 124.225C210.318 122.775 210.568 121.35 210.993 119.975C211.043 119.85 211.168 119.4 211.293 119.3C211.468 118.85 211.818 118.45 212.218 118.125C212.918 117.55 213.743 117.1 214.618 116.9C216.268 116.55 218.018 116.5 219.668 116.825C221.468 117.175 223.368 118.025 224.543 119.475C225.093 120.15 225.493 120.975 225.643 121.825C225.793 122.775 225.593 123.8 225.143 124.625C224.843 125.225 224.418 125.8 223.893 126.25C223.393 126.7 222.793 127.025 222.218 127.35C223.143 128.2 224.293 128.7 225.343 129.375C225.768 129.65 226.143 130.05 226.368 130.525C226.993 131.85 226.293 133.6 224.993 134.3C224.468 134.6 223.768 134.675 223.168 134.6C222.343 134.5 221.568 134.1 220.868 133.65C219.318 132.6 218.193 130.975 217.218 129.4C217.418 130.425 217.443 131.525 217.193 132.525C217.018 133.15 216.743 133.75 216.293 134.2C216.018 134.5 215.668 134.725 215.268 134.875ZM217.893 124.675C218.568 124.95 219.643 124.625 220.093 124.05C220.318 123.75 220.418 123.325 220.343 122.975C220.218 122.35 219.643 121.85 219.093 121.575C218.793 121.45 218.443 121.35 218.118 121.425C217.243 121.675 216.893 122.95 216.993 123.875C217.218 124.2 217.518 124.525 217.893 124.675ZM242.026 135.075C240.926 135.65 239.426 135.35 238.701 134.425C238.426 134.1 238.276 133.675 238.151 133.275C237.751 133.725 237.276 134.15 236.726 134.475C236.051 134.85 235.301 135.1 234.526 135.15C233.751 135.2 232.951 135.025 232.251 134.75C231.176 134.3 230.126 133.6 229.426 132.675C228.626 131.575 228.201 130.2 228.051 128.85C227.876 127.375 228.026 125.85 228.301 124.4C228.576 122.85 229.126 121.325 230.001 120.025C230.501 119.3 231.151 118.625 231.876 118.125C232.751 117.525 233.701 116.975 234.701 116.7C235.301 116.525 235.926 116.5 236.551 116.475C237.651 116.425 238.801 116.55 239.801 117.025C240.201 117.2 240.576 117.55 240.801 117.925C241.176 118.625 241.301 119.5 241.126 120.25C240.801 121.875 239.276 123.05 237.701 122.55C237.476 122.475 237.301 122.325 237.126 122.15C237.001 122.1 236.326 121.9 236.151 121.9C235.926 121.875 235.676 121.95 235.451 122.025C234.451 122.325 233.601 123.2 233.226 124.175C232.851 125.1 232.751 126.2 232.901 127.2C232.976 127.75 233.251 128.325 233.651 128.725C234.251 129.275 235.576 129.65 236.301 129.25C236.626 129.075 236.876 128.725 237.001 128.35C237.026 128.275 237.076 128.175 237.001 128.15C236.876 128.1 236.326 128.025 236.201 128C235.776 127.95 235.301 127.875 234.926 127.65C234.651 127.5 234.401 127.2 234.276 126.9C234.101 126.5 234.076 126.05 234.176 125.65C234.276 125.2 234.526 124.8 234.851 124.475C235.501 123.85 236.476 123.525 237.376 123.5C238.451 123.475 239.476 123.875 240.526 123.975C241.201 124.05 241.976 124.1 242.526 124.5C243.126 124.95 243.451 125.8 243.501 126.55C243.551 127.35 243.251 128.125 243.026 128.875C242.801 129.65 242.651 130.45 242.626 131.25C242.626 131.9 242.751 132.525 242.826 133.15C242.851 133.55 242.876 133.95 242.726 134.325C242.576 134.65 242.351 134.9 242.026 135.075ZM258.096 133.5C257.071 134.625 255.371 135.175 253.846 135.125C251.796 135.1 249.621 134.425 247.971 133.175C246.871 132.375 245.996 131.175 245.471 129.9C245.021 128.875 244.871 127.7 244.796 126.575C244.721 124.8 245.146 122.975 245.921 121.4C246.896 119.45 248.671 117.675 250.746 117C252.121 116.525 253.646 116.45 255.096 116.65C255.971 116.775 256.871 117.075 257.596 117.575C257.996 117.85 258.321 118.2 258.571 118.6C259.121 119.4 259.421 120.4 259.471 121.35C259.496 122.15 259.296 123 258.846 123.675C258.521 124.175 258.071 124.65 257.546 124.925C256.821 125.275 255.896 125.35 255.171 125.075C254.396 124.775 253.696 124.05 253.496 123.25C253.296 123.05 253.071 122.85 252.796 122.775C252.421 122.675 252.071 122.775 251.821 123.075C251.071 124.025 250.796 125.4 251.146 126.55C251.246 126.9 251.471 127.225 251.796 127.425C252.121 127.65 252.571 127.725 252.996 127.7C254.096 127.65 255.221 127.325 256.321 127.475C257.121 127.575 257.971 128.025 258.446 128.675C258.821 129.225 258.896 129.95 258.971 130.6C259.071 131.6 258.771 132.75 258.096 133.5ZM270.559 134.525C269.534 135.3 267.559 135.35 266.534 134.575C265.734 133.925 265.384 132.675 265.459 131.65C265.534 130.425 266.059 129.25 266.159 128.025C264.884 127.15 263.634 126.2 262.584 125.075C262.059 124.5 261.609 123.875 261.284 123.175C260.784 122.15 260.534 120.95 260.634 119.8C260.684 119.15 260.859 118.475 261.234 117.95C261.634 117.4 262.309 117.075 262.959 116.925C263.609 116.775 264.359 116.9 264.959 117.225C265.509 117.5 265.959 117.95 266.309 118.45C267.409 119.95 267.534 122.025 268.584 123.55C268.609 123.575 268.734 123.6 268.759 123.625C269.009 123.675 269.309 123.55 269.484 123.35C269.684 123.15 269.859 122.875 270.009 122.6C270.759 121.2 270.884 119.525 271.734 118.175C271.934 117.85 272.209 117.55 272.534 117.35C272.809 117.175 273.134 117.1 273.459 117.025C273.734 116.95 274.009 116.875 274.309 116.85C275.984 116.575 277.259 118.075 277.459 119.775C277.559 120.45 277.534 121.175 277.334 121.825C277.184 122.35 276.909 122.85 276.709 123.35C276.184 124.625 275.334 125.775 274.284 126.675C273.409 127.4 272.384 128 271.309 128.275C271.684 129.7 271.959 131.275 271.609 132.725C271.434 133.375 271.109 134.1 270.559 134.525ZM287.486 134.45C285.361 135.125 282.886 135.15 280.811 134.35C280.411 134.2 280.061 133.925 279.811 133.6C278.836 132.325 278.711 130.15 279.836 129.025C280.286 128.55 280.961 128.325 281.611 128.25C282.211 128.175 282.836 128.25 283.461 128.35C284.011 128.45 284.561 128.575 285.111 128.475C285.586 128.4 286.036 127.975 285.761 127.6C285.436 127.175 284.061 127.175 283.536 127.1C282.861 127.05 282.211 126.925 281.586 126.7C281.036 126.5 280.536 126.1 280.236 125.575C279.586 124.35 279.386 122.85 279.511 121.45C279.586 120.575 279.786 119.65 280.286 118.925C280.461 118.675 280.536 118.35 280.736 118.1C280.986 117.775 281.386 117.55 281.761 117.35C283.186 116.675 284.886 116.625 286.461 116.6C287.411 116.575 288.411 116.65 289.311 116.95C290.111 117.225 290.911 117.675 291.436 118.35C291.911 118.975 292.111 119.85 292.036 120.625C291.986 121.175 291.811 121.775 291.411 122.175C290.936 122.6 290.211 122.675 289.586 122.725C288.436 122.8 287.286 122.475 286.136 122.3C285.511 122.2 284.786 122.225 284.236 122.575C283.986 122.75 283.636 123.175 283.686 123.475C283.711 123.725 284.136 123.9 284.361 123.975C284.711 124.075 285.086 124.075 285.461 124.1C286.261 124.15 287.061 124.1 287.861 124.2C288.661 124.3 289.461 124.55 290.136 124.975C291.086 125.6 291.761 126.675 292.061 127.75C292.386 128.85 292.286 130.075 291.961 131.175C291.861 131.5 291.711 131.8 291.511 132.075C291.186 132.525 290.736 132.875 290.261 133.175C289.411 133.75 288.461 134.125 287.486 134.45ZM303.438 133.2C302.888 134.275 301.813 134.925 300.638 134.925C299.813 134.9 298.963 134.45 298.413 133.825C297.888 133.2 297.563 132.425 297.338 131.675C297.063 130.65 296.938 129.575 296.963 128.5C297.013 126.725 297.263 124.95 297.563 123.2C296.988 123.2 296.388 123.15 295.863 122.95C295.263 122.725 294.738 122.35 294.313 121.9C293.363 120.9 293.513 119 294.363 117.925C294.738 117.45 295.263 117.1 295.813 116.9C296.163 116.8 296.513 116.75 296.863 116.75C297.763 116.7 298.663 116.775 299.563 116.775C299.763 116.775 299.963 116.75 300.163 116.75C300.188 116.75 300.288 116.8 300.313 116.8C301.363 116.75 302.413 116.675 303.463 116.675C304.138 116.7 304.813 116.8 305.388 117.1C306.613 117.775 307.238 119.2 306.963 120.525C306.788 121.325 306.163 122.025 305.488 122.425C304.963 122.725 304.313 122.875 303.688 122.875C303.888 125.325 304.288 127.75 304.188 130.2C304.138 131.225 303.913 132.275 303.438 133.2ZM313.98 135.2C313.13 135.275 312.23 135.25 311.405 135C310.705 134.75 310.03 134.325 309.58 133.75C309.23 133.325 309.005 132.8 308.905 132.275C308.63 130.975 309.18 129.4 310.105 128.45C311.13 127.375 312.53 126.775 313.88 126.2C314.73 125.85 315.555 125.425 316.355 124.975C316.605 124.825 317.33 124.425 317.43 124.175C317.48 124 317.505 123.75 317.33 123.65C317.005 123.45 316.18 123.725 315.83 123.85C315.33 124.075 314.855 124.35 314.355 124.6C313.53 124.975 312.655 125.25 311.755 125.275C310.105 125.3 308.68 124.275 308.255 122.7C307.905 121.475 308.105 120 308.73 118.9C309.13 118.225 309.83 117.75 310.555 117.45C311.905 116.9 313.455 116.8 314.905 116.85C315.03 116.85 315.63 116.775 315.73 116.75C316.905 116.675 318.105 116.6 319.305 116.6C320.205 116.6 321.13 116.625 322.005 116.825C322.905 117.05 323.755 117.675 324.305 118.425C325.18 119.625 325.28 121.325 324.53 122.625C324.005 123.55 323.155 124.3 322.305 124.95C321.23 125.775 319.955 126.325 318.905 127.175C318.53 127.5 318.13 127.825 317.855 128.225C317.705 128.45 317.555 128.775 317.805 128.825C317.955 128.875 318.13 128.85 318.305 128.825C318.73 128.75 319.155 128.625 319.58 128.475C320.605 128.1 321.555 127.425 322.655 127.35C323.33 127.3 324.105 127.55 324.58 128.05C325.205 128.75 325.305 129.9 325.23 130.85C325.08 132.475 324.005 133.975 322.53 134.6C321.83 134.925 321.055 134.975 320.28 134.975C319.13 134.95 317.98 134.85 316.805 134.9C315.855 134.95 314.93 135.1 313.98 135.2ZM335.578 135.275C334.153 135.35 332.703 135.225 331.328 134.9C330.428 134.7 329.553 134.425 328.778 133.975C328.428 133.8 328.128 133.55 327.878 133.25C326.903 132.125 327.128 129.45 327.803 128.125C328.278 127.2 329.078 126.4 329.978 125.875C329.278 125.2 328.603 124.4 328.278 123.45C327.978 122.55 327.853 121.55 328.028 120.6C328.228 119.4 329.003 118.25 330.053 117.6C330.703 117.175 331.503 116.95 332.278 116.85C333.353 116.7 334.453 116.65 335.553 116.75C336.903 116.875 338.328 117.275 339.378 118.15C341.178 119.675 341.303 122.65 339.928 124.575C339.578 125.075 339.128 125.525 338.603 125.85C339.628 126.525 340.578 127.45 341.078 128.575C341.778 130.075 341.453 131.925 340.328 133.175C339.153 134.45 337.303 135.175 335.578 135.275ZM333.928 122.575C334.853 122.975 335.903 122.15 335.428 121.275C334.978 120.525 333.728 120.6 333.403 121.375C333.203 121.85 333.478 122.35 333.928 122.575ZM333.453 130.45C334.353 130.925 335.728 130.725 336.303 129.9C336.703 129.325 336.403 128.6 335.778 128.25C335.028 127.825 334.003 127.9 333.253 128.375C332.903 128.625 332.603 129.125 332.678 129.55C332.753 129.925 333.078 130.275 333.453 130.45ZM345.809 135.25C344.534 135.475 343.709 134.125 343.459 132.875C343.334 132.2 343.284 131.525 343.309 130.85C343.409 128.8 343.809 126.75 344.309 124.75C344.534 123.775 344.784 122.825 345.109 121.875C345.284 121.325 346.234 118.7 346.534 118.2C346.559 118.15 346.659 118.125 346.684 118.075C346.909 117.775 347.159 117.475 347.459 117.25C348.009 116.85 348.709 116.6 349.384 116.575C349.484 116.575 349.809 116.525 349.884 116.575C349.934 116.625 350.234 116.65 350.309 116.675C350.559 116.75 350.809 116.925 351.009 117.1C351.334 117.45 351.559 117.9 351.784 118.35C352.309 119.45 352.684 120.6 353.009 121.775C353.359 122.95 353.659 124.125 353.959 125.3C354.009 125.175 354.334 124.4 354.409 124.275C355.184 122.45 356.059 120.675 357.109 119C357.834 117.85 359.459 116.625 360.734 117.1C362.609 117.75 363.334 121.9 363.684 123.85C363.759 124.3 364.259 127.05 364.334 127.5C364.584 128.95 364.759 130.425 364.609 131.875C364.534 132.8 364.234 133.825 363.559 134.5C363.109 134.925 362.309 135.15 361.709 134.95C361.109 134.725 360.609 134.175 360.309 133.6C359.334 131.8 358.834 129.725 358.309 127.725C357.959 128.575 357.584 129.4 357.184 130.225C356.709 131.2 356.184 132.15 355.459 132.95C355.134 133.275 354.734 133.55 354.284 133.65C353.959 133.725 353.609 133.675 353.284 133.55C352.834 133.325 352.409 132.95 352.109 132.525C351.159 131.175 350.634 129.55 350.084 127.975C349.659 129.375 349.234 130.8 348.684 132.15C348.234 133.225 347.509 134.25 346.559 134.9C346.334 135.075 346.084 135.2 345.809 135.25ZM376.283 135C374.808 135.25 373.233 135.25 371.733 135C370.933 134.875 370.133 134.6 369.458 134.125C369.033 133.8 368.658 133.4 368.333 132.975C367.608 131.95 367.108 130.75 366.858 129.525C366.483 127.75 366.483 125.875 366.608 124.075C366.708 122.325 366.933 120.55 367.333 118.85C367.333 118.825 367.333 118.775 367.333 118.75C367.383 118.3 367.533 117.85 367.808 117.475C368.033 117.125 368.408 116.85 368.783 116.725C369.533 116.425 370.358 116.4 371.158 116.4C372.658 116.4 374.158 116.5 375.658 116.7C376.758 116.85 377.883 117.1 378.908 117.55C380.408 118.225 381.883 119.275 382.758 120.675C383.158 121.275 383.408 121.975 383.583 122.675C383.958 124.1 383.983 125.65 383.783 127.1C383.533 128.825 382.708 130.475 381.633 131.875C380.933 132.775 380.033 133.575 379.033 134.1C378.183 134.55 377.233 134.825 376.283 135ZM375.008 128.95C375.658 129 376.383 128.825 376.933 128.45C377.383 128.15 377.708 127.625 377.858 127.075C378.133 125.975 377.933 124.65 377.308 123.675C376.933 123.1 376.283 122.725 375.658 122.45C375.033 122.2 374.358 122.05 373.683 122.15C373.508 123.425 373.433 124.75 373.458 126.025C373.458 126.825 373.558 127.625 373.733 128.4C374.083 128.7 374.533 128.9 375.008 128.95ZM398.9 134.75C398.4 134.975 397.8 135 397.275 134.9C396.625 134.775 396 134.4 395.475 134C394.675 133.375 394.025 132.575 393.4 131.775C392.5 130.625 391.775 129.325 391.125 128.025C391.075 129.6 391.05 131.2 390.7 132.75C390.55 133.375 390.3 134.05 389.85 134.5C389.6 134.725 389.3 134.875 388.975 134.925C387.425 135.2 386.275 133.6 385.95 132.05C385.7 130.825 385.775 129.55 385.725 128.275C385.7 127.375 385.775 122.35 385.825 121.45C385.875 120.55 386 119.65 386.35 118.85C386.65 118.15 387.125 117.475 387.8 117.1C388.425 116.775 389.3 116.75 389.95 117.05C390.725 117.375 391.375 117.95 391.875 118.625C392.8 119.8 393.525 121.125 394.225 122.45C394.725 123.425 395.225 124.375 395.7 125.35C395.65 123.875 395.7 122.4 395.875 120.95C395.95 120.2 396.15 119.475 396.45 118.8C396.7 118.25 397.075 117.7 397.55 117.35C398.05 116.95 398.8 116.75 399.425 116.925C399.825 117.05 400.175 117.325 400.45 117.65C401.2 118.6 401.55 119.85 401.7 121.05C402.05 123.575 401.95 126.175 401.675 128.725C401.55 130 401.4 131.325 400.925 132.5C400.525 133.425 399.825 134.325 398.9 134.75Z" fill="#D9E3EA"/>
</svg>
