<svg width="565" height="159" viewBox="0 0 565 159" fill="none" xmlns="http://www.w3.org/2000/svg">
<rect x="2" y="2" width="561" height="155" fill="#E11CD9" stroke="black" stroke-width="4"/>
<path d="M160.267 59.264C159.431 60.898 157.797 61.886 156.011 61.886C154.757 61.848 153.465 61.164 152.629 60.214C151.831 59.264 151.337 58.086 150.995 56.946C150.577 55.388 150.387 53.754 150.425 52.12C150.501 49.422 150.881 46.724 151.337 44.064C150.463 44.064 149.551 43.988 148.753 43.684C147.841 43.342 147.043 42.772 146.397 42.088C144.953 40.568 145.181 37.68 146.473 36.046C147.043 35.324 147.841 34.792 148.677 34.488C149.209 34.336 149.741 34.26 150.273 34.26C151.641 34.184 153.009 34.298 154.377 34.298C154.681 34.298 154.985 34.26 155.289 34.26C155.327 34.26 155.479 34.336 155.517 34.336C157.113 34.26 158.709 34.146 160.305 34.146C161.331 34.184 162.357 34.336 163.231 34.792C165.093 35.818 166.043 37.984 165.625 39.998C165.359 41.214 164.409 42.278 163.383 42.886C162.585 43.342 161.597 43.57 160.647 43.57C160.951 47.294 161.559 50.98 161.407 54.704C161.331 56.262 160.989 57.858 160.267 59.264ZM180.406 62.342C178.392 62.532 176.302 62.228 174.402 61.582C172.16 60.822 170.146 59.074 168.854 57.098C168.322 56.262 167.79 55.388 167.486 54.438C166.688 52.082 166.688 49.498 166.954 47.066C167.258 44.33 168.474 41.632 170.108 39.352C171.248 37.794 172.73 36.35 174.44 35.362C175.998 34.412 177.898 33.918 179.722 33.918C181.508 33.956 183.294 34.26 184.966 34.792C186.638 35.362 188.082 36.73 189.108 38.174C189.906 39.276 190.438 40.644 190.742 42.012C191.198 43.95 191.312 45.926 191.274 47.902C191.198 50.904 190.4 54.02 188.842 56.566C187.93 58.162 186.638 59.644 185.08 60.632C183.712 61.544 182.078 62.152 180.406 62.342ZM178.696 53.07C179.95 53.754 181.318 52.766 182.002 51.55C182.99 49.878 183.294 47.75 182.99 45.85C182.838 44.938 182.534 44.026 181.964 43.266C181.66 42.848 181.166 42.43 180.634 42.316C180.102 42.164 179.494 42.316 179.038 42.658C176.872 44.102 176.264 48.244 177.062 50.714C177.366 51.626 177.86 52.614 178.696 53.07ZM207.767 59.264C206.931 60.898 205.297 61.886 203.511 61.886C202.257 61.848 200.965 61.164 200.129 60.214C199.331 59.264 198.837 58.086 198.495 56.946C198.077 55.388 197.887 53.754 197.925 52.12C198.001 49.422 198.381 46.724 198.837 44.064C197.963 44.064 197.051 43.988 196.253 43.684C195.341 43.342 194.543 42.772 193.897 42.088C192.453 40.568 192.681 37.68 193.973 36.046C194.543 35.324 195.341 34.792 196.177 34.488C196.709 34.336 197.241 34.26 197.773 34.26C199.141 34.184 200.509 34.298 201.877 34.298C202.181 34.298 202.485 34.26 202.789 34.26C202.827 34.26 202.979 34.336 203.017 34.336C204.613 34.26 206.209 34.146 207.805 34.146C208.831 34.184 209.857 34.336 210.731 34.792C212.593 35.818 213.543 37.984 213.125 39.998C212.859 41.214 211.909 42.278 210.883 42.886C210.085 43.342 209.097 43.57 208.147 43.57C208.451 47.294 209.059 50.98 208.907 54.704C208.831 56.262 208.489 57.858 207.767 59.264ZM218.855 61.43C218.209 61.848 217.449 62.038 216.727 62.038C215.929 62.076 215.093 61.848 214.485 61.354C213.535 60.594 212.965 59.34 212.813 58.162C212.509 55.806 213.041 53.374 213.611 51.094C214.751 46.762 216.689 42.544 219.311 38.934C220.185 37.718 221.287 36.578 222.465 35.59C222.997 35.172 223.643 34.754 224.327 34.602C225.353 34.374 226.417 34.336 227.443 34.526C229.039 34.792 230.559 35.628 231.737 36.692C233.485 38.364 234.739 40.53 235.841 42.696C236.905 44.824 237.665 47.142 238.235 49.498C238.729 51.778 239.033 54.172 238.767 56.49C238.539 58.238 237.437 60.1 235.917 61.05C234.511 61.886 232.687 62.19 231.129 61.81C230.521 61.658 229.913 61.354 229.457 60.936C228.811 60.366 228.355 59.568 228.013 58.77C227.367 57.326 227.025 55.768 226.911 54.21C225.505 54.324 224.099 54.4 222.693 54.362C222.199 55.882 221.743 57.44 220.983 58.846C220.489 59.834 219.805 60.822 218.855 61.43ZM225.087 43.19C223.947 44.596 223.377 46.382 223.073 48.168C223.605 48.13 226.531 47.826 227.025 47.75C226.911 46.838 226.873 45.888 226.759 44.976C226.683 44.216 226.493 43.456 226.151 42.81C226.075 42.658 225.809 42.658 225.657 42.696C225.429 42.772 225.239 43 225.087 43.19ZM255.841 61.924C254.549 61.962 253.219 62.076 251.927 61.962C250.939 61.848 249.951 61.886 249.001 61.734C247.899 61.544 246.797 61.126 245.885 60.518C244.517 59.606 243.453 58.238 242.845 56.718C241.819 54.324 241.515 51.626 241.439 49.004C241.363 46.8 241.439 44.596 241.705 42.392C241.857 40.872 242.275 39.276 243.073 37.946C243.757 36.768 244.859 35.704 246.113 35.172C246.987 34.754 248.051 34.602 249.001 34.792C249.875 34.944 250.749 35.438 251.357 36.084C252.269 36.996 252.877 38.288 253.105 39.58C253.371 41.024 253.181 42.582 252.915 44.026C252.497 46.04 251.889 48.016 251.623 50.068C251.509 50.714 251.433 52.272 251.813 52.766C252.155 53.146 253.029 52.994 253.523 52.842C254.967 52.386 256.449 51.74 257.931 51.778C259.033 51.816 259.983 52.234 260.705 53.032C262.643 55.274 262.567 58.694 260.173 60.442C258.919 61.316 257.361 61.886 255.841 61.924ZM283.496 62.304C281.824 62.456 280.114 62.456 278.442 62.076C277.492 61.886 276.618 61.392 275.82 60.784C274.718 59.986 273.73 58.846 273.35 57.516C272.704 55.35 273.388 52.576 275.478 51.816C276.656 51.36 278.024 51.588 279.202 51.968C279.506 52.082 281.292 52.842 281.596 52.918C282.09 53.032 282.622 53.108 283.078 52.918C283.344 52.804 283.42 52.5 283.23 52.272C283.002 52.082 281.9 51.664 281.596 51.55C279.924 50.942 278.138 50.448 276.58 49.498C275.592 48.89 274.794 47.826 274.376 46.686C273.882 45.318 273.73 43.76 273.958 42.316C274.186 41.062 274.794 39.808 275.592 38.782C276.086 38.212 276.542 37.566 277.112 37.034C278.252 36.008 279.62 35.21 281.102 34.792C283.04 34.222 285.13 34.222 287.106 34.526C288.208 34.678 289.31 35.02 290.26 35.628C290.906 36.084 291.514 36.654 291.97 37.3C293.186 38.934 293.984 41.632 292.502 43.038C291.628 43.874 290.45 44.444 289.234 44.52C287.524 44.634 285.814 44.026 284.142 44.33C283.8 44.406 283.154 44.558 283.078 44.862C283.002 45.09 283.306 45.432 283.496 45.584C283.952 45.926 286.346 47.104 286.84 47.37C288.588 48.244 290.374 49.27 291.59 50.79C292.35 51.778 292.844 53.07 292.92 54.324C292.996 55.426 292.73 56.528 292.274 57.554C291.59 59.036 290.298 60.328 288.854 61.05C287.182 61.848 285.32 62.19 283.496 62.304ZM313.429 62.19C312.137 62.38 310.845 62.456 309.553 62.342C309.477 62.342 309.173 62.304 309.135 62.304C307.273 62.38 305.373 62.114 303.663 61.392C301.953 60.67 300.471 59.378 299.369 57.896C298.077 56.072 297.013 54.02 296.595 51.854C295.873 48.472 295.797 44.938 296.177 41.48C296.405 39.732 296.785 37.87 297.849 36.464C298.799 35.172 300.243 34.374 301.801 34.26C303.169 34.146 304.613 34.982 305.525 35.97C306.057 36.502 306.399 37.262 306.627 37.984C307.083 39.542 307.007 41.214 306.893 42.848C306.741 45.242 306.399 47.674 306.513 50.068C306.589 51.702 307.159 53.336 308.033 54.742C308.413 55.35 309.211 55.958 309.971 55.882C310.009 55.882 310.085 55.882 310.161 55.882C310.465 55.958 310.959 55.502 311.187 55.274C311.567 54.856 311.833 54.362 312.061 53.868C312.859 52.348 313.125 50.524 313.087 48.776C313.049 46.496 312.707 44.216 312.631 41.898C312.555 40.264 312.631 38.478 313.391 36.996C314.113 35.59 315.709 34.45 317.267 34.336C318.521 34.222 319.851 34.754 320.839 35.59C321.523 36.16 322.055 36.92 322.435 37.718C323.005 39.048 323.271 40.53 323.461 41.974C323.765 44.862 323.689 47.826 323.233 50.714C322.739 53.906 321.219 57.136 318.901 59.454C317.457 60.898 315.443 61.886 313.429 62.19ZM335.422 61.886C333.94 62.342 332.23 62.304 330.786 61.696C330.026 61.392 329.342 60.898 328.772 60.29C327.86 59.264 327.328 57.934 326.986 56.604C326.378 54.324 326.34 51.892 326.492 49.574C326.682 46.648 327.062 43.684 328.05 40.948C328.696 39.048 329.608 37.148 331.09 35.78C332.002 34.906 333.37 34.374 334.662 34.298C334.776 34.298 335.346 34.222 335.46 34.222C336.41 34.108 337.398 34.146 338.348 34.146C339.64 34.146 341.008 34.298 342.224 34.754C343.44 35.248 344.542 36.008 345.416 36.958C346.746 38.402 347.62 40.34 347.962 42.24C348.304 44.406 348 46.724 347.126 48.7C346.632 49.916 345.796 51.094 344.656 51.74C343.212 52.576 341.54 53.184 339.83 53.222C339.032 53.222 338.196 53.146 337.398 52.88C337.778 54.476 338.158 56.148 338.044 57.82C337.968 58.884 337.74 60.024 337.018 60.822C336.6 61.316 336.03 61.696 335.422 61.886ZM337.854 45.926C338.234 46.344 338.842 46.686 339.374 46.61C340.172 46.496 341.388 45.546 341.654 44.786C341.844 44.254 341.806 43.57 341.578 43.038C341.274 42.392 340.704 41.86 340.096 41.518C339.64 41.252 338.918 41.214 338.5 41.518C338.082 41.86 337.816 42.392 337.664 42.924C337.436 43.722 337.436 44.558 337.512 45.394C337.55 45.508 337.778 45.812 337.854 45.926ZM359.32 61.886C357.838 62.342 356.128 62.304 354.684 61.696C353.924 61.392 353.24 60.898 352.67 60.29C351.758 59.264 351.226 57.934 350.884 56.604C350.276 54.324 350.238 51.892 350.39 49.574C350.58 46.648 350.96 43.684 351.948 40.948C352.594 39.048 353.506 37.148 354.988 35.78C355.9 34.906 357.268 34.374 358.56 34.298C358.674 34.298 359.244 34.222 359.358 34.222C360.308 34.108 361.296 34.146 362.246 34.146C363.538 34.146 364.906 34.298 366.122 34.754C367.338 35.248 368.44 36.008 369.314 36.958C370.644 38.402 371.518 40.34 371.86 42.24C372.202 44.406 371.898 46.724 371.024 48.7C370.53 49.916 369.694 51.094 368.554 51.74C367.11 52.576 365.438 53.184 363.728 53.222C362.93 53.222 362.094 53.146 361.296 52.88C361.676 54.476 362.056 56.148 361.942 57.82C361.866 58.884 361.638 60.024 360.916 60.822C360.498 61.316 359.928 61.696 359.32 61.886ZM361.752 45.926C362.132 46.344 362.74 46.686 363.272 46.61C364.07 46.496 365.286 45.546 365.552 44.786C365.742 44.254 365.704 43.57 365.476 43.038C365.172 42.392 364.602 41.86 363.994 41.518C363.538 41.252 362.816 41.214 362.398 41.518C361.98 41.86 361.714 42.392 361.562 42.924C361.334 43.722 361.334 44.558 361.41 45.394C361.448 45.508 361.676 45.812 361.752 45.926ZM388.767 61.924C387.475 61.962 386.145 62.076 384.853 61.962C383.865 61.848 382.877 61.886 381.927 61.734C380.825 61.544 379.723 61.126 378.811 60.518C377.443 59.606 376.379 58.238 375.771 56.718C374.745 54.324 374.441 51.626 374.365 49.004C374.289 46.8 374.365 44.596 374.631 42.392C374.783 40.872 375.201 39.276 375.999 37.946C376.683 36.768 377.785 35.704 379.039 35.172C379.913 34.754 380.977 34.602 381.927 34.792C382.801 34.944 383.675 35.438 384.283 36.084C385.195 36.996 385.803 38.288 386.031 39.58C386.297 41.024 386.107 42.582 385.841 44.026C385.423 46.04 384.815 48.016 384.549 50.068C384.435 50.714 384.359 52.272 384.739 52.766C385.081 53.146 385.955 52.994 386.449 52.842C387.893 52.386 389.375 51.74 390.857 51.778C391.959 51.816 392.909 52.234 393.631 53.032C395.569 55.274 395.493 58.694 393.099 60.442C391.845 61.316 390.287 61.886 388.767 61.924ZM407.835 61.278C406.277 62.456 403.275 62.532 401.717 61.354C400.501 60.366 399.969 58.466 400.083 56.908C400.197 55.046 400.995 53.26 401.147 51.398C399.209 50.068 397.309 48.624 395.713 46.914C394.915 46.04 394.231 45.09 393.737 44.026C392.977 42.468 392.597 40.644 392.749 38.896C392.825 37.908 393.091 36.882 393.661 36.084C394.269 35.248 395.295 34.754 396.283 34.526C397.271 34.298 398.411 34.488 399.323 34.982C400.159 35.4 400.843 36.084 401.375 36.844C403.047 39.124 403.237 42.278 404.833 44.596C404.871 44.634 405.061 44.672 405.099 44.71C405.479 44.786 405.935 44.596 406.201 44.292C406.505 43.988 406.771 43.57 406.999 43.152C408.139 41.024 408.329 38.478 409.621 36.426C409.925 35.932 410.343 35.476 410.837 35.172C411.255 34.906 411.749 34.792 412.243 34.678C412.661 34.564 413.079 34.45 413.535 34.412C416.081 33.994 418.019 36.274 418.323 38.858C418.475 39.884 418.437 40.986 418.133 41.974C417.905 42.772 417.487 43.532 417.183 44.292C416.385 46.23 415.093 47.978 413.497 49.346C412.167 50.448 410.609 51.36 408.975 51.778C409.545 53.944 409.963 56.338 409.431 58.542C409.165 59.53 408.671 60.632 407.835 61.278Z" fill="#D9E3EA"/>
<path d="M152.539 122.68C151.239 123.2 149.499 122.88 148.879 121.62C148.399 120.62 148.339 119.4 148.439 118.28C148.539 116.96 148.799 115.64 149.059 114.32C148.559 114.28 148.019 114.12 147.599 113.8C147.359 113.62 147.139 113.36 147.019 113.08C146.679 112.3 146.679 111.38 147.019 110.58C147.179 110.2 147.439 109.84 147.759 109.58C148.139 109.28 148.599 109.1 149.039 108.96C149.599 108.78 150.179 108.64 150.739 108.54C151.279 108.44 151.839 108.4 152.339 108.6C152.739 108.76 153.099 109.08 153.299 109.46C153.599 110.02 153.719 110.68 153.759 111.3C153.819 112 153.819 112.7 153.879 113.4C153.939 114.28 154.019 115.18 154.159 116.06C154.319 117.1 154.539 118.14 154.539 119.2C154.539 119.98 154.399 120.82 153.979 121.48C153.639 122 153.119 122.44 152.539 122.68ZM157.992 125.32C157.852 125.36 157.672 125.24 157.712 125.08C157.712 125 157.932 124.66 157.952 124.58C158.072 124.32 158.152 124 158.132 123.7C158.132 123.62 158.112 123.5 158.032 123.5C157.552 123.48 157.032 123.48 156.592 123.28C155.772 122.86 155.852 121.78 156.352 121C156.492 120.78 156.672 120.58 156.892 120.46C157.932 119.86 159.332 120.12 159.772 121.24C159.952 121.68 159.952 122.2 159.872 122.66C159.692 123.54 159.132 124.36 158.452 124.96C158.372 125.02 158.092 125.28 157.992 125.32ZM169.041 123.54C168.481 123.58 167.921 123.5 167.361 123.4C166.181 123.22 164.981 122.92 163.901 122.4C163.241 122.08 162.641 121.58 162.201 120.98C161.681 120.28 161.341 119.44 161.161 118.58C160.801 116.92 160.961 115.12 161.481 113.5C161.901 112.24 162.661 111.06 163.601 110.16C164.201 109.58 164.961 109.16 165.721 108.84C166.361 108.56 167.081 108.4 167.781 108.38C167.821 108.38 168.121 108.38 168.181 108.38C169.481 108.32 170.841 108.6 172.001 109.2C173.301 109.88 174.441 111.04 175.081 112.36C175.421 113.06 175.621 113.84 175.701 114.62C175.901 116.42 175.601 118.34 174.781 119.94C174.301 120.92 173.521 121.74 172.641 122.36C171.621 123.1 170.301 123.46 169.041 123.54ZM167.241 118.7C167.621 118.86 168.081 118.88 168.481 118.78C169.061 118.62 169.581 118.22 169.941 117.74C171.021 116.36 171.181 113.98 169.981 112.7C169.401 112.08 168.521 111.9 167.721 112.26C166.201 112.98 165.401 115.22 165.841 116.86C165.961 117.32 166.161 117.78 166.481 118.14C166.701 118.36 166.941 118.58 167.241 118.7ZM185.506 123.54C184.946 123.58 184.386 123.5 183.826 123.4C182.646 123.22 181.446 122.92 180.366 122.4C179.706 122.08 179.106 121.58 178.666 120.98C178.146 120.28 177.806 119.44 177.626 118.58C177.266 116.92 177.426 115.12 177.946 113.5C178.366 112.24 179.126 111.06 180.066 110.16C180.666 109.58 181.426 109.16 182.186 108.84C182.826 108.56 183.546 108.4 184.246 108.38C184.286 108.38 184.586 108.38 184.646 108.38C185.946 108.32 187.306 108.6 188.466 109.2C189.766 109.88 190.906 111.04 191.546 112.36C191.886 113.06 192.086 113.84 192.166 114.62C192.366 116.42 192.066 118.34 191.246 119.94C190.766 120.92 189.986 121.74 189.106 122.36C188.086 123.1 186.766 123.46 185.506 123.54ZM183.706 118.7C184.086 118.86 184.546 118.88 184.946 118.78C185.526 118.62 186.046 118.22 186.406 117.74C187.486 116.36 187.646 113.98 186.446 112.7C185.866 112.08 184.986 111.9 184.186 112.26C182.666 112.98 181.866 115.22 182.306 116.86C182.426 117.32 182.626 117.78 182.946 118.14C183.166 118.36 183.406 118.58 183.706 118.7ZM201.971 123.54C201.411 123.58 200.851 123.5 200.291 123.4C199.111 123.22 197.911 122.92 196.831 122.4C196.171 122.08 195.571 121.58 195.131 120.98C194.611 120.28 194.271 119.44 194.091 118.58C193.731 116.92 193.891 115.12 194.411 113.5C194.831 112.24 195.591 111.06 196.531 110.16C197.131 109.58 197.891 109.16 198.651 108.84C199.291 108.56 200.011 108.4 200.711 108.38C200.751 108.38 201.051 108.38 201.111 108.38C202.411 108.32 203.771 108.6 204.931 109.2C206.231 109.88 207.371 111.04 208.011 112.36C208.351 113.06 208.551 113.84 208.631 114.62C208.831 116.42 208.531 118.34 207.711 119.94C207.231 120.92 206.451 121.74 205.571 122.36C204.551 123.1 203.231 123.46 201.971 123.54ZM200.171 118.7C200.551 118.86 201.011 118.88 201.411 118.78C201.991 118.62 202.511 118.22 202.871 117.74C203.951 116.36 204.111 113.98 202.911 112.7C202.331 112.08 201.451 111.9 200.651 112.26C199.131 112.98 198.331 115.22 198.771 116.86C198.891 117.32 199.091 117.78 199.411 118.14C199.631 118.36 199.871 118.58 200.171 118.7ZM211.371 125.32C211.231 125.36 211.051 125.24 211.091 125.08C211.091 125 211.311 124.66 211.331 124.58C211.451 124.32 211.531 124 211.511 123.7C211.511 123.62 211.491 123.5 211.411 123.5C210.931 123.48 210.411 123.48 209.971 123.28C209.151 122.86 209.231 121.78 209.731 121C209.871 120.78 210.051 120.58 210.271 120.46C211.311 119.86 212.711 120.12 213.151 121.24C213.331 121.68 213.331 122.2 213.251 122.66C213.071 123.54 212.511 124.36 211.831 124.96C211.751 125.02 211.471 125.28 211.371 125.32ZM222.42 123.54C221.86 123.58 221.3 123.5 220.74 123.4C219.56 123.22 218.36 122.92 217.28 122.4C216.62 122.08 216.02 121.58 215.58 120.98C215.06 120.28 214.72 119.44 214.54 118.58C214.18 116.92 214.34 115.12 214.86 113.5C215.28 112.24 216.04 111.06 216.98 110.16C217.58 109.58 218.34 109.16 219.1 108.84C219.74 108.56 220.46 108.4 221.16 108.38C221.2 108.38 221.5 108.38 221.56 108.38C222.86 108.32 224.22 108.6 225.38 109.2C226.68 109.88 227.82 111.04 228.46 112.36C228.8 113.06 229 113.84 229.08 114.62C229.28 116.42 228.98 118.34 228.16 119.94C227.68 120.92 226.9 121.74 226.02 122.36C225 123.1 223.68 123.46 222.42 123.54ZM220.62 118.7C221 118.86 221.46 118.88 221.86 118.78C222.44 118.62 222.96 118.22 223.32 117.74C224.4 116.36 224.56 113.98 223.36 112.7C222.78 112.08 221.9 111.9 221.1 112.26C219.58 112.98 218.78 115.22 219.22 116.86C219.34 117.32 219.54 117.78 219.86 118.14C220.08 118.36 220.32 118.58 220.62 118.7ZM238.885 123.54C238.325 123.58 237.765 123.5 237.205 123.4C236.025 123.22 234.825 122.92 233.745 122.4C233.085 122.08 232.485 121.58 232.045 120.98C231.525 120.28 231.185 119.44 231.005 118.58C230.645 116.92 230.805 115.12 231.325 113.5C231.745 112.24 232.505 111.06 233.445 110.16C234.045 109.58 234.805 109.16 235.565 108.84C236.205 108.56 236.925 108.4 237.625 108.38C237.665 108.38 237.965 108.38 238.025 108.38C239.325 108.32 240.685 108.6 241.845 109.2C243.145 109.88 244.285 111.04 244.925 112.36C245.265 113.06 245.465 113.84 245.545 114.62C245.745 116.42 245.445 118.34 244.625 119.94C244.145 120.92 243.365 121.74 242.485 122.36C241.465 123.1 240.145 123.46 238.885 123.54ZM237.085 118.7C237.465 118.86 237.925 118.88 238.325 118.78C238.905 118.62 239.425 118.22 239.785 117.74C240.865 116.36 241.025 113.98 239.825 112.7C239.245 112.08 238.365 111.9 237.565 112.26C236.045 112.98 235.245 115.22 235.685 116.86C235.805 117.32 236.005 117.78 236.325 118.14C236.545 118.36 236.785 118.58 237.085 118.7ZM255.35 123.54C254.79 123.58 254.23 123.5 253.67 123.4C252.49 123.22 251.29 122.92 250.21 122.4C249.55 122.08 248.95 121.58 248.51 120.98C247.99 120.28 247.65 119.44 247.47 118.58C247.11 116.92 247.27 115.12 247.79 113.5C248.21 112.24 248.97 111.06 249.91 110.16C250.51 109.58 251.27 109.16 252.03 108.84C252.67 108.56 253.39 108.4 254.09 108.38C254.13 108.38 254.43 108.38 254.49 108.38C255.79 108.32 257.15 108.6 258.31 109.2C259.61 109.88 260.75 111.04 261.39 112.36C261.73 113.06 261.93 113.84 262.01 114.62C262.21 116.42 261.91 118.34 261.09 119.94C260.61 120.92 259.83 121.74 258.95 122.36C257.93 123.1 256.61 123.46 255.35 123.54ZM253.55 118.7C253.93 118.86 254.39 118.88 254.79 118.78C255.37 118.62 255.89 118.22 256.25 117.74C257.33 116.36 257.49 113.98 256.29 112.7C255.71 112.08 254.83 111.9 254.03 112.26C252.51 112.98 251.71 115.22 252.15 116.86C252.27 117.32 252.47 117.78 252.79 118.14C253.01 118.36 253.25 118.58 253.55 118.7ZM264.75 125.32C264.61 125.36 264.43 125.24 264.47 125.08C264.47 125 264.69 124.66 264.71 124.58C264.83 124.32 264.91 124 264.89 123.7C264.89 123.62 264.87 123.5 264.79 123.5C264.31 123.48 263.79 123.48 263.35 123.28C262.53 122.86 262.61 121.78 263.11 121C263.25 120.78 263.43 120.58 263.65 120.46C264.69 119.86 266.09 120.12 266.53 121.24C266.71 121.68 266.71 122.2 266.63 122.66C266.45 123.54 265.89 124.36 265.21 124.96C265.13 125.02 264.85 125.28 264.75 125.32ZM275.799 123.54C275.239 123.58 274.679 123.5 274.119 123.4C272.939 123.22 271.739 122.92 270.659 122.4C269.999 122.08 269.399 121.58 268.959 120.98C268.439 120.28 268.099 119.44 267.919 118.58C267.559 116.92 267.719 115.12 268.239 113.5C268.659 112.24 269.419 111.06 270.359 110.16C270.959 109.58 271.719 109.16 272.479 108.84C273.119 108.56 273.839 108.4 274.539 108.38C274.579 108.38 274.879 108.38 274.939 108.38C276.239 108.32 277.599 108.6 278.759 109.2C280.059 109.88 281.199 111.04 281.839 112.36C282.179 113.06 282.379 113.84 282.459 114.62C282.659 116.42 282.359 118.34 281.539 119.94C281.059 120.92 280.279 121.74 279.399 122.36C278.379 123.1 277.059 123.46 275.799 123.54ZM273.999 118.7C274.379 118.86 274.839 118.88 275.239 118.78C275.819 118.62 276.339 118.22 276.699 117.74C277.779 116.36 277.939 113.98 276.739 112.7C276.159 112.08 275.279 111.9 274.479 112.26C272.959 112.98 272.159 115.22 272.599 116.86C272.719 117.32 272.919 117.78 273.239 118.14C273.459 118.36 273.699 118.58 273.999 118.7ZM292.264 123.54C291.704 123.58 291.144 123.5 290.584 123.4C289.404 123.22 288.204 122.92 287.124 122.4C286.464 122.08 285.864 121.58 285.424 120.98C284.904 120.28 284.564 119.44 284.384 118.58C284.024 116.92 284.184 115.12 284.704 113.5C285.124 112.24 285.884 111.06 286.824 110.16C287.424 109.58 288.184 109.16 288.944 108.84C289.584 108.56 290.304 108.4 291.004 108.38C291.044 108.38 291.344 108.38 291.404 108.38C292.704 108.32 294.064 108.6 295.224 109.2C296.524 109.88 297.664 111.04 298.304 112.36C298.644 113.06 298.844 113.84 298.924 114.62C299.124 116.42 298.824 118.34 298.004 119.94C297.524 120.92 296.744 121.74 295.864 122.36C294.844 123.1 293.524 123.46 292.264 123.54ZM290.464 118.7C290.844 118.86 291.304 118.88 291.704 118.78C292.284 118.62 292.804 118.22 293.164 117.74C294.244 116.36 294.404 113.98 293.204 112.7C292.624 112.08 291.744 111.9 290.944 112.26C289.424 112.98 288.624 115.22 289.064 116.86C289.184 117.32 289.384 117.78 289.704 118.14C289.924 118.36 290.164 118.58 290.464 118.7ZM308.729 123.54C308.169 123.58 307.609 123.5 307.049 123.4C305.869 123.22 304.669 122.92 303.589 122.4C302.929 122.08 302.329 121.58 301.889 120.98C301.369 120.28 301.029 119.44 300.849 118.58C300.489 116.92 300.649 115.12 301.169 113.5C301.589 112.24 302.349 111.06 303.289 110.16C303.889 109.58 304.649 109.16 305.409 108.84C306.049 108.56 306.769 108.4 307.469 108.38C307.509 108.38 307.809 108.38 307.869 108.38C309.169 108.32 310.529 108.6 311.689 109.2C312.989 109.88 314.129 111.04 314.769 112.36C315.109 113.06 315.309 113.84 315.389 114.62C315.589 116.42 315.289 118.34 314.469 119.94C313.989 120.92 313.209 121.74 312.329 122.36C311.309 123.1 309.989 123.46 308.729 123.54ZM306.929 118.7C307.309 118.86 307.769 118.88 308.169 118.78C308.749 118.62 309.269 118.22 309.629 117.74C310.709 116.36 310.869 113.98 309.669 112.7C309.089 112.08 308.209 111.9 307.409 112.26C305.889 112.98 305.089 115.22 305.529 116.86C305.649 117.32 305.849 117.78 306.169 118.14C306.389 118.36 306.629 118.58 306.929 118.7ZM328.833 125.3C328.253 125.56 327.253 125.32 326.833 124.84C326.713 124.7 326.653 124.5 326.633 124.34C326.593 123.96 326.673 123.58 326.773 123.2C326.173 123.22 325.553 123.18 324.953 123.04C324.453 122.94 323.993 122.68 323.573 122.36C322.993 121.94 322.473 121.34 322.273 120.64C321.933 119.5 322.293 118.04 323.393 117.64C324.013 117.4 324.733 117.52 325.353 117.72C325.513 117.78 326.453 118.18 326.613 118.22C326.873 118.28 327.153 118.32 327.393 118.22C327.533 118.16 327.573 118 327.473 117.88C327.353 117.78 326.773 117.56 326.613 117.5C325.733 117.18 324.793 116.92 323.973 116.42C323.453 116.1 323.033 115.54 322.813 114.94C322.553 114.22 322.473 113.4 322.593 112.64C322.713 111.98 323.033 111.32 323.453 110.78C323.633 110.58 323.773 110.34 323.973 110.14C324.713 109.36 325.753 108.74 326.833 108.56C326.673 108.14 326.533 107.64 326.693 107.2C326.893 106.68 327.753 106.24 328.313 106.26C328.613 106.26 328.933 106.38 329.153 106.58C329.373 106.8 329.493 107.12 329.533 107.42C329.573 107.78 329.553 108.16 329.473 108.52C330.073 108.6 330.673 108.8 331.173 109.12C331.513 109.36 331.833 109.66 332.073 110C332.713 110.86 333.133 112.28 332.353 113.02C331.893 113.46 331.273 113.76 330.633 113.8C329.733 113.86 328.833 113.54 327.953 113.7C327.773 113.74 327.433 113.82 327.393 113.98C327.353 114.1 327.513 114.28 327.613 114.36C327.853 114.54 329.113 115.16 329.373 115.3C330.293 115.76 331.233 116.3 331.873 117.1C332.333 117.68 332.613 118.46 332.573 119.2C332.533 120.22 332.093 121.18 331.333 121.88C330.813 122.36 330.133 122.66 329.453 122.86C329.573 123.3 329.653 123.78 329.613 124.24C329.553 124.72 329.273 125.1 328.833 125.3ZM345.196 122.8C344.796 122.98 344.316 123 343.896 122.92C343.376 122.82 342.876 122.52 342.456 122.2C341.816 121.7 341.296 121.06 340.796 120.42C340.076 119.5 339.496 118.46 338.976 117.42C338.936 118.68 338.916 119.96 338.636 121.2C338.516 121.7 338.316 122.24 337.956 122.6C337.756 122.78 337.516 122.9 337.256 122.94C336.016 123.16 335.096 121.88 334.836 120.64C334.636 119.66 334.696 118.64 334.656 117.62C334.636 116.9 334.696 112.88 334.736 112.16C334.776 111.44 334.876 110.72 335.156 110.08C335.396 109.52 335.776 108.98 336.316 108.68C336.816 108.42 337.516 108.4 338.036 108.64C338.656 108.9 339.176 109.36 339.576 109.9C340.316 110.84 340.896 111.9 341.456 112.96C341.856 113.74 342.256 114.5 342.636 115.28C342.596 114.1 342.636 112.92 342.776 111.76C342.836 111.16 342.996 110.58 343.236 110.04C343.436 109.6 343.736 109.16 344.116 108.88C344.516 108.56 345.116 108.4 345.616 108.54C345.936 108.64 346.216 108.86 346.436 109.12C347.036 109.88 347.316 110.88 347.436 111.84C347.716 113.86 347.636 115.94 347.416 117.98C347.316 119 347.196 120.06 346.816 121C346.496 121.74 345.936 122.46 345.196 122.8ZM356.24 123.18C355.18 123.28 354.08 123.12 353.08 122.78C351.9 122.38 350.84 121.46 350.16 120.42C349.88 119.98 349.6 119.52 349.44 119.02C349.02 117.78 349.02 116.42 349.16 115.14C349.32 113.7 349.96 112.28 350.82 111.08C351.42 110.26 352.2 109.5 353.1 108.98C353.92 108.48 354.92 108.22 355.88 108.22C356.82 108.24 357.76 108.4 358.64 108.68C359.52 108.98 360.28 109.7 360.82 110.46C361.24 111.04 361.52 111.76 361.68 112.48C361.92 113.5 361.98 114.54 361.96 115.58C361.92 117.16 361.5 118.8 360.68 120.14C360.2 120.98 359.52 121.76 358.7 122.28C357.98 122.76 357.12 123.08 356.24 123.18ZM355.34 118.3C356 118.66 356.72 118.14 357.08 117.5C357.6 116.62 357.76 115.5 357.6 114.5C357.52 114.02 357.36 113.54 357.06 113.14C356.9 112.92 356.64 112.7 356.36 112.64C356.08 112.56 355.76 112.64 355.52 112.82C354.38 113.58 354.06 115.76 354.48 117.06C354.64 117.54 354.9 118.06 355.34 118.3ZM367.761 122.9C367.141 123.14 366.361 123.12 365.741 122.84C365.081 122.54 364.541 121.96 364.181 121.36C363.661 120.48 363.501 119.38 363.441 118.36C363.381 117.04 363.481 115.7 363.661 114.38C363.801 113.22 364.001 112.08 364.341 110.98C364.381 110.88 364.481 110.52 364.581 110.44C364.721 110.08 365.001 109.76 365.321 109.5C365.881 109.04 366.541 108.68 367.241 108.52C368.561 108.24 369.961 108.2 371.281 108.46C372.721 108.74 374.241 109.42 375.181 110.58C375.621 111.12 375.941 111.78 376.061 112.46C376.181 113.22 376.021 114.04 375.661 114.7C375.421 115.18 375.081 115.64 374.661 116C374.261 116.36 373.781 116.62 373.321 116.88C374.061 117.56 374.981 117.96 375.821 118.5C376.161 118.72 376.461 119.04 376.641 119.42C377.141 120.48 376.581 121.88 375.541 122.44C375.121 122.68 374.561 122.74 374.081 122.68C373.421 122.6 372.801 122.28 372.241 121.92C371.001 121.08 370.101 119.78 369.321 118.52C369.481 119.34 369.501 120.22 369.301 121.02C369.161 121.52 368.941 122 368.581 122.36C368.361 122.6 368.081 122.78 367.761 122.9ZM369.861 114.74C370.401 114.96 371.261 114.7 371.621 114.24C371.801 114 371.881 113.66 371.821 113.38C371.721 112.88 371.261 112.48 370.821 112.26C370.581 112.16 370.301 112.08 370.041 112.14C369.341 112.34 369.061 113.36 369.141 114.1C369.321 114.36 369.561 114.62 369.861 114.74ZM379.968 123.2C378.948 123.38 378.288 122.3 378.088 121.3C377.988 120.76 377.948 120.22 377.968 119.68C378.048 118.04 378.368 116.4 378.768 114.8C378.948 114.02 379.148 113.26 379.408 112.5C379.548 112.06 380.308 109.96 380.548 109.56C380.568 109.52 380.648 109.5 380.668 109.46C380.848 109.22 381.048 108.98 381.288 108.8C381.728 108.48 382.288 108.28 382.828 108.26C382.908 108.26 383.168 108.22 383.228 108.26C383.268 108.3 383.508 108.32 383.568 108.34C383.768 108.4 383.968 108.54 384.128 108.68C384.388 108.96 384.568 109.32 384.748 109.68C385.168 110.56 385.468 111.48 385.728 112.42C386.008 113.36 386.248 114.3 386.488 115.24C386.528 115.14 386.788 114.52 386.848 114.42C387.468 112.96 388.168 111.54 389.008 110.2C389.588 109.28 390.888 108.3 391.908 108.68C393.408 109.2 393.988 112.52 394.268 114.08C394.328 114.44 394.728 116.64 394.788 117C394.988 118.16 395.128 119.34 395.008 120.5C394.948 121.24 394.708 122.06 394.168 122.6C393.808 122.94 393.168 123.12 392.688 122.96C392.208 122.78 391.808 122.34 391.568 121.88C390.788 120.44 390.388 118.78 389.968 117.18C389.688 117.86 389.388 118.52 389.068 119.18C388.688 119.96 388.268 120.72 387.688 121.36C387.428 121.62 387.108 121.84 386.748 121.92C386.488 121.98 386.208 121.94 385.948 121.84C385.588 121.66 385.248 121.36 385.008 121.02C384.248 119.94 383.828 118.64 383.388 117.38C383.048 118.5 382.708 119.64 382.268 120.72C381.908 121.58 381.328 122.4 380.568 122.92C380.388 123.06 380.188 123.16 379.968 123.2ZM402.347 122.98C401.567 123.02 400.807 123.08 400.027 123.06C399.327 123.04 398.607 123 397.927 122.78C397.567 122.66 397.207 122.46 396.967 122.16C396.727 121.86 396.607 121.48 396.587 121.1C396.567 120.26 396.987 118.92 397.787 118.64C398.327 118.44 398.947 118.42 399.527 118.46C399.327 116.84 399.347 115.18 399.567 113.58C398.907 113.74 398.107 113.7 397.527 113.36C397.167 113.14 396.887 112.82 396.687 112.46C396.287 111.8 396.207 110.9 396.407 110.14C396.607 109.44 397.147 108.76 397.807 108.48C398.507 108.2 399.307 108.22 400.047 108.26C400.187 108.26 401.047 108.16 401.187 108.16C401.547 108.14 403.607 108.14 403.947 108.16C404.667 108.18 405.467 108.28 406.047 108.68C406.327 108.88 406.547 109.14 406.707 109.42C407.427 110.74 406.927 112.6 405.687 113.44C405.347 113.68 404.907 113.78 404.487 113.82C404.707 115.16 404.707 116.56 404.467 117.92C404.907 117.94 405.347 118 405.747 118.18C406.047 118.32 406.347 118.54 406.547 118.82C407.007 119.42 407.247 120.26 407.167 121.02C407.107 121.6 406.767 122.2 406.307 122.52C405.847 122.84 405.247 122.94 404.687 122.98C403.907 123.02 403.127 122.92 402.347 122.98ZM416.517 123.04C415.217 123.1 413.917 123.1 412.637 122.88C411.817 122.74 410.997 122.42 410.377 121.88C409.437 121.06 408.817 119.8 408.637 118.54C408.417 117.22 408.477 115.84 408.677 114.5C408.837 113.3 409.097 112.1 409.637 111.02C409.977 110.38 410.437 109.78 410.977 109.28C411.297 108.98 411.657 108.72 412.077 108.58C412.537 108.4 413.057 108.42 413.537 108.32C414.297 108.18 415.077 108.18 415.837 108.14C417.037 108.06 418.317 108.1 419.377 108.64C419.637 108.78 419.877 109 420.057 109.26C420.257 109.58 420.357 109.96 420.377 110.36C420.457 111.56 419.657 112.74 418.457 112.72C418.117 112.72 417.757 112.64 417.437 112.54C416.817 112.38 416.197 112.18 415.557 112.1C415.037 112.06 414.457 112.12 414.037 112.44C413.857 112.58 413.717 112.82 413.717 113.06C413.737 113.26 413.957 113.26 414.157 113.24C414.777 113.16 415.357 112.94 415.977 112.88C416.357 112.84 416.757 112.82 417.117 112.94C417.437 113.08 417.737 113.34 417.877 113.66C418.057 114.1 418.117 114.58 418.077 115.04C418.057 115.48 417.937 115.96 417.657 116.3C417.477 116.54 417.237 116.72 416.957 116.84C416.657 116.96 416.337 116.98 415.997 117C415.497 117.02 414.057 116.8 413.697 117.16C413.317 117.52 413.817 118.08 414.337 118.2C414.857 118.3 415.417 118.16 415.937 118.04C416.697 117.88 417.497 117.68 418.257 117.82C418.857 117.9 419.477 118.24 419.797 118.72C420.057 119.12 420.117 119.66 420.017 120.12C419.837 121 419.357 121.9 418.657 122.46C418.077 122.92 417.257 123.02 416.517 123.04Z" fill="#D9E3EA"/>
</svg>
